<?xml version="1.0" encoding="utf-8"?>
<!-- Generator: Adobe Illustrator 23.0.4, SVG Export Plug-In . SVG Version: 6.00 Build 0)  -->
<svg version="1.1" id="Layer_1" xmlns="http://www.w3.org/2000/svg" xmlns:xlink="http://www.w3.org/1999/xlink" x="0px" y="0px"
	 viewBox="0 0 1920 1080" style="enable-background:new 0 0 1920 1080;" xml:space="preserve">
<style type="text/css">
	.st0{fill:url(#SVGID_1_);}
	.st1{opacity:9.962587e-02;}
	.st2{fill:#FFFFFF;}
</style>
<linearGradient id="SVGID_1_" gradientUnits="userSpaceOnUse" x1="0" y1="540" x2="1920" y2="540">
	<stop  offset="0" style="stop-color:#2A558C"/>
	<stop  offset="1" style="stop-color:#2B448C"/>
</linearGradient>
<rect class="st0" width="1920" height="1080"/>
<g id="stars" class="st1">
	<path class="st2" d="M156.1,289.7c0.5,0,0.8-0.4,0.8-0.8s-0.4-0.8-0.8-0.8s-0.8,0.4-0.8,0.8S155.7,289.7,156.1,289.7z"/>
	<path class="st2" d="M311.9,282.5c0.5,0,0.8-0.4,0.8-0.8c0-0.5-0.4-0.8-0.8-0.8s-0.8,0.4-0.8,0.8
		C311,282.1,311.4,282.5,311.9,282.5z"/>
	<path class="st2" d="M100.5,137.8c0.5,0,0.8-0.4,0.8-0.8c0-0.5-0.4-0.8-0.8-0.8l0,0c-0.5,0-0.8,0.4-0.8,0.8
		C99.7,137.4,100.1,137.8,100.5,137.8z"/>
	<path class="st2" d="M337.3,85.5c0.5,0,0.8-0.4,0.8-0.8c0-0.5-0.4-0.8-0.8-0.8s-0.8,0.4-0.8,0.8C336.4,85.2,336.8,85.5,337.3,85.5z
		"/>
	<path class="st2" d="M664.6,224.6c0.5,0,0.8-0.4,0.8-0.8s-0.4-0.8-0.8-0.8s-0.8,0.4-0.8,0.8S664.1,224.6,664.6,224.6z"/>
	<path class="st2" d="M454.1,169.9c0.5,0,0.8-0.4,0.8-0.8s-0.4-0.8-0.8-0.8c-0.5,0-0.8,0.4-0.8,0.8S453.6,169.9,454.1,169.9z"/>
	<path class="st2" d="M562.9,119.3c0.5,0,0.8-0.4,0.8-0.8c0-0.5-0.4-0.8-0.8-0.8s-0.8,0.4-0.8,0.8
		C562.1,118.9,562.4,119.3,562.9,119.3z"/>
	<path class="st2" d="M575.6,231c0.5,0,0.8-0.4,0.8-0.8s-0.4-0.8-0.8-0.8s-0.8,0.4-0.8,0.8S575.2,231,575.6,231z"/>
	<path class="st2" d="M800.4,321.8c0.5,0,0.8-0.4,0.8-0.8s-0.4-0.8-0.8-0.8s-0.8,0.4-0.8,0.8S800,321.8,800.4,321.8z"/>
	<path class="st2" d="M854.5,182.8c0.5,0,0.8-0.4,0.8-0.8c0-0.5-0.4-0.8-0.8-0.8s-0.8,0.4-0.8,0.8
		C853.6,182.4,854,182.8,854.5,182.8z"/>
	<path class="st2" d="M906.9,87.1c0.5,0,0.8-0.4,0.8-0.8c0-0.5-0.4-0.8-0.8-0.8s-0.8,0.4-0.8,0.8C906.1,86.8,906.5,87.1,906.9,87.1z
		"/>
	<path class="st2" d="M552.6,454.5c0.5,0,0.8-0.4,0.8-0.8s-0.4-0.8-0.8-0.8s-0.8,0.4-0.8,0.8S552.1,454.5,552.6,454.5z"/>
	<path class="st2" d="M276.1,547.7c0.5,0,0.8-0.4,0.8-0.8c0-0.5-0.4-0.8-0.8-0.8s-0.8,0.4-0.8,0.8
		C275.3,547.3,275.6,547.7,276.1,547.7z"/>
	<path class="st2" d="M123.6,503.5c0.5,0,0.8-0.4,0.8-0.8s-0.4-0.8-0.8-0.8s-0.8,0.4-0.8,0.8S123.1,503.5,123.6,503.5z"/>
	<path class="st2" d="M619.3,560.6c0.5,0,0.8-0.4,0.8-0.8c0-0.5-0.4-0.8-0.8-0.8c-0.5,0-0.8,0.4-0.8,0.8
		C618.5,560.2,618.9,560.6,619.3,560.6z"/>
	<path class="st2" d="M915.6,465.7c0.5,0,0.8-0.4,0.8-0.8s-0.4-0.8-0.8-0.8c-0.5,0-0.8,0.4-0.8,0.8S915.2,465.7,915.6,465.7z"/>
	<path class="st2" d="M818.7,547.7c0.5,0,0.8-0.4,0.8-0.8c0-0.5-0.4-0.8-0.8-0.8s-0.8,0.4-0.8,0.8
		C817.9,547.3,818.3,547.7,818.7,547.7z"/>
	<path class="st2" d="M646.3,309.8c0.5,0,0.8-0.4,0.8-0.8s-0.4-0.8-0.8-0.8s-0.8,0.4-0.8,0.8S645.9,309.8,646.3,309.8z"/>
	<path class="st2" d="M251.5,141.8c0.5,0,0.8-0.4,0.8-0.8s-0.4-0.8-0.8-0.8s-0.8,0.4-0.8,0.8S251,141.8,251.5,141.8z"/>
	<path class="st2" d="M114,30.9c0.5,0,0.8-0.4,0.8-0.8s-0.4-0.8-0.8-0.8c-0.5,0-0.8,0.4-0.8,0.8S113.6,30.9,114,30.9z"/>
	<path class="st2" d="M14.7,301.7c0.5,0,0.8-0.4,0.8-0.8c0-0.5-0.4-0.8-0.8-0.8s-0.8,0.4-0.8,0.8C13.9,301.4,14.3,301.7,14.7,301.7z
		"/>
	<path class="st2" d="M431.8,396.6c0.5,0,0.8-0.4,0.8-0.8c0-0.5-0.4-0.8-0.8-0.8c-0.5,0-0.8,0.4-0.8,0.8
		C431,396.2,431.4,396.6,431.8,396.6z"/>
	<path class="st2" d="M494.6,282.5c0.5,0,0.8-0.4,0.8-0.8c0-0.5-0.4-0.8-0.8-0.8l0,0c-0.5,0-0.8,0.4-0.8,0.8
		C493.8,282.1,494.1,282.5,494.6,282.5z"/>
	<path class="st2" d="M257,411.1c0.5,0,0.8-0.4,0.8-0.8s-0.4-0.8-0.8-0.8s-0.8,0.4-0.8,0.8S256.6,411.1,257,411.1L257,411.1z"/>
	<path class="st2" d="M25.8,564.6c0.5,0,0.8-0.4,0.8-0.8c0-0.5-0.4-0.8-0.8-0.8c-0.5,0-0.8,0.4-0.8,0.8
		C25,564.2,25.4,564.6,25.8,564.6z"/>
	<path class="st2" d="M728.2,113.7c3.2,0,3.2-5,0-5C725,108.7,725,113.7,728.2,113.7z"/>
	<path class="st2" d="M724.2,423.2c3.2,0,3.2-5,0-5C721,418.2,721,423.2,724.2,423.2z"/>
	<path class="st2" d="M255.4,477c3.2,0,3.2-5,0-5C252.3,472,252.3,477,255.4,477z"/>
	<path class="st2" d="M182.4,211.8c3.2,0,3.2-5,0-5C179.2,206.8,179.2,211.8,182.4,211.8z"/>
	<path class="st2" d="M40.1,77.6c3.2,0,3.2-5,0-5S37,77.6,40.1,77.6z"/>
	<path class="st2" d="M93.4,430.4c3.2,0,3.2-5,0-5S90.2,430.4,93.4,430.4z"/>
	<path class="st2" d="M385.7,245.5c3.2,0,3.2-5,0-5S382.6,245.5,385.7,245.5z"/>
	<path class="st2" d="M256.2,62.3c3.2,0,3.2-5,0-5C253.1,57.3,253.1,62.3,256.2,62.3z"/>
	<path class="st2" d="M986.4,72.7c0.5,0,0.8-0.4,0.8-0.8c0-0.5-0.4-0.8-0.8-0.8l0,0c-0.5,0-0.8,0.4-0.8,0.8
		C985.5,72.3,985.9,72.7,986.4,72.7z"/>
	<path class="st2" d="M984.8,309c0.5,0,0.8-0.4,0.8-0.8s-0.4-0.8-0.8-0.8s-0.8,0.4-0.8,0.8S984.3,309,984.8,309z"/>
	<path class="st2" d="M982.4,579c0.5,0,0.8-0.4,0.8-0.8c0-0.5-0.4-0.8-0.8-0.8c-0.5,0-0.8,0.4-0.8,0.8
		C981.6,578.7,982,579,982.4,579z"/>
	<path class="st2" d="M981.6,169.2c3.2,0,3.2-5,0-5C978.4,164.2,978.4,169.2,981.6,169.2z"/>
	<path class="st2" d="M922,553.4c3.2,0,3.2-5,0-5S918.8,553.4,922,553.4z"/>
	<path class="st2" d="M483.5,570.3c3.2,0,3.2-5,0-5C480.3,565.3,480.3,570.3,483.5,570.3z"/>
	<path class="st2" d="M489,59.9c3.2,0,3.2-5,0-5C485.9,54.9,485.9,59.9,489,59.9z"/>
	<path class="st2" d="M836.2,256.9c6.3,0,6.4-10,0-10C829.8,246.9,829.8,256.9,836.2,256.9z"/>
	<path class="st2" d="M17.1,215.1c6.3,0,6.4-10,0-10S10.7,215.1,17.1,215.1z"/>
	<path class="st2" d="M417.5,130.7c6.3,0,6.4-10,0-10C411.2,120.7,411.2,130.7,417.5,130.7z"/>
	<path class="st2" d="M383.4,461.8c6.4,0,6.4-10,0-10C377,451.9,377,461.8,383.4,461.8z"/>
	<path class="st2" d="M675.7,281.8c6.3,0,6.4-10,0-10C669.4,271.8,669.4,281.8,675.7,281.8z"/>
	<path class="st2" d="M970.1,135.9c6.3,0,6.4-10,0-10C963.7,126,963.7,135.9,970.1,135.9z"/>
	<path class="st2" d="M230.8,328.4c6.3,0,6.4-10,0-10C224.5,318.4,224.5,328.4,230.8,328.4z"/>
	<path class="st2" d="M802.1,111.4c6.3,0,6.4-10,0-10S795.7,111.4,802.1,111.4z"/>
	<path class="st2" d="M612.2,31.8c6.4,0,6.4-10,0-10C605.8,21.8,605.8,31.8,612.2,31.8z"/>
	<path class="st2" d="M843.3,31.8c6.4,0,6.4-10,0-10C837,21.8,837,31.8,843.3,31.8z"/>
	<path class="st2" d="M123.6,573.6c6.3,0,6.4-10,0-10S117.2,573.6,123.6,573.6z"/>
	<path class="st2" d="M18.7,397.5c6.3,0,6.4-10,0-10S12.3,397.5,18.7,397.5z"/>
	<path class="st2" d="M742.5,536.6c8.5,0,8.5-13.3,0-13.3C734,523.3,734,536.6,742.5,536.6z"/>
	<path class="st2" d="M524.8,355.8c8.5,0,8.5-13.3,0-13.3C516.3,342.5,516.3,355.8,524.8,355.8z"/>
	<path class="st2" d="M174.4,68.1c8.5,0,8.5-13.3,0-13.3S165.9,68.1,174.4,68.1z"/>
	<path class="st2" d="M934.7,355c8.5,0,8.5-13.3,0-13.3C926.2,341.7,926.2,355,934.7,355z"/>
	<path class="st2" d="M1008.2,453.7c8.5,0,8.5-13.3,0-13.3S999.7,453.7,1008.2,453.7z"/>
	<path class="st2" d="M548.6,547.1c4.3,0,8.4-3.8,8.2-8.3c-0.2-4.5-3.6-8.3-8.2-8.3c-4.3,0-8.4,3.8-8.2,8.3
		C540.6,543.3,544,547.1,548.6,547.1z"/>
	<path class="st2" d="M624.1,148.3c4.2,0,4.2-6.7,0-6.7C619.8,141.7,619.8,148.3,624.1,148.3z"/>
	<path class="st2" d="M286.4,203c4.2,0,4.2-6.7,0-6.7S282.2,203,286.4,203z"/>
	<path class="st2" d="M13.1,123.4c4.2,0,4.2-6.7,0-6.7S8.9,123.4,13.1,123.4z"/>
	<path class="st2" d="M13.9,35.8c4.2,0,4.2-6.7,0-6.7S9.7,35.8,13.9,35.8z"/>
	<path class="st2" d="M80.6,277.7c4.2,0,4.2-6.7,0-6.7C76.4,271.1,76.4,277.7,80.6,277.7z"/>
	<path class="st2" d="M143.4,395.1c4.2,0,4.2-6.7,0-6.7S139.2,395.1,143.4,395.1z"/>
	<path class="st2" d="M120.4,203c4.2,0,4.2-6.7,0-6.7C116.1,196.3,116.1,203,120.4,203z"/>
	<path class="st2" d="M343.6,575.9c4.2,0,4.2-6.7,0-6.7S339.4,575.9,343.6,575.9z"/>
	<path class="st2" d="M399.2,320.3c4.2,0,4.2-6.7,0-6.7C395,313.7,395,320.3,399.2,320.3z"/>
	<path class="st2" d="M404.8,41.4c4.2,0,4.2-6.7,0-6.7S400.6,41.4,404.8,41.4z"/>
	<path class="st2" d="M287.2,17.3c4.2,0,4.2-6.7,0-6.7C283,10.7,283,17.3,287.2,17.3z"/>
	<path class="st2" d="M833.8,470c9.5,0,9.5-15,0-15C824.3,455,824.3,470,833.8,470z"/>
	<path class="st2" d="M626.5,422.5c9.5,0,9.5-15,0-15C616.9,407.6,616.9,422.5,626.5,422.5z"/>
	<path class="st2" d="M922.8,257.6c2.1,0,2.1-3.3,0-3.3S920.7,257.6,922.8,257.6z"/>
	<path class="st2" d="M850.5,358c2.1,0,2.1-3.3,0-3.3C848.4,354.7,848.4,358,850.5,358z"/>
	<path class="st2" d="M783.8,416.7c2.1,0,2.1-3.3,0-3.3S781.6,416.7,783.8,416.7z"/>
	<path class="st2" d="M934.7,412.7c2.1,0,2.1-3.3,0-3.3S932.6,412.7,934.7,412.7z"/>
	<path class="st2" d="M993.5,512.4c2.1,0,2.1-3.3,0-3.3S991.4,512.4,993.5,512.4z"/>
	<path class="st2" d="M505.7,206.1c2.1,0,2.1-3.3,0-3.3S503.6,206.1,505.7,206.1z"/>
	<path class="st2" d="M441.3,227.8c2.1,0,2.1-3.3,0-3.3S439.2,227.8,441.3,227.8z"/>
	<path class="st2" d="M578,290.5c2.1,0,2.1-3.3,0-3.3S575.9,290.5,578,290.5z"/>
	<path class="st2" d="M352.4,157.9c2.1,0,2.1-3.3,0-3.3S350.2,157.9,352.4,157.9z"/>
	<path class="st2" d="M364.3,357.2c2.1,0,2.1-3.3,0-3.3S362.2,357.2,364.3,357.2z"/>
	<path class="st2" d="M303.9,383c2.1,0,2.1-3.3,0-3.3S301.8,383,303.9,383z"/>
	<path class="st2" d="M30.6,498.7c2.1,0,2.1-3.3,0-3.3S28.5,498.7,30.6,498.7z"/>
	<path class="st2" d="M31.4,444.8c2.1,0,2.1-3.3,0-3.3S29.3,444.8,31.4,444.8z"/>
	<path class="st2" d="M765.5,213.4c2.1,0,2.1-3.3,0-3.3S763.4,213.4,765.5,213.4z"/>
	<path class="st2" d="M732.9,25.3c2.1,0,2.1-3.3,0-3.3S730.8,25.3,732.9,25.3z"/>
	<g id="icon:5">
		<path class="st2" d="M763.1,281.5l-6.2,1.1c-1.6,0.3-2.9,1.6-3.1,3.2l-0.9,6.5l-1.1-6.3c-0.3-1.6-1.6-2.9-3.2-3.1l-6.4-0.9
			l6.2-1.1c1.6-0.3,2.9-1.6,3.1-3.2l0.9-6.5l1.1,6.3c0.3,1.6,1.6,2.9,3.2,3.1L763.1,281.5z"/>
	</g>
	<g id="icon:5-2">
		<path class="st2" d="M879.3,119.5l-6.2,1.1c-1.6,0.3-2.9,1.6-3.1,3.2l-0.9,6.5l-1.1-6.3c-0.3-1.6-1.6-2.9-3.2-3.1l-6.4-0.9
			l6.2-1.1c1.6-0.3,2.9-1.6,3.1-3.2l0.9-6.5l1.1,6.3c0.3,1.6,1.6,2.9,3.2,3.1L879.3,119.5z"/>
	</g>
	<g id="icon:5-3">
		<path class="st2" d="M671,496.6l-6.2,1.1c-1.6,0.3-2.9,1.6-3.1,3.2l-0.9,6.5l-1.1-6.3c-0.3-1.6-1.6-2.9-3.2-3.1l-6.4-0.9l6.2-1.1
			c1.6-0.3,2.9-1.6,3.1-3.2l0.9-6.5l1.1,6.3c0.3,1.6,1.6,2.9,3.2,3.1L671,496.6z"/>
	</g>
	<g id="icon:5-4">
		<path class="st2" d="M494,266.5l-6.2,1.1c-1.6,0.3-2.9,1.6-3.1,3.2l-0.9,6.4l-1.1-6.3c-0.3-1.6-1.6-2.9-3.2-3.1l-6.4-0.9l6.2-1.1
			c1.6-0.3,2.9-1.6,3.1-3.2l0.9-6.5l1.1,6.3c0.3,1.6,1.6,2.9,3.2,3.1L494,266.5z"/>
	</g>
	<g id="icon:5-5">
		<path class="st2" d="M1007.6,266.4l-8.9,1.5c-2.3,0.4-4.1,2.2-4.4,4.6l-1.2,9.2l-1.5-9c-0.4-2.3-2.2-4.1-4.5-4.4L978,267l8.9-1.5
			c2.3-0.4,4.1-2.2,4.4-4.6l1.2-9.2l1.5,9c0.4,2.3,2.2,4.1,4.5,4.4L1007.6,266.4z"/>
	</g>
	<g id="icon:5-6">
		<path class="st2" d="M147.5,348l-6.2,1.1c-1.6,0.3-2.9,1.6-3.1,3.2l-0.9,6.4l-1.1-6.3c-0.3-1.6-1.6-2.9-3.2-3.1l-6.4-0.9l6.2-1.1
			c1.6-0.3,2.9-1.6,3.1-3.2l0.9-6.5l1.1,6.3c0.3,1.6,1.6,2.9,3.2,3.1L147.5,348z"/>
	</g>
	<g id="icon:5-7">
		<path class="st2" d="M577.8,84.6l-6.2,1.1c-1.6,0.3-2.9,1.6-3.1,3.2l-0.9,6.5l-1.1-6.3c-0.3-1.6-1.6-2.9-3.2-3.1l-6.4-0.9l6.2-1.1
			c1.6-0.3,2.9-1.6,3.1-3.2l0.9-6.5l1.1,6.3c0.3,1.6,1.6,2.9,3.2,3.1L577.8,84.6z"/>
	</g>
	<g id="icon:5-8">
		<path class="st2" d="M314.2,529.9l-6.2,1.1c-1.6,0.3-2.9,1.6-3.1,3.2l-0.9,6.4l-1.1-6.3c-0.3-1.6-1.6-2.9-3.2-3.1l-6.4-0.9
			l6.2-1.1c1.6-0.3,2.9-1.6,3.1-3.2l0.9-6.5l1.1,6.3c0.3,1.6,1.6,2.9,3.2,3.1L314.2,529.9z"/>
	</g>
	<g id="icon:5-9">
		<path class="st2" d="M133.8,136.7l-6.2,1.1c-1.6,0.3-2.9,1.6-3.1,3.2l-0.9,6.4l-1.1-6.3c-0.3-1.6-1.6-2.9-3.2-3.1l-6.4-0.9
			l6.2-1.1c1.6-0.3,2.9-1.6,3.1-3.2l0.9-6.5l1.1,6.3c0.3,1.6,1.6,2.9,3.2,3.1L133.8,136.7z"/>
	</g>
	<g id="row2">
		<path id="icon:3" class="st2" d="M474.2,451.1c0-1.7-0.6-3.3-1.7-4.6l2.9-3.4l-3.5,2.8c-2.6-2.3-6.5-2.2-9,0.1l-3.4-2.9l2.8,3.4
			c-2.3,2.6-2.3,6.5-0.1,9.1l-2.8,3.6l3.4-2.9c2.6,2.3,6.5,2.3,9,0l3.4,2.9l-2.9-3.5C473.6,454.4,474.2,452.8,474.2,451.1z
			 M467.4,444.5c1.5,0,3,0.5,4.1,1.5l-3.4,2.7c-0.6,0.4-1.3,0.4-1.9,0l-3.1-2.6C464.3,445.1,465.8,444.5,467.4,444.5z M462.4,455.2
			c-1-1.2-1.5-2.7-1.5-4.2c0-1.6,0.6-3.1,1.6-4.3l2.6,3.1c0.4,0.6,0.4,1.4,0,1.9L462.4,455.2z M467.4,457.6c-1.6,0-3.1-0.6-4.2-1.6
			l3.3-2.8c0.6-0.4,1.3-0.4,1.9,0l3.3,2.8C470.5,457,469,457.6,467.4,457.6z M469.4,452.1c-0.4-0.6-0.4-1.4,0-1.9l2.8-3.4
			c2.1,2.5,2.1,6.2,0,8.6L469.4,452.1z"/>
	</g>
	<g id="row2-2">
		<path id="icon:3-2" class="st2" d="M840.4,572.5c0-1.7-0.6-3.3-1.7-4.6l2.9-3.4l-3.5,2.8c-2.6-2.3-6.5-2.2-9,0.1l-3.4-2.9l2.8,3.4
			c-2.3,2.6-2.3,6.5-0.1,9.1l-2.8,3.6l3.4-2.9c2.6,2.3,6.5,2.3,9,0l3.4,2.9l-2.9-3.5C839.8,575.9,840.4,574.2,840.4,572.5z
			 M833.6,566c1.5,0,3,0.5,4.1,1.5l-3.4,2.7c-0.6,0.4-1.3,0.4-1.9,0l-3.1-2.6C830.5,566.6,832,566,833.6,566z M828.6,576.7
			c-1-1.2-1.5-2.7-1.5-4.2c0-1.6,0.6-3.1,1.6-4.3l2.6,3.1c0.4,0.6,0.4,1.4,0,1.9L828.6,576.7z M833.6,579c-1.6,0-3.1-0.6-4.2-1.6
			l3.3-2.8c0.6-0.4,1.3-0.4,1.9,0l3.3,2.8C836.7,578.5,835.1,579,833.6,579L833.6,579z M835.6,573.5c-0.4-0.6-0.4-1.4,0-1.9l2.8-3.4
			c2.1,2.5,2.1,6.2,0,8.6L835.6,573.5z"/>
	</g>
	<g id="row2-3">
		<path id="icon:3-3" class="st2" d="M715.4,174.9c0-1.7-0.6-3.3-1.7-4.6l2.9-3.4l-3.5,2.8c-2.6-2.3-6.5-2.2-9,0.1l-3.4-2.9l2.8,3.4
			c-2.3,2.6-2.3,6.5-0.1,9.1l-2.8,3.6l3.4-2.9c2.6,2.3,6.5,2.3,9,0l3.4,2.9l-2.9-3.5C714.8,178.2,715.4,176.6,715.4,174.9z
			 M708.6,168.3c1.5,0,3,0.5,4.1,1.5l-3.4,2.7c-0.6,0.4-1.3,0.4-1.9,0l-3.1-2.6C705.5,168.9,707,168.3,708.6,168.3z M703.6,179.1
			c-1-1.2-1.5-2.7-1.5-4.2c0-1.6,0.6-3.1,1.6-4.3l2.6,3.1c0.4,0.6,0.4,1.4,0,1.9L703.6,179.1z M708.6,181.4c-1.6,0-3.1-0.6-4.2-1.6
			l3.3-2.8c0.6-0.4,1.3-0.4,1.9,0l3.3,2.8C711.7,180.8,710.2,181.4,708.6,181.4z M710.6,175.9c-0.4-0.6-0.4-1.4,0-1.9l2.8-3.4
			c2.1,2.5,2.1,6.2,0,8.6L710.6,175.9z"/>
	</g>
	<g id="row2-4">
		<path id="icon:3-4" class="st2" d="M993.3,37.9c0-1.7-0.6-3.3-1.7-4.6l2.9-3.4l-3.5,2.8c-2.6-2.3-6.5-2.2-9,0.1l-3.4-2.9l2.8,3.4
			c-2.3,2.6-2.3,6.5-0.1,9.1l-2.8,3.6L982,43c2.6,2.3,6.5,2.3,9,0l3.4,2.9l-2.9-3.5C992.7,41.3,993.3,39.6,993.3,37.9z M986.5,31.4
			c1.5,0,3,0.5,4.1,1.5l-3.4,2.7c-0.6,0.4-1.3,0.4-1.9,0l-3.1-2.6C983.4,31.9,984.9,31.4,986.5,31.4z M981.6,42.1
			c-1-1.2-1.5-2.7-1.5-4.2c0-1.6,0.6-3.1,1.6-4.3l2.6,3.1c0.4,0.6,0.4,1.4,0,1.9L981.6,42.1z M986.5,44.4c-1.6,0-3.1-0.6-4.2-1.6
			l3.3-2.8c0.6-0.4,1.3-0.4,1.9,0l3.3,2.8C989.6,43.8,988.1,44.4,986.5,44.4z M988.5,38.9c-0.4-0.6-0.4-1.4,0-1.9l2.8-3.4
			c2.1,2.5,2.1,6.2,0,8.6L988.5,38.9z"/>
	</g>
	<g id="row2-5">
		<path id="icon:3-5" class="st2" d="M911.1,199c0-1.7-0.6-3.4-1.8-4.7l3-3.5l-3.6,2.9c-2.7-2.3-6.7-2.3-9.3,0.1l-3.5-3l2.9,3.5
			c-2.3,2.7-2.4,6.7-0.1,9.4l-2.9,3.7l3.5-3c2.7,2.4,6.7,2.4,9.3,0l3.6,3l-3-3.6C910.4,202.5,911.1,200.8,911.1,199z M904,192.2
			c1.6,0,3.1,0.6,4.3,1.6l-3.6,2.8c-0.6,0.4-1.4,0.4-2,0l-3.2-2.7C900.8,192.9,902.4,192.2,904,192.2z M898.9,203.3
			c-2.1-2.5-2.1-6.3,0.1-8.8l2.7,3.2c0.4,0.6,0.4,1.4,0,2L898.9,203.3z M904,205.7c-1.6,0-3.2-0.6-4.4-1.7l3.4-2.9
			c0.6-0.4,1.4-0.4,2,0l3.4,2.9C907.2,205.1,905.6,205.7,904,205.7z M906.1,200c-0.4-0.6-0.4-1.4,0-2l2.9-3.5c2.2,2.6,2.2,6.4,0,8.9
			L906.1,200z"/>
	</g>
	<g id="row2-6">
		<path id="icon:3-6" class="st2" d="M302.2,119.9c0-2.3-0.8-4.5-2.3-6.2l3.8-4.6l-4.7,3.7c-3.5-3.1-8.7-3-12.1,0.1l-4.6-3.9
			l3.8,4.6c-3,3.5-3.1,8.7-0.1,12.2l-3.8,4.8l4.6-4c3.5,3.1,8.7,3.1,12.2,0l4.6,4l-3.9-4.6C301.4,124.5,302.2,122.3,302.2,119.9z
			 M293.1,111.2c2,0,4,0.7,5.6,2.1l-4.6,3.7c-0.8,0.5-1.8,0.5-2.6,0l-4.1-3.5C288.9,112,290.9,111.2,293.1,111.2L293.1,111.2z
			 M286.4,125.6c-1.3-1.6-2-3.6-2-5.6c0-2.1,0.8-4.2,2.1-5.7l3.5,4.2c0.6,0.8,0.6,1.8,0,2.6L286.4,125.6z M293.1,128.7
			c-2.1,0-4.1-0.8-5.7-2.2l4.4-3.8c0.8-0.6,1.8-0.6,2.6,0l4.4,3.8C297.2,127.9,295.1,128.7,293.1,128.7L293.1,128.7z M295.8,121.3
			c-0.5-0.8-0.5-1.8,0-2.6l3.8-4.5c2.9,3.3,2.9,8.3-0.1,11.6L295.8,121.3z"/>
	</g>
	<g id="row2-7">
		<path id="icon:3-7" class="st2" d="M176.1,497.1c0-2.3-0.8-4.5-2.3-6.2l3.8-4.6L173,490c-3.5-3.1-8.7-3-12.1,0.1l-4.6-3.9l3.8,4.6
			c-3,3.5-3.1,8.7-0.1,12.2l-3.8,4.8l4.6-4c3.5,3.1,8.7,3.1,12.2,0l4.6,4l-3.9-4.6C175.3,501.6,176.1,499.4,176.1,497.1z M167,488.3
			c2,0,4,0.7,5.6,2.1l-4.6,3.7c-0.8,0.5-1.8,0.5-2.6,0l-4.1-3.5C162.8,489.1,164.9,488.3,167,488.3L167,488.3z M160.3,502.7
			c-1.3-1.6-2-3.6-2-5.6c0-2.1,0.8-4.2,2.1-5.7l3.5,4.2c0.6,0.8,0.6,1.8,0,2.6L160.3,502.7z M167,505.8c-2.1,0-4.1-0.8-5.7-2.2
			l4.4-3.8c0.8-0.6,1.8-0.6,2.6,0l4.4,3.8C171.1,505.1,169.1,505.8,167,505.8L167,505.8z M169.7,498.4c-0.5-0.8-0.5-1.8,0-2.6
			l3.8-4.5c2.9,3.3,2.9,8.3-0.1,11.6L169.7,498.4z"/>
	</g>
	<g id="row2-8">
		<path id="icon:3-8" class="st2" d="M22.1,574.2c0-2.3-0.8-4.5-2.3-6.2l3.8-4.6l-4.7,3.7c-3.5-3.1-8.7-3-12.1,0.1l-4.6-3.9l3.8,4.6
			c-3,3.5-3.1,8.7-0.1,12.2L2.3,585l4.6-4c3.5,3.1,8.7,3.1,12.2,0l4.6,4l-3.9-4.6C21.3,578.7,22.1,576.5,22.1,574.2z M12.9,565.4
			c2,0,4,0.7,5.6,2.1l-4.6,3.7c-0.8,0.5-1.8,0.5-2.6,0l-4.1-3.5C8.8,566.2,10.8,565.4,12.9,565.4L12.9,565.4z M6.3,579.8
			c-1.3-1.6-2-3.6-2-5.6c0-2.1,0.8-4.2,2.1-5.7l3.5,4.2c0.6,0.8,0.6,1.8,0,2.6L6.3,579.8z M12.9,582.9c-2.1,0-4.1-0.8-5.7-2.2
			l4.4-3.8c0.8-0.6,1.8-0.6,2.6,0l4.4,3.8C17,582.1,15,582.9,12.9,582.9L12.9,582.9z M15.7,575.5c-0.5-0.8-0.5-1.8,0-2.6l3.8-4.5
			c2.9,3.3,2.8,8.3-0.1,11.6L15.7,575.5z"/>
	</g>
	<path class="st2" d="M1168.4,887.1c0.5,0,0.8-0.4,0.8-0.8s-0.4-0.8-0.8-0.8c-0.5,0-0.8,0.4-0.8,0.8S1167.9,887.1,1168.4,887.1z"/>
	<path class="st2" d="M1324.1,879.8c0.5,0,0.8-0.4,0.8-0.8c0-0.5-0.4-0.8-0.8-0.8s-0.8,0.4-0.8,0.8
		C1323.3,879.5,1323.7,879.8,1324.1,879.8z"/>
	<path class="st2" d="M1112.8,735.2c0.5,0,0.8-0.4,0.8-0.8c0-0.5-0.4-0.8-0.8-0.8l0,0c-0.5,0-0.8,0.4-0.8,0.8
		C1112,734.8,1112.3,735.2,1112.8,735.2z"/>
	<path class="st2" d="M1349.5,682.9c0.5,0,0.8-0.4,0.8-0.8c0-0.5-0.4-0.8-0.8-0.8s-0.8,0.4-0.8,0.8
		C1348.7,682.5,1349.1,682.9,1349.5,682.9z"/>
	<path class="st2" d="M1676.9,822c0.5,0,0.8-0.4,0.8-0.8c0-0.5-0.4-0.8-0.8-0.8s-0.8,0.4-0.8,0.8C1676,821.6,1676.4,822,1676.9,822z
		"/>
	<path class="st2" d="M1466.3,767.3c0.5,0,0.8-0.4,0.8-0.8c0-0.5-0.4-0.8-0.8-0.8s-0.8,0.4-0.8,0.8
		C1465.5,766.9,1465.9,767.3,1466.3,767.3z"/>
	<path class="st2" d="M1575.2,716.7c0.5,0,0.8-0.4,0.8-0.8c0-0.5-0.4-0.8-0.8-0.8s-0.8,0.4-0.8,0.8
		C1574.3,716.3,1574.7,716.7,1575.2,716.7z"/>
	<path class="st2" d="M1587.9,828.4c0.5,0,0.8-0.4,0.8-0.8c0-0.5-0.4-0.8-0.8-0.8s-0.8,0.4-0.8,0.8
		C1587.1,828,1587.4,828.4,1587.9,828.4z"/>
	<path class="st2" d="M1812.7,919.2c0.5,0,0.8-0.4,0.8-0.8c0-0.5-0.4-0.8-0.8-0.8s-0.8,0.4-0.8,0.8
		C1811.9,918.8,1812.3,919.2,1812.7,919.2z"/>
	<path class="st2" d="M1866.7,780.2c0.5,0,0.8-0.4,0.8-0.8s-0.4-0.8-0.8-0.8s-0.8,0.4-0.8,0.8S1866.3,780.2,1866.7,780.2z"/>
	<path class="st2" d="M1919.2,684.5c0.5,0,0.8-0.4,0.8-0.8c0-0.5-0.4-0.8-0.8-0.8s-0.8,0.4-0.8,0.8
		C1918.4,684.1,1918.7,684.5,1919.2,684.5z"/>
	<path class="st2" d="M1564.8,1051.8c0.5,0,0.8-0.4,0.8-0.8s-0.4-0.8-0.8-0.8s-0.8,0.4-0.8,0.8S1564.4,1051.8,1564.8,1051.8z"/>
	<path class="st2" d="M1658.6,907.2c0.5,0,0.8-0.4,0.8-0.8c0-0.5-0.4-0.8-0.8-0.8s-0.8,0.4-0.8,0.8
		C1657.8,906.8,1658.1,907.2,1658.6,907.2z"/>
	<path class="st2" d="M1263.7,739.2c0.5,0,0.8-0.4,0.8-0.8c0-0.5-0.4-0.8-0.8-0.8c-0.5,0-0.8,0.4-0.8,0.8
		C1262.9,738.8,1263.3,739.2,1263.7,739.2z"/>
	<path class="st2" d="M1126.3,628.3c0.5,0,0.8-0.4,0.8-0.8c0-0.5-0.4-0.8-0.8-0.8s-0.8,0.4-0.8,0.8
		C1125.5,627.9,1125.8,628.3,1126.3,628.3z"/>
	<path class="st2" d="M1027,899.1c0.5,0,0.8-0.4,0.8-0.8c0-0.5-0.4-0.8-0.8-0.8c-0.5,0-0.8,0.4-0.8,0.8
		C1026.2,898.8,1026.5,899.1,1027,899.1z"/>
	<path class="st2" d="M1444.1,994c0.5,0,0.8-0.4,0.8-0.8c0-0.5-0.4-0.8-0.8-0.8s-0.8,0.4-0.8,0.8
		C1443.3,993.6,1443.6,994,1444.1,994z"/>
	<path class="st2" d="M1506.8,879.8c0.5,0,0.8-0.4,0.8-0.8c0-0.5-0.4-0.8-0.8-0.8l0,0c-0.5,0-0.8,0.4-0.8,0.8
		C1506,879.5,1506.4,879.8,1506.8,879.8z"/>
	<path class="st2" d="M1269.3,1008.4c0.5,0,0.8-0.4,0.8-0.8s-0.4-0.8-0.8-0.8s-0.8,0.4-0.8,0.8S1268.8,1008.4,1269.3,1008.4
		L1269.3,1008.4z"/>
	<path class="st2" d="M1740.4,711.1c3.2,0,3.2-5,0-5C1737.2,706.1,1737.2,711.1,1740.4,711.1z"/>
	<path class="st2" d="M1736.4,1020.5c3.2,0,3.2-5,0-5S1733.3,1020.5,1736.4,1020.5z"/>
	<path class="st2" d="M1267.7,1074.4c3.2,0,3.2-5,0-5S1264.5,1074.4,1267.7,1074.4z"/>
	<path class="st2" d="M1194.6,809.2c3.2,0,3.2-5,0-5S1191.4,809.2,1194.6,809.2z"/>
	<path class="st2" d="M1052.4,674.9c3.2,0,3.2-5,0-5C1049.2,669.9,1049.2,674.9,1052.4,674.9z"/>
	<path class="st2" d="M1105.6,1027.8c3.2,0,3.2-5,0-5S1102.5,1027.8,1105.6,1027.8z"/>
	<path class="st2" d="M1398,842.9c3.2,0,3.2-5,0-5S1394.8,842.9,1398,842.9z"/>
	<path class="st2" d="M1268.5,659.7c3.2,0,3.2-5,0-5C1265.3,654.7,1265.3,659.7,1268.5,659.7z"/>
	<path class="st2" d="M1501.3,657.3c3.2,0,3.2-5,0-5S1498.1,657.3,1501.3,657.3z"/>
	<path class="st2" d="M1848.5,854.3c6.3,0,6.4-10,0-10S1842.1,854.3,1848.5,854.3z"/>
	<path class="st2" d="M1029.4,812.5c6.3,0,6.4-10,0-10S1023,812.5,1029.4,812.5z"/>
	<path class="st2" d="M1429.8,728.1c6.3,0,6.4-10,0-10S1423.4,728.1,1429.8,728.1z"/>
	<path class="st2" d="M1395.6,1059.2c6.4,0,6.4-10,0-10S1389.3,1059.2,1395.6,1059.2z"/>
	<path class="st2" d="M1688,879.2c6.3,0,6.4-10,0-10S1681.6,879.2,1688,879.2z"/>
	<path class="st2" d="M1243.1,925.8c6.3,0,6.4-10,0-10C1236.7,915.8,1236.7,925.8,1243.1,925.8z"/>
	<path class="st2" d="M1814.3,708.8c6.3,0,6.4-10,0-10S1808,708.8,1814.3,708.8z"/>
	<path class="st2" d="M1624.4,629.2c6.4,0,6.4-10,0-10S1618.1,629.2,1624.4,629.2z"/>
	<path class="st2" d="M1855.6,629.2c6.4,0,6.4-10,0-10S1849.3,629.2,1855.6,629.2z"/>
	<path class="st2" d="M1031,994.9c6.3,0,6.4-10,0-10S1024.6,994.9,1031,994.9z"/>
	<path class="st2" d="M1537,953.2c8.5,0,8.5-13.3,0-13.3C1528.6,939.9,1528.6,953.2,1537,953.2z"/>
	<path class="st2" d="M1186.7,665.4c8.5,0,8.5-13.3,0-13.3S1178.2,665.4,1186.7,665.4z"/>
	<path class="st2" d="M1636.3,745.7c4.2,0,4.2-6.7,0-6.7S1632.1,745.7,1636.3,745.7z"/>
	<path class="st2" d="M1298.7,800.3c4.2,0,4.2-6.7,0-6.7S1294.5,800.3,1298.7,800.3z"/>
	<path class="st2" d="M1092.9,875.1c4.2,0,4.2-6.7,0-6.7S1088.7,875.1,1092.9,875.1z"/>
	<path class="st2" d="M1155.7,992.4c4.2,0,4.2-6.7,0-6.7S1151.5,992.4,1155.7,992.4z"/>
	<path class="st2" d="M1132.7,800.3c4.2,0,4.2-6.7,0-6.7C1128.4,793.7,1128.4,800.3,1132.7,800.3z"/>
	<path class="st2" d="M1411.5,917.7c4.2,0,4.2-6.7,0-6.7S1407.3,917.7,1411.5,917.7z"/>
	<path class="st2" d="M1417.1,638.8c4.2,0,4.2-6.7,0-6.7S1412.8,638.8,1417.1,638.8z"/>
	<path class="st2" d="M1299.5,614.7c4.2,0,4.2-6.7,0-6.7S1295.3,614.7,1299.5,614.7z"/>
	<path class="st2" d="M1846.1,1067.3c9.5,0,9.5-15,0-15C1836.5,1052.4,1836.5,1067.3,1846.1,1067.3z"/>
	<path class="st2" d="M1638.7,1019.9c9.5,0,9.5-15,0-15S1629.2,1019.9,1638.7,1019.9z"/>
	<path class="st2" d="M1862.8,955.4c2.1,0,2.1-3.3,0-3.3S1860.6,955.4,1862.8,955.4z"/>
	<path class="st2" d="M1796,1014.1c2.1,0,2.1-3.3,0-3.3S1793.9,1014.1,1796,1014.1z"/>
	<path class="st2" d="M1518,803.5c2.1,0,2.1-3.3,0-3.3S1515.8,803.5,1518,803.5z"/>
	<path class="st2" d="M1453.6,825.2c2.1,0,2.1-3.3,0-3.3S1451.5,825.2,1453.6,825.2z"/>
	<path class="st2" d="M1590.3,887.9c2.1,0,2.1-3.3,0-3.3S1588.1,887.9,1590.3,887.9z"/>
	<path class="st2" d="M1364.6,755.3c2.1,0,2.1-3.3,0-3.3S1362.5,755.3,1364.6,755.3z"/>
	<path class="st2" d="M1376.6,954.6c2.1,0,2.1-3.3,0-3.3S1374.4,954.6,1376.6,954.6z"/>
	<path class="st2" d="M1316.2,980.3c2.1,0,2.1-3.3,0-3.3C1314.1,977,1314.1,980.3,1316.2,980.3z"/>
	<path class="st2" d="M1043.7,1042.2c2.1,0,2.1-3.3,0-3.3S1041.6,1042.2,1043.7,1042.2z"/>
	<path class="st2" d="M1777.8,810.7c2.1,0,2.1-3.3,0-3.3S1775.6,810.7,1777.8,810.7z"/>
	<path class="st2" d="M1745.2,622.7c2.1,0,2.1-3.3,0-3.3S1743.1,622.7,1745.2,622.7z"/>
	<g id="icon:5_2_">
		<path class="st2" d="M1775.4,878.8l-6.2,1.1c-1.6,0.3-2.9,1.6-3.1,3.2l-0.9,6.5l-1.1-6.3c-0.3-1.6-1.6-2.9-3.2-3.1l-6.4-0.9
			l6.2-1.1c1.6-0.3,2.9-1.6,3.1-3.2l0.9-6.5l1.1,6.3c0.3,1.6,1.6,2.9,3.2,3.1L1775.4,878.8z"/>
	</g>
	<g id="icon:5-2_2_">
		<path class="st2" d="M1891.6,716.9l-6.2,1.1c-1.6,0.3-2.9,1.6-3.1,3.2l-0.9,6.5l-1.1-6.3c-0.3-1.6-1.6-2.9-3.2-3.1l-6.4-0.9
			l6.2-1.1c1.6-0.3,2.9-1.6,3.1-3.2l0.9-6.5l1.1,6.3c0.3,1.6,1.6,2.9,3.2,3.1L1891.6,716.9z"/>
	</g>
	<g id="icon:5-4_2_">
		<path class="st2" d="M1506.2,863.9l-6.2,1.1c-1.6,0.3-2.9,1.6-3.1,3.2l-0.9,6.4l-1.1-6.3c-0.3-1.6-1.6-2.9-3.2-3.1l-6.4-0.9
			l6.2-1.1c1.6-0.3,2.9-1.6,3.1-3.2l0.9-6.5l1.1,6.3c0.3,1.6,1.6,2.9,3.2,3.1L1506.2,863.9z"/>
	</g>
	<g id="icon:5-6_2_">
		<path class="st2" d="M1159.8,945.4l-6.2,1.1c-1.6,0.3-2.9,1.6-3.1,3.2l-0.9,6.4l-1.1-6.3c-0.3-1.6-1.6-2.9-3.2-3.1l-6.4-0.9
			l6.2-1.1c1.6-0.3,2.9-1.6,3.1-3.2l0.9-6.5l1.1,6.3c0.3,1.6,1.6,2.9,3.2,3.1L1159.8,945.4z"/>
	</g>
	<g id="icon:5-7_2_">
		<path class="st2" d="M1590.1,681.9l-6.2,1.1c-1.6,0.3-2.9,1.6-3.1,3.2l-0.9,6.5l-1.1-6.3c-0.3-1.6-1.6-2.9-3.2-3.1l-6.4-0.9
			l6.2-1.1c1.6-0.3,2.9-1.6,3.1-3.2l0.9-6.5l1.1,6.3c0.3,1.6,1.6,2.9,3.2,3.1L1590.1,681.9z"/>
	</g>
	<g id="icon:5-9_2_">
		<path class="st2" d="M1146.1,734.1l-6.2,1.1c-1.6,0.3-2.9,1.6-3.1,3.2l-0.9,6.4l-1.1-6.3c-0.3-1.6-1.6-2.9-3.2-3.1l-6.4-0.9
			l6.2-1.1c1.6-0.3,2.9-1.6,3.1-3.2l0.9-6.5l1.1,6.3c0.3,1.6,1.6,2.9,3.2,3.1L1146.1,734.1z"/>
	</g>
	<g id="row2_2_">
		<path id="icon:3_2_" class="st2" d="M1486.5,1048.4c0-1.7-0.6-3.3-1.7-4.6l2.9-3.4l-3.5,2.8c-2.6-2.3-6.5-2.2-9,0.1l-3.4-2.9
			l2.8,3.4c-2.3,2.6-2.3,6.5-0.1,9.1l-2.8,3.6l3.4-2.9c2.6,2.3,6.5,2.3,9,0l3.4,2.9l-2.9-3.5
			C1485.8,1051.8,1486.5,1050.1,1486.5,1048.4z M1479.7,1041.9c1.5,0,3,0.5,4.1,1.5l-3.4,2.7c-0.6,0.4-1.3,0.4-1.9,0l-3.1-2.6
			C1476.5,1042.5,1478.1,1041.9,1479.7,1041.9z M1474.7,1052.6c-1-1.2-1.5-2.7-1.5-4.2c0-1.6,0.6-3.1,1.6-4.3l2.6,3.1
			c0.4,0.6,0.4,1.4,0,1.9L1474.7,1052.6z M1479.7,1054.9c-1.6,0-3.1-0.6-4.2-1.6l3.3-2.8c0.6-0.4,1.3-0.4,1.9,0l3.3,2.8
			C1482.7,1054.4,1481.2,1055,1479.7,1054.9z M1481.7,1049.4c-0.4-0.6-0.4-1.4,0-1.9l2.8-3.4c2.1,2.5,2.1,6.2,0,8.6L1481.7,1049.4z"
			/>
	</g>
	<g id="row2-3_2_">
		<path id="icon:3-3_2_" class="st2" d="M1727.7,772.2c0-1.7-0.6-3.3-1.7-4.6l2.9-3.4l-3.5,2.8c-2.6-2.3-6.5-2.2-9,0.1l-3.4-2.9
			l2.8,3.4c-2.3,2.6-2.3,6.5-0.1,9.1l-2.8,3.6l3.4-2.9c2.6,2.3,6.5,2.3,9,0l3.4,2.9l-2.9-3.5C1727,775.6,1727.7,774,1727.7,772.2z
			 M1720.9,765.7c1.5,0,3,0.5,4.1,1.5l-3.4,2.7c-0.6,0.4-1.3,0.4-1.9,0l-3.1-2.6C1717.7,766.3,1719.3,765.7,1720.9,765.7z
			 M1715.9,776.4c-1-1.2-1.5-2.7-1.5-4.2c0-1.6,0.6-3.1,1.6-4.3l2.6,3.1c0.4,0.6,0.4,1.4,0,1.9L1715.9,776.4z M1720.9,778.8
			c-1.6,0-3.1-0.6-4.2-1.6l3.3-2.8c0.6-0.4,1.3-0.4,1.9,0l3.3,2.8C1723.9,778.2,1722.4,778.8,1720.9,778.8z M1722.9,773.3
			c-0.4-0.6-0.4-1.4,0-1.9l2.8-3.4c2.1,2.5,2.1,6.2,0,8.6L1722.9,773.3z"/>
	</g>
	<g id="row2-6_2_">
		<path id="icon:3-6_2_" class="st2" d="M1314.5,717.3c0-2.3-0.8-4.5-2.3-6.2l3.8-4.6l-4.7,3.7c-3.5-3.1-8.7-3-12.1,0.1l-4.6-3.9
			l3.8,4.6c-3,3.5-3.1,8.7-0.1,12.2l-3.8,4.8l4.6-4c3.5,3.1,8.7,3.1,12.2,0l4.6,4l-3.9-4.6C1313.7,721.9,1314.5,719.6,1314.5,717.3z
			 M1305.3,708.5c2,0,4,0.7,5.6,2.1l-4.6,3.7c-0.8,0.5-1.8,0.5-2.6,0l-4.1-3.5C1301.2,709.3,1303.2,708.5,1305.3,708.5L1305.3,708.5
			z M1298.7,723c-1.3-1.6-2-3.6-2-5.6c0-2.1,0.8-4.2,2.1-5.7l3.5,4.2c0.6,0.8,0.6,1.8,0,2.6L1298.7,723z M1305.3,726.1
			c-2.1,0-4.1-0.8-5.7-2.2l4.4-3.8c0.8-0.6,1.8-0.6,2.6,0l4.4,3.8C1309.4,725.3,1307.4,726.1,1305.3,726.1L1305.3,726.1z
			 M1308.1,718.7c-0.5-0.8-0.5-1.8,0-2.6l3.8-4.5c2.9,3.3,2.9,8.3-0.1,11.6L1308.1,718.7z"/>
	</g>
	<path class="st2" d="M155,892.7c0.5,0,0.8-0.4,0.8-0.8c0-0.5-0.4-0.8-0.8-0.8s-0.8,0.4-0.8,0.8C154.2,892.3,154.6,892.7,155,892.7z
		"/>
	<path class="st2" d="M310.8,885.4c0.5,0,0.8-0.4,0.8-0.8c0-0.5-0.4-0.8-0.8-0.8c-0.5,0-0.8,0.4-0.8,0.8
		C309.9,885.1,310.3,885.4,310.8,885.4z"/>
	<path class="st2" d="M99.4,740.8c0.5,0,0.8-0.4,0.8-0.8c0-0.5-0.4-0.8-0.8-0.8l0,0c-0.5,0-0.8,0.4-0.8,0.8
		C98.6,740.4,99,740.8,99.4,740.8z"/>
	<path class="st2" d="M336.2,688.5c0.5,0,0.8-0.4,0.8-0.8c0-0.5-0.4-0.8-0.8-0.8s-0.8,0.4-0.8,0.8
		C335.3,688.1,335.7,688.5,336.2,688.5z"/>
	<path class="st2" d="M663.5,827.6c0.5,0,0.8-0.4,0.8-0.8s-0.4-0.8-0.8-0.8s-0.8,0.4-0.8,0.8S663,827.6,663.5,827.6z"/>
	<path class="st2" d="M453,772.9c0.5,0,0.8-0.4,0.8-0.8c0-0.5-0.4-0.8-0.8-0.8s-0.8,0.4-0.8,0.8C452.1,772.5,452.5,772.9,453,772.9z
		"/>
	<path class="st2" d="M561.8,722.3c0.5,0,0.8-0.4,0.8-0.8c0-0.5-0.4-0.8-0.8-0.8s-0.8,0.4-0.8,0.8
		C561,721.9,561.3,722.3,561.8,722.3z"/>
	<path class="st2" d="M574.5,834c0.5,0,0.8-0.4,0.8-0.8c0-0.5-0.4-0.8-0.8-0.8s-0.8,0.4-0.8,0.8C573.7,833.6,574.1,834,574.5,834z"
		/>
	<path class="st2" d="M799.3,924.8c0.5,0,0.8-0.4,0.8-0.8c0-0.5-0.4-0.8-0.8-0.8c-0.5,0-0.8,0.4-0.8,0.8
		C798.5,924.4,798.9,924.8,799.3,924.8z"/>
	<path class="st2" d="M853.4,785.8c0.5,0,0.8-0.4,0.8-0.8c0-0.5-0.4-0.8-0.8-0.8c-0.5,0-0.8,0.4-0.8,0.8
		C852.5,785.4,852.9,785.8,853.4,785.8z"/>
	<path class="st2" d="M905.8,690.1c0.5,0,0.8-0.4,0.8-0.8s-0.4-0.8-0.8-0.8s-0.8,0.4-0.8,0.8S905.4,690.1,905.8,690.1z"/>
	<path class="st2" d="M551.5,1057.4c0.5,0,0.8-0.4,0.8-0.8s-0.4-0.8-0.8-0.8s-0.8,0.4-0.8,0.8S551,1057.4,551.5,1057.4z"/>
	<path class="st2" d="M914.5,1068.7c0.5,0,0.8-0.4,0.8-0.8c0-0.5-0.4-0.8-0.8-0.8s-0.8,0.4-0.8,0.8
		C913.7,1068.3,914.1,1068.7,914.5,1068.7z"/>
	<path class="st2" d="M645.2,912.8c0.5,0,0.8-0.4,0.8-0.8c0-0.5-0.4-0.8-0.8-0.8s-0.8,0.4-0.8,0.8
		C644.4,912.4,644.8,912.8,645.2,912.8z"/>
	<path class="st2" d="M250.4,744.8c0.5,0,0.8-0.4,0.8-0.8c0-0.5-0.4-0.8-0.8-0.8s-0.8,0.4-0.8,0.8
		C249.5,744.4,249.9,744.8,250.4,744.8z"/>
	<path class="st2" d="M112.9,633.9c0.5,0,0.8-0.4,0.8-0.8s-0.4-0.8-0.8-0.8c-0.5,0-0.8,0.4-0.8,0.8S112.5,633.9,112.9,633.9z"/>
	<path class="st2" d="M13.6,904.7c0.5,0,0.8-0.4,0.8-0.8s-0.4-0.8-0.8-0.8s-0.8,0.4-0.8,0.8S13.2,904.7,13.6,904.7z"/>
	<path class="st2" d="M430.7,999.6c0.5,0,0.8-0.4,0.8-0.8s-0.4-0.8-0.8-0.8s-0.8,0.4-0.8,0.8S430.3,999.6,430.7,999.6z"/>
	<path class="st2" d="M493.5,885.4c0.5,0,0.8-0.4,0.8-0.8c0-0.5-0.4-0.8-0.8-0.8l0,0c-0.5,0-0.8,0.4-0.8,0.8
		C492.7,885.1,493,885.4,493.5,885.4z"/>
	<path class="st2" d="M255.9,1014c0.5,0,0.8-0.4,0.8-0.8c0-0.5-0.4-0.8-0.8-0.8s-0.8,0.4-0.8,0.8
		C255.1,1013.7,255.5,1014,255.9,1014L255.9,1014z"/>
	<path class="st2" d="M727.1,716.7c3.2,0,3.2-5,0-5C723.9,711.7,723.9,716.7,727.1,716.7z"/>
	<path class="st2" d="M723.1,1026.1c3.2,0,3.2-5,0-5C719.9,1021.2,719.9,1026.1,723.1,1026.1z"/>
	<path class="st2" d="M254.3,1080c3.2,0,3.2-5,0-5C251.2,1075,251.2,1080,254.3,1080z"/>
	<path class="st2" d="M181.3,814.8c3.2,0,3.2-5,0-5C178.1,809.8,178.1,814.8,181.3,814.8z"/>
	<path class="st2" d="M39,680.5c3.2,0,3.2-5,0-5S35.9,680.5,39,680.5z"/>
	<path class="st2" d="M92.3,1033.4c3.2,0,3.2-5,0-5C89.1,1028.4,89.1,1033.4,92.3,1033.4z"/>
	<path class="st2" d="M384.6,848.5c3.2,0,3.2-5,0-5S381.5,848.5,384.6,848.5z"/>
	<path class="st2" d="M255.1,665.3c3.2,0,3.2-5,0-5S252,665.3,255.1,665.3z"/>
	<path class="st2" d="M985.3,675.7c0.5,0,0.8-0.4,0.8-0.8s-0.4-0.8-0.8-0.8l0,0c-0.5,0-0.8,0.4-0.8,0.8S984.8,675.7,985.3,675.7z"/>
	<path class="st2" d="M983.7,912c0.5,0,0.8-0.4,0.8-0.8c0-0.5-0.4-0.8-0.8-0.8s-0.8,0.4-0.8,0.8C982.8,911.6,983.2,912,983.7,912z"
		/>
	<path class="st2" d="M487.9,662.9c3.2,0,3.2-5,0-5S484.8,662.9,487.9,662.9z"/>
	<path class="st2" d="M835.1,859.9c6.3,0,6.4-10,0-10S828.7,859.9,835.1,859.9z"/>
	<path class="st2" d="M16,818.1c6.3,0,6.4-10,0-10S9.6,818.1,16,818.1z"/>
	<path class="st2" d="M416.4,733.7c6.3,0,6.4-10,0-10C410.1,723.7,410.1,733.7,416.4,733.7z"/>
	<path class="st2" d="M382.3,1064.8c6.4,0,6.4-10,0-10C375.9,1054.8,375.9,1064.8,382.3,1064.8z"/>
	<path class="st2" d="M674.6,884.8c6.3,0,6.4-10,0-10S668.3,884.8,674.6,884.8z"/>
	<path class="st2" d="M969,738.9c6.3,0,6.4-10,0-10S962.6,738.9,969,738.9z"/>
	<path class="st2" d="M229.7,931.4c6.3,0,6.4-10,0-10S223.4,931.4,229.7,931.4z"/>
	<path class="st2" d="M801,714.4c6.3,0,6.4-10,0-10C794.6,704.4,794.6,714.4,801,714.4z"/>
	<path class="st2" d="M611.1,634.8c6.4,0,6.4-10,0-10S604.7,634.8,611.1,634.8z"/>
	<path class="st2" d="M842.2,634.8c6.4,0,6.4-10,0-10S835.9,634.8,842.2,634.8z"/>
	<path class="st2" d="M17.6,1000.5c6.3,0,6.4-10,0-10S11.2,1000.5,17.6,1000.5z"/>
	<path class="st2" d="M523.7,958.8c8.5,0,8.5-13.3,0-13.3S515.2,958.8,523.7,958.8z"/>
	<path class="st2" d="M173.3,671c8.5,0,8.5-13.3,0-13.3S164.8,671,173.3,671z"/>
	<path class="st2" d="M933.6,958c8.5,0,8.5-13.3,0-13.3S925.1,958,933.6,958z"/>
	<path class="st2" d="M1007.1,1056.7c8.5,0,8.5-13.3,0-13.3C998.6,1043.4,998.6,1056.7,1007.1,1056.7z"/>
	<path class="st2" d="M623,751.3c4.2,0,4.2-6.7,0-6.7S618.7,751.3,623,751.3z"/>
	<path class="st2" d="M285.3,805.9c4.2,0,4.2-6.7,0-6.7C281.1,799.3,281.1,805.9,285.3,805.9z"/>
	<path class="st2" d="M12,726.4c4.2,0,4.2-6.7,0-6.7S7.8,726.4,12,726.4z"/>
	<path class="st2" d="M12.8,638.8c4.2,0,4.2-6.7,0-6.7S8.6,638.8,12.8,638.8z"/>
	<path class="st2" d="M79.5,880.7c4.2,0,4.2-6.7,0-6.7C75.3,874,75.3,880.7,79.5,880.7z"/>
	<path class="st2" d="M142.3,998c4.2,0,4.2-6.7,0-6.7C138.1,991.4,138.1,998,142.3,998z"/>
	<path class="st2" d="M119.3,805.9c4.2,0,4.2-6.7,0-6.7C115,799.3,115,805.9,119.3,805.9z"/>
	<path class="st2" d="M398.1,923.3c4.2,0,4.2-6.7,0-6.7C393.9,916.6,393.9,923.3,398.1,923.3z"/>
	<path class="st2" d="M403.7,644.4c4.2,0,4.2-6.7,0-6.7S399.5,644.4,403.7,644.4z"/>
	<path class="st2" d="M286.1,620.3c4.2,0,4.2-6.7,0-6.7C281.9,613.6,281.9,620.3,286.1,620.3z"/>
	<path class="st2" d="M832.7,1072.9c9.5,0,9.5-15,0-15S823.2,1072.9,832.7,1072.9z"/>
	<path class="st2" d="M625.4,1025.5c9.5,0,9.5-15,0-15S615.8,1025.5,625.4,1025.5z"/>
	<path class="st2" d="M921.7,860.5c2.1,0,2.1-3.3,0-3.3S919.6,860.5,921.7,860.5z"/>
	<path class="st2" d="M849.4,961c2.1,0,2.1-3.3,0-3.3S847.3,961,849.4,961z"/>
	<path class="st2" d="M782.7,1019.7c2.1,0,2.1-3.3,0-3.3S780.5,1019.7,782.7,1019.7z"/>
	<path class="st2" d="M933.6,1015.7c2.1,0,2.1-3.3,0-3.3S931.5,1015.7,933.6,1015.7z"/>
	<path class="st2" d="M504.6,809.1c2.1,0,2.1-3.3,0-3.3S502.5,809.1,504.6,809.1z"/>
	<path class="st2" d="M440.2,830.8c2.1,0,2.1-3.3,0-3.3S438.1,830.8,440.2,830.8z"/>
	<path class="st2" d="M576.9,893.5c2.1,0,2.1-3.3,0-3.3S574.8,893.5,576.9,893.5z"/>
	<path class="st2" d="M351.3,760.9c2.1,0,2.1-3.3,0-3.3S349.1,760.9,351.3,760.9z"/>
	<path class="st2" d="M363.2,960.2c2.1,0,2.1-3.3,0-3.3S361.1,960.2,363.2,960.2z"/>
	<path class="st2" d="M302.8,985.9c2.1,0,2.1-3.3,0-3.3C300.7,982.6,300.7,985.9,302.8,985.9z"/>
	<path class="st2" d="M30.3,1047.8c2.1,0,2.1-3.3,0-3.3S28.2,1047.8,30.3,1047.8z"/>
	<path class="st2" d="M764.4,816.3c2.1,0,2.1-3.3,0-3.3S762.3,816.3,764.4,816.3z"/>
	<path class="st2" d="M731.8,628.3c2.1,0,2.1-3.3,0-3.3C729.7,624.9,729.7,628.3,731.8,628.3z"/>
	<g id="icon:5_1_">
		<path class="st2" d="M762,884.4l-6.2,1.1c-1.6,0.3-2.9,1.6-3.1,3.2l-0.9,6.5l-1.1-6.3c-0.3-1.6-1.6-2.9-3.2-3.1l-6.4-0.9l6.2-1.1
			c1.6-0.3,2.9-1.6,3.1-3.2l0.9-6.5l1.1,6.3c0.3,1.6,1.6,2.9,3.2,3.1L762,884.4z"/>
	</g>
	<g id="icon:5-2_1_">
		<path class="st2" d="M878.2,722.5l-6.2,1.1c-1.6,0.3-2.9,1.6-3.1,3.2l-0.9,6.5L867,727c-0.3-1.6-1.6-2.9-3.2-3.1l-6.4-0.9l6.2-1.1
			c1.6-0.3,2.9-1.6,3.1-3.2l0.9-6.5l1.1,6.3c0.3,1.6,1.6,2.9,3.2,3.1L878.2,722.5z"/>
	</g>
	<g id="icon:5-4_1_">
		<path class="st2" d="M492.9,869.5l-6.2,1.1c-1.6,0.3-2.9,1.6-3.1,3.2l-0.9,6.4l-1.1-6.3c-0.3-1.6-1.6-2.9-3.2-3.1l-6.4-0.9
			l6.2-1.1c1.6-0.3,2.9-1.6,3.1-3.2l0.9-6.5l1.1,6.3c0.3,1.6,1.6,2.9,3.2,3.1L492.9,869.5z"/>
	</g>
	<g id="icon:5-5_1_">
		<path class="st2" d="M1006.5,869.4l-8.9,1.5c-2.3,0.4-4.1,2.2-4.4,4.6l-1.2,9.2l-1.5-9c-0.4-2.3-2.2-4.1-4.5-4.4l-9.1-1.2l8.9-1.5
			c2.3-0.4,4.1-2.2,4.4-4.6l1.2-9.2l1.5,9c0.4,2.3,2.2,4.1,4.5,4.4L1006.5,869.4z"/>
	</g>
	<g id="icon:5-6_1_">
		<path class="st2" d="M146.4,951l-6.2,1.1c-1.6,0.3-2.9,1.6-3.1,3.2l-0.9,6.4l-1.1-6.3c-0.3-1.6-1.6-2.9-3.2-3.1l-6.4-0.9l6.2-1.1
			c1.6-0.3,2.9-1.6,3.1-3.2l0.9-6.5l1.1,6.3c0.3,1.6,1.6,2.9,3.2,3.1L146.4,951z"/>
	</g>
	<g id="icon:5-7_1_">
		<path class="st2" d="M576.7,687.6l-6.2,1.1c-1.6,0.3-2.9,1.6-3.1,3.2l-0.9,6.5l-1.1-6.3c-0.3-1.6-1.6-2.9-3.2-3.1l-6.4-0.9
			l6.2-1.1c1.6-0.3,2.9-1.6,3.1-3.2l0.9-6.5l1.1,6.3c0.3,1.6,1.6,2.9,3.2,3.1L576.7,687.6z"/>
	</g>
	<g id="icon:5-9_1_">
		<path class="st2" d="M132.7,739.7l-6.2,1.1c-1.6,0.3-2.9,1.6-3.1,3.2l-0.9,6.4l-1.1-6.3c-0.3-1.6-1.6-2.9-3.2-3.1l-6.4-0.9
			l6.2-1.1c1.6-0.3,2.9-1.6,3.1-3.2l0.9-6.5l1.1,6.3c0.3,1.6,1.6,2.9,3.2,3.1L132.7,739.7z"/>
	</g>
	<g id="row2_1_">
		<path id="icon:3_1_" class="st2" d="M473.1,1054c0-1.7-0.6-3.3-1.7-4.6l2.9-3.4l-3.5,2.8c-2.6-2.3-6.5-2.2-9,0.1l-3.4-2.9l2.8,3.4
			c-2.3,2.6-2.3,6.5-0.1,9.1l-2.8,3.6l3.4-2.9c2.6,2.3,6.5,2.3,9,0l3.4,2.9l-2.9-3.5C472.5,1057.4,473.1,1055.8,473.1,1054z
			 M466.3,1047.5c1.5,0,3,0.5,4.1,1.5l-3.4,2.7c-0.6,0.4-1.3,0.4-1.9,0l-3.1-2.6C463.2,1048.1,464.7,1047.5,466.3,1047.5z
			 M461.3,1058.2c-1-1.2-1.5-2.7-1.5-4.2c0-1.6,0.6-3.1,1.6-4.3l2.6,3.1c0.4,0.6,0.4,1.4,0,1.9L461.3,1058.2z M466.3,1060.6
			c-1.6,0-3.1-0.6-4.2-1.6l3.3-2.8c0.6-0.4,1.3-0.4,1.9,0l3.3,2.8C469.4,1060,467.8,1060.6,466.3,1060.6z M468.3,1055
			c-0.4-0.6-0.4-1.4,0-1.9l2.8-3.4c2.1,2.5,2.1,6.2,0,8.6L468.3,1055z"/>
	</g>
	<g id="row2-3_1_">
		<path id="icon:3-3_1_" class="st2" d="M714.3,777.8c0-1.7-0.6-3.3-1.7-4.6l2.9-3.4l-3.5,2.8c-2.6-2.3-6.5-2.2-9,0.1l-3.4-2.9
			l2.8,3.4c-2.3,2.6-2.3,6.5-0.1,9.1l-2.8,3.6l3.4-2.9c2.6,2.3,6.5,2.3,9,0l3.4,2.9l-2.9-3.5C713.7,781.2,714.3,779.6,714.3,777.8z
			 M707.5,771.3c1.5,0,3,0.5,4.1,1.5l-3.4,2.7c-0.6,0.4-1.3,0.4-1.9,0l-3.1-2.6C704.4,771.9,705.9,771.3,707.5,771.3z M702.5,782
			c-1-1.2-1.5-2.7-1.5-4.2c0-1.6,0.6-3.1,1.6-4.3l2.6,3.1c0.4,0.6,0.4,1.4,0,1.9L702.5,782z M707.5,784.4c-1.6,0-3.1-0.6-4.2-1.6
			l3.3-2.8c0.6-0.4,1.3-0.4,1.9,0l3.3,2.8C710.6,783.8,709.1,784.4,707.5,784.4z M709.5,778.9c-0.4-0.6-0.4-1.4,0-1.9l2.8-3.4
			c2.1,2.5,2.1,6.2,0,8.6L709.5,778.9z"/>
	</g>
	<g id="row2-4_1_">
		<path id="icon:3-4_1_" class="st2" d="M992.2,640.9c0-1.7-0.6-3.3-1.7-4.6l2.9-3.4l-3.5,2.8c-2.6-2.3-6.5-2.2-9,0.1l-3.4-2.9
			l2.8,3.4c-2.3,2.6-2.3,6.5-0.1,9.1l-2.8,3.6l3.4-2.9c2.6,2.3,6.5,2.3,9,0l3.4,2.9l-2.9-3.5C991.6,644.2,992.2,642.6,992.2,640.9z
			 M985.4,634.3c1.5,0,3,0.5,4.1,1.5l-3.4,2.7c-0.6,0.4-1.3,0.4-1.9,0l-3.1-2.6C982.3,634.9,983.8,634.3,985.4,634.3z M980.5,645.1
			c-1-1.2-1.5-2.7-1.5-4.2c0-1.6,0.6-3.1,1.6-4.3l2.6,3.1c0.4,0.6,0.4,1.4,0,1.9L980.5,645.1z M985.4,647.4c-1.6,0-3.1-0.6-4.2-1.6
			l3.3-2.8c0.6-0.4,1.3-0.4,1.9,0l3.3,2.8C988.5,646.8,987,647.4,985.4,647.4z M987.4,641.9c-0.4-0.6-0.4-1.4,0-1.9l2.8-3.4
			c2.1,2.5,2.1,6.2,0,8.6L987.4,641.9z"/>
	</g>
	<g id="row2-5_1_">
		<path id="icon:3-5_1_" class="st2" d="M910,802c0-1.7-0.6-3.4-1.8-4.7l3-3.5l-3.6,2.9c-2.7-2.3-6.7-2.3-9.3,0.1l-3.5-3l2.9,3.5
			c-2.3,2.7-2.4,6.7-0.1,9.4l-2.9,3.7l3.5-3c2.7,2.4,6.7,2.4,9.3,0l3.6,3l-3-3.6C909.3,805.5,910,803.7,910,802z M902.9,795.2
			c1.6,0,3.1,0.6,4.3,1.6l-3.6,2.8c-0.6,0.4-1.4,0.4-2,0l-3.2-2.7C899.7,795.8,901.3,795.2,902.9,795.2z M897.8,806.3
			c-2.1-2.5-2.1-6.3,0.1-8.8l2.7,3.2c0.4,0.6,0.4,1.4,0,2L897.8,806.3z M902.9,808.7c-1.6,0-3.2-0.6-4.4-1.7l3.4-2.9
			c0.6-0.4,1.4-0.4,2,0l3.4,2.9C906.1,808.1,904.5,808.7,902.9,808.7z M905,803c-0.4-0.6-0.4-1.4,0-2l2.9-3.5c2.2,2.6,2.2,6.4,0,8.9
			L905,803z"/>
	</g>
	<g id="row2-6_1_">
		<path id="icon:3-6_1_" class="st2" d="M301.1,722.9c0-2.3-0.8-4.5-2.3-6.2l3.8-4.6l-4.7,3.7c-3.5-3.1-8.7-3-12.1,0.1l-4.6-3.9
			l3.8,4.6c-3,3.5-3.1,8.7-0.1,12.2l-3.8,4.8l4.6-4c3.5,3.1,8.7,3.1,12.2,0l4.6,4l-3.9-4.6C300.3,727.5,301.1,725.2,301.1,722.9z
			 M292,714.1c2,0,4,0.7,5.6,2.1l-4.6,3.7c-0.8,0.5-1.8,0.5-2.6,0l-4.1-3.5C287.8,714.9,289.8,714.1,292,714.1L292,714.1z
			 M285.3,728.6c-1.3-1.6-2-3.6-2-5.6c0-2.1,0.8-4.2,2.1-5.7l3.5,4.2c0.6,0.8,0.6,1.8,0,2.6L285.3,728.6z M292,731.7
			c-2.1,0-4.1-0.8-5.7-2.2l4.4-3.8c0.8-0.6,1.8-0.6,2.6,0l4.4,3.8C296.1,730.9,294,731.7,292,731.7L292,731.7z M294.7,724.3
			c-0.5-0.8-0.5-1.8,0-2.6l3.8-4.5c2.9,3.3,2.9,8.3-0.1,11.6L294.7,724.3z"/>
	</g>
	<path class="st2" d="M1178.4,279c0.5,0,0.8-0.4,0.8-0.8c0-0.5-0.4-0.8-0.8-0.8s-0.8,0.4-0.8,0.8C1177.6,278.7,1178,279,1178.4,279z
		"/>
	<path class="st2" d="M1334.1,271.8c0.5,0,0.8-0.4,0.8-0.8c0-0.5-0.4-0.8-0.8-0.8c-0.5,0-0.8,0.4-0.8,0.8
		C1333.3,271.4,1333.7,271.8,1334.1,271.8z"/>
	<path class="st2" d="M1122.8,127.1c0.5,0,0.8-0.4,0.8-0.8c0-0.5-0.4-0.8-0.8-0.8l0,0c-0.5,0-0.8,0.4-0.8,0.8
		C1122,126.8,1122.4,127.1,1122.8,127.1z"/>
	<path class="st2" d="M1359.6,74.9c0.5,0,0.8-0.4,0.8-0.8c0-0.5-0.4-0.8-0.8-0.8c-0.5,0-0.8,0.4-0.8,0.8
		C1358.7,74.5,1359.1,74.9,1359.6,74.9z"/>
	<path class="st2" d="M1686.9,213.9c0.5,0,0.8-0.4,0.8-0.8s-0.4-0.8-0.8-0.8s-0.8,0.4-0.8,0.8S1686.4,213.9,1686.9,213.9z"/>
	<path class="st2" d="M1476.3,159.3c0.5,0,0.8-0.4,0.8-0.8s-0.4-0.8-0.8-0.8c-0.5,0-0.8,0.4-0.8,0.8S1475.9,159.3,1476.3,159.3z"/>
	<path class="st2" d="M1585.2,108.6c0.5,0,0.8-0.4,0.8-0.8c0-0.5-0.4-0.8-0.8-0.8s-0.8,0.4-0.8,0.8
		C1584.4,108.3,1584.7,108.6,1585.2,108.6z"/>
	<path class="st2" d="M1597.9,220.4c0.5,0,0.8-0.4,0.8-0.8s-0.4-0.8-0.8-0.8s-0.8,0.4-0.8,0.8S1597.4,220.4,1597.9,220.4z"/>
	<path class="st2" d="M1822.7,311.2c0.5,0,0.8-0.4,0.8-0.8s-0.4-0.8-0.8-0.8s-0.8,0.4-0.8,0.8S1822.3,311.2,1822.7,311.2z"/>
	<path class="st2" d="M1876.8,172.1c0.5,0,0.8-0.4,0.8-0.8s-0.4-0.8-0.8-0.8s-0.8,0.4-0.8,0.8S1876.3,172.1,1876.8,172.1z"/>
	<path class="st2" d="M1574.9,443.8c0.5,0,0.8-0.4,0.8-0.8s-0.4-0.8-0.8-0.8s-0.8,0.4-0.8,0.8S1574.4,443.8,1574.9,443.8z"/>
	<path class="st2" d="M1298.4,537c0.5,0,0.8-0.4,0.8-0.8c0-0.5-0.4-0.8-0.8-0.8s-0.8,0.4-0.8,0.8
		C1297.6,536.7,1297.9,537,1298.4,537z"/>
	<path class="st2" d="M1145.8,492.9c0.5,0,0.8-0.4,0.8-0.8s-0.4-0.8-0.8-0.8s-0.8,0.4-0.8,0.8S1145.4,492.9,1145.8,492.9z"/>
	<path class="st2" d="M1641.6,549.9c0.5,0,0.8-0.4,0.8-0.8c0-0.5-0.4-0.8-0.8-0.8c-0.5,0-0.8,0.4-0.8,0.8
		C1640.8,549.5,1641.1,549.9,1641.6,549.9z"/>
	<path class="st2" d="M1841,537c0.5,0,0.8-0.4,0.8-0.8c0-0.5-0.4-0.8-0.8-0.8s-0.8,0.4-0.8,0.8C1840.2,536.7,1840.6,537,1841,537z"
		/>
	<path class="st2" d="M1668.6,299.1c0.5,0,0.8-0.4,0.8-0.8s-0.4-0.8-0.8-0.8s-0.8,0.4-0.8,0.8S1668.2,299.1,1668.6,299.1z"/>
	<path class="st2" d="M1273.8,131.2c0.5,0,0.8-0.4,0.8-0.8s-0.4-0.8-0.8-0.8s-0.8,0.4-0.8,0.8S1273.3,131.2,1273.8,131.2z"/>
	<path class="st2" d="M1136.3,20.2c0.5,0,0.8-0.4,0.8-0.8c0-0.5-0.4-0.8-0.8-0.8c-0.5,0-0.8,0.4-0.8,0.8
		C1135.5,19.9,1135.9,20.2,1136.3,20.2z"/>
	<path class="st2" d="M1037,291.1c0.5,0,0.8-0.4,0.8-0.8c0-0.5-0.4-0.8-0.8-0.8s-0.8,0.4-0.8,0.8
		C1036.2,290.7,1036.6,291.1,1037,291.1z"/>
	<path class="st2" d="M1454.1,385.9c0.5,0,0.8-0.4,0.8-0.8c0-0.5-0.4-0.8-0.8-0.8c-0.5,0-0.8,0.4-0.8,0.8
		C1453.3,385.6,1453.6,385.9,1454.1,385.9z"/>
	<path class="st2" d="M1516.9,271.8c0.5,0,0.8-0.4,0.8-0.8c0-0.5-0.4-0.8-0.8-0.8l0,0c-0.5,0-0.8,0.4-0.8,0.8
		C1516,271.4,1516.4,271.8,1516.9,271.8z"/>
	<path class="st2" d="M1279.3,400.4c0.5,0,0.8-0.4,0.8-0.8s-0.4-0.8-0.8-0.8c-0.5,0-0.8,0.4-0.8,0.8S1278.9,400.4,1279.3,400.4
		L1279.3,400.4z"/>
	<path class="st2" d="M1048.1,553.9c0.5,0,0.8-0.4,0.8-0.8c0-0.5-0.4-0.8-0.8-0.8c-0.5,0-0.8,0.4-0.8,0.8
		C1047.3,553.6,1047.7,553.9,1048.1,553.9z"/>
	<path class="st2" d="M1750.4,103.1c3.2,0,3.2-5,0-5C1747.3,98.1,1747.3,103.1,1750.4,103.1z"/>
	<path class="st2" d="M1746.5,412.5c3.2,0,3.2-5,0-5C1743.3,407.5,1743.3,412.5,1746.5,412.5z"/>
	<path class="st2" d="M1277.7,466.4c3.2,0,3.2-5,0-5S1274.6,466.4,1277.7,466.4z"/>
	<path class="st2" d="M1204.6,201.2c3.2,0,3.2-5,0-5S1201.5,201.2,1204.6,201.2z"/>
	<path class="st2" d="M1062.4,66.9c3.2,0,3.2-5,0-5S1059.3,66.9,1062.4,66.9z"/>
	<path class="st2" d="M1115.7,419.8c3.2,0,3.2-5,0-5S1112.5,419.8,1115.7,419.8z"/>
	<path class="st2" d="M1408,234.9c3.2,0,3.2-5,0-5S1404.8,234.9,1408,234.9z"/>
	<path class="st2" d="M1278.5,51.6c3.2,0,3.2-5,0-5S1275.3,51.6,1278.5,51.6z"/>
	<path class="st2" d="M1505.7,559.6c3.2,0,3.2-5,0-5S1502.6,559.6,1505.7,559.6z"/>
	<path class="st2" d="M1511.3,49.2c3.2,0,3.2-5,0-5S1508.1,49.2,1511.3,49.2z"/>
	<path class="st2" d="M1858.5,246.2c6.3,0,6.4-10,0-10S1852.1,246.2,1858.5,246.2z"/>
	<path class="st2" d="M1039.4,204.4c6.3,0,6.4-10,0-10C1033,194.4,1033,204.4,1039.4,204.4z"/>
	<path class="st2" d="M1439.8,120c6.3,0,6.4-10,0-10S1433.4,120,1439.8,120z"/>
	<path class="st2" d="M1405.6,451.2c6.4,0,6.4-10,0-10S1399.3,451.2,1405.6,451.2z"/>
	<path class="st2" d="M1698,271.1c6.3,0,6.4-10,0-10C1691.6,261.2,1691.6,271.1,1698,271.1z"/>
	<path class="st2" d="M1253.1,317.8c6.3,0,6.4-10,0-10S1246.7,317.8,1253.1,317.8z"/>
	<path class="st2" d="M1824.3,100.8c6.3,0,6.4-10,0-10S1818,100.8,1824.3,100.8z"/>
	<path class="st2" d="M1634.4,21.2c6.4,0,6.4-10,0-10S1628.1,21.2,1634.4,21.2z"/>
	<path class="st2" d="M1865.6,21.2c6.4,0,6.4-10,0-10C1859.3,11.2,1859.3,21.2,1865.6,21.2z"/>
	<path class="st2" d="M1145.8,562.9c6.3,0,6.4-10,0-10S1139.5,562.9,1145.8,562.9z"/>
	<path class="st2" d="M1041,386.9c6.3,0,6.4-10,0-10C1034.6,376.9,1034.6,386.9,1041,386.9z"/>
	<path class="st2" d="M1764.7,526c8.5,0,8.5-13.3,0-13.3S1756.3,526,1764.7,526z"/>
	<path class="st2" d="M1547.1,345.1c8.5,0,8.5-13.3,0-13.3S1538.6,345.1,1547.1,345.1z"/>
	<path class="st2" d="M1196.7,57.4c8.5,0,8.5-13.3,0-13.3C1188.2,44.1,1188.2,57.4,1196.7,57.4z"/>
	<path class="st2" d="M1570.9,536.5c4.3,0,8.4-3.8,8.2-8.3c-0.2-4.5-3.6-8.3-8.2-8.3c-4.3,0-8.4,3.8-8.2,8.3
		C1562.9,532.7,1566.3,536.5,1570.9,536.5z"/>
	<path class="st2" d="M1646.4,137.7c4.2,0,4.2-6.7,0-6.7C1642.1,131,1642.1,137.7,1646.4,137.7z"/>
	<path class="st2" d="M1308.7,192.3c4.2,0,4.2-6.7,0-6.7S1304.5,192.3,1308.7,192.3z"/>
	<path class="st2" d="M1035.4,112.7c4.2,0,4.2-6.7,0-6.7S1031.2,112.7,1035.4,112.7z"/>
	<path class="st2" d="M1036.2,25.1c4.2,0,4.2-6.7,0-6.7C1032,18.5,1032,25.1,1036.2,25.1z"/>
	<path class="st2" d="M1102.9,267.1c4.2,0,4.2-6.7,0-6.7C1098.7,260.4,1098.7,267.1,1102.9,267.1z"/>
	<path class="st2" d="M1165.7,384.4c4.2,0,4.2-6.7,0-6.7S1161.5,384.4,1165.7,384.4z"/>
	<path class="st2" d="M1142.7,192.3c4.2,0,4.2-6.7,0-6.7S1138.4,192.3,1142.7,192.3z"/>
	<path class="st2" d="M1365.9,565.3c4.2,0,4.2-6.7,0-6.7C1361.7,558.6,1361.7,565.3,1365.9,565.3z"/>
	<path class="st2" d="M1421.5,309.7c4.2,0,4.2-6.7,0-6.7S1417.3,309.7,1421.5,309.7z"/>
	<path class="st2" d="M1427.1,30.8c4.2,0,4.2-6.7,0-6.7S1422.9,30.8,1427.1,30.8z"/>
	<path class="st2" d="M1309.5,6.7c4.2,0,4.2-6.7,0-6.7S1305.3,6.7,1309.5,6.7z"/>
	<path class="st2" d="M1856.1,459.3c9.5,0,9.5-15,0-15C1846.6,444.3,1846.6,459.3,1856.1,459.3z"/>
	<path class="st2" d="M1648.7,411.9c9.5,0,9.5-15,0-15C1639.2,396.9,1639.2,411.9,1648.7,411.9z"/>
	<path class="st2" d="M1872.8,347.4c2.1,0,2.1-3.3,0-3.3C1870.7,344.1,1870.7,347.4,1872.8,347.4z"/>
	<path class="st2" d="M1806.1,406.1c2.1,0,2.1-3.3,0-3.3S1803.9,406.1,1806.1,406.1z"/>
	<path class="st2" d="M1528,195.5c2.1,0,2.1-3.3,0-3.3S1525.9,195.5,1528,195.5z"/>
	<path class="st2" d="M1463.6,217.2c2.1,0,2.1-3.3,0-3.3S1461.5,217.2,1463.6,217.2z"/>
	<path class="st2" d="M1600.3,279.9c2.1,0,2.1-3.3,0-3.3S1598.2,279.9,1600.3,279.9z"/>
	<path class="st2" d="M1374.7,147.3c2.1,0,2.1-3.3,0-3.3S1372.5,147.3,1374.7,147.3z"/>
	<path class="st2" d="M1386.6,346.6c2.1,0,2.1-3.3,0-3.3S1384.5,346.6,1386.6,346.6z"/>
	<path class="st2" d="M1326.2,372.3c2.1,0,2.1-3.3,0-3.3S1324.1,372.3,1326.2,372.3z"/>
	<path class="st2" d="M1052.9,488c2.1,0,2.1-3.3,0-3.3S1050.8,488,1052.9,488z"/>
	<path class="st2" d="M1053.7,434.2c2.1,0,2.1-3.3,0-3.3S1051.6,434.2,1053.7,434.2z"/>
	<path class="st2" d="M1787.8,202.7c2.1,0,2.1-3.3,0-3.3S1785.7,202.7,1787.8,202.7z"/>
	<path class="st2" d="M1755.2,14.6c2.1,0,2.1-3.3,0-3.3S1753.1,14.6,1755.2,14.6z"/>
	<g id="icon:5_3_">
		<path class="st2" d="M1785.4,270.8l-6.2,1.1c-1.6,0.3-2.9,1.6-3.1,3.2l-0.9,6.5l-1.1-6.3c-0.3-1.6-1.6-2.9-3.2-3.1l-6.4-0.9
			l6.2-1.1c1.6-0.3,2.9-1.6,3.1-3.2l0.9-6.5l1.1,6.3c0.3,1.6,1.6,2.9,3.2,3.1L1785.4,270.8z"/>
	</g>
	<g id="icon:5-2_3_">
		<path class="st2" d="M1901.6,108.9l-6.2,1.1c-1.6,0.3-2.9,1.6-3.1,3.2l-0.9,6.5l-1.1-6.3c-0.3-1.6-1.6-2.9-3.2-3.1l-6.4-0.9
			l6.2-1.1c1.6-0.3,2.9-1.6,3.1-3.2l0.9-6.5l1.1,6.3c0.3,1.6,1.6,2.9,3.2,3.1L1901.6,108.9z"/>
	</g>
	<g id="icon:5-3_3_">
		<path class="st2" d="M1693.3,486l-6.2,1.1c-1.6,0.3-2.9,1.6-3.1,3.2l-0.9,6.5l-1.1-6.3c-0.3-1.6-1.6-2.9-3.2-3.1l-6.4-0.9l6.2-1.1
			c1.6-0.3,2.9-1.6,3.1-3.2l0.9-6.5l1.1,6.3c0.3,1.6,1.6,2.9,3.2,3.1L1693.3,486z"/>
	</g>
	<g id="icon:5-4_3_">
		<path class="st2" d="M1516.3,255.8l-6.2,1.1c-1.6,0.3-2.9,1.6-3.1,3.2l-0.9,6.4l-1.1-6.3c-0.3-1.6-1.6-2.9-3.2-3.1l-6.4-0.9
			l6.2-1.1c1.6-0.3,2.9-1.6,3.1-3.2l0.9-6.5l1.1,6.3c0.3,1.6,1.6,2.9,3.2,3.1L1516.3,255.8z"/>
	</g>
	<g id="icon:5-6_3_">
		<path class="st2" d="M1169.8,337.4l-6.2,1.1c-1.6,0.3-2.9,1.6-3.1,3.2l-0.9,6.4l-1.1-6.3c-0.3-1.6-1.6-2.9-3.2-3.1l-6.4-0.9
			l6.2-1.1c1.6-0.3,2.9-1.6,3.1-3.2l0.9-6.5l1.1,6.3c0.3,1.6,1.6,2.9,3.2,3.1L1169.8,337.4z"/>
	</g>
	<g id="icon:5-7_3_">
		<path class="st2" d="M1600.1,73.9l-6.2,1.1c-1.6,0.3-2.9,1.6-3.1,3.2l-0.9,6.5l-1.1-6.3c-0.3-1.6-1.6-2.9-3.2-3.1l-6.4-0.9
			l6.2-1.1c1.6-0.3,2.9-1.6,3.1-3.2l0.9-6.5l1.1,6.3c0.3,1.6,1.6,2.9,3.2,3.1L1600.1,73.9z"/>
	</g>
	<g id="icon:5-8_3_">
		<path class="st2" d="M1336.5,519.3l-6.2,1.1c-1.6,0.3-2.9,1.6-3.1,3.2l-0.9,6.4l-1.1-6.3c-0.3-1.6-1.6-2.9-3.2-3.1l-6.4-0.9
			l6.2-1.1c1.6-0.3,2.9-1.6,3.1-3.2l0.9-6.5l1.1,6.3c0.3,1.6,1.6,2.9,3.2,3.1L1336.5,519.3z"/>
	</g>
	<g id="icon:5-9_3_">
		<path class="st2" d="M1156.1,126.1l-6.2,1.1c-1.6,0.3-2.9,1.6-3.1,3.2l-0.9,6.4l-1.1-6.3c-0.3-1.6-1.6-2.9-3.2-3.1l-6.4-0.9
			l6.2-1.1c1.6-0.3,2.9-1.6,3.1-3.2l0.9-6.5l1.1,6.3c0.3,1.6,1.6,2.9,3.2,3.1L1156.1,126.1z"/>
	</g>
	<g id="row2_3_">
		<path id="icon:3_3_" class="st2" d="M1496.5,440.4c0-1.7-0.6-3.3-1.7-4.6l2.9-3.4l-3.5,2.8c-2.6-2.3-6.5-2.2-9,0.1l-3.4-2.9
			l2.8,3.4c-2.3,2.6-2.3,6.5-0.1,9.1l-2.8,3.6l3.4-2.9c2.6,2.3,6.5,2.3,9,0l3.4,2.9l-2.9-3.5
			C1495.9,443.8,1496.5,442.1,1496.5,440.4z M1489.7,433.9c1.5,0,3,0.5,4.1,1.5l-3.4,2.7c-0.6,0.4-1.3,0.4-1.9,0l-3.1-2.6
			C1486.6,434.5,1488.1,433.9,1489.7,433.9z M1484.7,444.6c-1-1.2-1.5-2.7-1.5-4.2c0-1.6,0.6-3.1,1.6-4.3l2.6,3.1
			c0.4,0.6,0.4,1.4,0,1.9L1484.7,444.6z M1489.7,446.9c-1.6,0-3.1-0.6-4.2-1.6l3.3-2.8c0.6-0.4,1.3-0.4,1.9,0l3.3,2.8
			C1492.8,446.4,1491.2,446.9,1489.7,446.9z M1491.7,441.4c-0.4-0.6-0.4-1.4,0-1.9l2.8-3.4c2.1,2.5,2.1,6.2,0,8.6L1491.7,441.4z"/>
	</g>
	<g id="row2-2_3_">
		<path id="icon:3-2_3_" class="st2" d="M1862.7,561.9c0-1.7-0.6-3.3-1.7-4.6l2.9-3.4l-3.5,2.8c-2.6-2.3-6.5-2.2-9,0.1l-3.4-2.9
			l2.8,3.4c-2.3,2.6-2.3,6.5-0.1,9.1l-2.8,3.6l3.4-2.9c2.6,2.3,6.5,2.3,9,0l3.4,2.9l-2.9-3.5C1862,565.2,1862.7,563.6,1862.7,561.9z
			 M1855.9,555.3c1.5,0,3,0.5,4.1,1.5l-3.4,2.7c-0.6,0.4-1.3,0.4-1.9,0l-3.1-2.6C1852.8,555.9,1854.3,555.3,1855.9,555.3z
			 M1850.9,566.1c-1-1.2-1.5-2.7-1.5-4.2c0-1.6,0.6-3.1,1.6-4.3l2.6,3.1c0.4,0.6,0.4,1.4,0,1.9L1850.9,566.1z M1855.9,568.4
			c-1.6,0-3.1-0.6-4.2-1.6l3.3-2.8c0.6-0.4,1.3-0.4,1.9,0l3.3,2.8C1858.9,567.8,1857.4,568.4,1855.9,568.4L1855.9,568.4z
			 M1857.9,562.9c-0.4-0.6-0.4-1.4,0-1.9l2.8-3.4c2.1,2.5,2.1,6.2,0,8.6L1857.9,562.9z"/>
	</g>
	<g id="row2-3_3_">
		<path id="icon:3-3_3_" class="st2" d="M1737.7,164.2c0-1.7-0.6-3.3-1.7-4.6l2.9-3.4l-3.5,2.8c-2.6-2.3-6.5-2.2-9,0.1l-3.4-2.9
			l2.8,3.4c-2.3,2.6-2.3,6.5-0.1,9.1l-2.8,3.6l3.4-2.9c2.6,2.3,6.5,2.3,9,0l3.4,2.9l-2.9-3.5
			C1737.1,167.6,1737.7,165.9,1737.7,164.2z M1730.9,157.7c1.5,0,3,0.5,4.1,1.5l-3.4,2.7c-0.6,0.4-1.3,0.4-1.9,0l-3.1-2.6
			C1727.8,158.3,1729.3,157.7,1730.9,157.7z M1725.9,168.4c-1-1.2-1.5-2.7-1.5-4.2c0-1.6,0.6-3.1,1.6-4.3l2.6,3.1
			c0.4,0.6,0.4,1.4,0,1.9L1725.9,168.4z M1730.9,170.7c-1.6,0-3.1-0.6-4.2-1.6l3.3-2.8c0.6-0.4,1.3-0.4,1.9,0l3.3,2.8
			C1734,170.2,1732.4,170.7,1730.9,170.7z M1732.9,165.2c-0.4-0.6-0.4-1.4,0-1.9l2.8-3.4c2.1,2.5,2.1,6.2,0,8.6L1732.9,165.2z"/>
	</g>
	<g id="row2-6_3_">
		<path id="icon:3-6_3_" class="st2" d="M1324.5,109.3c0-2.3-0.8-4.5-2.3-6.2l3.8-4.6l-4.7,3.7c-3.5-3.1-8.7-3-12.1,0.1l-4.6-3.9
			l3.8,4.6c-3,3.5-3.1,8.7-0.1,12.2l-3.8,4.8l4.6-4c3.5,3.1,8.7,3.1,12.2,0l4.6,4l-3.9-4.6C1323.7,113.8,1324.5,111.6,1324.5,109.3z
			 M1315.3,100.5c2,0,4,0.7,5.6,2.1l-4.6,3.7c-0.8,0.5-1.8,0.5-2.6,0l-4.1-3.5C1311.2,101.3,1313.2,100.5,1315.3,100.5L1315.3,100.5
			z M1308.7,114.9c-1.3-1.6-2-3.6-2-5.6c0-2.1,0.8-4.2,2.1-5.7l3.5,4.2c0.6,0.8,0.6,1.8,0,2.6L1308.7,114.9z M1315.3,118.1
			c-2.1,0-4.1-0.8-5.7-2.2l4.4-3.8c0.8-0.6,1.8-0.6,2.6,0l4.4,3.8C1319.4,117.3,1317.4,118.1,1315.3,118.1L1315.3,118.1z
			 M1318.1,110.7c-0.5-0.8-0.5-1.8,0-2.6l3.8-4.5c2.9,3.3,2.9,8.3-0.1,11.6L1318.1,110.7z"/>
	</g>
	<g id="row2-7_3_">
		<path id="icon:3-7_3_" class="st2" d="M1198.4,486.4c0-2.3-0.8-4.5-2.3-6.2l3.8-4.6l-4.7,3.7c-3.5-3.1-8.7-3-12.1,0.1l-4.6-3.9
			l3.8,4.6c-3,3.5-3.1,8.7-0.1,12.2l-3.8,4.8l4.6-4c3.5,3.1,8.7,3.1,12.2,0l4.6,4l-3.9-4.6C1197.6,491,1198.4,488.7,1198.4,486.4z
			 M1189.3,477.6c2,0,4,0.7,5.6,2.1l-4.6,3.7c-0.8,0.5-1.8,0.5-2.6,0l-4.1-3.5C1185.1,478.4,1187.1,477.6,1189.3,477.6L1189.3,477.6
			z M1182.6,492.1c-1.3-1.6-2-3.6-2-5.6c0-2.1,0.8-4.2,2.1-5.7l3.5,4.2c0.6,0.8,0.6,1.8,0,2.6L1182.6,492.1z M1189.3,495.2
			c-2.1,0-4.1-0.8-5.7-2.2l4.4-3.8c0.8-0.6,1.8-0.6,2.6,0l4.4,3.8C1193.4,494.4,1191.3,495.2,1189.3,495.2L1189.3,495.2z
			 M1192,487.8c-0.5-0.8-0.5-1.8,0-2.6l3.8-4.5c2.9,3.3,2.9,8.3-0.1,11.6L1192,487.8z"/>
	</g>
	<g id="row2-8_3_">
		<path id="icon:3-8_3_" class="st2" d="M1044.4,563.5c0-2.3-0.8-4.5-2.3-6.2l3.8-4.6l-4.7,3.7c-3.5-3.1-8.7-3-12.1,0.1l-4.6-3.9
			l3.8,4.6c-3,3.5-3.1,8.7-0.1,12.2l-3.8,4.8l4.6-4c3.5,3.1,8.7,3.1,12.2,0l4.6,4l-3.9-4.6C1043.6,568,1044.4,565.8,1044.4,563.5z
			 M1035.2,554.7c2,0,4,0.7,5.6,2.1l-4.6,3.7c-0.8,0.5-1.8,0.5-2.6,0l-4.1-3.5C1031.1,555.5,1033.1,554.7,1035.2,554.7L1035.2,554.7
			z M1028.6,569.1c-1.3-1.6-2-3.6-2-5.6c0-2.1,0.8-4.2,2.1-5.7l3.5,4.2c0.6,0.8,0.6,1.8,0,2.6L1028.6,569.1z M1035.2,572.3
			c-2.1,0-4.1-0.8-5.7-2.2l4.4-3.8c0.8-0.6,1.8-0.6,2.6,0l4.4,3.8C1039.3,571.5,1037.3,572.3,1035.2,572.3L1035.2,572.3z
			 M1038,564.9c-0.5-0.8-0.5-1.8,0-2.6l3.8-4.5c2.9,3.3,2.8,8.3-0.1,11.6L1038,564.9z"/>
	</g>
</g>
</svg>
