<?xml version="1.0" encoding="utf-8"?>
<!-- Generator: Adobe Illustrator 24.1.3, SVG Export Plug-In . SVG Version: 6.00 Build 0)  -->
<svg version="1.1" id="Layer_1" xmlns="http://www.w3.org/2000/svg" xmlns:xlink="http://www.w3.org/1999/xlink" x="0px" y="0px"
	 width="1634.7px" height="1150.8px" viewBox="0 0 1634.7 1150.8" enable-background="new 0 0 1634.7 1150.8" xml:space="preserve">
<radialGradient id="SVGID_1_" cx="630.25" cy="610.2657" r="586.594" gradientTransform="matrix(1 0 0 1.0651 0 -74.8373)" gradientUnits="userSpaceOnUse">
	<stop  offset="1.157407e-03" style="stop-color:#172A24"/>
	<stop  offset="1" style="stop-color:#000000"/>
</radialGradient>
<rect x="0.5" fill="url(#SVGID_1_)" width="1259.5" height="1150.3"/>
<radialGradient id="SVGID_2_" cx="630.25" cy="610.2657" r="586.594" gradientUnits="userSpaceOnUse">
	<stop  offset="1.157407e-03" style="stop-color:#172A24"/>
	<stop  offset="1" style="stop-color:#000000"/>
</radialGradient>
<rect x="0.5" y="70.3" fill="url(#SVGID_2_)" width="1259.5" height="1080"/>
<rect x="1260" fill="#221F20" width="375.7" height="1150.8"/>
<image display="none" overflow="visible" width="1920" height="1560" xlink:href="../../og-img/globalnoc-logo.png"  transform="matrix(1 0 0 1 168.8824 -581.4108)">
</image>
<g display="none">
</g>
<g id="servers">
	<g>
		<path fill="#FFFFFF" d="M945.3,537.1h30v3.8h-28.1v3.7h28.1v3.8h-28.1v18.6h28.1v3.8h-28.1v18.6h28.1v3.8h-28.1v37.6h28.1v3.8
			h-29.9c-1,0-1.9-0.8-1.9-1.9V539C943.4,538,944.2,537.1,945.3,537.1z M955.6,562.5v-9.3h-3.8v9.3H955.6z M962.2,562.5v-9.3h-3.8
			v9.3H962.2z M968.8,562.5v-9.3H965v9.3H968.8z M955.6,584.8v-9.3h-3.8v9.3H955.6z M962.2,584.8v-9.3h-3.8v9.3H962.2z M968.8,584.8
			v-9.3H965v9.3H968.8z M1072,537.1h-29.9v3.8h28.1v3.7h-28.1v3.8h28.1v18.6h-28.1v3.8h28.1v18.6h-28.1v3.8h28.1v37.6h-28.1v3.8h30
			c1,0,1.9-0.8,1.9-1.9V539C1073.9,538,1073.1,537.1,1072,537.1z M1061.7,553.3v9.3h3.8v-9.3H1061.7z M1055.1,553.3v9.3h3.8v-9.3
			H1055.1z M1048.5,553.3v9.3h3.8v-9.3H1048.5z M1061.7,575.6v9.3h3.8v-9.3C1065.4,575.6,1061.7,575.6,1061.7,575.6z M1055.1,575.6
			v9.3h3.8v-9.3C1058.9,575.6,1055.1,575.6,1055.1,575.6z M1048.5,575.6v9.3h3.8v-9.3C1052.3,575.6,1048.5,575.6,1048.5,575.6z
			 M1040.4,527.8v104.7c0,1-0.8,1.9-1.9,1.9h-59.7c-1,0-1.9-0.8-1.9-1.9V527.8c0-1,0.8-1.9,1.9-1.9h59.7
			C1039.6,526,1040.4,526.8,1040.4,527.8z M980.7,529.7v3.7h55.9v-3.7H980.7z M1036.6,578.1v-18.5h-55.9v18.5H1036.6z M980.7,581.8
			v18.6h55.9v-18.6H980.7z M1036.6,555.7v-18.6h-55.9v18.6H1036.6z M1036.6,630.6v-26.5h-55.9v26.5L1036.6,630.6L1036.6,630.6z
			 M985.4,551.3h3.8v-9.3h-3.8V551.3z M991.9,551.3h3.8v-9.3h-3.8V551.3z M998.5,551.3h3.8v-9.3h-3.8V551.3z M1021.4,548.6h4.6v-3.8
			h-4.6V548.6z M1027.3,544.8v3.8h4.6v-3.8H1027.3z M1015.5,548.6h4.6v-3.8h-4.6V548.6z M985.4,573.7h3.8v-9.3h-3.8V573.7z
			 M991.9,573.7h3.8v-9.3h-3.8V573.7z M998.5,573.7h3.8v-9.3h-3.8V573.7z M1027.3,567.2v3.8h4.6v-3.8H1027.3z M1015.5,570.9h4.6
			v-3.8h-4.6V570.9z M1021.4,570.9h4.6v-3.8h-4.6V570.9z M989.1,596v-9.3h-3.8v9.3H989.1z M995.7,586.8h-3.8v9.3h3.8V586.8z
			 M1002.3,586.8h-3.8v9.3h3.8V586.8z M1031.9,589.5h-4.6v3.8h4.6V589.5z M1020.1,589.5h-4.6v3.8h4.6V589.5z M1026,589.5h-4.6v3.8
			h4.6V589.5z"/>
	</g>
</g>
<g id="servers_1_">
	<g>
		<path fill="#FFFFFF" d="M568.3,537.1h30v3.8h-28.1v3.7h28.1v3.8h-28.1v18.6h28.1v3.8h-28.1v18.6h28.1v3.8h-28.1v37.6h28.1v3.8
			h-29.9c-1,0-1.9-0.8-1.9-1.9V539C566.4,538,567.2,537.1,568.3,537.1z M578.6,562.5v-9.3h-3.8v9.3H578.6z M585.2,562.5v-9.3h-3.8
			v9.3H585.2z M591.8,562.5v-9.3H588v9.3H591.8z M578.6,584.8v-9.3h-3.8v9.3H578.6z M585.2,584.8v-9.3h-3.8v9.3H585.2z M591.8,584.8
			v-9.3H588v9.3H591.8z M695,537.1h-29.9v3.8h28.1v3.7h-28.1v3.8h28.1v18.6h-28.1v3.8h28.1v18.6h-28.1v3.8h28.1v37.6h-28.1v3.8h30
			c1,0,1.9-0.8,1.9-1.9V539C696.9,538,696.1,537.1,695,537.1z M684.7,553.3v9.3h3.8v-9.3H684.7z M678.1,553.3v9.3h3.8v-9.3H678.1z
			 M671.5,553.3v9.3h3.8v-9.3H671.5z M684.7,575.6v9.3h3.8v-9.3C688.4,575.6,684.7,575.6,684.7,575.6z M678.1,575.6v9.3h3.8v-9.3
			C681.9,575.6,678.1,575.6,678.1,575.6z M671.5,575.6v9.3h3.8v-9.3C675.3,575.6,671.5,575.6,671.5,575.6z M663.4,527.8v104.7
			c0,1-0.8,1.9-1.9,1.9h-59.7c-1,0-1.9-0.8-1.9-1.9V527.8c0-1,0.8-1.9,1.9-1.9h59.7C662.6,526,663.4,526.8,663.4,527.8z
			 M603.7,529.7v3.7h55.9v-3.7H603.7z M659.6,578.1v-18.5h-55.9v18.5H659.6z M603.7,581.8v18.6h55.9v-18.6H603.7z M659.6,555.7
			v-18.6h-55.9v18.6H659.6z M659.6,630.6v-26.5h-55.9v26.5L659.6,630.6L659.6,630.6z M608.4,551.3h3.8v-9.3h-3.8V551.3z
			 M614.9,551.3h3.8v-9.3h-3.8V551.3z M621.5,551.3h3.8v-9.3h-3.8V551.3z M644.4,548.6h4.6v-3.8h-4.6V548.6z M650.3,544.8v3.8h4.6
			v-3.8H650.3z M638.5,548.6h4.6v-3.8h-4.6V548.6z M608.4,573.7h3.8v-9.3h-3.8V573.7z M614.9,573.7h3.8v-9.3h-3.8V573.7z
			 M621.5,573.7h3.8v-9.3h-3.8V573.7z M650.3,567.2v3.8h4.6v-3.8H650.3z M638.5,570.9h4.6v-3.8h-4.6V570.9z M644.4,570.9h4.6v-3.8
			h-4.6V570.9z M612.1,596v-9.3h-3.8v9.3H612.1z M618.7,586.8h-3.8v9.3h3.8V586.8z M625.3,586.8h-3.8v9.3h3.8V586.8z M654.9,589.5
			h-4.6v3.8h4.6V589.5z M643.1,589.5h-4.6v3.8h4.6V589.5z M649,589.5h-4.6v3.8h4.6V589.5z"/>
	</g>
</g>
<g id="servers_2_">
	<g>
		<path fill="#FFFFFF" d="M191.3,537.1h30v3.8h-28.1v3.7h28.1v3.8h-28.1v18.6h28.1v3.8h-28.1v18.6h28.1v3.8h-28.1v37.6h28.1v3.8
			h-29.9c-1,0-1.9-0.8-1.9-1.9V539C189.4,538,190.2,537.1,191.3,537.1z M201.6,562.5v-9.3h-3.8v9.3H201.6z M208.2,562.5v-9.3h-3.8
			v9.3H208.2z M214.8,562.5v-9.3H211v9.3H214.8z M201.6,584.8v-9.3h-3.8v9.3H201.6z M208.2,584.8v-9.3h-3.8v9.3H208.2z M214.8,584.8
			v-9.3H211v9.3H214.8z M318,537.1h-29.9v3.8h28.1v3.7h-28.1v3.8h28.1v18.6h-28.1v3.8h28.1v18.6h-28.1v3.8h28.1v37.6h-28.1v3.8h30
			c1,0,1.9-0.8,1.9-1.9V539C319.9,538,319.1,537.1,318,537.1z M307.7,553.3v9.3h3.8v-9.3H307.7z M301.1,553.3v9.3h3.8v-9.3H301.1z
			 M294.5,553.3v9.3h3.8v-9.3H294.5z M307.7,575.6v9.3h3.8v-9.3C311.4,575.6,307.7,575.6,307.7,575.6z M301.1,575.6v9.3h3.8v-9.3
			C304.9,575.6,301.1,575.6,301.1,575.6z M294.5,575.6v9.3h3.8v-9.3C298.3,575.6,294.5,575.6,294.5,575.6z M286.4,527.8v104.7
			c0,1-0.8,1.9-1.9,1.9h-59.7c-1,0-1.9-0.8-1.9-1.9V527.8c0-1,0.8-1.9,1.9-1.9h59.7C285.6,526,286.4,526.8,286.4,527.8z
			 M226.7,529.7v3.7h55.9v-3.7H226.7z M282.6,578.1v-18.5h-55.9v18.5H282.6z M226.7,581.8v18.6h55.9v-18.6H226.7z M282.6,555.7
			v-18.6h-55.9v18.6H282.6z M282.6,630.6v-26.5h-55.9v26.5L282.6,630.6L282.6,630.6z M231.4,551.3h3.8v-9.3h-3.8V551.3z
			 M237.9,551.3h3.8v-9.3h-3.8V551.3z M244.5,551.3h3.8v-9.3h-3.8V551.3z M267.4,548.6h4.6v-3.8h-4.6V548.6z M273.3,544.8v3.8h4.6
			v-3.8H273.3z M261.5,548.6h4.6v-3.8h-4.6V548.6z M231.4,573.7h3.8v-9.3h-3.8V573.7z M237.9,573.7h3.8v-9.3h-3.8V573.7z
			 M244.5,573.7h3.8v-9.3h-3.8V573.7z M273.3,567.2v3.8h4.6v-3.8H273.3z M261.5,570.9h4.6v-3.8h-4.6V570.9z M267.4,570.9h4.6v-3.8
			h-4.6V570.9z M235.1,596v-9.3h-3.8v9.3H235.1z M241.7,586.8h-3.8v9.3h3.8V586.8z M248.3,586.8h-3.8v9.3h3.8V586.8z M277.9,589.5
			h-4.6v3.8h4.6V589.5z M266.1,589.5h-4.6v3.8h4.6V589.5z M272,589.5h-4.6v3.8h4.6V589.5z"/>
	</g>
</g>
<g id="Layer_1_1_">
</g>
<g id="setting-app">
	<g>
		<path fill="#FFFFFF" d="M297.9,750.8h-87.4c-4.3,0-7.8,3.5-7.8,7.8v76.8c0,4.3,3.5,7.8,7.8,7.8h87.4c4.3,0,7.8-3.5,7.8-7.8v-76.8
			C305.8,754.3,302.2,750.8,297.9,750.8z M210.5,754.1h87.4c2.5,0,4.5,2,4.5,4.5v8.9h-96.4v-8.9
			C206.1,756.1,208.1,754.1,210.5,754.1z M297.9,839.8h-87.4c-2.5,0-4.5-2-4.5-4.5v-64.6h96.4v64.6
			C302.4,837.8,300.4,839.8,297.9,839.8z M243.7,795.6c-5.8,5.8-5.8,15.3,0,21.1c2.9,2.9,6.7,4.4,10.6,4.4c3.8,0,7.7-1.5,10.6-4.4
			c5.8-5.8,5.8-15.3,0-21.1C259,789.8,249.5,789.8,243.7,795.6z M262.5,814.4c-4.5,4.5-11.9,4.5-16.4,0c-2.2-2.2-3.4-5.1-3.4-8.2
			c0-3.1,1.2-6,3.4-8.2c4.5-4.5,11.9-4.5,16.4,0c2.2,2.2,3.4,5.1,3.4,8.2C265.9,809.3,264.7,812.2,262.5,814.4z M281.7,800.9h-3.2
			c-0.6-2.9-1.8-5.6-3.4-8.1l2.2-2.2c0.3-0.3,0.5-0.7,0.5-1.2s-0.2-0.9-0.5-1.2l-5.1-5.1c-0.6-0.6-1.7-0.6-2.4,0l-2.2,2.2
			c-2.5-1.6-5.2-2.7-8.1-3.4v-3.2c0-0.9-0.7-1.7-1.7-1.7h-7.3c-0.9,0-1.7,0.7-1.7,1.7v3.2c-2.9,0.6-5.6,1.8-8.1,3.4l-2.2-2.2
			c-0.6-0.6-1.7-0.6-2.4,0l-5.1,5.1c-0.6,0.6-0.6,1.7,0,2.4l2.2,2.2c-1.6,2.5-2.7,5.2-3.4,8.1h-3.2c-0.9,0-1.7,0.7-1.7,1.7l0,7.3
			c0,0.4,0.2,0.9,0.5,1.2c0.3,0.3,0.7,0.5,1.2,0.5h3.2c0.6,2.9,1.8,5.6,3.4,8.1l-2.2,2.2c-0.6,0.6-0.6,1.7,0,2.4l5.1,5.1
			c0.3,0.3,0.7,0.5,1.2,0.5s0.9-0.2,1.2-0.5l2.2-2.2c2.5,1.6,5.2,2.7,8.1,3.4v3.2c0,0.9,0.7,1.7,1.7,1.7h7.3c0.9,0,1.7-0.7,1.7-1.7
			v-3.2c2.9-0.6,5.6-1.8,8.1-3.4l2.2,2.2c0.3,0.3,0.7,0.5,1.2,0.5c0.4,0,0.9-0.2,1.2-0.5l5.1-5.1c0.6-0.6,0.6-1.7,0-2.4l-2.2-2.2
			c1.6-2.5,2.7-5.2,3.4-8.1h3.2c0.9,0,1.7-0.7,1.7-1.7v-7.3C283.4,801.6,282.6,800.9,281.7,800.9z M280,808.1h-2.9
			c-0.8,0-1.5,0.6-1.6,1.4c-0.5,3.3-1.9,6.5-3.8,9.3c-0.5,0.7-0.4,1.6,0.2,2.2l2,2l-2.8,2.8l-2-2c-0.6-0.6-1.5-0.7-2.2-0.2
			c-2.7,2-5.9,3.3-9.3,3.8c-0.8,0.1-1.4,0.8-1.4,1.6v2.9h-4v-2.9c0-0.8-0.6-1.5-1.4-1.6c-3.3-0.5-6.5-1.9-9.3-3.8
			c-0.7-0.5-1.6-0.4-2.2,0.2l-2,2l-2.8-2.8l2-2c0.6-0.6,0.7-1.5,0.2-2.2c-2-2.7-3.3-5.9-3.8-9.3c-0.1-0.8-0.8-1.4-1.6-1.4h-2.9l0-4
			h2.9c0.8,0,1.5-0.6,1.6-1.4c0.5-3.3,1.9-6.5,3.8-9.3c0.5-0.7,0.4-1.6-0.2-2.2l-2-2l2.8-2.8l2,2c0.6,0.6,1.5,0.7,2.2,0.2
			c2.7-2,5.9-3.3,9.3-3.8c0.8-0.1,1.4-0.8,1.4-1.6v-2.9h4v2.9c0,0.8,0.6,1.5,1.4,1.6c3.3,0.5,6.5,1.9,9.3,3.8
			c0.7,0.5,1.6,0.4,2.2-0.2l2-2l2.8,2.8l-2,2c-0.6,0.6-0.7,1.5-0.2,2.2c2,2.7,3.3,5.9,3.8,9.3c0.1,0.8,0.8,1.4,1.6,1.4h2.9V808.1z
			 M214.4,764.2c1.8,0,3.3-1.5,3.3-3.3c0-1.8-1.5-3.3-3.3-3.3c-1.8,0-3.3,1.5-3.3,3.3C211.1,762.7,212.6,764.2,214.4,764.2z
			 M214.4,759.3c0.9,0,1.6,0.7,1.6,1.6s-0.7,1.6-1.6,1.6s-1.6-0.7-1.6-1.6S213.5,759.3,214.4,759.3z M224.2,764.2
			c1.8,0,3.3-1.5,3.3-3.3c0-1.8-1.5-3.3-3.3-3.3c-1.8,0-3.3,1.5-3.3,3.3C220.9,762.7,222.4,764.2,224.2,764.2z M224.2,759.3
			c0.9,0,1.6,0.7,1.6,1.6s-0.7,1.6-1.6,1.6s-1.6-0.7-1.6-1.6S223.3,759.3,224.2,759.3z M234.1,764.2c1.8,0,3.3-1.5,3.3-3.3
			c0-1.8-1.5-3.3-3.3-3.3c-1.8,0-3.3,1.5-3.3,3.3C230.8,762.7,232.3,764.2,234.1,764.2z M234.1,759.3c0.9,0,1.6,0.7,1.6,1.6
			s-0.7,1.6-1.6,1.6s-1.6-0.7-1.6-1.6S233.2,759.3,234.1,759.3z"/>
	</g>
</g>
<g id="setting-app_1_">
	<g>
		<path fill="#FFFFFF" d="M674.9,748.8h-87.4c-4.3,0-7.8,3.5-7.8,7.8v76.8c0,4.3,3.5,7.8,7.8,7.8h87.4c4.3,0,7.8-3.5,7.8-7.8v-76.8
			C682.8,752.3,679.2,748.8,674.9,748.8z M587.5,752.1h87.4c2.5,0,4.5,2,4.5,4.5v8.9h-96.4v-8.9
			C583.1,754.1,585.1,752.1,587.5,752.1z M674.9,837.8h-87.4c-2.5,0-4.5-2-4.5-4.5v-64.6h96.4v64.6
			C679.4,835.8,677.4,837.8,674.9,837.8z M620.7,793.6c-5.8,5.8-5.8,15.3,0,21.1c2.9,2.9,6.7,4.4,10.6,4.4c3.8,0,7.7-1.5,10.6-4.4
			c5.8-5.8,5.8-15.3,0-21.1C636,787.8,626.5,787.8,620.7,793.6z M639.5,812.4c-4.5,4.5-11.9,4.5-16.4,0c-2.2-2.2-3.4-5.1-3.4-8.2
			c0-3.1,1.2-6,3.4-8.2c4.5-4.5,11.9-4.5,16.4,0c2.2,2.2,3.4,5.1,3.4,8.2C642.9,807.3,641.7,810.2,639.5,812.4z M658.7,798.9h-3.2
			c-0.6-2.9-1.8-5.6-3.4-8.1l2.2-2.2c0.3-0.3,0.5-0.7,0.5-1.2s-0.2-0.9-0.5-1.2l-5.1-5.1c-0.6-0.6-1.7-0.6-2.4,0l-2.2,2.2
			c-2.5-1.6-5.2-2.7-8.1-3.4v-3.2c0-0.9-0.7-1.7-1.7-1.7h-7.3c-0.9,0-1.7,0.7-1.7,1.7v3.2c-2.9,0.6-5.6,1.8-8.1,3.4l-2.2-2.2
			c-0.6-0.6-1.7-0.6-2.4,0l-5.1,5.1c-0.6,0.6-0.6,1.7,0,2.4l2.2,2.2c-1.6,2.5-2.7,5.2-3.4,8.1h-3.2c-0.9,0-1.7,0.7-1.7,1.7l0,7.3
			c0,0.4,0.2,0.9,0.5,1.2c0.3,0.3,0.7,0.5,1.2,0.5h3.2c0.6,2.9,1.8,5.6,3.4,8.1l-2.2,2.2c-0.6,0.6-0.6,1.7,0,2.4l5.1,5.1
			c0.3,0.3,0.7,0.5,1.2,0.5c0.4,0,0.9-0.2,1.2-0.5l2.2-2.2c2.5,1.6,5.2,2.7,8.1,3.4v3.2c0,0.9,0.7,1.7,1.7,1.7h7.3
			c0.9,0,1.7-0.7,1.7-1.7v-3.2c2.9-0.6,5.6-1.8,8.1-3.4l2.2,2.2c0.3,0.3,0.7,0.5,1.2,0.5s0.9-0.2,1.2-0.5l5.1-5.1
			c0.6-0.6,0.6-1.7,0-2.4l-2.2-2.2c1.6-2.5,2.7-5.2,3.4-8.1h3.2c0.9,0,1.7-0.7,1.7-1.7v-7.3C660.4,799.6,659.6,798.9,658.7,798.9z
			 M657,806.1h-2.9c-0.8,0-1.5,0.6-1.6,1.4c-0.5,3.3-1.9,6.5-3.8,9.3c-0.5,0.7-0.4,1.6,0.2,2.2l2,2l-2.8,2.8l-2-2
			c-0.6-0.6-1.5-0.7-2.2-0.2c-2.7,2-5.9,3.3-9.3,3.8c-0.8,0.1-1.4,0.8-1.4,1.6v2.9h-4v-2.9c0-0.8-0.6-1.5-1.4-1.6
			c-3.3-0.5-6.5-1.9-9.3-3.8c-0.7-0.5-1.6-0.4-2.2,0.2l-2,2l-2.8-2.8l2-2c0.6-0.6,0.7-1.5,0.2-2.2c-2-2.7-3.3-5.9-3.8-9.3
			c-0.1-0.8-0.8-1.4-1.6-1.4h-2.9l0-4h2.9c0.8,0,1.5-0.6,1.6-1.4c0.5-3.3,1.9-6.5,3.8-9.3c0.5-0.7,0.4-1.6-0.2-2.2l-2-2l2.8-2.8l2,2
			c0.6,0.6,1.5,0.7,2.2,0.2c2.7-2,5.9-3.3,9.3-3.8c0.8-0.1,1.4-0.8,1.4-1.6v-2.9h4v2.9c0,0.8,0.6,1.5,1.4,1.6
			c3.3,0.5,6.5,1.9,9.3,3.8c0.7,0.5,1.6,0.4,2.2-0.2l2-2l2.8,2.8l-2,2c-0.6,0.6-0.7,1.5-0.2,2.2c2,2.7,3.3,5.9,3.8,9.3
			c0.1,0.8,0.8,1.4,1.6,1.4h2.9V806.1z M591.4,762.2c1.8,0,3.3-1.5,3.3-3.3c0-1.8-1.5-3.3-3.3-3.3c-1.8,0-3.3,1.5-3.3,3.3
			C588.1,760.7,589.6,762.2,591.4,762.2z M591.4,757.3c0.9,0,1.6,0.7,1.6,1.6s-0.7,1.6-1.6,1.6s-1.6-0.7-1.6-1.6
			S590.5,757.3,591.4,757.3z M601.2,762.2c1.8,0,3.3-1.5,3.3-3.3c0-1.8-1.5-3.3-3.3-3.3c-1.8,0-3.3,1.5-3.3,3.3
			C597.9,760.7,599.4,762.2,601.2,762.2z M601.2,757.3c0.9,0,1.6,0.7,1.6,1.6s-0.7,1.6-1.6,1.6s-1.6-0.7-1.6-1.6
			S600.3,757.3,601.2,757.3z M611.1,762.2c1.8,0,3.3-1.5,3.3-3.3c0-1.8-1.5-3.3-3.3-3.3c-1.8,0-3.3,1.5-3.3,3.3
			C607.8,760.7,609.3,762.2,611.1,762.2z M611.1,757.3c0.9,0,1.6,0.7,1.6,1.6s-0.7,1.6-1.6,1.6s-1.6-0.7-1.6-1.6
			S610.2,757.3,611.1,757.3z"/>
	</g>
</g>
<g id="setting-app_2_">
	<g>
		<path fill="#FFFFFF" d="M1051.9,747.8h-87.4c-4.3,0-7.8,3.5-7.8,7.8v76.8c0,4.3,3.5,7.8,7.8,7.8h87.4c4.3,0,7.8-3.5,7.8-7.8v-76.8
			C1059.8,751.3,1056.2,747.8,1051.9,747.8z M964.5,751.1h87.4c2.5,0,4.5,2,4.5,4.5v8.9h-96.4v-8.9
			C960.1,753.1,962.1,751.1,964.5,751.1z M1051.9,836.8h-87.4c-2.5,0-4.5-2-4.5-4.5v-64.6h96.4v64.6
			C1056.4,834.8,1054.4,836.8,1051.9,836.8z M997.7,792.6c-5.8,5.8-5.8,15.3,0,21.1c2.9,2.9,6.7,4.4,10.6,4.4
			c3.8,0,7.7-1.5,10.6-4.4c5.8-5.8,5.8-15.3,0-21.1C1013,786.8,1003.5,786.8,997.7,792.6z M1016.5,811.4c-4.5,4.5-11.9,4.5-16.4,0
			c-2.2-2.2-3.4-5.1-3.4-8.2c0-3.1,1.2-6,3.4-8.2c4.5-4.5,11.9-4.5,16.4,0c2.2,2.2,3.4,5.1,3.4,8.2
			C1019.9,806.3,1018.7,809.2,1016.5,811.4z M1035.7,797.9h-3.2c-0.6-2.9-1.8-5.6-3.4-8.1l2.2-2.2c0.3-0.3,0.5-0.7,0.5-1.2
			s-0.2-0.9-0.5-1.2l-5.1-5.1c-0.6-0.6-1.7-0.6-2.4,0l-2.2,2.2c-2.5-1.6-5.2-2.7-8.1-3.4v-3.2c0-0.9-0.7-1.7-1.7-1.7h-7.3
			c-0.9,0-1.7,0.7-1.7,1.7v3.2c-2.9,0.6-5.6,1.8-8.1,3.4l-2.2-2.2c-0.6-0.6-1.7-0.6-2.4,0l-5.1,5.1c-0.6,0.6-0.6,1.7,0,2.4l2.2,2.2
			c-1.6,2.5-2.7,5.2-3.4,8.1h-3.2c-0.9,0-1.7,0.7-1.7,1.7l0,7.3c0,0.4,0.2,0.9,0.5,1.2c0.3,0.3,0.7,0.5,1.2,0.5h3.2
			c0.6,2.9,1.8,5.6,3.4,8.1l-2.2,2.2c-0.6,0.6-0.6,1.7,0,2.4l5.1,5.1c0.3,0.3,0.7,0.5,1.2,0.5c0.4,0,0.9-0.2,1.2-0.5l2.2-2.2
			c2.5,1.6,5.2,2.7,8.1,3.4v3.2c0,0.9,0.7,1.7,1.7,1.7h7.3c0.9,0,1.7-0.7,1.7-1.7v-3.2c2.9-0.6,5.6-1.8,8.1-3.4l2.2,2.2
			c0.3,0.3,0.7,0.5,1.2,0.5c0.4,0,0.9-0.2,1.2-0.5l5.1-5.1c0.6-0.6,0.6-1.7,0-2.4l-2.2-2.2c1.6-2.5,2.7-5.2,3.4-8.1h3.2
			c0.9,0,1.7-0.7,1.7-1.7v-7.3C1037.4,798.6,1036.6,797.9,1035.7,797.9z M1034,805.1h-2.9c-0.8,0-1.5,0.6-1.6,1.4
			c-0.5,3.3-1.9,6.5-3.8,9.3c-0.5,0.7-0.4,1.6,0.2,2.2l2,2l-2.8,2.8l-2-2c-0.6-0.6-1.5-0.7-2.2-0.2c-2.7,2-5.9,3.3-9.3,3.8
			c-0.8,0.1-1.4,0.8-1.4,1.6v2.9h-4v-2.9c0-0.8-0.6-1.5-1.4-1.6c-3.3-0.5-6.5-1.9-9.3-3.8c-0.7-0.5-1.6-0.4-2.2,0.2l-2,2l-2.8-2.8
			l2-2c0.6-0.6,0.7-1.5,0.2-2.2c-2-2.7-3.3-5.9-3.8-9.3c-0.1-0.8-0.8-1.4-1.6-1.4h-2.9l0-4h2.9c0.8,0,1.5-0.6,1.6-1.4
			c0.5-3.3,1.9-6.5,3.8-9.3c0.5-0.7,0.4-1.6-0.2-2.2l-2-2l2.8-2.8l2,2c0.6,0.6,1.5,0.7,2.2,0.2c2.7-2,5.9-3.3,9.3-3.8
			c0.8-0.1,1.4-0.8,1.4-1.6v-2.9h4v2.9c0,0.8,0.6,1.5,1.4,1.6c3.3,0.5,6.5,1.9,9.3,3.8c0.7,0.5,1.6,0.4,2.2-0.2l2-2l2.8,2.8l-2,2
			c-0.6,0.6-0.7,1.5-0.2,2.2c2,2.7,3.3,5.9,3.8,9.3c0.1,0.8,0.8,1.4,1.6,1.4h2.9V805.1z M968.4,761.2c1.8,0,3.3-1.5,3.3-3.3
			c0-1.8-1.5-3.3-3.3-3.3c-1.8,0-3.3,1.5-3.3,3.3C965.1,759.7,966.6,761.2,968.4,761.2z M968.4,756.3c0.9,0,1.6,0.7,1.6,1.6
			s-0.7,1.6-1.6,1.6s-1.6-0.7-1.6-1.6S967.5,756.3,968.4,756.3z M978.2,761.2c1.8,0,3.3-1.5,3.3-3.3c0-1.8-1.5-3.3-3.3-3.3
			c-1.8,0-3.3,1.5-3.3,3.3C974.9,759.7,976.4,761.2,978.2,761.2z M978.2,756.3c0.9,0,1.6,0.7,1.6,1.6s-0.7,1.6-1.6,1.6
			s-1.6-0.7-1.6-1.6S977.3,756.3,978.2,756.3z M988.1,761.2c1.8,0,3.3-1.5,3.3-3.3c0-1.8-1.5-3.3-3.3-3.3c-1.8,0-3.3,1.5-3.3,3.3
			C984.8,759.7,986.3,761.2,988.1,761.2z M988.1,756.3c0.9,0,1.6,0.7,1.6,1.6s-0.7,1.6-1.6,1.6s-1.6-0.7-1.6-1.6
			S987.2,756.3,988.1,756.3z"/>
	</g>
</g>
<g id="Layer_1_2_">
</g>
<g id="database-security">
	<g>
		<path fill="#FFFFFF" d="M305,336.7c0-8.7-17.6-17.9-50.3-17.9c-32.7,0-50.3,9.2-50.3,17.9v32.8c0,0.4,0.1,0.9,0.1,1.3h-0.1v16.4
			c0,5.8,8,11.9,23.1,15.3c-0.4-1.3-0.6-2.6-0.8-4c-11.7-2.8-18.7-7.2-18.7-11.3v-11c3.8,3.5,10.6,6.6,20.3,8.7
			c0.4-1.2,1-2.3,1.6-3.4c-13.5-2.7-21.9-7.5-21.9-12V360c0.4,0.4,0.9,0.8,1.4,1.2c6.1,4.5,17.8,7.8,31.4,9.2c2.5-1.4,5.2-2.4,8-3
			c-16.3-0.6-30.6-4.1-37.3-9c-1.6-1.2-3.5-3-3.5-5.2v-9.5c0.4,0.4,0.9,0.8,1.4,1.1c3.8,2.8,9.7,5.2,17.1,6.9
			c8.3,1.9,18,2.9,28.2,2.9c10.1,0,19.9-1,28.2-2.9c7.4-1.7,13.4-4.1,17.1-6.9c0.5-0.4,1-0.8,1.4-1.1v9.5c0,2.1-1.9,4-3.5,5.2
			c-6.8,5-21,8.4-37.3,9c2.9,0.6,5.5,1.6,8,3c13.7-1.3,25.3-4.7,31.4-9.2c0.5-0.4,1-0.8,1.4-1.1v9.5c0,4.5-8.3,9.2-21.9,12
			c0.6,1.1,1.1,2.2,1.6,3.4c9.6-2,16.5-5.2,20.3-8.7v11c0,4.1-7.1,8.5-18.7,11.3c-0.2,1.4-0.4,2.7-0.8,4
			c15.2-3.4,23.1-9.4,23.1-15.3v-16.4h-0.1c0.1-0.4,0.1-0.9,0.1-1.3V336.7z M297.8,341.8c-3.4,2.5-8.9,4.7-15.8,6.3
			c-8,1.9-17.5,2.9-27.3,2.9s-19.3-1-27.4-2.9c-7-1.6-12.4-3.8-15.8-6.3c-1.6-1.2-3.5-3.1-3.5-5.2c0-6.8,19.2-14.3,46.7-14.3
			s46.7,7.5,46.7,14.3C301.4,338.8,299.4,340.6,297.8,341.8z M216.8,358.4c-1.8,0-3.3-1.5-3.3-3.3s1.5-3.3,3.3-3.3
			c1.8,0,3.3,1.5,3.3,3.3S218.6,358.4,216.8,358.4z M216.8,353.6c-0.8,0-1.5,0.7-1.5,1.5c0,0.8,0.7,1.5,1.5,1.5
			c0.8,0,1.5-0.7,1.5-1.5C218.3,354.3,217.6,353.6,216.8,353.6z M216.8,374.6c-1.8,0-3.3-1.5-3.3-3.3s1.5-3.3,3.3-3.3
			c1.8,0,3.3,1.5,3.3,3.3C220.1,373.1,218.6,374.6,216.8,374.6z M216.8,369.7c-0.8,0-1.5,0.7-1.5,1.5s0.7,1.5,1.5,1.5
			c0.8,0,1.5-0.7,1.5-1.5C218.3,370.4,217.6,369.7,216.8,369.7z M216.8,392.3c-1.8,0-3.3-1.5-3.3-3.3c0-1.8,1.5-3.3,3.3-3.3
			c1.8,0,3.3,1.5,3.3,3.3C220.1,390.8,218.6,392.3,216.8,392.3z M216.8,387.5c-0.8,0-1.5,0.7-1.5,1.5c0,0.8,0.7,1.5,1.5,1.5
			c0.8,0,1.5-0.7,1.5-1.5C218.3,388.1,217.6,387.5,216.8,387.5z M254.7,419.2c-13.4,0-24.3-10.9-24.3-24.3s10.9-24.3,24.3-24.3
			c13.4,0,24.3,10.9,24.3,24.3C279,408.2,268.1,419.2,254.7,419.2z M254.7,374.1c-11.4,0-20.8,9.3-20.8,20.8
			c0,11.4,9.3,20.8,20.8,20.8s20.8-9.3,20.8-20.8C275.4,383.4,266.1,374.1,254.7,374.1z M255.1,413.4c-0.4,0-0.8-0.1-1.1-0.3
			c-0.6-0.4-14.9-10-14.9-24.7c0-1,0.8-1.8,1.8-1.8c7.7,0,12.6-7.3,12.6-7.4c0.3-0.5,0.9-0.8,1.5-0.8c0.6,0,1.3,0.3,1.6,0.8
			c0.1,0.1,4.9,7.4,12.6,7.4c1,0,1.8,0.8,1.8,1.8c0,14.8-14.3,24.3-14.9,24.7C255.8,413.3,255.5,413.4,255.1,413.4z M242.7,390.1
			c0.9,9.9,9.5,17.2,12.3,19.4c2.9-2.2,11.4-9.4,12.3-19.4c-6-0.7-10.2-4.6-12.3-7.1C253,385.4,248.7,389.4,242.7,390.1z
			 M254.3,400.7c-0.5,0-0.9-0.2-1.3-0.5l-4.5-4.5l2.5-2.5l3.2,3.2l6-6l2.5,2.5l-7.3,7.3C255.2,400.5,254.7,400.7,254.3,400.7z"/>
	</g>
</g>
<g id="database-security_1_">
	<g>
		<path fill="#FFFFFF" d="M680.9,336.2c0-8.7-17.6-17.9-50.3-17.9c-32.7,0-50.3,9.2-50.3,17.9V369c0,0.4,0.1,0.9,0.1,1.3h-0.1v16.4
			c0,5.8,8,11.9,23.1,15.3c-0.4-1.3-0.6-2.6-0.8-4c-11.7-2.8-18.7-7.2-18.7-11.3v-11c3.8,3.5,10.6,6.6,20.3,8.7
			c0.4-1.2,1-2.3,1.6-3.4c-13.5-2.7-21.9-7.5-21.9-12v-9.5c0.4,0.4,0.9,0.8,1.4,1.2c6.1,4.5,17.8,7.8,31.4,9.2c2.5-1.4,5.2-2.4,8-3
			c-16.3-0.6-30.6-4.1-37.3-9c-1.6-1.2-3.5-3-3.5-5.2V343c0.4,0.4,0.9,0.8,1.4,1.1c3.8,2.8,9.7,5.2,17.1,6.9
			c8.3,1.9,18,2.9,28.2,2.9c10.1,0,19.9-1,28.2-2.9c7.4-1.7,13.4-4.1,17.1-6.9c0.5-0.4,1-0.8,1.4-1.1v9.5c0,2.1-1.9,4-3.5,5.2
			c-6.8,5-21,8.4-37.3,9c2.9,0.6,5.5,1.6,8,3c13.7-1.3,25.3-4.7,31.4-9.2c0.5-0.4,1-0.8,1.4-1.1v9.5c0,4.5-8.3,9.2-21.9,12
			c0.6,1.1,1.1,2.2,1.6,3.4c9.6-2,16.5-5.2,20.3-8.7v11c0,4.1-7.1,8.5-18.7,11.3c-0.2,1.4-0.4,2.7-0.8,4
			c15.2-3.4,23.1-9.4,23.1-15.3v-16.4h-0.1c0.1-0.4,0.1-0.9,0.1-1.3V336.2z M673.8,341.3c-3.4,2.5-8.9,4.7-15.8,6.3
			c-8,1.9-17.5,2.9-27.3,2.9c-9.9,0-19.3-1-27.4-2.9c-7-1.6-12.4-3.8-15.8-6.3c-1.6-1.2-3.5-3.1-3.5-5.2c0-6.8,19.2-14.3,46.7-14.3
			c27.5,0,46.7,7.5,46.7,14.3C677.3,338.3,675.4,340.1,673.8,341.3z M592.7,357.9c-1.8,0-3.3-1.5-3.3-3.3s1.5-3.3,3.3-3.3
			c1.8,0,3.3,1.5,3.3,3.3S594.5,357.9,592.7,357.9z M592.7,353.1c-0.8,0-1.5,0.7-1.5,1.5c0,0.8,0.7,1.5,1.5,1.5
			c0.8,0,1.5-0.7,1.5-1.5C594.2,353.8,593.5,353.1,592.7,353.1z M592.7,374.1c-1.8,0-3.3-1.5-3.3-3.3s1.5-3.3,3.3-3.3
			c1.8,0,3.3,1.5,3.3,3.3C596,372.6,594.5,374.1,592.7,374.1z M592.7,369.2c-0.8,0-1.5,0.7-1.5,1.5s0.7,1.5,1.5,1.5
			c0.8,0,1.5-0.7,1.5-1.5C594.2,369.9,593.5,369.2,592.7,369.2z M592.7,391.8c-1.8,0-3.3-1.5-3.3-3.3c0-1.8,1.5-3.3,3.3-3.3
			c1.8,0,3.3,1.5,3.3,3.3C596,390.3,594.5,391.8,592.7,391.8z M592.7,387c-0.8,0-1.5,0.7-1.5,1.5c0,0.8,0.7,1.5,1.5,1.5
			c0.8,0,1.5-0.7,1.5-1.5C594.2,387.6,593.5,387,592.7,387z M630.6,418.7c-13.4,0-24.3-10.9-24.3-24.3s10.9-24.3,24.3-24.3
			c13.4,0,24.3,10.9,24.3,24.3C654.9,407.7,644,418.7,630.6,418.7z M630.6,373.6c-11.4,0-20.8,9.3-20.8,20.8
			c0,11.4,9.3,20.8,20.8,20.8s20.8-9.3,20.8-20.8S642,373.6,630.6,373.6z M631,412.9c-0.4,0-0.8-0.1-1.1-0.3
			c-0.6-0.4-14.9-10-14.9-24.7c0-1,0.8-1.8,1.8-1.8c7.7,0,12.6-7.3,12.6-7.4c0.3-0.5,0.9-0.8,1.5-0.8c0.6,0,1.3,0.3,1.6,0.8
			c0.1,0.1,4.9,7.4,12.6,7.4c1,0,1.8,0.8,1.8,1.8c0,14.8-14.3,24.3-14.9,24.7C631.7,412.8,631.4,412.9,631,412.9z M618.7,389.6
			c0.9,9.9,9.5,17.2,12.3,19.4c2.9-2.2,11.4-9.4,12.3-19.4c-6-0.7-10.2-4.6-12.3-7.1C628.9,384.9,624.7,388.9,618.7,389.6z
			 M630.2,400.2c-0.5,0-0.9-0.2-1.3-0.5l-4.5-4.5l2.5-2.5l3.2,3.2l6-6l2.5,2.5l-7.3,7.3C631.1,400,630.6,400.2,630.2,400.2z"/>
	</g>
</g>
<g id="database-security_2_">
	<g>
		<path fill="#FFFFFF" d="M1059,338.7c0-8.7-17.6-17.9-50.3-17.9c-32.7,0-50.3,9.2-50.3,17.9v32.8c0,0.4,0.1,0.9,0.1,1.3h-0.1v16.4
			c0,5.8,8,11.9,23.1,15.3c-0.4-1.3-0.6-2.6-0.8-4c-11.7-2.8-18.7-7.2-18.7-11.3v-11c3.8,3.5,10.6,6.6,20.3,8.7
			c0.4-1.2,1-2.3,1.6-3.4c-13.5-2.7-21.9-7.5-21.9-12V362c0.4,0.4,0.9,0.8,1.4,1.2c6.1,4.5,17.8,7.8,31.4,9.2c2.5-1.4,5.2-2.4,8-3
			c-16.3-0.6-30.6-4.1-37.3-9c-1.6-1.2-3.5-3-3.5-5.2v-9.5c0.4,0.4,0.9,0.8,1.4,1.1c3.8,2.8,9.7,5.2,17.1,6.9
			c8.3,1.9,18,2.9,28.2,2.9s19.9-1,28.2-2.9c7.4-1.7,13.4-4.1,17.1-6.9c0.5-0.4,1-0.8,1.4-1.1v9.5c0,2.1-1.9,4-3.5,5.2
			c-6.8,5-21,8.4-37.3,9c2.9,0.6,5.5,1.6,8,3c13.7-1.3,25.3-4.7,31.4-9.2c0.5-0.4,1-0.8,1.4-1.1v9.5c0,4.5-8.3,9.2-21.9,12
			c0.6,1.1,1.1,2.2,1.6,3.4c9.6-2,16.5-5.2,20.3-8.7v11c0,4.1-7.1,8.5-18.7,11.3c-0.2,1.4-0.4,2.7-0.8,4
			c15.2-3.4,23.1-9.4,23.1-15.3v-16.4h-0.1c0.1-0.4,0.1-0.9,0.1-1.3V338.7z M1051.8,343.8c-3.4,2.5-8.9,4.7-15.8,6.3
			c-8,1.9-17.5,2.9-27.3,2.9s-19.3-1-27.4-2.9c-7-1.6-12.4-3.8-15.8-6.3c-1.6-1.2-3.5-3.1-3.5-5.2c0-6.8,19.2-14.3,46.7-14.3
			s46.7,7.5,46.7,14.3C1055.4,340.8,1053.4,342.6,1051.8,343.8z M970.8,360.4c-1.8,0-3.3-1.5-3.3-3.3s1.5-3.3,3.3-3.3
			s3.3,1.5,3.3,3.3S972.6,360.4,970.8,360.4z M970.8,355.6c-0.8,0-1.5,0.7-1.5,1.5c0,0.8,0.7,1.5,1.5,1.5c0.8,0,1.5-0.7,1.5-1.5
			C972.3,356.3,971.6,355.6,970.8,355.6z M970.8,376.6c-1.8,0-3.3-1.5-3.3-3.3s1.5-3.3,3.3-3.3s3.3,1.5,3.3,3.3
			C974.1,375.1,972.6,376.6,970.8,376.6z M970.8,371.7c-0.8,0-1.5,0.7-1.5,1.5s0.7,1.5,1.5,1.5c0.8,0,1.5-0.7,1.5-1.5
			C972.3,372.4,971.6,371.7,970.8,371.7z M970.8,394.3c-1.8,0-3.3-1.5-3.3-3.3c0-1.8,1.5-3.3,3.3-3.3s3.3,1.5,3.3,3.3
			C974.1,392.8,972.6,394.3,970.8,394.3z M970.8,389.5c-0.8,0-1.5,0.7-1.5,1.5c0,0.8,0.7,1.5,1.5,1.5c0.8,0,1.5-0.7,1.5-1.5
			C972.3,390.1,971.6,389.5,970.8,389.5z M1008.7,421.2c-13.4,0-24.3-10.9-24.3-24.3s10.9-24.3,24.3-24.3
			c13.4,0,24.3,10.9,24.3,24.3C1033,410.2,1022.1,421.2,1008.7,421.2z M1008.7,376.1c-11.4,0-20.8,9.3-20.8,20.8
			c0,11.4,9.3,20.8,20.8,20.8c11.4,0,20.8-9.3,20.8-20.8S1020.1,376.1,1008.7,376.1z M1009.1,415.4c-0.4,0-0.8-0.1-1.1-0.3
			c-0.6-0.4-14.9-10-14.9-24.7c0-1,0.8-1.8,1.8-1.8c7.7,0,12.6-7.3,12.6-7.4c0.3-0.5,0.9-0.8,1.5-0.8c0.6,0,1.3,0.3,1.6,0.8
			c0.1,0.1,4.9,7.4,12.6,7.4c1,0,1.8,0.8,1.8,1.8c0,14.8-14.3,24.3-14.9,24.7C1009.8,415.3,1009.5,415.4,1009.1,415.4z M996.7,392.1
			c0.9,9.9,9.5,17.2,12.3,19.4c2.9-2.2,11.4-9.4,12.3-19.4c-6-0.7-10.2-4.6-12.3-7.1C1007,387.4,1002.7,391.4,996.7,392.1z
			 M1008.3,402.7c-0.5,0-0.9-0.2-1.3-0.5l-4.5-4.5l2.5-2.5l3.2,3.2l6-6l2.5,2.5l-7.3,7.3C1009.2,402.5,1008.7,402.7,1008.3,402.7z"
			/>
	</g>
</g>
<g id="Layer_1_3_">
</g>
<g id="database-laptop">
	<g>
		<path fill="#FFFFFF" d="M506.8,178.5v-75.2c0-1.8-1.5-3.4-3.3-3.4H381.8c-1.8,0-3.3,1.5-3.3,3.4v75.2c0,1,0.8,1.8,1.8,1.8H505
			C506,180.3,506.8,179.5,506.8,178.5z M503.2,176.6h-121v-73.1h121L503.2,176.6L503.2,176.6z M525.2,184.5h-11.4v-84.3
			c0-4-3.3-7.3-7.3-7.3H378.9c-4,0-7.3,3.3-7.3,7.3v84.3h-11.4c-1,0-1.8,0.8-1.8,1.8v2.1c0,5.8,4.7,10.5,10.5,10.5h147.6
			c5.8,0,10.5-4.7,10.5-10.5v-2.1C527,185.4,526.2,184.5,525.2,184.5z M375.3,100.3c0-2,1.6-3.7,3.7-3.7h127.5c2,0,3.7,1.6,3.7,3.7
			v84.3h-50c-0.3,0-0.6,0.1-0.9,0.3l-3.9,2.3h-25.1l-3.9-2.3c-0.3-0.2-0.6-0.3-0.9-0.3h-50V100.3z M523.3,188.5
			c0,3.8-3.1,6.8-6.8,6.8H368.9c-3.8,0-6.9-3.1-6.9-6.9v-0.3h62.8l3.9,2.3c0.3,0.2,0.6,0.3,0.9,0.3h26.1c0.3,0,0.6-0.1,0.9-0.3
			l3.9-2.3h62.8V188.5z"/>
	</g>
</g>
<g id="database-laptop_2_">
	<g>
		<path fill="#FFFFFF" d="M880.8,182.5v-75.2c0-1.8-1.5-3.4-3.3-3.4H755.8c-1.8,0-3.3,1.5-3.3,3.4v75.2c0,1,0.8,1.8,1.8,1.8H879
			C880,184.3,880.8,183.5,880.8,182.5z M877.2,180.6h-121v-73.1h121L877.2,180.6L877.2,180.6z M899.2,188.5h-11.4v-84.3
			c0-4-3.3-7.3-7.3-7.3H752.9c-4,0-7.3,3.3-7.3,7.3v84.3h-11.4c-1,0-1.8,0.8-1.8,1.8v2.1c0,5.8,4.7,10.5,10.5,10.5h147.6
			c5.8,0,10.5-4.7,10.5-10.5v-2.1C901,189.4,900.2,188.5,899.2,188.5z M749.3,104.3c0-2,1.6-3.7,3.7-3.7h127.5c2,0,3.7,1.6,3.7,3.7
			v84.3h-50c-0.3,0-0.6,0.1-0.9,0.3l-3.9,2.3h-25.1l-3.9-2.3c-0.3-0.2-0.6-0.3-0.9-0.3h-50V104.3z M897.3,192.5
			c0,3.8-3.1,6.8-6.8,6.8H742.9c-3.8,0-6.9-3.1-6.9-6.9v-0.3h62.8l3.9,2.3c0.3,0.2,0.6,0.3,0.9,0.3h26.1c0.3,0,0.6-0.1,0.9-0.3
			l3.9-2.3h62.8V192.5z"/>
	</g>
</g>
<line fill="none" stroke="#3CFF31" stroke-miterlimit="10" x1="256" y1="750.8" x2="256" y2="630.8"/>
<line fill="none" stroke="#3CFF31" stroke-miterlimit="10" x1="255" y1="962.1" x2="255" y2="842.1"/>
<line fill="none" stroke="#3CFF31" stroke-miterlimit="10" x1="631.7" y1="962.1" x2="631.7" y2="842.1"/>
<line fill="none" stroke="#3CFF31" stroke-miterlimit="10" x1="1009.7" y1="963.2" x2="1009.7" y2="843.2"/>
<line fill="none" stroke="#3CFF31" stroke-miterlimit="10" x1="633.7" y1="750.8" x2="633.7" y2="630.8"/>
<line fill="none" stroke="#3CFF31" stroke-miterlimit="10" x1="1009.7" y1="750.8" x2="1009.7" y2="630.8"/>
<line fill="none" stroke="#3CFF31" stroke-miterlimit="10" x1="255.5" y1="526.3" x2="254.5" y2="419.3"/>
<line fill="none" stroke="#3CFF31" stroke-miterlimit="10" x1="632.2" y1="526.3" x2="631.2" y2="419.3"/>
<line fill="none" stroke="#3CFF31" stroke-miterlimit="10" x1="1008.7" y1="526.3" x2="1007.7" y2="419.3"/>
<path fill="none" stroke="#3CFF31" stroke-miterlimit="10" d="M254.5,318.3c0,0,0-50,0-56s3-10,10-10s178,0,178,0l0.2-53.3"/>
<path fill="none" stroke="#3CFF31" stroke-miterlimit="10" d="M630.6,318.3c0,0,0-50,0-56s-3-10-10-10s-178,0-178,0l-0.2-53.3"/>
<path fill="none" stroke="#3CFF31" stroke-miterlimit="10" d="M630.6,318.3c0,0,0-50,0-56s3-10,10-10s178,0,178,0l0.2-53.3"/>
<path fill="none" stroke="#3CFF31" stroke-miterlimit="10" d="M1006.9,318.3c0,0,0-50,0-56s-3-10-10-10s-178,0-178,0l-0.2-53.3"/>
<g>
	<g>
		<g>
			<path fill="#FFFFFF" d="M255,995.5c-8.9,0-16.2-7.3-16.2-16.2s7.3-16.2,16.2-16.2c8.9,0,16.2,7.3,16.2,16.2
				S263.9,995.5,255,995.5z M255,967.7c-6.4,0-11.6,5.2-11.6,11.6s5.2,11.6,11.6,11.6c6.4,0,11.6-5.2,11.6-11.6
				S261.4,967.7,255,967.7z"/>
		</g>
	</g>
	<g>
		<g>
			<path fill="#FFFFFF" d="M273.4,1037.1h-36.7c-5.2,0-9.4-4.2-9.4-9.4c0-15.3,12.4-27.7,27.7-27.7s27.7,12.4,27.7,27.7
				C282.7,1032.9,278.5,1037.1,273.4,1037.1z M255,1004.6c-12.7,0-23.1,10.4-23.1,23.1c0,2.6,2.1,4.8,4.8,4.8h36.7
				c2.6,0,4.8-2.1,4.8-4.8C278.1,1015,267.7,1004.6,255,1004.6z"/>
		</g>
	</g>
</g>
<g>
	<g>
		<g>
			<path fill="#FFFFFF" d="M633.7,990.9c-8.9,0-16.2-7.3-16.2-16.2s7.3-16.2,16.2-16.2c8.9,0,16.2,7.3,16.2,16.2
				S642.6,990.9,633.7,990.9z M633.7,963.1c-6.4,0-11.6,5.2-11.6,11.6s5.2,11.6,11.6,11.6c6.4,0,11.6-5.2,11.6-11.6
				S640.1,963.1,633.7,963.1z"/>
		</g>
	</g>
	<g>
		<g>
			<path fill="#FFFFFF" d="M652.1,1032.5h-36.7c-5.2,0-9.4-4.2-9.4-9.4c0-15.3,12.4-27.7,27.7-27.7c15.3,0,27.7,12.4,27.7,27.7
				C661.5,1028.3,657.2,1032.5,652.1,1032.5z M633.7,1000c-12.7,0-23.1,10.4-23.1,23.1c0,2.6,2.1,4.8,4.8,4.8h36.7
				c2.6,0,4.8-2.1,4.8-4.8C656.8,1010.3,646.5,1000,633.7,1000z"/>
		</g>
	</g>
</g>
<g>
	<g>
		<g>
			<path fill="#FFFFFF" d="M1009.7,990.9c-8.9,0-16.2-7.3-16.2-16.2s7.3-16.2,16.2-16.2s16.2,7.3,16.2,16.2
				S1018.6,990.9,1009.7,990.9z M1009.7,963.1c-6.4,0-11.6,5.2-11.6,11.6s5.2,11.6,11.6,11.6s11.6-5.2,11.6-11.6
				S1016.1,963.1,1009.7,963.1z"/>
		</g>
	</g>
	<g>
		<g>
			<path fill="#FFFFFF" d="M1028,1032.5h-36.7c-5.2,0-9.4-4.2-9.4-9.4c0-15.3,12.4-27.7,27.7-27.7s27.7,12.4,27.7,27.7
				C1037.4,1028.3,1033.2,1032.5,1028,1032.5z M1009.7,1000c-12.7,0-23.1,10.4-23.1,23.1c0,2.6,2.1,4.8,4.8,4.8h36.7
				c2.6,0,4.8-2.1,4.8-4.8C1032.8,1010.3,1022.4,1000,1009.7,1000z"/>
		</g>
	</g>
</g>
<polyline fill="none" stroke="#3CFF31" stroke-miterlimit="10" points="1135.5,306.4 1188,306.4 1188,656.8 1135.5,656.8 "/>
<polyline fill="none" stroke="#3CFF31" stroke-miterlimit="10" points="1135.5,729.7 1188,729.7 1188,861.5 1135.5,861.5 "/>
<polyline fill="none" stroke="#3CFF31" stroke-miterlimit="10" points="1135.5,78.8 1188,78.8 1188,233.5 1135.5,233.5 "/>
<polyline fill="none" stroke="#3CFF31" stroke-miterlimit="10" points="1135.5,913.4 1188,913.4 1188,1045.2 1135.5,1045.2 "/>
<g id="row4_1_">
	<g id="target" display="none">
		<g display="inline">
			<g>
				<path fill="#FFFFFF" d="M424.7,129.7c-0.9,2.9-1.5,6.1-1.5,9.4c0,17.2,13.9,31,31,31c17.2,0,31-13.9,31-31s-13.9-31-31-31
					c-10.2,0-19.2,4.9-24.9,12.5l4.6,2.5c4.8-6,12.1-9.8,20.3-9.8c14.3,0,25.9,11.6,25.9,25.9c0,14.3-11.6,25.9-25.9,25.9
					c-14.3,0-25.9-11.6-25.9-25.9c0-2.4,0.3-4.7,0.9-6.8L424.7,129.7z M434,134.7c-0.3,1.4-0.5,2.9-0.5,4.3
					c0,11.4,9.3,20.7,20.7,20.7c11.4,0,20.7-9.3,20.7-20.7s-9.3-20.7-20.7-20.7c-6.2,0-11.8,2.7-15.6,7.1l4.7,2.5
					c2.8-2.7,6.6-4.4,10.9-4.4c8.6,0,15.5,7,15.5,15.5s-7,15.5-15.5,15.5s-15.5-7-15.5-15.5c0-0.6,0-1.2,0.1-1.7L434,134.7z
					 M454.3,97.6c-14.1,0-26.6,7.1-34.1,17.9l4.6,2.5c6.5-9.2,17.3-15.2,29.5-15.2c20,0,36.2,16.2,36.2,36.2s-16.2,36.2-36.2,36.2
					c-20,0-36.2-16.2-36.2-36.2c0-4.1,0.7-8.1,2-11.9l-4.6-2.5c-1.7,4.5-2.5,9.3-2.5,14.3c0,22.9,18.5,41.4,41.4,41.4
					c22.9,0,41.4-18.5,41.4-41.4C495.7,116.2,477.2,97.6,454.3,97.6z M455.6,137.4l-46.5-24.9l1.5-4.5l-7.9-10.4v12.9l-13.1,5.2
					l13.1,2.6l3.3-1.6l47.1,25.3L455.6,137.4z"/>
			</g>
		</g>
	</g>
	<g id="note" display="none">
		<g display="inline">
			<g>
				<path fill="#FFFFFF" d="M414.3,174.4H425v-10.6h-10.6V174.4z M414.3,156.7H425v-10.6h-10.6V156.7z M449.7,103.7h-35.4v10.6h35.4
					L449.7,103.7L449.7,103.7z M414.3,139H425v-10.6h-10.6V139z M428.5,135.5H471V132h-42.4V135.5z M456.8,86h-56.6v106.1h84.9
					v-81.4L456.8,86z M481.6,188.6h-77.8v-99h51.6l1.5,1.2v23.6h24.7V188.6z M428.5,153.2H471v-3.5h-42.4V153.2z M428.5,170.9H471
					v-3.5h-42.4V170.9z"/>
			</g>
		</g>
	</g>
	<g id="phone" display="none">
		<g display="inline">
			<g>
				<path fill="#FFFFFF" d="M469.2,86h-53c-3.6,0-6.6,3-6.6,6.6v92.8c0,3.6,3,6.6,6.6,6.6h53c3.6,0,6.6-3,6.6-6.6V92.6
					C475.8,89,472.8,86,469.2,86z M429.4,178.8h-13.3v-6.6h13.3V178.8z M429.4,168.9h-13.3v-6.6h13.3V168.9z M429.4,158.9h-13.3
					v-6.6h13.3V158.9z M429.4,149h-13.3v-6.6h13.3V149z M449.3,178.8H436v-6.6h13.3V178.8z M449.3,168.9H436v-6.6h13.3V168.9z
					 M449.3,158.9H436v-6.6h13.3V158.9z M449.3,149H436v-6.6h13.3V149z M469.2,178.8h-13.3v-6.6h13.3V178.8z M469.2,168.9h-13.3
					v-6.6h13.3V168.9z M469.2,158.9h-13.3v-6.6h13.3V158.9z M469.2,149h-13.3v-6.6h13.3V149z M469.2,135.7h-53V95.9h53V135.7z"/>
			</g>
		</g>
	</g>
	<g id="calendar_1_" display="none">
		<g id="calendar2" display="inline">
			<g>
				<g>
					<path fill="#FFFFFF" d="M416,105c4.1,0,7.5-3.4,7.5-7.5v-7.8h-14.9v7.8C408.5,101.7,411.9,105,416,105z M488.1,93.6h-7.6v3.8
						c0,6.3-5.1,11.4-11.4,11.4c-6.3,0-11.4-5.1-11.4-11.4v-3.8H454c0,0,0.3,1.6,0,3.8c-0.7,4.5-3.4,11.4-11.4,11.4
						c-8.4,0-10.8-6.9-11.4-11.4c-0.3-2.2,0.1-3.8,0.1-3.8h-3.9v3.8c0,6.3-5.1,11.4-11.4,11.4c-6.3,0-11.4-5.1-11.4-11.4v-3.8h-7.6
						c-4.2,0-7.6,3.4-7.6,7.6v79.6c0,4.2,3.4,7.6,7.6,7.6h90.9c4.2,0,7.6-3.4,7.6-7.6v-79.6C495.7,97,492.3,93.6,488.1,93.6z
						 M488.1,180.8h-90.9v-60.6h90.9V180.8z M469,105c4.1,0,7.5-3.4,7.5-7.5v-7.8h-14.9v7.8C461.6,101.7,464.9,105,469,105z
						 M442.5,105c4.1,0,7.5-3.4,7.5-7.5v-7.8h-14.9v7.8C435.1,101.7,438.4,105,442.5,105z"/>
				</g>
			</g>
		</g>
		<g id="_x31_7" display="inline">
		</g>
		
			<text transform="matrix(1 0 0 1 410.8535 166.2148)" display="inline" fill="#FFFFFF" font-family="'Arial-Black'" font-size="45.4691px">17</text>
	</g>
	<g id="paper_x5F_clip" display="none">
		<path display="inline" fill="#FFFFFF" d="M416.8,148.5c0,0-4.3,3.3-1,6.6c3.3,3.3,6.4-1,6.4-1l32.8-33c0,0,7.7-10,13.5-3.9
			c5.8,6.1-3.9,13.6-3.9,13.6l-43,43.3c0,0-10,11.1-19.5,1.7c-9.4-9.5,1.7-19.7,1.7-19.7l48.4-48.8c0,0,15.5-18,29.8-3.6
			c14.3,14.5-3.7,29.9-3.7,29.9l-36.7,37.1c0,0-4.1,3.5-1,6.6c3.1,3.1,6.5-1,6.5-1l42.2-42.5c0,0,15.9-17.6-1.9-35.5
			c-17.8-17.9-35.2-1.9-35.2-1.9l-57.9,58.4c0,0-11.6,12.9,2.2,26.8c13.8,13.9,26.6,2.2,26.6,2.2l49.8-50.1c0,0,12.8-10.4,1.2-22.1
			c-11.6-11.7-21.8,1.4-21.8,1.4L416.8,148.5z"/>
	</g>
	<g id="Globe">
		<g>
			<g>
				<path fill="#FFFFFF" d="M442.6,112.5c-14.6,0-26.5,11.9-26.5,26.5s11.9,26.5,26.5,26.5c14.6,0,26.5-11.9,26.5-26.5
					S457.3,112.5,442.6,112.5z M442.6,162.3c0,0-0.1,0-0.2,0c0.1-0.5,0.5-1.1,0.9-1.4c-0.1-0.4-0.2-0.4-0.5-0.5
					c0.1-0.3,0.1-0.3,0.2-0.5h0.3c0-0.3,0.1-0.5,0.2-0.7c0.2-0.3,0-0.2,0.3-0.1c0,0,0.1-0.1,0.1-0.1v-0.2h-0.4
					c0.1-0.5,0.2-0.3,0.6-0.5v-0.6c0.5,0,0.8-0.1,1.1-0.3c0.1,0,0.2-0.1,0.3-0.1c0-0.5,0-0.9-0.3-1.2v-0.2c0.4,0.2,0.5,0.3,1,0.3
					c0.2-0.4,0.5-1,0.9-1.4c0,0,0.1-0.1,0.1-0.1v0.1c0.5-0.3,0.7-1.1,0.6-2c0.2-0.1,1.8-0.9,1.9-1c0.6-1,0.5-1.6,0.5-2.8
					c0-0.1,1.2-1.8,1.4-2c-0.1-0.9-1.1-1.5-1.9-1.7H449c-0.1-0.1-0.2-0.5-0.3-0.5H448c-0.3-0.2,0.1-0.2-0.5-0.3
					c-0.1-0.9-0.4-1.3-0.7-1.9c-0.3-0.1-0.7-0.3-1-0.1c-0.2-0.1-0.1,0-0.1-0.2c-0.2,0-0.2-0.1-0.4,0c-0.1-0.1-0.2-0.3-0.2-0.5
					c-0.2,0-0.3-0.1-0.5-0.1v-0.2c-0.6-0.3-1.8-0.2-2.4-0.7v0.2c-0.1,0-0.2,0-0.2-0.1c0,0-0.1,0.1-0.1,0.2v0.1
					c-0.3-0.2-0.1-0.1-0.1-0.4c-0.7,0.1-1.2,0.5-1.4,1.2c-0.3-0.2-0.6-0.5-1-0.3c-0.6-0.1-0.5-0.2-0.9-0.5c0-0.7,0.1-1-0.1-1.3
					c-0.2-0.1-0.6-0.1-1-0.1c0.1-0.3,0.2-0.9,0.4-1.1c0-0.2,0-0.2-0.1-0.3c-0.7,0.1-0.5,0.5-0.9,0.7c-0.2,0.1-0.2,0-0.4,0.2
					c-0.2,0-0.2,0-0.3-0.1c-0.8-0.4-0.3-1.5-0.5-1.9c0.1-0.6,0.4-0.6,0.7-0.9c0.6,0,0.4,0.2,1,0.2c0-0.2,0-0.1-0.1-0.2v-0.1
					c0.5,0,0.7,0.1,1.1,0.1c0.1,0.5,0.2,0.7,0.4,1.1c0,0,0.1,0,0.2,0.1c0.2-0.6-0.2-0.9-0.1-1.5c0.1-0.4,0.7-0.7,1-1.1
					c0-0.1,0-0.5-0.2-0.7v0c0.2,0.1,0.1,0.1,0.4,0.2c0-0.4,0.2-0.5,0.2-0.7c0.1-0.2,0.3-0.2,0.5-0.4c0.2-0.1,0-0.1,0.2-0.2
					c0.2-0.4,0.7-0.5,1-0.7h0.2v0.1c-0.2,0.1-0.2,0.2-0.5,0.2c0,0.1,0,0.1,0.1,0.2c0.1,0,0.2,0.1,0.2,0.2c0.2-0.1,0.4-0.3,0.7-0.4
					c0-0.1,0-0.1,0.1-0.2v-0.2c-0.1,0-0.2,0.1-0.5,0.1c0-0.2,0-0.1-0.2-0.2c0-0.5,0-0.5,0.1-0.8c-0.1-0.1,0,0-0.1-0.2
					c-0.2,0-0.4,0-0.5,0.2h-0.1l0.1-0.1c0.2-0.5,0.9-0.1,1.3-0.2c0.2-0.1,0.3-0.3,0.5-0.5c0.3-0.2,0.5-0.1,0.5-0.4
					c-0.2-0.5-0.8-0.5-1.1-0.9c0-0.2,0,0,0.1-0.2c-0.3-0.2-0.6-0.7-0.6-1.2c-0.2,0.1-0.4,0.4-0.5,0.5c-0.2,0.1-0.3-0.1-0.5-0.2
					s0-0.3,0-0.5c-0.3-0.2-0.7-0.6-1-0.5c-1.3,0-0.3,0.5-0.9,1c0.1,0.2,0.2,0.5,0.4,0.6c0,0.5-0.2,0.5-0.4,0.7c0,0.3-0.1,0.7-0.2,1
					c-0.5-0.1-0.2-0.2-0.3-0.4h-0.2c0.2,0,0-0.5,0-0.5c-0.2-0.3,0.1,0.6-0.2,0.5c-0.4-0.2-0.9-0.5-1.3-0.8c-0.1-0.1-1-1.1-1-1.3
					c0.5-0.5,0.6-0.9,1.1-1.3c0,0,0.3,0,0.5-0.1c0-0.2,0-0.2-0.1-0.2c-0.1-0.1-0.2-0.1-0.5-0.1v-0.1h0.1c0.1,0,0.3,0,0.5,0.1
					c0-0.1,0.1-0.2,0.2-0.2c0,0,0.2,0,0.2,0.1c0.2-0.1,0.1,0,0.1-0.2c0,0,0.5-0.2,0.7-0.2c-0.1-0.4-0.3-0.3-0.1-0.6
					c0-0.4-0.2-0.2-0.5-0.5c-0.3,0-0.5,0.7-0.6,1h-0.2c0-0.1,0-0.2-0.1-0.2c-0.1-0.2,0-0.2,0.1-0.5c-0.1,0-0.1,0-0.3-0.1
					c0,0.2,0,0.2-0.1,0.2v0.2c-0.2-0.2-0.2-0.3-0.4-0.5c-0.1-0.1,0-0.2,0.2-0.4c-0.2-0.1-0.5-0.2-0.6-0.5c0-0.1,0-0.1,0-0.3
					c0.2,0,0.3,0,0.4-0.1c0.2-0.1,0.2,0,0.2-0.2l0.1-0.1h-0.1c-0.1-0.2-0.2-0.1-0.3-0.2c-1,0-0.4,0.3-0.5,0.9
					c-0.1,0.2-0.2,0.3-0.3,0.6c0.2,0.1,0.4,0.2,0.6,0.2c-0.1,0.1-0.5,0.7-0.5,0.9h-0.1c-0.1-0.2-0.1-0.3-0.2-0.5v-0.1
					c-0.2,0.1-0.2,0.1-0.3,0.3c-0.2,0-0.5,0.1-0.7,0c-0.3-0.1-0.7-0.5-1-0.4c-0.1,0-0.2,0-0.2,0.1c0.2,0.2,0.1,0.1,0.3,0.1
					c-0.1,0.2-0.2,0.3-0.2,0.5v0.1c-0.2-0.1-0.3-0.2-0.5-0.4c-0.1,0-0.2,0-0.4,0.1c-0.5,0-0.3-0.1-0.4-0.5c-0.9,0.1-1.2-0.4-2-0.2
					c-0.1-0.2-0.3-0.3-0.5-0.5c-0.2,0.1-0.2,0.2-0.2,0.2c-0.2,0-0.3,0-0.5-0.1c-0.1,0-0.3,0.3-0.4,0.3c-0.1,0-0.2,0-0.2-0.1
					c-0.1,0.1-0.2,0.2-0.2,0.2c-0.3,0.1,1,0.8,1.1,0.9c-0.4-0.2-0.8-0.1-1.1-0.1c-0.7-0.2-1.5,0-1.8-0.3c-0.5,0.1-0.9,0.3-1.3,0.5
					v0.3c-0.2,0-0.2,0-0.4,0.1c0,0-0.1,0-0.1,0c0.1,0.3,0.5,0.5,0.8,0.5c0,0.1,0,0.1-0.1,0.2c-0.3,0-0.3,0-0.4-0.2
					c-0.2,0.1-0.5,0.2-0.6,0.3c0.1,0.2,0.2,0.2,0.3,0.4c0.3,0,0.6,0,0.9-0.1c0,0.2,0,0.2-0.1,0.3c-0.2,0.1-0.4,0.1-0.5,0.1
					c-0.2,0.1,0,0.2-0.3,0.3c0.1,0.3,0.2,0.3,0.2,0.6c0.2,0,0.2,0,0.3-0.1c0,0.1,0.1,0.2,0.1,0.3c0.4,0,0.4,0,0.8,0.1
					c0,0,0,0-0.1,0.1c0,0.5-0.5,0.7-0.9,0.9v0.1c0.5-0.2,1.4-0.6,1.6-1.2c0,0,0,0,0.1-0.1h-0.1v-0.1c0.1-0.1,0.2-0.1,0.2-0.3
					c0.1,0,0.1,0,0.1-0.1h0.1v0.4c0.2,0,0.5-0.2,0.7-0.3h0.1c0,0,0-0.1-0.1-0.1c0.1,0,1.5,0.4,1.7,0.5c0.5,0.4,0.2,1,1,0.7
					c-0.1,0-0.1,0.1-0.2,0.1c0.1,0.1-0.6-0.2-1-0.4c0.1,0.3,0.1,0.7,0.5,0.7c0,0.3,0.1,0.2-0.1,0.4c0.1,0.3,0.7,0.6,0.9,1
					c0.3,0.7-0.2,1.4,0,2.1c0.1,0.2,0.2,0.3,0.4,0.5c-0.1,0.2,0.1,0.6,0.2,0.8c0.2,0.2,0.4,0.3,0.6,0.5c0.2,0.4,0.1,0.6,0.5,0.8
					c0,0.2,0,0.3-0.1,0.5c0.1,0.2,0.3,0.2,0.4,0.3c0,0.2,0,0.3,0.1,0.5c0.1,0.1,0.3,0.3,0.4,0.5h0.2c0-0.4-0.7-1.7-1-2.1v-0.1
					c0.3,0.1,1.9,2.4,1.8,2.6c0,0.7,0.9,1.1,1.5,1.3c0.3,0,0.6,0,1-0.1c0.3,0.2-0.2,0.7,0.8,0.6c0.2,0.4,0.4,0.5,0.4,1.2
					c0.4,0.2,1.1,0.5,1.4,0.8c0.3-0.2,0.1,0,0.1-0.3c0,0,0.1-0.1,0.1-0.1c0.2,0,0.2,0,0.3,0.1c1,1.4-1.2,2.9-0.4,3.7
					c-0.1,0.3-0.1,0.3-0.3,0.4c0.1,1,0.7,1,1,1.6c0,0.2,0.1,0.5,0.1,0.7c0.5,1.1,0.9,1.7,1.8,2.3c0.2,2.3-0.2,6.8-0.3,6.9
					c0.2,1,0.6,4,0.7,5.1c-0.4,0-1.6-0.1-1.6-0.1c-12-0.7-21.4-10.7-21.4-22.9c0-12.8,10.4-23.2,23.2-23.2c7.9,0,14.9,3.9,19.1,10
					c0,0.3,0,0.4-0.1,0.7c-0.1,0-0.1,0-0.1-0.1c-0.2,0-0.2,0-0.4,0.1c0,0.2,0,0.2,0,0.5c-0.1,0-0.3-0.1-0.3-0.1
					c-0.2,0.1,0,0.2-0.1,0.3c0,0,0,0-0.1,0c-0.4-0.2-0.3-0.6-0.8-0.7v-0.1c0.4,0.1,0.8,0.5,1.2,0.2c0.1-0.1,0.1-0.1,0.2-0.2
					c-0.1-0.5-1.4-1.1-1.9-1c0,0,0.1-0.1,0.1-0.1c-0.1-0.3-0.3-0.2-0.4-0.3c-0.2,0-0.3,0.1-0.4,0.3c-0.1-0.1,0,0-0.1-0.1V125
					c-0.5,0.2-1,0.4-1.6,0.5c0.1,0.2,0.1,0.1,0.2,0.2c-0.6,1-1.4,1.7-2.3,2.3c0,0.2,0.2,0.5,0.1,0.6c0.1,0.2,0.1,0.2,0.1,0.4
					c0.4,0.1,0.6,0,0.8-0.2c0.2,0.3,0.3,0.6,0.3,1c0.4,0,0.4-0.2,0.8-0.3c0-0.2,0-0.5,0.1-0.5c0.1-0.2,0.2-0.2,0.4-0.2
					c0-0.3,0-0.4-0.3-0.6c0-0.4,0.2-0.7,0.4-0.8c0.1,0,0.2,0,0.3-0.1c0,0,0.2-0.5,0.2-0.5c0.1,0,0.3,0,0.4,0.1
					c-0.1,0.4-0.3,0.6-0.6,0.7c0,0.4,0.2,0.7,0.1,0.8c0,0,0.2,0.1,0.2,0.1c0.2,0,0.2,0,0.3-0.2c0.4,0,0.4,0.1,0.7,0.1
					c-0.3,0.2-0.6,0.2-1,0.2l-0.1,0.1c0,0.1,0.1,0.3,0.1,0.4c0,0.1,0,0-0.1,0.1c-0.2,0-0.2-0.1-0.4-0.1c-0.1,0.3-0.4,0.7-0.4,1
					c-0.5,0-1.5,0.1-1.5,0.1h-0.1c0-0.2,0.1-0.8,0.1-0.8v-0.2c-0.2,0-0.3,0.1-0.5,0.2c0,0.2,0,0.6,0.2,0.8c-0.2,0.4-0.5,0.1-0.7,0.3
					c-0.1,0.1,0,0.2-0.1,0.3c-0.1,0.1-0.9,0.5-0.9,0.5c-0.2,0-0.1,0-0.1,0.1c-0.1,0.2-0.2,0.2-0.5,0.1l-0.1,0.1
					c0,0.2,0.5,0.7,0.6,0.7v0.5c-0.4-0.1-1.1-0.1-1.4-0.1c0,0.2-0.1,1.3,0.1,1.5c0.2,0.1,0.6,0.3,0.7,0.2c0.8,0,0.7-0.5,0.9-0.9
					c0.2-0.4,0.5-0.2,0.5-0.7c0.3,0,0.7,0,0.9-0.2c0.3,0.1,0.5,0.4,0.8,0.7c0,0,0,0,0-0.1c0.1,0,0.2,0,0.4,0c0,0,0,0-0.1,0
					c0,0.2,0,0.2,0.2,0.2c0,0,0.2,0,0.3,0h0c-0.1-0.1-0.1-0.1-0.2-0.2h-0.1c0,0,0.1,0,0.1,0c-0.2-0.2-0.5-0.5-0.7-0.7
					c0-0.2,0-0.2,0.1-0.3v-0.1c0.2,0.1,0.2,0.4,0.4,0.5s0.5,0.2,0.6,0.3c0,0,0.1,0,0.1,0h0.1c0,0.1-0.1,0.1-0.1,0.2v0.4c0,0,0,0,0,0
					c0.2,0.1,0.3,0.2,0.4,0.4c0,0,0,0,0,0c0,0,0.1,0,0.1,0l-0.2,0.2v0l0,0c0,0,0,0,0.1,0.1c0.4,0,0.4-0.2,0.6-0.2
					c-0.1-0.2-0.1-0.2-0.3-0.3v-0.3c0.3-0.1,0.3-0.1,0.5-0.2c0.2,0.5,0.1,0.6,0.4,1c0.4,0.1,1,0.3,1.2,0h0.1c0,0.5,0.1,0.6-0.1,0.9
					c0,0.1,0,0.1-0.1,0.2c-0.5,0-1,0.2-1.2,0.1c-0.3,0-0.8-0.5-1.1-0.3c-0.2,0.1-0.2,0.2-0.2,0.4c-0.7,0-1-0.4-1.5-0.6
					c0-0.2,0-0.2,0.1-0.3c0-0.3,0-0.4-0.1-0.5c-0.7-0.3-2.4,0.6-2.7,0.3c-0.2,0.1-0.5,0.5-0.7,0.7c-0.2,0.2,0,0.6-0.1,0.9
					c-0.1,0.3-0.7,0.4-0.8,0.7c-0.4,0.7-0.4,1-0.3,1.8c0,0.4-0.3,0.5-0.2,0.9c0,0,4.5,0,4.6,0c0,0.1-0.1,0.2-0.1,0.4
					c0,0.2-4,0.2-4,0.3c0.1,0.2,0.1,0.5,0.2,0.7c0.2,0.3,0.7,0.5,0.9,0.7c0.2,0,0.3-0.2,0.4-0.2c0.2,0,0.2,0.1,0.3,0.1
					c0.3,0,1-0.2,1-0.4c0.5,0,0.5,0.1,0.6,0.5c0.1,0,0.1,0,0.2-0.1c1,0.1,0,0.8,0.4,1.5c0.1,0.1,0.3,0.3,0.4,0.4
					c0.2,0.4,0.1,0.8,0.2,1.3c0,0,0.2,0.2,0.1,0.3c-0.1,0.3-0.7,0.9-0.4,1.5c0.1,0.3,0.5,0.7,0.6,1c-0.2,0.8,0.4,1.3,0.6,1.9
					c0.1,0.3-0.1,0.4,0,0.5c0,0.1,0,0.1,0.1,0.2c1.5,0,1.6-0.2,2.2-1.1c0.2-0.3,0.5-0.4,0.3-0.9c0.2-0.1,0.4-0.1,0.6-0.2
					c0-0.4-0.1-0.7-0.2-1c0.4-0.2,0.7-0.6,1.1-0.9c0-0.7-0.1-2-0.3-2.1c0.1-0.6,0.4-0.6,0.6-1v-0.3c0.2-0.4,0.8-0.6,1-1
					c0-0.1,0.1-0.6,0.1-1.5c0.1-3.5,0-11.9-0.2-13.6c2.1,3.6,3.4,7.7,3.4,12.3C465.9,151.9,455.5,162.3,442.6,162.3z M442.4,158.2
					L442.4,158.2c-0.1,0-0.1,0-0.2,0.1v-0.2C442.3,158.2,442.3,158.2,442.4,158.2z M438.6,133.7L438.6,133.7c-0.2-0.2,0-0.5-0.1-0.7
					c0.1,0,0.2-0.1,0.2-0.1h0.2c0,0.1-0.2,0.1-0.2,0.2C438.6,133.2,438.8,133.5,438.6,133.7z M438.9,132.6c-0.1,0-0.1,0-0.1,0
					c-0.2,0-0.2,0-0.2-0.2c-0.2,0-0.2,0.1-0.5,0.1v0h0c0.1-0.2,0.3-0.2,0.5-0.4c0.2,0.1,0.3,0.2,0.5,0.3
					C438.9,132.5,438.9,132.6,438.9,132.6z M439.7,133.1h-0.2c0,0.1,0,0.1-0.1,0.2v0.1c-0.1-0.1-0.2-0.3-0.3-0.5c0-0.1,0,0,0-0.1
					c0.3,0.1,0.2,0.1,0.6,0.1L439.7,133.1L439.7,133.1z M439.7,133.5c-0.1,0.2-0.2,0.2-0.3,0.3c-0.1,0-0.1,0-0.2,0h-0.1
					c0.1-0.1,0.3-0.1,0.5-0.2C439.6,133.5,439.7,133.5,439.7,133.5z M439.8,133.4L439.8,133.4c0.1-0.1,0.2-0.1,0.3-0.2h0.1v0.1
					c-0.1,0-0.2,0-0.3,0.1L439.8,133.4L439.8,133.4z M433.1,132.2L433.1,132.2l-0.1,0c0-0.1,0-0.2-0.1-0.2
					C433,132.1,433,132.1,433.1,132.2z M431.4,127.2c0.1-0.2,0.1-0.2,0.2-0.3c0.1,0,0,0,0.1,0C431.6,127,431.5,126.9,431.4,127.2
					C431.4,127.2,431.4,127.2,431.4,127.2z M431.5,130.3c-0.2,0-0.1,0-0.2,0c-0.1-0.2-0.2-0.4-0.2-0.4
					C431.3,130,431.3,130.1,431.5,130.3z M462.2,140.2c-0.2,0-0.4,0-0.6-0.1v-0.3L462.2,140.2z M457.3,138.3c0-0.2,0-0.4,0-0.6
					c-0.1-0.3-0.4-0.7-0.5-1h0.2c0.1,0.2,0.2,0.2,0.3,0.3v0.2c0.1,0.1,0.2,0.2,0.2,0.2v0.5c0.1,0.2,0.4,0.4,0.5,0.6
					c0.1,0.2,0,0.5,0.1,0.6v0.2h0c-0.1-0.3-0.4-0.3-0.5-0.6v-0.4C457.4,138.4,457.4,138.4,457.3,138.3z M456.7,142.3
					c-0.1,0-0.2,0-0.2,0c-0.1-0.2-0.1-0.3,0-0.5h0.2c0.1,0.1,0,0,0.1,0.1C456.7,142.2,456.7,142.2,456.7,142.3z"/>
			</g>
		</g>
		<g>
			<g>
				<path fill="#FFFFFF" d="M442.6,112.5c-14.6,0-26.5,11.9-26.5,26.5s11.9,26.5,26.5,26.5c14.6,0,26.5-11.9,26.5-26.5
					S457.3,112.5,442.6,112.5z M442.6,162.3c0,0-0.1,0-0.2,0c0.1-0.5,0.5-1.1,0.9-1.4c-0.1-0.4-0.2-0.4-0.5-0.5
					c0.1-0.3,0.1-0.3,0.2-0.5h0.3c0-0.3,0.1-0.5,0.2-0.7c0.2-0.3,0-0.2,0.3-0.1c0,0,0.1-0.1,0.1-0.1v-0.2h-0.4
					c0.1-0.5,0.2-0.3,0.6-0.5v-0.6c0.5,0,0.8-0.1,1.1-0.3c0.1,0,0.2-0.1,0.3-0.1c0-0.5,0-0.9-0.3-1.2v-0.2c0.4,0.2,0.5,0.3,1,0.3
					c0.2-0.4,0.5-1,0.9-1.4c0,0,0.1-0.1,0.1-0.1v0.1c0.5-0.3,0.7-1.1,0.6-2c0.2-0.1,1.8-0.9,1.9-1c0.6-1,0.5-1.6,0.5-2.8
					c0-0.1,1.2-1.8,1.4-2c-0.1-0.9-1.1-1.5-1.9-1.7H449c-0.1-0.1-0.2-0.5-0.3-0.5H448c-0.3-0.2,0.1-0.2-0.5-0.3
					c-0.1-0.9-0.4-1.3-0.7-1.9c-0.3-0.1-0.7-0.3-1-0.1c-0.2-0.1-0.1,0-0.1-0.2c-0.2,0-0.2-0.1-0.4,0c-0.1-0.1-0.2-0.3-0.2-0.5
					c-0.2,0-0.3-0.1-0.5-0.1v-0.2c-0.6-0.3-1.8-0.2-2.4-0.7v0.2c-0.1,0-0.2,0-0.2-0.1c0,0-0.1,0.1-0.1,0.2v0.1
					c-0.3-0.2-0.1-0.1-0.1-0.4c-0.7,0.1-1.2,0.5-1.4,1.2c-0.3-0.2-0.6-0.5-1-0.3c-0.6-0.1-0.5-0.2-0.9-0.5c0-0.7,0.1-1-0.1-1.3
					c-0.2-0.1-0.6-0.1-1-0.1c0.1-0.3,0.2-0.9,0.4-1.1c0-0.2,0-0.2-0.1-0.3c-0.7,0.1-0.5,0.5-0.9,0.7c-0.2,0.1-0.2,0-0.4,0.2
					c-0.2,0-0.2,0-0.3-0.1c-0.8-0.4-0.3-1.5-0.5-1.9c0.1-0.6,0.4-0.6,0.7-0.9c0.6,0,0.4,0.2,1,0.2c0-0.2,0-0.1-0.1-0.2v-0.1
					c0.5,0,0.7,0.1,1.1,0.1c0.1,0.5,0.2,0.7,0.4,1.1c0,0,0.1,0,0.2,0.1c0.2-0.6-0.2-0.9-0.1-1.5c0.1-0.4,0.7-0.7,1-1.1
					c0-0.1,0-0.5-0.2-0.7v0c0.2,0.1,0.1,0.1,0.4,0.2c0-0.4,0.2-0.5,0.2-0.7c0.1-0.2,0.3-0.2,0.5-0.4c0.2-0.1,0-0.1,0.2-0.2
					c0.2-0.4,0.7-0.5,1-0.7h0.2v0.1c-0.2,0.1-0.2,0.2-0.5,0.2c0,0.1,0,0.1,0.1,0.2c0.1,0,0.2,0.1,0.2,0.2c0.2-0.1,0.4-0.3,0.7-0.4
					c0-0.1,0-0.1,0.1-0.2v-0.2c-0.1,0-0.2,0.1-0.5,0.1c0-0.2,0-0.1-0.2-0.2c0-0.5,0-0.5,0.1-0.8c-0.1-0.1,0,0-0.1-0.2
					c-0.2,0-0.4,0-0.5,0.2h-0.1l0.1-0.1c0.2-0.5,0.9-0.1,1.3-0.2c0.2-0.1,0.3-0.3,0.5-0.5c0.3-0.2,0.5-0.1,0.5-0.4
					c-0.2-0.5-0.8-0.5-1.1-0.9c0-0.2,0,0,0.1-0.2c-0.3-0.2-0.6-0.7-0.6-1.2c-0.2,0.1-0.4,0.4-0.5,0.5c-0.2,0.1-0.3-0.1-0.5-0.2
					s0-0.3,0-0.5c-0.3-0.2-0.7-0.6-1-0.5c-1.3,0-0.3,0.5-0.9,1c0.1,0.2,0.2,0.5,0.4,0.6c0,0.5-0.2,0.5-0.4,0.7c0,0.3-0.1,0.7-0.2,1
					c-0.5-0.1-0.2-0.2-0.3-0.4h-0.2c0.2,0,0-0.5,0-0.5c-0.2-0.3,0.1,0.6-0.2,0.5c-0.4-0.2-0.9-0.5-1.3-0.8c-0.1-0.1-1-1.1-1-1.3
					c0.5-0.5,0.6-0.9,1.1-1.3c0,0,0.3,0,0.5-0.1c0-0.2,0-0.2-0.1-0.2c-0.1-0.1-0.2-0.1-0.5-0.1v-0.1h0.1c0.1,0,0.3,0,0.5,0.1
					c0-0.1,0.1-0.2,0.2-0.2c0,0,0.2,0,0.2,0.1c0.2-0.1,0.1,0,0.1-0.2c0,0,0.5-0.2,0.7-0.2c-0.1-0.4-0.3-0.3-0.1-0.6
					c0-0.4-0.2-0.2-0.5-0.5c-0.3,0-0.5,0.7-0.6,1h-0.2c0-0.1,0-0.2-0.1-0.2c-0.1-0.2,0-0.2,0.1-0.5c-0.1,0-0.1,0-0.3-0.1
					c0,0.2,0,0.2-0.1,0.2v0.2c-0.2-0.2-0.2-0.3-0.4-0.5c-0.1-0.1,0-0.2,0.2-0.4c-0.2-0.1-0.5-0.2-0.6-0.5c0-0.1,0-0.1,0-0.3
					c0.2,0,0.3,0,0.4-0.1c0.2-0.1,0.2,0,0.2-0.2l0.1-0.1h-0.1c-0.1-0.2-0.2-0.1-0.3-0.2c-1,0-0.4,0.3-0.5,0.9
					c-0.1,0.2-0.2,0.3-0.3,0.6c0.2,0.1,0.4,0.2,0.6,0.2c-0.1,0.1-0.5,0.7-0.5,0.9h-0.1c-0.1-0.2-0.1-0.3-0.2-0.5v-0.1
					c-0.2,0.1-0.2,0.1-0.3,0.3c-0.2,0-0.5,0.1-0.7,0c-0.3-0.1-0.7-0.5-1-0.4c-0.1,0-0.2,0-0.2,0.1c0.2,0.2,0.1,0.1,0.3,0.1
					c-0.1,0.2-0.2,0.3-0.2,0.5v0.1c-0.2-0.1-0.3-0.2-0.5-0.4c-0.1,0-0.2,0-0.4,0.1c-0.5,0-0.3-0.1-0.4-0.5c-0.9,0.1-1.2-0.4-2-0.2
					c-0.1-0.2-0.3-0.3-0.5-0.5c-0.2,0.1-0.2,0.2-0.2,0.2c-0.2,0-0.3,0-0.5-0.1c-0.1,0-0.3,0.3-0.4,0.3c-0.1,0-0.2,0-0.2-0.1
					c-0.1,0.1-0.2,0.2-0.2,0.2c-0.3,0.1,1,0.8,1.1,0.9c-0.4-0.2-0.8-0.1-1.1-0.1c-0.7-0.2-1.5,0-1.8-0.3c-0.5,0.1-0.9,0.3-1.3,0.5
					v0.3c-0.2,0-0.2,0-0.4,0.1c0,0-0.1,0-0.1,0c0.1,0.3,0.5,0.5,0.8,0.5c0,0.1,0,0.1-0.1,0.2c-0.3,0-0.3,0-0.4-0.2
					c-0.2,0.1-0.5,0.2-0.6,0.3c0.1,0.2,0.2,0.2,0.3,0.4c0.3,0,0.6,0,0.9-0.1c0,0.2,0,0.2-0.1,0.3c-0.2,0.1-0.4,0.1-0.5,0.1
					c-0.2,0.1,0,0.2-0.3,0.3c0.1,0.3,0.2,0.3,0.2,0.6c0.2,0,0.2,0,0.3-0.1c0,0.1,0.1,0.2,0.1,0.3c0.4,0,0.4,0,0.8,0.1
					c0,0,0,0-0.1,0.1c0,0.5-0.5,0.7-0.9,0.9v0.1c0.5-0.2,1.4-0.6,1.6-1.2c0,0,0,0,0.1-0.1h-0.1v-0.1c0.1-0.1,0.2-0.1,0.2-0.3
					c0.1,0,0.1,0,0.1-0.1h0.1v0.4c0.2,0,0.5-0.2,0.7-0.3h0.1c0,0,0-0.1-0.1-0.1c0.1,0,1.5,0.4,1.7,0.5c0.5,0.4,0.2,1,1,0.7
					c-0.1,0-0.1,0.1-0.2,0.1c0.1,0.1-0.6-0.2-1-0.4c0.1,0.3,0.1,0.7,0.5,0.7c0,0.3,0.1,0.2-0.1,0.4c0.1,0.3,0.7,0.6,0.9,1
					c0.3,0.7-0.2,1.4,0,2.1c0.1,0.2,0.2,0.3,0.4,0.5c-0.1,0.2,0.1,0.6,0.2,0.8c0.2,0.2,0.4,0.3,0.6,0.5c0.2,0.4,0.1,0.6,0.5,0.8
					c0,0.2,0,0.3-0.1,0.5c0.1,0.2,0.3,0.2,0.4,0.3c0,0.2,0,0.3,0.1,0.5c0.1,0.1,0.3,0.3,0.4,0.5h0.2c0-0.4-0.7-1.7-1-2.1v-0.1
					c0.3,0.1,1.9,2.4,1.8,2.6c0,0.7,0.9,1.1,1.5,1.3c0.3,0,0.6,0,1-0.1c0.3,0.2-0.2,0.7,0.8,0.6c0.2,0.4,0.4,0.5,0.4,1.2
					c0.4,0.2,1.1,0.5,1.4,0.8c0.3-0.2,0.1,0,0.1-0.3c0,0,0.1-0.1,0.1-0.1c0.2,0,0.2,0,0.3,0.1c1,1.4-1.2,2.9-0.4,3.7
					c-0.1,0.3-0.1,0.3-0.3,0.4c0.1,1,0.7,1,1,1.6c0,0.2,0.1,0.5,0.1,0.7c0.5,1.1,0.9,1.7,1.8,2.3c0.2,2.3-0.2,6.8-0.3,6.9
					c0.2,1,0.6,4,0.7,5.1c-0.4,0-1.6-0.1-1.6-0.1c-12-0.7-21.4-10.7-21.4-22.9c0-12.8,10.4-23.2,23.2-23.2c7.9,0,14.9,3.9,19.1,10
					c0,0.3,0,0.4-0.1,0.7c-0.1,0-0.1,0-0.1-0.1c-0.2,0-0.2,0-0.4,0.1c0,0.2,0,0.2,0,0.5c-0.1,0-0.3-0.1-0.3-0.1
					c-0.2,0.1,0,0.2-0.1,0.3c0,0,0,0-0.1,0c-0.4-0.2-0.3-0.6-0.8-0.7v-0.1c0.4,0.1,0.8,0.5,1.2,0.2c0.1-0.1,0.1-0.1,0.2-0.2
					c-0.1-0.5-1.4-1.1-1.9-1c0,0,0.1-0.1,0.1-0.1c-0.1-0.3-0.3-0.2-0.4-0.3c-0.2,0-0.3,0.1-0.4,0.3c-0.1-0.1,0,0-0.1-0.1V125
					c-0.5,0.2-1,0.4-1.6,0.5c0.1,0.2,0.1,0.1,0.2,0.2c-0.6,1-1.4,1.7-2.3,2.3c0,0.2,0.2,0.5,0.1,0.6c0.1,0.2,0.1,0.2,0.1,0.4
					c0.4,0.1,0.6,0,0.8-0.2c0.2,0.3,0.3,0.6,0.3,1c0.4,0,0.4-0.2,0.8-0.3c0-0.2,0-0.5,0.1-0.5c0.1-0.2,0.2-0.2,0.4-0.2
					c0-0.3,0-0.4-0.3-0.6c0-0.4,0.2-0.7,0.4-0.8c0.1,0,0.2,0,0.3-0.1c0,0,0.2-0.5,0.2-0.5c0.1,0,0.3,0,0.4,0.1
					c-0.1,0.4-0.3,0.6-0.6,0.7c0,0.4,0.2,0.7,0.1,0.8c0,0,0.2,0.1,0.2,0.1c0.2,0,0.2,0,0.3-0.2c0.4,0,0.4,0.1,0.7,0.1
					c-0.3,0.2-0.6,0.2-1,0.2l-0.1,0.1c0,0.1,0.1,0.3,0.1,0.4c0,0.1,0,0-0.1,0.1c-0.2,0-0.2-0.1-0.4-0.1c-0.1,0.3-0.4,0.7-0.4,1
					c-0.5,0-1.5,0.1-1.5,0.1h-0.1c0-0.2,0.1-0.8,0.1-0.8v-0.2c-0.2,0-0.3,0.1-0.5,0.2c0,0.2,0,0.6,0.2,0.8c-0.2,0.4-0.5,0.1-0.7,0.3
					c-0.1,0.1,0,0.2-0.1,0.3c-0.1,0.1-0.9,0.5-0.9,0.5c-0.2,0-0.1,0-0.1,0.1c-0.1,0.2-0.2,0.2-0.5,0.1l-0.1,0.1
					c0,0.2,0.5,0.7,0.6,0.7v0.5c-0.4-0.1-1.1-0.1-1.4-0.1c0,0.2-0.1,1.3,0.1,1.5c0.2,0.1,0.6,0.3,0.7,0.2c0.8,0,0.7-0.5,0.9-0.9
					c0.2-0.4,0.5-0.2,0.5-0.7c0.3,0,0.7,0,0.9-0.2c0.3,0.1,0.5,0.4,0.8,0.7c0,0,0,0,0-0.1c0.1,0,0.2,0,0.4,0c0,0,0,0-0.1,0
					c0,0.2,0,0.2,0.2,0.2c0,0,0.2,0,0.3,0h0c-0.1-0.1-0.1-0.1-0.2-0.2h-0.1c0,0,0.1,0,0.1,0c-0.2-0.2-0.5-0.5-0.7-0.7
					c0-0.2,0-0.2,0.1-0.3v-0.1c0.2,0.1,0.2,0.4,0.4,0.5s0.5,0.2,0.6,0.3c0,0,0.1,0,0.1,0h0.1c0,0.1-0.1,0.1-0.1,0.2v0.4c0,0,0,0,0,0
					c0.2,0.1,0.3,0.2,0.4,0.4c0,0,0,0,0,0c0,0,0.1,0,0.1,0l-0.2,0.2v0l0,0c0,0,0,0,0.1,0.1c0.4,0,0.4-0.2,0.6-0.2
					c-0.1-0.2-0.1-0.2-0.3-0.3v-0.3c0.3-0.1,0.3-0.1,0.5-0.2c0.2,0.5,0.1,0.6,0.4,1c0.4,0.1,1,0.3,1.2,0h0.1c0,0.5,0.1,0.6-0.1,0.9
					c0,0.1,0,0.1-0.1,0.2c-0.5,0-1,0.2-1.2,0.1c-0.3,0-0.8-0.5-1.1-0.3c-0.2,0.1-0.2,0.2-0.2,0.4c-0.7,0-1-0.4-1.5-0.6
					c0-0.2,0-0.2,0.1-0.3c0-0.3,0-0.4-0.1-0.5c-0.7-0.3-2.4,0.6-2.7,0.3c-0.2,0.1-0.5,0.5-0.7,0.7c-0.2,0.2,0,0.6-0.1,0.9
					c-0.1,0.3-0.7,0.4-0.8,0.7c-0.4,0.7-0.4,1-0.3,1.8c0,0.4-0.3,0.5-0.2,0.9c0,0,4.5,0,4.6,0c0,0.1-0.1,0.2-0.1,0.4
					c0,0.2-4,0.2-4,0.3c0.1,0.2,0.1,0.5,0.2,0.7c0.2,0.3,0.7,0.5,0.9,0.7c0.2,0,0.3-0.2,0.4-0.2c0.2,0,0.2,0.1,0.3,0.1
					c0.3,0,1-0.2,1-0.4c0.5,0,0.5,0.1,0.6,0.5c0.1,0,0.1,0,0.2-0.1c1,0.1,0,0.8,0.4,1.5c0.1,0.1,0.3,0.3,0.4,0.4
					c0.2,0.4,0.1,0.8,0.2,1.3c0,0,0.2,0.2,0.1,0.3c-0.1,0.3-0.7,0.9-0.4,1.5c0.1,0.3,0.5,0.7,0.6,1c-0.2,0.8,0.4,1.3,0.6,1.9
					c0.1,0.3-0.1,0.4,0,0.5c0,0.1,0,0.1,0.1,0.2c1.5,0,1.6-0.2,2.2-1.1c0.2-0.3,0.5-0.4,0.3-0.9c0.2-0.1,0.4-0.1,0.6-0.2
					c0-0.4-0.1-0.7-0.2-1c0.4-0.2,0.7-0.6,1.1-0.9c0-0.7-0.1-2-0.3-2.1c0.1-0.6,0.4-0.6,0.6-1v-0.3c0.2-0.4,0.8-0.6,1-1
					c0-0.1,0.1-0.6,0.1-1.5c0.1-3.5,0-11.9-0.2-13.6c2.1,3.6,3.4,7.7,3.4,12.3C465.9,151.9,455.5,162.3,442.6,162.3z M442.4,158.2
					L442.4,158.2c-0.1,0-0.1,0-0.2,0.1v-0.2C442.3,158.2,442.3,158.2,442.4,158.2z M438.6,133.7L438.6,133.7c-0.2-0.2,0-0.5-0.1-0.7
					c0.1,0,0.2-0.1,0.2-0.1h0.2c0,0.1-0.2,0.1-0.2,0.2C438.6,133.2,438.8,133.5,438.6,133.7z M438.9,132.6c-0.1,0-0.1,0-0.1,0
					c-0.2,0-0.2,0-0.2-0.2c-0.2,0-0.2,0.1-0.5,0.1v0h0c0.1-0.2,0.3-0.2,0.5-0.4c0.2,0.1,0.3,0.2,0.5,0.3
					C438.9,132.5,438.9,132.6,438.9,132.6z M439.7,133.1h-0.2c0,0.1,0,0.1-0.1,0.2v0.1c-0.1-0.1-0.2-0.3-0.3-0.5c0-0.1,0,0,0-0.1
					c0.3,0.1,0.2,0.1,0.6,0.1L439.7,133.1L439.7,133.1z M439.7,133.5c-0.1,0.2-0.2,0.2-0.3,0.3c-0.1,0-0.1,0-0.2,0h-0.1
					c0.1-0.1,0.3-0.1,0.5-0.2C439.6,133.5,439.7,133.5,439.7,133.5z M439.8,133.4L439.8,133.4c0.1-0.1,0.2-0.1,0.3-0.2h0.1v0.1
					c-0.1,0-0.2,0-0.3,0.1L439.8,133.4L439.8,133.4z M433.1,132.2L433.1,132.2l-0.1,0c0-0.1,0-0.2-0.1-0.2
					C433,132.1,433,132.1,433.1,132.2z M431.4,127.2c0.1-0.2,0.1-0.2,0.2-0.3c0.1,0,0,0,0.1,0C431.6,127,431.5,126.9,431.4,127.2
					C431.4,127.2,431.4,127.2,431.4,127.2z M431.5,130.3c-0.2,0-0.1,0-0.2,0c-0.1-0.2-0.2-0.4-0.2-0.4
					C431.3,130,431.3,130.1,431.5,130.3z M462.2,140.2c-0.2,0-0.4,0-0.6-0.1v-0.3L462.2,140.2z M457.3,138.3c0-0.2,0-0.4,0-0.6
					c-0.1-0.3-0.4-0.7-0.5-1h0.2c0.1,0.2,0.2,0.2,0.3,0.3v0.2c0.1,0.1,0.2,0.2,0.2,0.2v0.5c0.1,0.2,0.4,0.4,0.5,0.6
					c0.1,0.2,0,0.5,0.1,0.6v0.2h0c-0.1-0.3-0.4-0.3-0.5-0.6v-0.4C457.4,138.4,457.4,138.4,457.3,138.3z M456.7,142.3
					c-0.1,0-0.2,0-0.2,0c-0.1-0.2-0.1-0.3,0-0.5h0.2c0.1,0.1,0,0,0.1,0.1C456.7,142.2,456.7,142.2,456.7,142.3z"/>
			</g>
		</g>
	</g>
</g>
<g id="row4_2_">
	<g id="target_1_" display="none">
		<g display="inline">
			<g>
				<path fill="#FFFFFF" d="M800.7,133c-0.9,2.9-1.5,6.1-1.5,9.4c0,17.2,13.9,31,31,31s31-13.9,31-31s-13.9-31-31-31
					c-10.2,0-19.2,4.9-24.9,12.5l4.6,2.5c4.8-6,12.1-9.8,20.3-9.8c14.3,0,25.9,11.6,25.9,25.9c0,14.3-11.6,25.9-25.9,25.9
					c-14.3,0-25.9-11.6-25.9-25.9c0-2.4,0.3-4.7,0.9-6.8L800.7,133z M810.1,138.1c-0.3,1.4-0.5,2.9-0.5,4.3
					c0,11.4,9.3,20.7,20.7,20.7s20.7-9.3,20.7-20.7c0-11.4-9.3-20.7-20.7-20.7c-6.2,0-11.8,2.7-15.6,7.1l4.7,2.5
					c2.8-2.7,6.6-4.4,10.9-4.4c8.6,0,15.5,7,15.5,15.5c0,8.6-7,15.5-15.5,15.5s-15.5-7-15.5-15.5c0-0.6,0-1.2,0.1-1.7L810.1,138.1z
					 M830.4,101c-14.1,0-26.6,7.1-34.1,17.9l4.6,2.5c6.5-9.2,17.3-15.2,29.5-15.2c20,0,36.2,16.2,36.2,36.2s-16.2,36.2-36.2,36.2
					s-36.2-16.2-36.2-36.2c0-4.1,0.7-8.1,2-11.9l-4.6-2.5c-1.7,4.5-2.5,9.3-2.5,14.3c0,22.9,18.5,41.4,41.4,41.4
					s41.4-18.5,41.4-41.4C871.8,119.5,853.3,101,830.4,101z M831.7,140.7l-46.5-24.9l1.5-4.5l-7.9-10.4v12.9l-13.1,5.2l13.1,2.6
					l3.3-1.6l47.1,25.3L831.7,140.7z"/>
			</g>
		</g>
	</g>
	<g id="note_1_" display="none">
		<g display="inline">
			<g>
				<path fill="#FFFFFF" d="M790.4,177.7H801v-10.6h-10.6V177.7z M790.4,160.1H801v-10.6h-10.6V160.1z M825.8,107h-35.4v10.6h35.4
					L825.8,107L825.8,107z M790.4,142.4H801v-10.6h-10.6V142.4z M804.6,138.8H847v-3.5h-42.4V138.8z M832.9,89.3h-56.6v106.1h84.9
					v-81.4L832.9,89.3z M857.6,191.9h-77.8v-99h51.6l1.5,1.2v23.6h24.7V191.9z M804.6,156.5H847V153h-42.4V156.5z M804.6,174.2H847
					v-3.5h-42.4V174.2z"/>
			</g>
		</g>
	</g>
	<g id="phone_1_" display="none">
		<g display="inline">
			<g>
				<path fill="#FFFFFF" d="M845.3,89.3h-53c-3.6,0-6.6,3-6.6,6.6v92.8c0,3.6,3,6.6,6.6,6.6h53c3.6,0,6.6-3,6.6-6.6V95.9
					C851.9,92.3,848.9,89.3,845.3,89.3z M805.5,182.1h-13.3v-6.6h13.3V182.1z M805.5,172.2h-13.3v-6.6h13.3V172.2z M805.5,162.3
					h-13.3v-6.6h13.3V162.3z M805.5,152.3h-13.3v-6.6h13.3V152.3z M825.4,182.1h-13.3v-6.6h13.3V182.1z M825.4,172.2h-13.3v-6.6
					h13.3V172.2z M825.4,162.3h-13.3v-6.6h13.3V162.3z M825.4,152.3h-13.3v-6.6h13.3V152.3z M845.3,182.1H832v-6.6h13.3V182.1z
					 M845.3,172.2H832v-6.6h13.3V172.2z M845.3,162.3H832v-6.6h13.3V162.3z M845.3,152.3H832v-6.6h13.3V152.3z M845.3,139h-53V99.3
					h53V139z"/>
			</g>
		</g>
	</g>
	<g id="calendar_2_" display="none">
		<g id="calendar2_1_" display="inline">
			<g>
				<g>
					<path fill="#FFFFFF" d="M792.1,108.3c4.1,0,7.5-3.4,7.5-7.5V93h-14.9v7.8C784.6,105,788,108.3,792.1,108.3z M864.2,96.9h-7.6
						v3.8c0,6.3-5.1,11.4-11.4,11.4s-11.4-5.1-11.4-11.4V97h-3.8c0,0,0.3,1.6,0,3.8c-0.7,4.5-3.4,11.4-11.4,11.4
						c-8.4,0-10.8-6.9-11.4-11.4c-0.3-2.2,0.1-3.8,0.1-3.8h-3.9v3.8c0,6.3-5.1,11.4-11.4,11.4c-6.3,0-11.4-5.1-11.4-11.4V97h-7.6
						c-4.2,0-7.6,3.4-7.6,7.6v79.6c0,4.2,3.4,7.6,7.6,7.6h90.9c4.2,0,7.6-3.4,7.6-7.6v-79.6C871.8,100.3,868.4,96.9,864.2,96.9z
						 M864.2,184.1h-90.9v-60.6h90.9V184.1z M845.1,108.3c4.1,0,7.5-3.4,7.5-7.5V93h-14.9v7.8C837.7,105,841,108.3,845.1,108.3z
						 M818.6,108.3c4.1,0,7.5-3.4,7.5-7.5V93h-14.9v7.8C811.1,105,814.5,108.3,818.6,108.3z"/>
				</g>
			</g>
		</g>
		<g id="_x31_7_1_" display="inline">
		</g>
		
			<text transform="matrix(1 0 0 1 786.9325 169.5303)" display="inline" fill="#FFFFFF" font-family="'Arial-Black'" font-size="45.4691px">17</text>
	</g>
	<g id="paper_x5F_clip_1_" display="none">
		<path display="inline" fill="#FFFFFF" d="M792.9,151.8c0,0-4.3,3.3-1,6.6c3.3,3.3,6.4-1,6.4-1l32.8-33c0,0,7.7-10,13.5-3.9
			c5.8,6.1-3.9,13.6-3.9,13.6l-43,43.3c0,0-10,11.1-19.5,1.7c-9.4-9.5,1.7-19.7,1.7-19.7l48.4-48.8c0,0,15.5-18,29.8-3.6
			c14.3,14.5-3.7,29.9-3.7,29.9L817.6,174c0,0-4.1,3.5-1,6.6c3.1,3.1,6.5-1,6.5-1l42.2-42.5c0,0,15.9-17.6-1.9-35.5
			s-35.2-1.9-35.2-1.9L770.2,158c0,0-11.6,12.9,2.2,26.8c13.8,13.9,26.6,2.2,26.6,2.2l49.8-50.1c0,0,12.8-10.4,1.2-22.1
			c-11.6-11.7-21.8,1.4-21.8,1.4L792.9,151.8z"/>
	</g>
	<g id="Globe_1_">
		<g>
			<g>
				<path fill="#FFFFFF" d="M818.7,115.8c-14.6,0-26.5,11.9-26.5,26.5s11.9,26.5,26.5,26.5c14.6,0,26.5-11.9,26.5-26.5
					S833.4,115.8,818.7,115.8z M818.7,165.6c0,0-0.1,0-0.2,0c0.1-0.5,0.5-1.1,0.9-1.4c-0.1-0.4-0.2-0.4-0.5-0.5
					c0.1-0.3,0.1-0.3,0.2-0.5h0.3c0-0.3,0.1-0.5,0.2-0.7c0.2-0.3,0-0.2,0.3-0.1c0,0,0.1-0.1,0.1-0.1V162h-0.4
					c0.1-0.5,0.2-0.3,0.6-0.5v-0.6c0.5,0,0.8-0.1,1.1-0.3c0.1,0,0.2-0.1,0.3-0.1c0-0.5,0-0.9-0.3-1.2V159c0.4,0.2,0.5,0.3,1,0.3
					c0.2-0.4,0.5-1,0.9-1.4c0,0,0.1-0.1,0.1-0.1v0.1c0.5-0.3,0.7-1.1,0.6-2c0.2-0.1,1.8-0.9,1.9-1c0.6-1,0.5-1.6,0.5-2.8
					c0-0.1,1.2-1.8,1.4-2c-0.1-0.9-1.1-1.5-1.9-1.7h-0.7c-0.1-0.1-0.2-0.5-0.3-0.5h-0.7c-0.3-0.2,0.1-0.2-0.5-0.3
					c-0.1-0.9-0.4-1.3-0.7-1.9c-0.3-0.1-0.7-0.3-1-0.1c-0.2-0.1-0.1,0-0.1-0.2c-0.2,0-0.2-0.1-0.4,0c-0.1-0.1-0.2-0.3-0.2-0.5
					c-0.2,0-0.3-0.1-0.5-0.1v-0.2c-0.6-0.3-1.8-0.2-2.4-0.7v0.2c-0.1,0-0.2,0-0.2-0.1c0,0-0.1,0.1-0.1,0.2v0.1
					c-0.3-0.2-0.1-0.1-0.1-0.4c-0.7,0.1-1.2,0.5-1.4,1.2c-0.3-0.2-0.6-0.5-1-0.3c-0.6-0.1-0.5-0.2-0.9-0.5c0-0.7,0.1-1-0.1-1.3
					c-0.2-0.1-0.6-0.1-1-0.1c0.1-0.3,0.2-0.9,0.4-1.1c0-0.2,0-0.2-0.1-0.3c-0.7,0.1-0.5,0.5-0.9,0.7c-0.2,0.1-0.2,0-0.4,0.2
					c-0.2,0-0.2,0-0.3-0.1c-0.8-0.4-0.3-1.5-0.5-1.9c0.1-0.6,0.4-0.6,0.7-0.9c0.6,0,0.4,0.2,1,0.2c0-0.2,0-0.1-0.1-0.2V139
					c0.5,0,0.7,0.1,1.1,0.1c0.1,0.5,0.2,0.7,0.4,1.1c0,0,0.1,0,0.2,0.1c0.2-0.6-0.2-0.9-0.1-1.5c0.1-0.4,0.7-0.7,1-1.1
					c0-0.1,0-0.5-0.2-0.7v0c0.2,0.1,0.1,0.1,0.4,0.2c0-0.4,0.2-0.5,0.2-0.7c0.1-0.2,0.3-0.2,0.5-0.4c0.2-0.1,0-0.1,0.2-0.2
					c0.2-0.4,0.7-0.5,1-0.7h0.2v0.1c-0.2,0.1-0.2,0.2-0.5,0.2c0,0.1,0,0.1,0.1,0.2c0.1,0,0.2,0.1,0.2,0.2c0.2-0.1,0.4-0.3,0.7-0.4
					c0-0.1,0-0.1,0.1-0.2V135c-0.1,0-0.2,0.1-0.5,0.1c0-0.2,0-0.1-0.2-0.2c0-0.5,0-0.5,0.1-0.8c-0.1-0.1,0,0-0.1-0.2
					c-0.2,0-0.4,0-0.5,0.2h-0.1l0.1-0.1c0.2-0.5,0.9-0.1,1.3-0.2c0.2-0.1,0.3-0.3,0.5-0.5c0.3-0.2,0.5-0.1,0.5-0.4
					c-0.2-0.5-0.8-0.5-1.1-0.9c0-0.2,0,0,0.1-0.2c-0.3-0.2-0.6-0.7-0.6-1.2c-0.2,0.1-0.4,0.4-0.5,0.5c-0.2,0.1-0.3-0.1-0.5-0.2
					s0-0.3,0-0.5c-0.3-0.2-0.7-0.6-1-0.5c-1.3,0-0.3,0.5-0.9,1c0.1,0.2,0.2,0.5,0.4,0.6c0,0.5-0.2,0.5-0.4,0.7c0,0.3-0.1,0.7-0.2,1
					c-0.5-0.1-0.2-0.2-0.3-0.4h-0.2c0.2,0,0-0.5,0-0.5c-0.2-0.3,0.1,0.6-0.2,0.5c-0.4-0.2-0.9-0.5-1.3-0.8c-0.1-0.1-1-1.1-1-1.3
					c0.5-0.5,0.6-0.9,1.1-1.3c0,0,0.3,0,0.5-0.1c0-0.2,0-0.2-0.1-0.2c-0.1-0.1-0.2-0.1-0.5-0.1V129h0.1c0.1,0,0.3,0,0.5,0.1
					c0-0.1,0.1-0.2,0.2-0.2c0,0,0.2,0,0.2,0.1c0.2-0.1,0.1,0,0.1-0.2c0,0,0.5-0.2,0.7-0.2c-0.1-0.4-0.3-0.3-0.1-0.6
					c0-0.4-0.2-0.2-0.5-0.5c-0.3,0-0.5,0.7-0.6,1h-0.2c0-0.1,0-0.2-0.1-0.2c-0.1-0.2,0-0.2,0.1-0.5c-0.1,0-0.1,0-0.3-0.1
					c0,0.2,0,0.2-0.1,0.2v0.2c-0.2-0.2-0.2-0.3-0.4-0.5c-0.1-0.1,0-0.2,0.2-0.4c-0.2-0.1-0.5-0.2-0.6-0.5c0-0.1,0-0.1,0-0.3
					c0.2,0,0.3,0,0.4-0.1c0.2-0.1,0.2,0,0.2-0.2l0.1-0.1h-0.1c-0.1-0.2-0.2-0.1-0.3-0.2c-1,0-0.4,0.3-0.5,0.9
					c-0.1,0.2-0.2,0.3-0.3,0.6c0.2,0.1,0.4,0.2,0.6,0.2c-0.1,0.1-0.5,0.7-0.5,0.9h-0.1c-0.1-0.2-0.1-0.3-0.2-0.5v-0.1
					c-0.2,0.1-0.2,0.1-0.3,0.3c-0.2,0-0.5,0.1-0.7,0c-0.3-0.1-0.7-0.5-1-0.4c-0.1,0-0.2,0-0.2,0.1c0.2,0.2,0.1,0.1,0.3,0.1
					c-0.1,0.2-0.2,0.3-0.2,0.5v0.1c-0.2-0.1-0.3-0.2-0.5-0.4c-0.1,0-0.2,0-0.4,0.1c-0.5,0-0.3-0.1-0.4-0.5c-0.9,0.1-1.2-0.4-2-0.2
					c-0.1-0.2-0.3-0.3-0.5-0.5c-0.2,0.1-0.2,0.2-0.2,0.2c-0.2,0-0.3,0-0.5-0.1c-0.1,0-0.3,0.3-0.4,0.3c-0.1,0-0.2,0-0.2-0.1
					c-0.1,0.1-0.2,0.2-0.2,0.2c-0.3,0.1,1,0.8,1.1,0.9c-0.4-0.2-0.8-0.1-1.1-0.1c-0.7-0.2-1.5,0-1.8-0.3c-0.5,0.1-0.9,0.3-1.3,0.5
					v0.3c-0.2,0-0.2,0-0.4,0.1c0,0-0.1,0-0.1,0c0.1,0.3,0.5,0.5,0.8,0.5c0,0.1,0,0.1-0.1,0.2c-0.3,0-0.3,0-0.4-0.2
					c-0.2,0.1-0.5,0.2-0.6,0.3c0.1,0.2,0.2,0.2,0.3,0.4c0.3,0,0.6,0,0.9-0.1c0,0.2,0,0.2-0.1,0.3c-0.2,0.1-0.4,0.1-0.5,0.1
					c-0.2,0.1,0,0.2-0.3,0.3c0.1,0.3,0.2,0.3,0.2,0.6c0.2,0,0.2,0,0.3-0.1c0,0.1,0.1,0.2,0.1,0.3c0.4,0,0.4,0,0.8,0.1
					c0,0,0,0-0.1,0.1c0,0.5-0.5,0.7-0.9,0.9v0.1c0.5-0.2,1.4-0.6,1.6-1.2c0,0,0,0,0.1-0.1h-0.1v-0.1c0.1-0.1,0.2-0.1,0.2-0.3
					c0.1,0,0.1,0,0.1-0.1h0.1v0.4c0.2,0,0.5-0.2,0.7-0.3h0.1c0,0,0-0.1-0.1-0.1c0.1,0,1.5,0.4,1.7,0.5c0.5,0.4,0.2,1,1,0.7
					c-0.1,0-0.1,0.1-0.2,0.1c0.1,0.1-0.6-0.2-1-0.4c0.1,0.3,0.1,0.7,0.5,0.7c0,0.3,0.1,0.2-0.1,0.4c0.1,0.3,0.7,0.6,0.9,1
					c0.3,0.7-0.2,1.4,0,2.1c0.1,0.2,0.2,0.3,0.4,0.5c-0.1,0.2,0.1,0.6,0.2,0.8c0.2,0.2,0.4,0.3,0.6,0.5c0.2,0.4,0.1,0.6,0.5,0.8
					c0,0.2,0,0.3-0.1,0.5c0.1,0.2,0.3,0.2,0.4,0.3c0,0.2,0,0.3,0.1,0.5c0.1,0.1,0.3,0.3,0.4,0.5h0.2c0-0.4-0.7-1.7-1-2.1v-0.1
					c0.3,0.1,1.9,2.4,1.8,2.6c0,0.7,0.9,1.1,1.5,1.3c0.3,0,0.6,0,1-0.1c0.3,0.2-0.2,0.7,0.8,0.6c0.2,0.4,0.4,0.5,0.4,1.2
					c0.4,0.2,1.1,0.5,1.4,0.8c0.3-0.2,0.1,0,0.1-0.3c0,0,0.1-0.1,0.1-0.1c0.2,0,0.2,0,0.3,0.1c1,1.4-1.2,2.9-0.4,3.7
					c-0.1,0.3-0.1,0.3-0.3,0.4c0.1,1,0.7,1,1,1.6c0,0.2,0.1,0.5,0.1,0.7c0.5,1.1,0.9,1.7,1.8,2.3c0.2,2.3-0.2,6.8-0.3,6.9
					c0.2,1,0.6,4,0.7,5.1c-0.4,0-1.6-0.1-1.6-0.1c-12-0.7-21.4-10.7-21.4-22.9c0-12.8,10.4-23.2,23.2-23.2c7.9,0,14.9,3.9,19.1,10
					c0,0.3,0,0.4-0.1,0.7c-0.1,0-0.1,0-0.1-0.1c-0.2,0-0.2,0-0.4,0.1c0,0.2,0,0.2,0,0.5c-0.1,0-0.3-0.1-0.3-0.1
					c-0.2,0.1,0,0.2-0.1,0.3c0,0,0,0-0.1,0c-0.4-0.2-0.3-0.6-0.8-0.7v-0.1c0.4,0.1,0.8,0.5,1.2,0.2c0.1-0.1,0.1-0.1,0.2-0.2
					c-0.1-0.5-1.4-1.1-1.9-1c0,0,0.1-0.1,0.1-0.1c-0.1-0.3-0.3-0.2-0.4-0.3c-0.2,0-0.3,0.1-0.4,0.3c-0.1-0.1,0,0-0.1-0.1v-0.1
					c-0.5,0.2-1,0.4-1.6,0.5c0.1,0.2,0.1,0.1,0.2,0.2c-0.6,1-1.4,1.7-2.3,2.3c0,0.2,0.2,0.5,0.1,0.6c0.1,0.2,0.1,0.2,0.1,0.4
					c0.4,0.1,0.6,0,0.8-0.2c0.2,0.3,0.3,0.6,0.3,1c0.4,0,0.4-0.2,0.8-0.3c0-0.2,0-0.5,0.1-0.5c0.1-0.2,0.2-0.2,0.4-0.2
					c0-0.3,0-0.4-0.3-0.6c0-0.4,0.2-0.7,0.4-0.8c0.1,0,0.2,0,0.3-0.1c0,0,0.2-0.5,0.2-0.5c0.1,0,0.3,0,0.4,0.1
					c-0.1,0.4-0.3,0.6-0.6,0.7c0,0.4,0.2,0.7,0.1,0.8c0,0,0.2,0.1,0.2,0.1c0.2,0,0.2,0,0.3-0.2c0.4,0,0.4,0.1,0.7,0.1
					c-0.3,0.2-0.6,0.2-1,0.2l-0.1,0.1c0,0.1,0.1,0.3,0.1,0.4c0,0.1,0,0-0.1,0.1c-0.2,0-0.2-0.1-0.4-0.1c-0.1,0.3-0.4,0.7-0.4,1
					c-0.5,0-1.5,0.1-1.5,0.1h-0.1c0-0.2,0.1-0.8,0.1-0.8v-0.2c-0.2,0-0.3,0.1-0.5,0.2c0,0.2,0,0.6,0.2,0.8c-0.2,0.4-0.5,0.1-0.7,0.3
					c-0.1,0.1,0,0.2-0.1,0.3c-0.1,0.1-0.9,0.5-0.9,0.5c-0.2,0-0.1,0-0.1,0.1c-0.1,0.2-0.2,0.2-0.5,0.1l-0.1,0.1
					c0,0.2,0.5,0.7,0.6,0.7v0.5c-0.4-0.1-1.1-0.1-1.4-0.1c0,0.2-0.1,1.3,0.1,1.5c0.2,0.1,0.6,0.3,0.7,0.2c0.8,0,0.7-0.5,0.9-0.9
					s0.5-0.2,0.5-0.7c0.3,0,0.7,0,0.9-0.2c0.3,0.1,0.5,0.4,0.8,0.7c0,0,0,0,0-0.1c0.1,0,0.2,0,0.4,0c0,0,0,0-0.1,0
					c0,0.2,0,0.2,0.2,0.2c0,0,0.2,0,0.3,0h0c-0.1-0.1-0.1-0.1-0.2-0.2h-0.1c0,0,0.1,0,0.1,0c-0.2-0.2-0.5-0.5-0.7-0.7
					c0-0.2,0-0.2,0.1-0.3v-0.1c0.2,0.1,0.2,0.4,0.4,0.5c0.2,0.1,0.5,0.2,0.6,0.3c0,0,0.1,0,0.1,0h0.1c0,0.1-0.1,0.1-0.1,0.2v0.4
					c0,0,0,0,0,0c0.2,0.1,0.3,0.2,0.4,0.4c0,0,0,0,0,0c0,0,0.1,0,0.1,0l-0.2,0.2v0l0,0c0,0,0,0,0.1,0.1c0.4,0,0.4-0.2,0.6-0.2
					c-0.1-0.2-0.1-0.2-0.3-0.3v-0.3c0.3-0.1,0.3-0.1,0.5-0.2c0.2,0.5,0.1,0.6,0.4,1c0.4,0.1,1,0.3,1.2,0h0.1c0,0.5,0.1,0.6-0.1,0.9
					c0,0.1,0,0.1-0.1,0.2c-0.5,0-1,0.2-1.2,0.1c-0.3,0-0.8-0.5-1.1-0.3c-0.2,0.1-0.2,0.2-0.2,0.4c-0.7,0-1-0.4-1.5-0.6
					c0-0.2,0-0.2,0.1-0.3c0-0.3,0-0.4-0.1-0.5c-0.7-0.3-2.4,0.6-2.7,0.3c-0.2,0.1-0.5,0.5-0.7,0.7c-0.2,0.2,0,0.6-0.1,0.9
					c-0.1,0.3-0.7,0.4-0.8,0.7c-0.4,0.7-0.4,1-0.3,1.8c0,0.4-0.3,0.5-0.2,0.9c0,0,4.5,0,4.6,0c0,0.1-0.1,0.2-0.1,0.4
					c0,0.2-4,0.2-4,0.3c0.1,0.2,0.1,0.5,0.2,0.7c0.2,0.3,0.7,0.5,0.9,0.7c0.2,0,0.3-0.2,0.4-0.2c0.2,0,0.2,0.1,0.3,0.1
					c0.3,0,1-0.2,1-0.4c0.5,0,0.5,0.1,0.6,0.5c0.1,0,0.1,0,0.2-0.1c1,0.1,0,0.8,0.4,1.5c0.1,0.1,0.3,0.3,0.4,0.4
					c0.2,0.4,0.1,0.8,0.2,1.3c0,0,0.2,0.2,0.1,0.3c-0.1,0.3-0.7,0.9-0.4,1.5c0.1,0.3,0.5,0.7,0.6,1c-0.2,0.8,0.4,1.3,0.6,1.9
					c0.1,0.3-0.1,0.4,0,0.5c0,0.1,0,0.1,0.1,0.2c1.5,0,1.6-0.2,2.2-1.1c0.2-0.3,0.5-0.4,0.3-0.9c0.2-0.1,0.4-0.1,0.6-0.2
					c0-0.4-0.1-0.7-0.2-1c0.4-0.2,0.7-0.6,1.1-0.9c0-0.7-0.1-2-0.3-2.1c0.1-0.6,0.4-0.6,0.6-1v-0.3c0.2-0.4,0.8-0.6,1-1
					c0-0.1,0.1-0.6,0.1-1.5c0.1-3.5,0-11.9-0.2-13.6c2.1,3.6,3.4,7.7,3.4,12.3C841.9,155.2,831.5,165.6,818.7,165.6z M818.4,161.5
					L818.4,161.5c-0.1,0-0.1,0-0.2,0.1v-0.2C818.4,161.5,818.4,161.5,818.4,161.5z M814.7,137L814.7,137c-0.2-0.2,0-0.5-0.1-0.7
					c0.1,0,0.2-0.1,0.2-0.1h0.2c0,0.1-0.2,0.1-0.2,0.2C814.7,136.6,814.9,136.8,814.7,137z M815,135.9c-0.1,0-0.1,0-0.1,0
					c-0.2,0-0.2,0-0.2-0.2c-0.2,0-0.2,0.1-0.5,0.1v0h0c0.1-0.2,0.3-0.2,0.5-0.4c0.2,0.1,0.3,0.2,0.5,0.3
					C815,135.8,815,135.9,815,135.9z M815.8,136.4h-0.2c0,0.1,0,0.1-0.1,0.2v0.1c-0.1-0.1-0.2-0.3-0.3-0.5c0-0.1,0,0,0-0.1
					c0.3,0.1,0.2,0.1,0.6,0.1L815.8,136.4L815.8,136.4z M815.8,136.8c-0.1,0.2-0.2,0.2-0.3,0.3c-0.1,0-0.1,0-0.2,0h-0.1
					c0.1-0.1,0.3-0.1,0.5-0.2C815.7,136.8,815.8,136.8,815.8,136.8z M815.9,136.7L815.9,136.7c0.1-0.1,0.2-0.1,0.3-0.2h0.1v0.1
					c-0.1,0-0.2,0-0.3,0.1L815.9,136.7L815.9,136.7z M809.2,135.5L809.2,135.5l-0.1,0c0-0.1,0-0.2-0.1-0.2
					C809.1,135.4,809.1,135.4,809.2,135.5z M807.5,130.5c0.1-0.2,0.1-0.2,0.2-0.3c0.1,0,0,0,0.1,0
					C807.7,130.3,807.6,130.3,807.5,130.5C807.5,130.5,807.5,130.5,807.5,130.5z M807.5,133.7c-0.2,0-0.1,0-0.2,0
					c-0.1-0.2-0.2-0.4-0.2-0.4C807.4,133.3,807.4,133.5,807.5,133.7z M838.3,143.6c-0.2,0-0.4,0-0.6-0.1v-0.3L838.3,143.6z
					 M833.4,141.7c0-0.2,0-0.4,0-0.6c-0.1-0.3-0.4-0.7-0.5-1h0.2c0.1,0.2,0.2,0.2,0.3,0.3v0.2c0.1,0.1,0.2,0.2,0.2,0.2v0.5
					c0.1,0.2,0.4,0.4,0.5,0.6c0.1,0.2,0,0.5,0.1,0.6v0.2h0c-0.1-0.3-0.4-0.3-0.5-0.6v-0.4C833.5,141.7,833.4,141.7,833.4,141.7z
					 M832.8,145.6c-0.1,0-0.2,0-0.2,0c-0.1-0.2-0.1-0.3,0-0.5h0.2c0.1,0.1,0,0,0.1,0.1C832.8,145.5,832.8,145.5,832.8,145.6z"/>
			</g>
		</g>
		<g>
			<g>
				<path fill="#FFFFFF" d="M818.7,115.8c-14.6,0-26.5,11.9-26.5,26.5s11.9,26.5,26.5,26.5c14.6,0,26.5-11.9,26.5-26.5
					S833.4,115.8,818.7,115.8z M818.7,165.6c0,0-0.1,0-0.2,0c0.1-0.5,0.5-1.1,0.9-1.4c-0.1-0.4-0.2-0.4-0.5-0.5
					c0.1-0.3,0.1-0.3,0.2-0.5h0.3c0-0.3,0.1-0.5,0.2-0.7c0.2-0.3,0-0.2,0.3-0.1c0,0,0.1-0.1,0.1-0.1V162h-0.4
					c0.1-0.5,0.2-0.3,0.6-0.5v-0.6c0.5,0,0.8-0.1,1.1-0.3c0.1,0,0.2-0.1,0.3-0.1c0-0.5,0-0.9-0.3-1.2V159c0.4,0.2,0.5,0.3,1,0.3
					c0.2-0.4,0.5-1,0.9-1.4c0,0,0.1-0.1,0.1-0.1v0.1c0.5-0.3,0.7-1.1,0.6-2c0.2-0.1,1.8-0.9,1.9-1c0.6-1,0.5-1.6,0.5-2.8
					c0-0.1,1.2-1.8,1.4-2c-0.1-0.9-1.1-1.5-1.9-1.7h-0.7c-0.1-0.1-0.2-0.5-0.3-0.5h-0.7c-0.3-0.2,0.1-0.2-0.5-0.3
					c-0.1-0.9-0.4-1.3-0.7-1.9c-0.3-0.1-0.7-0.3-1-0.1c-0.2-0.1-0.1,0-0.1-0.2c-0.2,0-0.2-0.1-0.4,0c-0.1-0.1-0.2-0.3-0.2-0.5
					c-0.2,0-0.3-0.1-0.5-0.1v-0.2c-0.6-0.3-1.8-0.2-2.4-0.7v0.2c-0.1,0-0.2,0-0.2-0.1c0,0-0.1,0.1-0.1,0.2v0.1
					c-0.3-0.2-0.1-0.1-0.1-0.4c-0.7,0.1-1.2,0.5-1.4,1.2c-0.3-0.2-0.6-0.5-1-0.3c-0.6-0.1-0.5-0.2-0.9-0.5c0-0.7,0.1-1-0.1-1.3
					c-0.2-0.1-0.6-0.1-1-0.1c0.1-0.3,0.2-0.9,0.4-1.1c0-0.2,0-0.2-0.1-0.3c-0.7,0.1-0.5,0.5-0.9,0.7c-0.2,0.1-0.2,0-0.4,0.2
					c-0.2,0-0.2,0-0.3-0.1c-0.8-0.4-0.3-1.5-0.5-1.9c0.1-0.6,0.4-0.6,0.7-0.9c0.6,0,0.4,0.2,1,0.2c0-0.2,0-0.1-0.1-0.2V139
					c0.5,0,0.7,0.1,1.1,0.1c0.1,0.5,0.2,0.7,0.4,1.1c0,0,0.1,0,0.2,0.1c0.2-0.6-0.2-0.9-0.1-1.5c0.1-0.4,0.7-0.7,1-1.1
					c0-0.1,0-0.5-0.2-0.7v0c0.2,0.1,0.1,0.1,0.4,0.2c0-0.4,0.2-0.5,0.2-0.7c0.1-0.2,0.3-0.2,0.5-0.4c0.2-0.1,0-0.1,0.2-0.2
					c0.2-0.4,0.7-0.5,1-0.7h0.2v0.1c-0.2,0.1-0.2,0.2-0.5,0.2c0,0.1,0,0.1,0.1,0.2c0.1,0,0.2,0.1,0.2,0.2c0.2-0.1,0.4-0.3,0.7-0.4
					c0-0.1,0-0.1,0.1-0.2V135c-0.1,0-0.2,0.1-0.5,0.1c0-0.2,0-0.1-0.2-0.2c0-0.5,0-0.5,0.1-0.8c-0.1-0.1,0,0-0.1-0.2
					c-0.2,0-0.4,0-0.5,0.2h-0.1l0.1-0.1c0.2-0.5,0.9-0.1,1.3-0.2c0.2-0.1,0.3-0.3,0.5-0.5c0.3-0.2,0.5-0.1,0.5-0.4
					c-0.2-0.5-0.8-0.5-1.1-0.9c0-0.2,0,0,0.1-0.2c-0.3-0.2-0.6-0.7-0.6-1.2c-0.2,0.1-0.4,0.4-0.5,0.5c-0.2,0.1-0.3-0.1-0.5-0.2
					s0-0.3,0-0.5c-0.3-0.2-0.7-0.6-1-0.5c-1.3,0-0.3,0.5-0.9,1c0.1,0.2,0.2,0.5,0.4,0.6c0,0.5-0.2,0.5-0.4,0.7c0,0.3-0.1,0.7-0.2,1
					c-0.5-0.1-0.2-0.2-0.3-0.4h-0.2c0.2,0,0-0.5,0-0.5c-0.2-0.3,0.1,0.6-0.2,0.5c-0.4-0.2-0.9-0.5-1.3-0.8c-0.1-0.1-1-1.1-1-1.3
					c0.5-0.5,0.6-0.9,1.1-1.3c0,0,0.3,0,0.5-0.1c0-0.2,0-0.2-0.1-0.2c-0.1-0.1-0.2-0.1-0.5-0.1V129h0.1c0.1,0,0.3,0,0.5,0.1
					c0-0.1,0.1-0.2,0.2-0.2c0,0,0.2,0,0.2,0.1c0.2-0.1,0.1,0,0.1-0.2c0,0,0.5-0.2,0.7-0.2c-0.1-0.4-0.3-0.3-0.1-0.6
					c0-0.4-0.2-0.2-0.5-0.5c-0.3,0-0.5,0.7-0.6,1h-0.2c0-0.1,0-0.2-0.1-0.2c-0.1-0.2,0-0.2,0.1-0.5c-0.1,0-0.1,0-0.3-0.1
					c0,0.2,0,0.2-0.1,0.2v0.2c-0.2-0.2-0.2-0.3-0.4-0.5c-0.1-0.1,0-0.2,0.2-0.4c-0.2-0.1-0.5-0.2-0.6-0.5c0-0.1,0-0.1,0-0.3
					c0.2,0,0.3,0,0.4-0.1c0.2-0.1,0.2,0,0.2-0.2l0.1-0.1h-0.1c-0.1-0.2-0.2-0.1-0.3-0.2c-1,0-0.4,0.3-0.5,0.9
					c-0.1,0.2-0.2,0.3-0.3,0.6c0.2,0.1,0.4,0.2,0.6,0.2c-0.1,0.1-0.5,0.7-0.5,0.9h-0.1c-0.1-0.2-0.1-0.3-0.2-0.5v-0.1
					c-0.2,0.1-0.2,0.1-0.3,0.3c-0.2,0-0.5,0.1-0.7,0c-0.3-0.1-0.7-0.5-1-0.4c-0.1,0-0.2,0-0.2,0.1c0.2,0.2,0.1,0.1,0.3,0.1
					c-0.1,0.2-0.2,0.3-0.2,0.5v0.1c-0.2-0.1-0.3-0.2-0.5-0.4c-0.1,0-0.2,0-0.4,0.1c-0.5,0-0.3-0.1-0.4-0.5c-0.9,0.1-1.2-0.4-2-0.2
					c-0.1-0.2-0.3-0.3-0.5-0.5c-0.2,0.1-0.2,0.2-0.2,0.2c-0.2,0-0.3,0-0.5-0.1c-0.1,0-0.3,0.3-0.4,0.3c-0.1,0-0.2,0-0.2-0.1
					c-0.1,0.1-0.2,0.2-0.2,0.2c-0.3,0.1,1,0.8,1.1,0.9c-0.4-0.2-0.8-0.1-1.1-0.1c-0.7-0.2-1.5,0-1.8-0.3c-0.5,0.1-0.9,0.3-1.3,0.5
					v0.3c-0.2,0-0.2,0-0.4,0.1c0,0-0.1,0-0.1,0c0.1,0.3,0.5,0.5,0.8,0.5c0,0.1,0,0.1-0.1,0.2c-0.3,0-0.3,0-0.4-0.2
					c-0.2,0.1-0.5,0.2-0.6,0.3c0.1,0.2,0.2,0.2,0.3,0.4c0.3,0,0.6,0,0.9-0.1c0,0.2,0,0.2-0.1,0.3c-0.2,0.1-0.4,0.1-0.5,0.1
					c-0.2,0.1,0,0.2-0.3,0.3c0.1,0.3,0.2,0.3,0.2,0.6c0.2,0,0.2,0,0.3-0.1c0,0.1,0.1,0.2,0.1,0.3c0.4,0,0.4,0,0.8,0.1
					c0,0,0,0-0.1,0.1c0,0.5-0.5,0.7-0.9,0.9v0.1c0.5-0.2,1.4-0.6,1.6-1.2c0,0,0,0,0.1-0.1h-0.1v-0.1c0.1-0.1,0.2-0.1,0.2-0.3
					c0.1,0,0.1,0,0.1-0.1h0.1v0.4c0.2,0,0.5-0.2,0.7-0.3h0.1c0,0,0-0.1-0.1-0.1c0.1,0,1.5,0.4,1.7,0.5c0.5,0.4,0.2,1,1,0.7
					c-0.1,0-0.1,0.1-0.2,0.1c0.1,0.1-0.6-0.2-1-0.4c0.1,0.3,0.1,0.7,0.5,0.7c0,0.3,0.1,0.2-0.1,0.4c0.1,0.3,0.7,0.6,0.9,1
					c0.3,0.7-0.2,1.4,0,2.1c0.1,0.2,0.2,0.3,0.4,0.5c-0.1,0.2,0.1,0.6,0.2,0.8c0.2,0.2,0.4,0.3,0.6,0.5c0.2,0.4,0.1,0.6,0.5,0.8
					c0,0.2,0,0.3-0.1,0.5c0.1,0.2,0.3,0.2,0.4,0.3c0,0.2,0,0.3,0.1,0.5c0.1,0.1,0.3,0.3,0.4,0.5h0.2c0-0.4-0.7-1.7-1-2.1v-0.1
					c0.3,0.1,1.9,2.4,1.8,2.6c0,0.7,0.9,1.1,1.5,1.3c0.3,0,0.6,0,1-0.1c0.3,0.2-0.2,0.7,0.8,0.6c0.2,0.4,0.4,0.5,0.4,1.2
					c0.4,0.2,1.1,0.5,1.4,0.8c0.3-0.2,0.1,0,0.1-0.3c0,0,0.1-0.1,0.1-0.1c0.2,0,0.2,0,0.3,0.1c1,1.4-1.2,2.9-0.4,3.7
					c-0.1,0.3-0.1,0.3-0.3,0.4c0.1,1,0.7,1,1,1.6c0,0.2,0.1,0.5,0.1,0.7c0.5,1.1,0.9,1.7,1.8,2.3c0.2,2.3-0.2,6.8-0.3,6.9
					c0.2,1,0.6,4,0.7,5.1c-0.4,0-1.6-0.1-1.6-0.1c-12-0.7-21.4-10.7-21.4-22.9c0-12.8,10.4-23.2,23.2-23.2c7.9,0,14.9,3.9,19.1,10
					c0,0.3,0,0.4-0.1,0.7c-0.1,0-0.1,0-0.1-0.1c-0.2,0-0.2,0-0.4,0.1c0,0.2,0,0.2,0,0.5c-0.1,0-0.3-0.1-0.3-0.1
					c-0.2,0.1,0,0.2-0.1,0.3c0,0,0,0-0.1,0c-0.4-0.2-0.3-0.6-0.8-0.7v-0.1c0.4,0.1,0.8,0.5,1.2,0.2c0.1-0.1,0.1-0.1,0.2-0.2
					c-0.1-0.5-1.4-1.1-1.9-1c0,0,0.1-0.1,0.1-0.1c-0.1-0.3-0.3-0.2-0.4-0.3c-0.2,0-0.3,0.1-0.4,0.3c-0.1-0.1,0,0-0.1-0.1v-0.1
					c-0.5,0.2-1,0.4-1.6,0.5c0.1,0.2,0.1,0.1,0.2,0.2c-0.6,1-1.4,1.7-2.3,2.3c0,0.2,0.2,0.5,0.1,0.6c0.1,0.2,0.1,0.2,0.1,0.4
					c0.4,0.1,0.6,0,0.8-0.2c0.2,0.3,0.3,0.6,0.3,1c0.4,0,0.4-0.2,0.8-0.3c0-0.2,0-0.5,0.1-0.5c0.1-0.2,0.2-0.2,0.4-0.2
					c0-0.3,0-0.4-0.3-0.6c0-0.4,0.2-0.7,0.4-0.8c0.1,0,0.2,0,0.3-0.1c0,0,0.2-0.5,0.2-0.5c0.1,0,0.3,0,0.4,0.1
					c-0.1,0.4-0.3,0.6-0.6,0.7c0,0.4,0.2,0.7,0.1,0.8c0,0,0.2,0.1,0.2,0.1c0.2,0,0.2,0,0.3-0.2c0.4,0,0.4,0.1,0.7,0.1
					c-0.3,0.2-0.6,0.2-1,0.2l-0.1,0.1c0,0.1,0.1,0.3,0.1,0.4c0,0.1,0,0-0.1,0.1c-0.2,0-0.2-0.1-0.4-0.1c-0.1,0.3-0.4,0.7-0.4,1
					c-0.5,0-1.5,0.1-1.5,0.1h-0.1c0-0.2,0.1-0.8,0.1-0.8v-0.2c-0.2,0-0.3,0.1-0.5,0.2c0,0.2,0,0.6,0.2,0.8c-0.2,0.4-0.5,0.1-0.7,0.3
					c-0.1,0.1,0,0.2-0.1,0.3c-0.1,0.1-0.9,0.5-0.9,0.5c-0.2,0-0.1,0-0.1,0.1c-0.1,0.2-0.2,0.2-0.5,0.1l-0.1,0.1
					c0,0.2,0.5,0.7,0.6,0.7v0.5c-0.4-0.1-1.1-0.1-1.4-0.1c0,0.2-0.1,1.3,0.1,1.5c0.2,0.1,0.6,0.3,0.7,0.2c0.8,0,0.7-0.5,0.9-0.9
					s0.5-0.2,0.5-0.7c0.3,0,0.7,0,0.9-0.2c0.3,0.1,0.5,0.4,0.8,0.7c0,0,0,0,0-0.1c0.1,0,0.2,0,0.4,0c0,0,0,0-0.1,0
					c0,0.2,0,0.2,0.2,0.2c0,0,0.2,0,0.3,0h0c-0.1-0.1-0.1-0.1-0.2-0.2h-0.1c0,0,0.1,0,0.1,0c-0.2-0.2-0.5-0.5-0.7-0.7
					c0-0.2,0-0.2,0.1-0.3v-0.1c0.2,0.1,0.2,0.4,0.4,0.5c0.2,0.1,0.5,0.2,0.6,0.3c0,0,0.1,0,0.1,0h0.1c0,0.1-0.1,0.1-0.1,0.2v0.4
					c0,0,0,0,0,0c0.2,0.1,0.3,0.2,0.4,0.4c0,0,0,0,0,0c0,0,0.1,0,0.1,0l-0.2,0.2v0l0,0c0,0,0,0,0.1,0.1c0.4,0,0.4-0.2,0.6-0.2
					c-0.1-0.2-0.1-0.2-0.3-0.3v-0.3c0.3-0.1,0.3-0.1,0.5-0.2c0.2,0.5,0.1,0.6,0.4,1c0.4,0.1,1,0.3,1.2,0h0.1c0,0.5,0.1,0.6-0.1,0.9
					c0,0.1,0,0.1-0.1,0.2c-0.5,0-1,0.2-1.2,0.1c-0.3,0-0.8-0.5-1.1-0.3c-0.2,0.1-0.2,0.2-0.2,0.4c-0.7,0-1-0.4-1.5-0.6
					c0-0.2,0-0.2,0.1-0.3c0-0.3,0-0.4-0.1-0.5c-0.7-0.3-2.4,0.6-2.7,0.3c-0.2,0.1-0.5,0.5-0.7,0.7c-0.2,0.2,0,0.6-0.1,0.9
					c-0.1,0.3-0.7,0.4-0.8,0.7c-0.4,0.7-0.4,1-0.3,1.8c0,0.4-0.3,0.5-0.2,0.9c0,0,4.5,0,4.6,0c0,0.1-0.1,0.2-0.1,0.4
					c0,0.2-4,0.2-4,0.3c0.1,0.2,0.1,0.5,0.2,0.7c0.2,0.3,0.7,0.5,0.9,0.7c0.2,0,0.3-0.2,0.4-0.2c0.2,0,0.2,0.1,0.3,0.1
					c0.3,0,1-0.2,1-0.4c0.5,0,0.5,0.1,0.6,0.5c0.1,0,0.1,0,0.2-0.1c1,0.1,0,0.8,0.4,1.5c0.1,0.1,0.3,0.3,0.4,0.4
					c0.2,0.4,0.1,0.8,0.2,1.3c0,0,0.2,0.2,0.1,0.3c-0.1,0.3-0.7,0.9-0.4,1.5c0.1,0.3,0.5,0.7,0.6,1c-0.2,0.8,0.4,1.3,0.6,1.9
					c0.1,0.3-0.1,0.4,0,0.5c0,0.1,0,0.1,0.1,0.2c1.5,0,1.6-0.2,2.2-1.1c0.2-0.3,0.5-0.4,0.3-0.9c0.2-0.1,0.4-0.1,0.6-0.2
					c0-0.4-0.1-0.7-0.2-1c0.4-0.2,0.7-0.6,1.1-0.9c0-0.7-0.1-2-0.3-2.1c0.1-0.6,0.4-0.6,0.6-1v-0.3c0.2-0.4,0.8-0.6,1-1
					c0-0.1,0.1-0.6,0.1-1.5c0.1-3.5,0-11.9-0.2-13.6c2.1,3.6,3.4,7.7,3.4,12.3C841.9,155.2,831.5,165.6,818.7,165.6z M818.4,161.5
					L818.4,161.5c-0.1,0-0.1,0-0.2,0.1v-0.2C818.4,161.5,818.4,161.5,818.4,161.5z M814.7,137L814.7,137c-0.2-0.2,0-0.5-0.1-0.7
					c0.1,0,0.2-0.1,0.2-0.1h0.2c0,0.1-0.2,0.1-0.2,0.2C814.7,136.6,814.9,136.8,814.7,137z M815,135.9c-0.1,0-0.1,0-0.1,0
					c-0.2,0-0.2,0-0.2-0.2c-0.2,0-0.2,0.1-0.5,0.1v0h0c0.1-0.2,0.3-0.2,0.5-0.4c0.2,0.1,0.3,0.2,0.5,0.3
					C815,135.8,815,135.9,815,135.9z M815.8,136.4h-0.2c0,0.1,0,0.1-0.1,0.2v0.1c-0.1-0.1-0.2-0.3-0.3-0.5c0-0.1,0,0,0-0.1
					c0.3,0.1,0.2,0.1,0.6,0.1L815.8,136.4L815.8,136.4z M815.8,136.8c-0.1,0.2-0.2,0.2-0.3,0.3c-0.1,0-0.1,0-0.2,0h-0.1
					c0.1-0.1,0.3-0.1,0.5-0.2C815.7,136.8,815.8,136.8,815.8,136.8z M815.9,136.7L815.9,136.7c0.1-0.1,0.2-0.1,0.3-0.2h0.1v0.1
					c-0.1,0-0.2,0-0.3,0.1L815.9,136.7L815.9,136.7z M809.2,135.5L809.2,135.5l-0.1,0c0-0.1,0-0.2-0.1-0.2
					C809.1,135.4,809.1,135.4,809.2,135.5z M807.5,130.5c0.1-0.2,0.1-0.2,0.2-0.3c0.1,0,0,0,0.1,0
					C807.7,130.3,807.6,130.3,807.5,130.5C807.5,130.5,807.5,130.5,807.5,130.5z M807.5,133.7c-0.2,0-0.1,0-0.2,0
					c-0.1-0.2-0.2-0.4-0.2-0.4C807.4,133.3,807.4,133.5,807.5,133.7z M838.3,143.6c-0.2,0-0.4,0-0.6-0.1v-0.3L838.3,143.6z
					 M833.4,141.7c0-0.2,0-0.4,0-0.6c-0.1-0.3-0.4-0.7-0.5-1h0.2c0.1,0.2,0.2,0.2,0.3,0.3v0.2c0.1,0.1,0.2,0.2,0.2,0.2v0.5
					c0.1,0.2,0.4,0.4,0.5,0.6c0.1,0.2,0,0.5,0.1,0.6v0.2h0c-0.1-0.3-0.4-0.3-0.5-0.6v-0.4C833.5,141.7,833.4,141.7,833.4,141.7z
					 M832.8,145.6c-0.1,0-0.2,0-0.2,0c-0.1-0.2-0.1-0.3,0-0.5h0.2c0.1,0.1,0,0,0.1,0.1C832.8,145.5,832.8,145.5,832.8,145.6z"/>
			</g>
		</g>
	</g>
</g>
<rect x="1217.9" y="106.1" fill="none" width="366.9" height="118.9"/>
<text transform="matrix(1 0 0 1 1217.9041 123.2928)"><tspan x="0" y="0" fill="#FFFFFF" font-family="'ProductSans-Regular'" font-size="24px">Presentation Layer </tspan><tspan x="0" y="28.8" fill="#FFFFFF" font-family="'ProductSans-Regular'" font-size="24px">Each Application would pull maps </tspan><tspan x="0" y="57.6" fill="#FFFFFF" font-family="'ProductSans-Regular'" font-size="24px">from the required map builder in</tspan><tspan x="338.3" y="57.6" fill="#FFFFFF" font-family="'ProductSans-Regular'" font-size="24px">-</tspan><tspan x="0" y="86.4" fill="#FFFFFF" font-family="'ProductSans-Regular'" font-size="24px">stance. </tspan></text>
<rect x="1217.9" y="366.7" fill="none" width="366.9" height="229.9"/>
<text transform="matrix(1 0 0 1 1217.9041 383.8671)"><tspan x="0" y="0" fill="#FFFFFF" font-family="'ProductSans-Regular'" font-size="24px">Application Layer - Map Builder</tspan><tspan x="0" y="28.8" fill="#FFFFFF" font-family="'ProductSans-Regular'" font-size="24px">Each network would have their </tspan><tspan x="0" y="57.6" fill="#FFFFFF" font-family="'ProductSans-Regular'" font-size="24px">own map builder instance where all </tspan><tspan x="0" y="86.4" fill="#FFFFFF" font-family="'ProductSans-Regular'" font-size="24px">maps will be stored and retrieved </tspan><tspan x="0" y="115.2" fill="#FFFFFF" font-family="'ProductSans-Regular'" font-size="24px">for presentation and editing. This </tspan><tspan x="0" y="144" fill="#FFFFFF" font-family="'ProductSans-Regular'" font-size="24px">layer will also talk to the network </tspan><tspan x="0" y="172.8" fill="#FFFFFF" font-family="'ProductSans-Regular'" font-size="24px">DBs to get the newest circuits and </tspan><tspan x="0" y="201.6" fill="#FFFFFF" font-family="'ProductSans-Regular'" font-size="24px">their data.</tspan></text>
<rect x="1217.9" y="738.2" fill="none" width="366.9" height="112"/>
<text transform="matrix(1 0 0 1 1217.9041 755.4129)"><tspan x="0" y="0" fill="#FFFFFF" font-family="'ProductSans-Regular'" font-size="24px">Editing Layer</tspan><tspan x="0" y="28.8" fill="#FFFFFF" font-family="'ProductSans-Regular'" font-size="24px">Customers and network engineers </tspan><tspan x="0" y="57.6" fill="#FFFFFF" font-family="'ProductSans-Regular'" font-size="24px">would use this endpoint to edit and </tspan><tspan x="0" y="86.4" fill="#FFFFFF" font-family="'ProductSans-Regular'" font-size="24px">update their maps.</tspan></text>
<rect x="1217.9" y="968.6" fill="none" width="366.9" height="35.2"/>
<text transform="matrix(1 0 0 1 1217.9041 985.8238)" fill="#FFFFFF" font-family="'ProductSans-Regular'" font-size="24px">Customers/Network Engineers</text>
<rect x="196.6" y="1067.7" fill="none" width="116.8" height="35.2"/>
<text transform="matrix(1 0 0 1 202.8004 1084.8534)" fill="#FFFFFF" font-family="'ProductSans-Regular'" font-size="24px">Network 1</text>
<rect x="575.3" y="1067.7" fill="none" width="116.8" height="35.2"/>
<text transform="matrix(1 0 0 1 579.8763 1084.8534)" fill="#FFFFFF" font-family="'ProductSans-Regular'" font-size="24px">Network 2</text>
<rect x="951.3" y="1067.7" fill="none" width="116.8" height="35.2"/>
<text transform="matrix(1 0 0 1 955.7159 1084.8534)" fill="#FFFFFF" font-family="'ProductSans-Regular'" font-size="24px">Network 3</text>
</svg>
