<?xml version="1.0" encoding="utf-8"?>
<!-- Generator: Adobe Illustrator 23.0.2, SVG Export Plug-In . SVG Version: 6.00 Build 0)  -->
<svg version="1.1" id="Layer_2" xmlns="http://www.w3.org/2000/svg" xmlns:xlink="http://www.w3.org/1999/xlink" x="0px" y="0px"
	 viewBox="0 0 2340 1560" enable-background="new 0 0 2340 1560" xml:space="preserve">
<g>
	<rect y="0" fill="#B8895F" width="2340" height="1560"/>
	<path fill="#DDAC85" d="M490.1,1026.2C274.1,559.6,634,167.7,839.7,0H0v1560h1951.3C1389.4,1048.6,693.1,1465,490.1,1026.2z"/>
</g>
<g display="none">
	<rect x="-1971" y="396" display="inline" fill="#FFFFFF" width="1366" height="768"/>
	<path display="inline" fill="#F2ECE9" d="M-1022.9,1164H-605V396h-673.5c18.7,90.1,12,177.6-26.9,353.2
		c-22.6,102-131.4,329.2,154.5,399.6C-1109,1159.1-1066,1164-1022.9,1164z"/>
	<g display="inline">
		<path fill="#F2ECE9" d="M-1971,489.2c104.9,9.8,285.9,172.1,403.8,209.6c145.3,46.1,79.6-148.8,63.3-302.8H-1971V489.2z"/>
		<path fill="#F2ECE9" d="M-1971,906.8V1164h318.5C-1763.9,1113.4-1890.6,1032.4-1971,906.8z"/>
	</g>
	<g display="inline">
		<defs>
			<path id="SVGID_1_" d="M-1175.1,396c0,0-180.3,294.3-60.9,607.2c60.8,159.3,322,126.6,631.1,83V396H-1175.1z"/>
		</defs>
		<clipPath id="SVGID_2_">
			<use xlink:href="#SVGID_1_"  overflow="visible"/>
		</clipPath>
		<path clip-path="url(#SVGID_2_)" fill="#DBCEC1" d="M-1175.1,396c0,0-180.3,294.3-60.9,607.2c60.8,159.3,322,126.6,631.1,83V396
			H-1175.1z"/>
		<polygon clip-path="url(#SVGID_2_)" fill="#CEBFB2" points="-1238.1,1009.3 -1208.1,1088.9 -1068.7,1091.2 -1098.7,1049.6 
			-1108.3,1060 -1123.1,1032.5 -1126.4,1044.6 -1145.5,1009.4 -1154.2,1014.9 -1182.2,983.8 -1191.8,1052.4 -1210.1,1029.9 		"/>
		<g clip-path="url(#SVGID_2_)">
			<path fill="#4E7C49" d="M-1171.3,1115.3c0,0-7.1-64.4,25.8-105.8c0,0-58.1,13.5-41.7,101.1L-1171.3,1115.3z"/>
			<path fill="#4E7C49" d="M-1197.3,1110.3c0,0-2.2-64.7-40.8-101c0,0,59.4,5,55.8,94.1L-1197.3,1110.3z"/>
			<path fill="#42663C" d="M-1187.3,1110.6l5.1,1.5c-1.5-83.5,36.6-102.7,36.6-102.7S-1203.6,1022.9-1187.3,1110.6z"/>
			<path fill="#42663C" d="M-1189,1106.4l6.7-3.1c3.6-89.1-55.8-94.1-55.8-94.1C-1202,1019.3-1191.7,1081.5-1189,1106.4z"/>
			<path fill="#4E7C49" d="M-1189,1110.7c0,0-18.6-97.1,6.8-126.9c0,0,7.5,26.1,0.1,123.7L-1189,1110.7z"/>
		</g>
		<g clip-path="url(#SVGID_2_)">
			<path fill="#4E7C49" d="M-1115.9,1120.1c0,0-4.7-42.9,17.2-70.5c0,0-38.7,9-27.8,67.4L-1115.9,1120.1z"/>
			<path fill="#4E7C49" d="M-1133.2,1116.8c0,0-1.5-43.1-27.2-67.3c0,0,39.6,3.3,37.2,62.7L-1133.2,1116.8z"/>
			<path fill="#42663C" d="M-1126.5,1117l3.4,1c-1-55.6,24.4-68.4,24.4-68.4S-1137.4,1058.6-1126.5,1117z"/>
			<path fill="#42663C" d="M-1127.7,1114.2l4.5-2.1c2.4-59.3-37.2-62.7-37.2-62.7C-1136.3,1056.2-1129.5,1097.6-1127.7,1114.2z"/>
			<path fill="#4E7C49" d="M-1127.6,1117.1c0,0-12.4-64.7,4.5-84.5c0,0,5,17.4,0,82.4L-1127.6,1117.1z"/>
		</g>
		<polygon clip-path="url(#SVGID_2_)" fill="#CEBFB2" points="-1207.7,768.7 -1195.3,780.2 -1188.7,780.2 -1129.6,847.9 
			-1234.7,847.9 -1215,772.1 		"/>
		<polygon clip-path="url(#SVGID_2_)" fill="#CEBFB2" points="-1118.2,768.7 -1105.8,780.2 -1099.3,780.2 -1040.1,847.9 
			-1145.2,847.9 -1125.5,772.1 		"/>
		<polygon clip-path="url(#SVGID_2_)" fill="#CEBFB2" points="-1207.1,560.2 -1155.2,697.4 -1239.8,698.2 -1239.8,560.2 		"/>
		<polygon clip-path="url(#SVGID_2_)" fill="#CEBFB2" points="-682,632.2 -605,699 -605,771.7 -719,771.7 -719,665 -703.5,632.2 		
			"/>
		<polygon clip-path="url(#SVGID_2_)" fill="#CEBFB2" points="-804.3,783 -715.8,827 -605,827 -605,780.4 		"/>
		<polygon clip-path="url(#SVGID_2_)" fill="#CEBFB2" points="-1315.2,659 -1274.9,697.4 -1052.3,695.7 -1109.5,560.2 
			-1166.1,552.9 -1170.2,657.3 		"/>
		<polygon clip-path="url(#SVGID_2_)" fill="#CEBFB2" points="-1308.6,846.1 -1274.5,884.5 -1050.9,884.5 -1095.9,843.5 		"/>
		<path clip-path="url(#SVGID_2_)" fill="#CEBFB2" d="M-605,1043.9c0,0-66.9-50.6-137.9-89.1c0,0,0,0,0,0c0,0-14.4-10.2-31.4-13.7
			c0,0,0,0,0,0c-3.1-1-6.2-2-9.3-2.8c-2.6-16.8-4.8-37.4-6-50.4c-0.2-2.7-0.5-5.4-0.7-8.1c0.9-2,1.8-4.2,2.5-6.5
			c16.8,2.9,32.7-13.7,24.9-24.4c-4.5-6.2-9.2-6.7-13.2-5c0.5-1,1-2,1.4-3c0.6-1.4,1.2-2.8,1.7-4.2c0.2-0.6,0.5-1.2,0.7-1.8
			c0.1-0.1,0.1-0.3,0.2-0.4c0.3-0.5,0.5-1.1,0.8-1.6c0-0.1,0.1-0.2,0.1-0.3c0.2-0.4,0.5-0.8,0.7-1.2c0.1-0.2,0.2-0.3,0.3-0.5
			c0.3-0.4,0.5-0.8,0.8-1.2c0.1-0.2,0.3-0.4,0.4-0.6c0.2-0.2,0.3-0.4,0.5-0.6c0.2-0.2,0.4-0.4,0.5-0.6c4.1-4.8,8.7-8.1,10.2-15.7
			c2.3-11.3-6.7-9.9-7.8-17.1c-1.2-7.3-1.6-19.4-26.7-29.9c-16-6.7,0.8-39.9-67.1-23.9c-11.7,2.8-25.6-18.2-43.9-13.6
			c-23,5.8-22.8,30.9-14.4,49.7c8.3,18.6-14.5,26.8,8.3,50.1c0.3,0.3,0.5,0.6,0.8,0.8c0,0,0.1,0.1,0.1,0.1c4.5,4.4,8.4,7.4,11.9,9.6
			c0.4,0.3,0.9,0.6,1.3,0.8c0.9,0.5,1.7,1,2.5,1.5s1.6,0.9,2.4,1.3s1.6,0.8,2.3,1.2c0.4,0.2,0.8,0.4,1.1,0.6
			c0.4,0.2,0.8,0.4,1.1,0.6c-1.7,0.9-3.4,2.4-5.1,4.7c-8,11.1,9.3,28.4,26.7,24c1,2.4,2.2,4.8,3.6,7.1c0,1.3,0.1,2.7,0.4,4.1
			c-0.5,32.7-3.4,55.7-3.4,55.7s-4.4,0.4-13.6,2c0,0,0,0,0,0c0,0-17.8-0.6-32.6,6.7v0c-28.3,6.6-70.2,18-127.6,37.7c0,0,1,9.3,4,23
			c-2,1-3.9,2.1-5.7,3.2v0c-51.6,30.8-46.7,83.1-44.7,95.2c0,0.2,0.1,0.4,0.1,0.6c0.1,0.4,0.1,0.7,0.2,0.9c0,0.2,0.1,0.4,0.1,0.5
			c0.1,0.3,0.1,0.4,0.1,0.4l0,0c0.2,0.9,0.4,1.8,0.7,2.7c112.5,21.5,272.4,2.2,449.9-22.6C-629.5,1083.6-606.6,1051.5-605,1043.9z"
			/>
		<rect x="-820.5" y="771.7" clip-path="url(#SVGID_2_)" fill="#4C3431" width="215.5" height="17.4"/>
		<rect x="-1314.8" y="645" clip-path="url(#SVGID_2_)" fill="#4C3431" width="215.5" height="17.4"/>
		<rect x="-1282.9" y="839.2" clip-path="url(#SVGID_2_)" fill="#4C3431" width="215.5" height="17.4"/>
		<g clip-path="url(#SVGID_2_)">
			<path fill="#EFCE8E" d="M-1133,582.8h-22.7c-9.7,0-18,7.3-19.1,17l-4.9,40.4c-0.3,2.6,1.7,4.9,4.3,4.9h62c2.6,0,4.6-2.3,4.3-4.9
				l-4.9-40.4C-1115.1,590-1123.3,582.8-1133,582.8z"/>
			<polygon fill="#739E61" points="-1134.6,570 -1154.1,570 -1156.1,582.8 -1132.6,582.8 			"/>
			<path fill="#EFCE8E" d="M-1172,552.9c-5.1,5.1-7,17.5,2.4,21.3c9.4,3.8,13.5-3.3,22.9-1.7s23.9,5,31.6,2
				c7.6-3,10.9-24.8-9.4-28.1C-1144.8,543.1-1163.1,544-1172,552.9z"/>
			<path fill="#739E61" d="M-1179.7,640.1c-0.3,2.6,1.7,4.9,4.3,4.9h62c2.6,0,4.6-2.3,4.3-4.9l-3.5-29.4h-63.6L-1179.7,640.1z"/>
			<path fill="#739E61" d="M-1140.6,634.1h-7.5c-7.5,0-13.7-6.1-13.7-13.7v-13c0-7.5,6.1-13.7,13.7-13.7h7.5
				c7.5,0,13.7,6.1,13.7,13.7v13C-1126.9,627.9-1133.1,634.1-1140.6,634.1z"/>
			<circle fill="#EFCE8E" cx="-1144.4" cy="613.9" r="12.8"/>
		</g>
		<g clip-path="url(#SVGID_2_)">
			<path fill="#EFCE8E" d="M-1228.5,582.8h-22.7c-9.7,0-18,7.3-19.1,17l-4.9,40.4c-0.3,2.6,1.7,4.9,4.3,4.9h62
				c2.6,0,4.6-2.3,4.3-4.9l-4.9-40.4C-1210.6,590-1218.8,582.8-1228.5,582.8z"/>
			<polygon fill="#739E61" points="-1230.1,570 -1249.6,570 -1251.6,582.8 -1228.1,582.8 			"/>
			<path fill="#EFCE8E" d="M-1267.5,552.9c-5.1,5.1-7,17.5,2.4,21.3s13.5-3.3,22.9-1.7c9.4,1.5,23.9,5,31.6,2
				c7.6-3,10.9-24.8-9.4-28.1C-1240.3,543.1-1258.6,544-1267.5,552.9z"/>
			<path fill="#739E61" d="M-1236.1,634.1h-7.5c-7.5,0-13.7-6.1-13.7-13.7v-13c0-7.5,6.1-13.7,13.7-13.7h7.5
				c7.5,0,13.7,6.1,13.7,13.7v13C-1222.4,627.9-1228.5,634.1-1236.1,634.1z"/>
			<path fill="#739E61" d="M-1275.2,640.1c-0.3,2.6,1.7,4.9,4.3,4.9h62c2.6,0,4.6-2.3,4.3-4.9l-3.5-29.4h-63.6L-1275.2,640.1z"/>
			<circle fill="#EFCE8E" cx="-1239.8" cy="613.9" r="12.8"/>
			<g>
				<path opacity="0.25" fill="#8C7C60" d="M-1204.5,640.1l-0.7-6.2c-30.5-9-51.4-24-64.6-36.5c-0.2,0.8-0.3,1.5-0.4,2.3l-4.9,40.4
					c-0.3,2.6,1.7,4.9,4.3,4.9h62C-1206.2,645-1204.2,642.7-1204.5,640.1z"/>
			</g>
			<g>
				<path opacity="0.25" fill="#8C7C60" d="M-1210.7,574.5c3-1.2,5.3-5.2,5.8-9.9c-29.2-3-48.5-9.4-59.4-14.2
					c-1.2,0.8-2.2,1.6-3.2,2.6c-5.1,5.1-7,17.5,2.4,21.3c6.3,2.6,10.3,0.2,15-1.2l-1.6,9.7h6c4.3-2.4,10.2-3.8,16.8-4.5l-0.6-3.5
					C-1222.4,575.8-1215.3,576.3-1210.7,574.5z"/>
			</g>
			<g>
				<path opacity="0.25" fill="#8C7C60" d="M-1109,640.1l-0.7-6.2c-30.5-9-51.4-24-64.6-36.5c-0.2,0.8-0.3,1.5-0.4,2.3l-4.9,40.4
					c-0.3,2.6,1.7,4.9,4.3,4.9h62C-1110.7,645-1108.7,642.7-1109,640.1z"/>
			</g>
			<g>
				<path opacity="0.25" fill="#8C7C60" d="M-1115.2,574.5c3-1.2,5.3-5.2,5.8-9.9c-29.2-3-48.5-9.4-59.4-14.2
					c-1.2,0.8-2.2,1.6-3.2,2.6c-5.1,5.1-7,17.5,2.4,21.3c6.3,2.6,10.3,0.2,15-1.2l-1.6,9.7h6c4.3-2.4,10.2-3.8,16.8-4.5l-0.6-3.5
					C-1126.9,575.8-1119.8,576.3-1115.2,574.5z"/>
			</g>
		</g>
		<g clip-path="url(#SVGID_2_)">
			<rect x="-1170.2" y="768.7" fill="#EFE4F2" width="54" height="70.5"/>
			<rect x="-1133.4" y="768.7" fill="#D8CCDB" width="17.2" height="70.5"/>
			<rect x="-1145.2" y="768.7" fill="#D8CCDB" width="5.8" height="70.5"/>
			<rect x="-1166.1" y="768.7" fill="#F9F7F9" width="8.2" height="70.5"/>
			<path fill="#353535" d="M-1116.2,772.1v9l10.7,2.8c1.1,0.3,1.8,1.3,1.8,2.4v35.3c0,1.1-0.8,2.1-1.8,2.4l-10.7,2.8v9l11.8-3.1
				c5.6-1.5,9.5-6.5,9.5-12.3v-32.9c0-5.8-3.9-10.8-9.5-12.3L-1116.2,772.1z"/>
		</g>
		<g clip-path="url(#SVGID_2_)">
			<rect x="-1261.7" y="768.7" fill="#EFE4F2" width="54" height="70.5"/>
			<rect x="-1224.9" y="768.7" fill="#D8CCDB" width="17.2" height="70.5"/>
			<rect x="-1236.7" y="768.7" fill="#D8CCDB" width="5.8" height="70.5"/>
			<rect x="-1257.6" y="768.7" fill="#F9F7F9" width="8.2" height="70.5"/>
			<path fill="#353535" d="M-1207.7,772.1v9l10.7,2.8c1.1,0.3,1.8,1.3,1.8,2.4v35.3c0,1.1-0.8,2.1-1.8,2.4l-10.7,2.8v9l11.8-3.1
				c5.6-1.5,9.5-6.5,9.5-12.3v-32.9c0-5.8-3.9-10.8-9.5-12.3L-1207.7,772.1z"/>
		</g>
		<g clip-path="url(#SVGID_2_)">
			<path fill="#F9D9B9" d="M-762.9,909.4c0,0,59.8,83.2,67.9,162.2h-137.6l1.4-98.2L-762.9,909.4z"/>
			<path fill="#F9D9B9" d="M-1194.3,949.1c0,0-16.9-74.2,61.4-106.1l25.8,76.3L-1194.3,949.1z"/>
			<path fill="#EFC4AC" d="M-1150,851.4c-2.1,17.9-4.4,51.1,4,68.5c2.2,4.5,4.9,7.8,7.8,10l31.1-10.6l-25-73.9
				c-0.7-0.6-1.5-1.2-2.2-1.9C-1140.1,846-1145.3,848.6-1150,851.4z"/>
			<path fill="#EFC4AC" d="M-831.2,973.4l-1.2,85.6c12,4.8,23.2,8,23.2,8l29.1-32.3l17.4-98.8L-831.2,973.4z"/>
			<path fill="#F9F7F9" d="M-894.7,777.4l-79.7,1.5c0,0-52,4.6-173.9,46.4c0,0,9.6,87.1,55.7,117.6c0,0,187.2-23.5,238.6-25.3
				l31.3,76.6c0,0,73.1-24.4,86.2-86.2C-736.5,908-801.4,802.6-894.7,777.4z"/>
			<path fill="#EFE4F2" d="M-1111.6,925c40.4-2.3,122.7-7.2,129-9c8.4-2.4-9.6-59.4-9.6-59.4c-22.8,21.1-104.1,27-141.2,28.6
				C-1128,899.1-1121,913.2-1111.6,925z"/>
			<path fill="#EFE4F2" d="M-822.7,994.2c0,0,16.8-5.6,35.7-18.2c-35.3-45.7-76.4-140.2-76.4-140.2l-8.7-3.5c0,0,2.4,41.7,4.5,85.9
				c5.1-0.3,9.7-0.6,13.5-0.7L-822.7,994.2z"/>
			<path fill="#F9D9B9" d="M-901.9,714.4c0,0,3,36.3,7.2,63c0,0-6,30-38.5,30c-30.5,0-41.2-28.5-41.2-28.5s3.5-27.3,3.4-64.7
				L-901.9,714.4z"/>
			<path fill="#EFE4F2" d="M-1048.5,919.3c0,0-1.7,151.6,11.2,185.2l41.1-182.3L-1048.5,919.3z"/>
			<path fill="#936952" d="M-1044.1,1118.3h235c0,0-4-127.3-32.7-207.7c-4.4-12.2-12.2-81-12.2-116.7c0,0-14.4-10.2-31.4-13.7
				c0,0,5.3,78.6,2.7,107.8c0,0-59.2,3-88.4,5.7c0,0-15.2-72.8-17-112.8c0,0-17.8-0.6-32.6,6.7c0,0,15.1,94.1,12.6,110.4
				C-1016.7,953-1044.1,983.7-1044.1,1118.3z"/>
			<path fill="#845C47" d="M-1035.7,1007.8c-4.9,27.4-8.4,62.3-8.4,110.5h235c0,0-0.6-19.1-3-47.2c-2.7,0.1-5.5,0.3-8.4,0.5
				C-960.9,1081.9-1015,1039-1035.7,1007.8z"/>
			<path fill="#845C47" d="M-1013.8,959.9c2.4,0,6.9,2.3,11.9,4.1c-0.6,10.3,4.7,21.5,13.2,28.4l8.1,6.6c0.2,1.6,0.5,3.1,0.9,4.6
				l7.7,6.3c2.5,10.6,8.4,20.5,17.5,28c22.1,18.1,54.7,14.8,72.7-7.3c10.6-13,13.9-29.6,10.2-44.8l14.6,5.6c0.9,0.4,2,0.2,2.8-0.3v0
				c1-0.7,1.4-1.8,1.3-2.9c2.1,3.5,5.6,14.9,2.1,49.7h12.4c0,0,2.6-45.5-18.6-54.2l-9.7-7.9l3.9-4.7l-19-15.5c1.5,1.3,3.8,1,5.1-0.5
				c1.3-1.5,1-3.8-0.5-5.1l-6.6-5.4c-1.5-1.3-3.8-1-5.1,0.5c-1.3,1.5-1,3.8,0.5,5.1l-19-15.5l-3.9,4.7l-1.3-1.1
				c-4.6-3.8-11.4-3.1-15.2,1.5c-1.6-0.1-3.2,0-4.7,0.1l-8.1-6.6c-5.7-4.7-13.1-7.6-20.3-8.1c-18-14.2-33.4-20.1-48.2-21.7
				c-3.9,21.5-10.6,39.8-17.2,63.3C-1019.2,962.6-1014.8,959.9-1013.8,959.9z M-991.6,966.1c1.4,0,2.8-0.1,4.1-0.5
				c14.1-4.2,29.6-20.4,30.4-31.8c5.1-0.2,10,0.9,13.2,3.6l4.2,3.4c-11.4,2.2-22,8.3-30,18c-7.9,9.7-11.7,21.3-11.7,32.9l-4.2-3.4
				C-990.8,983.9-993,974.1-991.6,966.1z"/>
			<linearGradient id="SVGID_3_" gradientUnits="userSpaceOnUse" x1="-825.8926" y1="1025.6752" x2="-825.8926" y2="704.7139">
				<stop  offset="0" style="stop-color:#FFFFFF"/>
				<stop  offset="1" style="stop-color:#FFFFFF;stop-opacity:0"/>
			</linearGradient>
			<path opacity="0.75" fill="url(#SVGID_3_)" d="M-828.3,1013.3c0,0,1.8-62.3,35.8-104.8s13-92.7-5-108.9
				c-18-16.3-21.5-90.1,14-117.5h-93.7c0,0-4.9,97.2,38.4,145.2c43.3,48-4.2,54.7,0,146.7L-828.3,1013.3z"/>
			<path fill="#4C3E3D" d="M-844.1,966.3c0,0,8.1,4.1,3.4,51.2h12.4c0,0,2.7-47.5-20-54.7L-844.1,966.3z"/>
			<path fill="#3F3131" d="M-841.7,1021.9c0,0,5.8-24.7,2.5-42.4c0,0,3.9,9.3,3.9,21.8c0,0,2.4-15.2-3-29c0,0,9.8,12.6,5.2,46.3
				L-841.7,1021.9z"/>
			<polygon fill="#EFE4F2" points="-816.1,1067 -861.5,1067 -864.5,1004.3 -813.1,1004.3 			"/>
			<rect x="-861.4" y="1067" fill="#353535" width="45.3" height="4.7"/>
			<polygon fill="#D8CCDB" points="-861.6,1064.7 -861.5,1067 -816.1,1067 -813.1,1004.3 -850.7,1004.3 			"/>
			<path fill="#F9D9B9" d="M-840,1023.8c-11.2,2.8-23.8,31.1-3,50c12.3,11.2,139.8,6.2,148.1-2.1c8.3-8.3,4.5-68.7-43-68.5
				C-781.9,1003.3-817.8,1018.3-840,1023.8z"/>
			<path fill="#EFC4AC" d="M-729.5,1003.8c-3.4-0.2-6.8-0.2-10.2,0.1c-1.7,0.1-3.4,0.2-5.1,0.4c-1.7,0.2-3.4,0.3-5.1,0.5
				c-1.7,0.2-3.4,0.4-5.1,0.6c-1.7,0.2-3.4,0.4-5,0.7c-3.4,0.5-6.7,1-10.1,1.6c-3.4,0.5-6.7,1.2-10,1.8l-5,1c-1.7,0.4-3.3,0.7-5,1
				c-6.7,1.4-13.3,2.9-20.1,4.2c6.4-2.5,12.9-4.6,19.5-6.4c3.3-1,6.6-1.7,10-2.5c3.4-0.7,6.7-1.4,10.1-2c1.7-0.3,3.4-0.6,5.1-0.8
				c1.7-0.2,3.4-0.5,5.1-0.7c1.7-0.2,3.4-0.3,5.1-0.5c1.7-0.2,3.4-0.2,5.2-0.3c3.4-0.2,6.9-0.1,10.3,0
				C-736.3,1002.6-732.8,1002.9-729.5,1003.8z"/>
			<rect x="-1218" y="1071.7" fill="#4C3431" width="613" height="61.3"/>
			<g>
				<g>
					<path fill="#353535" d="M-967.4,981.9l-11.6-9.5c-12.4-10.1-18.2-29.4-8.1-41.7l13.8-16.9c10.1-12.4,30.1-10.5,42.5-0.4
						l10.6,8.6l-3.3,4l-10.6-8.6c-7.5-6.2-24.3-4-30.4,3.5l-13.8,16.9c-6.2,7.5-4.9,24.4,2.6,30.5l11.6,9.5L-967.4,981.9z"/>
				</g>
				<path fill="#353535" d="M-952.1,945.2c10.6-13,26.3-19.5,41.8-18.9l-7.7-6.3c-15.6-0.5-31.2,5.9-41.8,18.9s-13.9,29.6-10.2,44.8
					l7.7,6.3C-965.9,974.8-962.7,958.2-952.1,945.2z"/>
				<path fill="#EFE4F2" d="M-861.8,965.8l-48.4-39.6c-15.6-0.5-31.2,5.9-41.8,18.9c-18.1,22.1-14.8,54.7,7.3,72.7
					c22.1,18.1,54.7,14.8,72.7-7.3C-861.4,997.6-858.2,981-861.8,965.8z"/>
				<path fill="#FFFFFF" d="M-916.3,934.6c2.6,3.3-23.1,10.4-26.8,42.7c-0.8,7.1-11.7,5.7-10.3-6.8c2.1-18.5,15.1-30.1,21.2-33.8
					C-922.6,931.1-917.6,933-916.3,934.6z"/>
				<path fill="#353535" d="M-844.1,966.3l-58.6-47.9c-4.6-3.8-11.4-3.1-15.2,1.5l0,0l56.1,45.9l14.6,5.6c0.9,0.4,2,0.2,2.8-0.3l0,0
					C-842.7,970-842.6,967.6-844.1,966.3z"/>
				
					<rect x="-906" y="932.3" transform="matrix(0.7742 0.6329 -0.6329 0.7742 393.8975 766.336)" fill="#353535" width="57.5" height="6.1"/>
				<path fill="#353535" d="M-872,935.6l-6.6-5.4c-1.5-1.3-1.8-3.5-0.5-5.1v0c1.3-1.5,3.5-1.8,5.1-0.5l6.6,5.4
					c1.5,1.3,1.8,3.5,0.5,5.1l0,0C-868.2,936.7-870.5,936.9-872,935.6z"/>
				<path fill="#4C3E3D" d="M-874.3,1008.7c9.5-11.6,13.1-26.6,9.9-41.2l-12.4-10.1c-10.4-0.5-21.1,2.1-33.4,5.1
					c-13.1,3.2-32.2,2.6-48.4,1.1c-5.6,18.3,0,39.1,15.7,52c8.7,7.1,19.6,11,30.8,11c0,0,0,0,0,0
					C-897.4,1026.6-883.6,1020.1-874.3,1008.7z"/>
				<path fill="#665656" d="M-952.1,964.1c-0.5,2.1-1,4.2-1.2,6.5c-1.4,12.5,9.4,13.9,10.3,6.8c0.5-4.7,1.6-8.9,2.9-12.6
					C-944.2,964.6-948.2,964.4-952.1,964.1z"/>
				<circle fill="#665656" cx="-942.4" cy="995.9" r="5.9"/>
				<path fill="#3F3131" d="M-864.5,967.5l-12.4-10.1c-1.7-0.1-3.3-0.1-5,0c-2.9,19.7-13.3,48.4-47.9,65.9
					c5.6,2.2,11.6,3.4,17.7,3.4c0,0,0,0,0,0c14.7,0,28.4-6.5,37.7-17.9C-864.9,997.1-861.3,982.1-864.5,967.5z"/>
			</g>
			<path fill="#F9D9B9" d="M-1173.4,900.6c20.9-10,56.4-4.5,102.2-9.1c45.9-4.6,74.6-22.3,120.5,14.1c11.7,9.3-8.7,34.7-27,40.1
				c-9.2,2.7-21.8-5.7-26.4-5.7c-4.4,0-90.3,62.3-149.6,46.1C-1212.8,969.8-1198.9,912.8-1173.4,900.6z"/>
			<path fill="#EFC4AC" d="M-1173.4,900.6c1.9-0.9,3.8-2,5.9-2.7c1-0.4,2-0.8,3.1-1.1l3.1-0.9c1-0.3,2.1-0.5,3.2-0.7
				c1.1-0.2,2.1-0.4,3.2-0.6c2.1-0.3,4.3-0.7,6.4-0.9c8.6-1,17.2-1.2,25.8-1.4l25.8-0.3c8.6-0.1,17.1-0.4,25.8-0.6
				c-8.5,1.5-17.1,2.3-25.7,2.9c-4.3,0.3-8.6,0.5-12.9,0.6l-12.9,0.3c-4.3,0.1-8.6,0.1-12.9,0.2c-4.3,0.1-8.6,0.3-12.8,0.5
				C-1156.8,896.5-1165.3,897.6-1173.4,900.6z"/>
			<path fill="#EFCE8E" d="M-605,1071.7c0,0-51.1,0-62.1,0s-16.8-24.1-11-42.1c5.8-18,15.7-60.9,15.7-60.9h57.5V1071.7z"/>
			<rect x="-662.5" y="957.8" fill="#739E61" width="57.5" height="10.8"/>
			<path fill="#EFCE8E" d="M-662.5,957.8c0,0-7.4-14.1-10-25.5c0,0,16.8-4.6,32.2-4.8c15.5-0.2,23.5,5.2,35.3,5.2v25H-662.5z"/>
			<path fill="#739E61" d="M-605,1001.3c-5-4.5-11.6-7.2-18.9-7.2c-15.7,0-28.4,12.7-28.4,28.4s12.7,28.4,28.4,28.4
				c7.2,0,13.8-2.7,18.9-7.2V1001.3z"/>
			<path fill="#EFC4AC" d="M-901.9,714.4l-69.1-0.3c-0.4,2.4-0.7,5.5-0.1,9c3.1,17,25.4,34.2,45.9,28.5c17-4.7,23.6-22.5,24.4-24.6
				C-901.2,722.8-901.5,718.6-901.9,714.4z"/>
			<path fill="#F9D9B9" d="M-977.1,694.1c0,0-13-22.2-24.7-6.1c-8.4,11.6,11,30.2,29.3,23.2L-977.1,694.1z"/>
			<path fill="#F9D9B9" d="M-898.7,694.1c0,0,13-22.2,24.7-6.1c8.4,11.6-11,30.2-29.3,23.2L-898.7,694.1z"/>
			<path fill="#F9D9B9" d="M-943.7,605.8c-24.4,1.2-38.9,29.3-38.9,59.5s5.6,70.2,45.6,76.6c16.3,2.6,37.4-11.9,40.6-42.1
				C-893.2,669.7-888.9,603.2-943.7,605.8z"/>
			<path fill="#77443D" d="M-979.4,698.2c0,0-2.3-28.2,12.5-43.9c0,0,32.5,5.2,56.6-1.5c0,0,14.5,20.6,14.2,44.6
				c0,0,7.9-10.3,11.9-21.6s13.1-13.1,15.4-24.4c2.3-11.3-6.7-9.9-7.8-17.1c-1.2-7.3-1.6-19.4-26.7-29.9c-16-6.7,0.8-39.9-67.1-23.9
				c-11.7,2.8-25.6-18.2-43.9-13.6c-23,5.8-22.8,30.9-14.4,49.7c8.4,18.9-15.1,27,9.3,51.1C-1001.5,685.4-993.1,679.7-979.4,698.2z"
				/>
			<path fill="#633833" d="M-896.2,697.4c0,0,7.9-10.3,11.9-21.6c1.3-3.7,3.2-6.4,5.1-8.7c-17.9-4.2-19-27.1-31.4-39.2
				c-14.5-14.1-32-2.9-40.7,0c-8.7,2.9-23.8-15.9-39.3-8.4s2.5,29-9,40.5c-5.2,5.2-13.8,6.2-21.9,5.7c0.6,0.6,1.2,1.3,1.9,1.9
				c18,17.7,26.4,12.1,40,30.6c0,0-2.3-28.2,12.5-43.9c0,0,32.5,5.2,56.6-1.5C-910.4,652.8-895.9,673.5-896.2,697.4z"/>
			<g>
				<path opacity="0.25" fill="#8C7C60" d="M-605,1030.6c-29.6,0.6-52.3-10.2-67.5-20.9c-2,7.6-4,14.8-5.6,19.9
					c-5.8,18,0,42.1,11,42.1s62.1,0,62.1,0V1030.6z"/>
			</g>
			<g>
				<path opacity="0.25" fill="#8C7C60" d="M-671.5,936c3.1,10.5,9,21.8,9,21.8h57.5v-6.9c-10.9-4.1-17.4-11.5-32.3-10.2
					C-650.9,941.8-663.5,938.7-671.5,936z"/>
			</g>
			<g>
				<path opacity="0.25" fill="#8C7C60" d="M-662.5,959.9c13.9,0.4,40.7,1.6,57.5,6.3v-8.3h-57.5V959.9z"/>
			</g>
		</g>
		<g clip-path="url(#SVGID_2_)">
			<rect x="-785.2" y="757.3" fill="#353535" width="97.5" height="14.4"/>
			<polygon fill="#EFE4F2" points="-705.7,702 -767.3,702 -778.1,757.3 -694.9,757.3 			"/>
			<polygon fill="#EFE4F2" points="-705.7,690.3 -767.3,690.1 -778.1,635 -694.9,635 			"/>
			<rect x="-767.3" y="690.3" fill="#353535" width="61.6" height="11.8"/>
			<path fill="#353535" d="M-779.1,629.5h-16.2c-2.2,0-3.2,2.7-1.6,4.1l22.5,20.1L-779.1,629.5z"/>
			<path fill="#353535" d="M-780.3,623.2V635h93.8c1,0,1.9,0.8,1.9,1.9v55.3c0,2.8,2.3,5.1,5.1,5.1h0c2.8,0,5.1-2.3,5.1-5.1v-57.7
				c0-6.2-5-11.2-11.2-11.2H-780.3z"/>
			<polygon fill="#353535" points="-701.9,613.2 -771,613.2 -774.5,623.2 -698.5,623.2 			"/>
			<path fill="#353535" d="M-736.5,602.6L-736.5,602.6c-4.6,0-8.3,3.7-8.3,8.3v2.4h16.5v-2.4C-728.2,606.3-731.9,602.6-736.5,602.6z
				"/>
			<polygon fill="#EFE4F2" points="-620.9,767 -666.2,767 -669.2,704.3 -617.8,704.3 			"/>
			<g>
				<polygon fill="#D8CCDB" points="-638.8,767 -620.9,767 -617.8,704.3 -636,704.3 				"/>
				<polygon fill="#D8CCDB" points="-648.3,767 -642.3,767 -642.3,704.3 -650,704.3 				"/>
				<polygon fill="#F9F7F9" points="-660.9,767 -655.9,767 -657.8,704.3 -663.6,704.3 				"/>
			</g>
			<g>
				<polygon fill="#D8CCDB" points="-740.3,702 -751,702 -742,757.3 -728.4,757.3 				"/>
				<polygon fill="#D8CCDB" points="-752.2,635 -752.6,690.1 -740.3,690.2 -736.5,635 				"/>
				<polygon fill="#D8CCDB" points="-705.7,702 -730,702 -719,757.3 -694.9,757.3 				"/>
				<polygon fill="#D8CCDB" points="-729.6,690.2 -705.7,690.3 -694.9,635 -723.5,635 				"/>
			</g>
			<g>
				<polygon fill="#F9F7F9" points="-759,702 -767.3,702 -778.1,757.3 -759,757.3 				"/>
				<polygon fill="#F9F7F9" points="-760.1,690.1 -769.6,635 -778.1,635 -767.3,690.1 				"/>
			</g>
			<rect x="-666.2" y="767" fill="#353535" width="45.3" height="4.7"/>
		</g>
	</g>
	<text transform="matrix(1 0 0 1 -1901.1647 684.2137)" display="inline"><tspan x="0" y="0" fill="#4C4C4C" font-family="'FiraSans-Regular'" font-size="72px">Life Happens</tspan><tspan x="0" y="86.4" fill="#4C4C4C" font-family="'FiraSans-Medium'" font-size="72px">Cofee</tspan><tspan x="195.4" y="86.4" fill="#4C4C4C" font-family="'FiraSans-Regular'" font-size="72px"> Helps</tspan></text>
	<g display="inline">
		<text transform="matrix(1 0 0 1 -1895.0001 480.5962)"><tspan x="0" y="0" fill="#739E61" font-family="'FiraSans-Medium'" font-size="36px">COFFEE</tspan><tspan x="116.2" y="0" fill="#4C4C4C" font-family="'FiraSans-Medium'" font-size="36px"> </tspan><tspan x="123.8" y="0" fill="#4C4C4C" font-family="'FiraSans-Light'" font-size="36px">BREAK</tspan></text>
	</g>
	
		<text transform="matrix(1 0 0 1 -1151.2258 468.1479)" display="inline" fill="#FFFFFF" font-family="'FiraSans-Light'" font-size="18px">Home</text>
	
		<text transform="matrix(1 0 0 1 -1004.1003 468.1479)" display="inline" fill="#FFFFFF" font-family="'FiraSans-Light'" font-size="18px">Menu</text>
	
		<text transform="matrix(1 0 0 1 -860.8093 468.1479)" display="inline" fill="#FFFFFF" font-family="'FiraSans-Light'" font-size="18px">About</text>
	
		<text transform="matrix(1 0 0 1 -722.5852 468.1479)" display="inline" fill="#FFFFFF" font-family="'FiraSans-SemiBold'" font-size="18px">Contact</text>
	<rect x="-1895" y="822.4" display="inline" fill="none" width="410" height="125.6"/>
	<text transform="matrix(1 0 0 1 -1895 837.3019)" display="inline"><tspan x="0" y="0" fill="#4C4C4C" font-family="'FiraSans-Light'" font-size="21px">Lorem ipsum dolor sit amet, </tspan><tspan x="0" y="25.2" fill="#4C4C4C" font-family="'FiraSans-Light'" font-size="21px">consectetuer adipiscing elit, sed diam </tspan><tspan x="0" y="50.4" fill="#4C4C4C" font-family="'FiraSans-Light'" font-size="21px">nonummy nibh. Lorem ipsum dolor sit </tspan><tspan x="0" y="75.6" fill="#4C4C4C" font-family="'FiraSans-Light'" font-size="21px">amet.</tspan></text>
	<rect x="-1895" y="965.2" display="inline" fill="#739E61" width="186.7" height="57.3"/>
	
		<line display="inline" fill="none" stroke="#F9F7F9" stroke-width="2" stroke-miterlimit="10" x1="-724.3" y1="478.5" x2="-649.3" y2="478.5"/>
	
		<text transform="matrix(1 0 0 1 -1853.2285 1000.22)" display="inline" fill="#FFFFFF" font-family="'FiraSans-Light'" font-size="18px">Learn More</text>
</g>
<g>
	
		<image overflow="visible" opacity="0.25" width="1175" height="1026" xlink:href="428758BB6B11B8A7.png"  transform="matrix(1 0 0 1 636 296)">
	</image>
	<g>
		<g>
			<g>
				<g>
					<path fill="#4E7C49" d="M860.2,1194.6c0,0-10.4-94.4,37.8-155.1c0,0-85.1,19.8-61.1,148.2L860.2,1194.6z"/>
					<path fill="#4E7C49" d="M822.1,1187.2c0,0-3.3-94.9-59.7-148c0,0,87.1,7.3,81.8,137.9L822.1,1187.2z"/>
					<path fill="#42663C" d="M836.8,1187.6l7.5,2.2c-2.2-122.4,53.6-150.4,53.6-150.4S812.9,1059.2,836.8,1187.6z"/>
					<path fill="#42663C" d="M834.3,1181.6l9.9-4.6c5.2-130.6-81.8-137.9-81.8-137.9C815.3,1053.9,830.3,1145.1,834.3,1181.6z"/>
					<path fill="#4E7C49" d="M834.3,1187.9c0,0-27.2-142.3,10-186c0,0,11,38.3,0.1,181.3L834.3,1187.9z"/>
				</g>
				<g>
					<path fill="#4E7C49" d="M941.4,1201.6c0,0-7-62.9,25.2-103.3c0,0-56.7,13.2-40.7,98.7L941.4,1201.6z"/>
					<path fill="#4E7C49" d="M916,1196.8c0,0-2.2-63.2-39.8-98.6c0,0,58,4.9,54.5,91.8L916,1196.8z"/>
					<path fill="#42663C" d="M925.9,1197l5,1.5c-1.5-81.5,35.7-100.2,35.7-100.2S909.9,1111.5,925.9,1197z"/>
					<path fill="#42663C" d="M924.2,1193l6.6-3c3.5-87-54.5-91.8-54.5-91.8C911.5,1108,921.5,1168.7,924.2,1193z"/>
					<path fill="#4E7C49" d="M924.2,1197.2c0,0-18.1-94.8,6.6-123.9c0,0,7.3,25.5,0.1,120.8L924.2,1197.2z"/>
				</g>
				<g>
					<rect x="1374.3" y="691.1" fill="#4C3431" width="315.8" height="25.5"/>
				</g>
				<g>
					<polygon fill="#4C3431" points="965.7,531 794.7,531 794.3,505.4 965.7,505.4 					"/>
				</g>
				<g>
					<rect x="696.7" y="790" fill="#4C3431" width="315.8" height="25.5"/>
				</g>
				<g>
					<g>
						<path fill="#EFCE8E" d="M897.5,412.5h-33.2c-14.3,0-26.3,10.7-28,24.9l-7.1,59.2c-0.5,3.8,2.5,7.2,6.3,7.2h90.9
							c3.8,0,6.8-3.4,6.3-7.2l-7.1-59.2C923.8,423.2,911.8,412.5,897.5,412.5z"/>
					</g>
					<g>
						<polygon fill="#739E61" points="895.2,393.9 866.6,393.9 863.6,412.5 898.2,412.5 						"/>
					</g>
					<g>
						<path fill="#EFCE8E" d="M840.4,368.8c-7.4,7.4-10.2,25.7,3.5,31.3c13.7,5.6,19.8-4.8,33.5-2.6c13.7,2.2,35.1,7.3,46.3,2.9
							s15.9-36.4-13.7-41.1C880.3,354.5,853.5,355.8,840.4,368.8z"/>
					</g>
					<g>
						<path fill="#739E61" d="M829.1,496.6c-0.5,3.8,2.5,7.2,6.3,7.2h90.9c3.8,0,6.8-3.4,6.3-7.2l-5.2-43h-93.2L829.1,496.6z"/>
					</g>
					<g>
						<path fill="#739E61" d="M886.4,487.7h-11c-11.1,0-20-9-20-20v-19.1c0-11.1,9-20,20-20h11c11.1,0,20,9,20,20v19.1
							C906.4,478.8,897.4,487.7,886.4,487.7z"/>
					</g>
					<g>
						<circle fill="#EFCE8E" cx="880.9" cy="458.2" r="18.8"/>
					</g>
				</g>
				<g>
					<rect x="861.9" y="686.6" fill="#EFE4F2" width="79.1" height="103.4"/>
					<rect x="915.8" y="686.6" fill="#D8CCDB" width="25.2" height="103.4"/>
					<rect x="898.5" y="686.6" fill="#D8CCDB" width="8.5" height="103.4"/>
					<rect x="867.8" y="686.6" fill="#F9F7F9" width="12.1" height="103.4"/>
					<path fill="#353535" d="M941,691.6v13.2l15.7,4.2c1.6,0.4,2.7,1.9,2.7,3.5v51.7c0,1.6-1.1,3.1-2.7,3.5l-15.7,4.2V785l17.3-4.6
						c8.2-2.2,13.9-9.6,13.9-18v-48.2c0-8.5-5.7-15.9-13.9-18L941,691.6z"/>
				</g>
				<g>
					<rect x="727.8" y="686.6" fill="#EFE4F2" width="79.1" height="103.4"/>
					<rect x="781.7" y="686.6" fill="#D8CCDB" width="25.2" height="103.4"/>
					<rect x="764.4" y="686.6" fill="#D8CCDB" width="8.5" height="103.4"/>
					<rect x="733.7" y="686.6" fill="#F9F7F9" width="12.1" height="103.4"/>
					<path fill="#353535" d="M806.9,691.6v13.2l15.7,4.2c1.6,0.4,2.7,1.9,2.7,3.5v51.7c0,1.6-1.1,3.1-2.7,3.5l-15.7,4.2V785
						l17.3-4.6c8.2-2.2,13.9-9.6,13.9-18v-48.2c0-8.5-5.7-15.9-13.9-18L806.9,691.6z"/>
				</g>
				<g>
					<g>
						<path fill="#F9D9B9" d="M1458.7,892.9c0,0,87.6,121.9,99.5,237.8h-201.6l2-144L1458.7,892.9z"/>
					</g>
					<g>
						<path fill="#F9D9B9" d="M826.5,951c0,0-24.7-108.8,89.9-155.5l37.9,111.9L826.5,951z"/>
					</g>
					<path fill="#EFC4AC" d="M891.4,807.9c-3.1,26.3-6.5,74.9,5.9,100.3c3.2,6.6,7.1,11.4,11.4,14.7l45.6-15.6l-36.6-108.3
						c-1.1-0.9-2.1-1.8-3.2-2.7C906,799.9,898.3,803.8,891.4,807.9z"/>
					<g>
						<path fill="#EFC4AC" d="M1358.6,986.7l-1.8,125.4c17.6,7,34.1,11.7,34.1,11.7l42.7-47.4l25.4-144.7L1358.6,986.7z"/>
					</g>
					<path fill="#F9F7F9" d="M1265.5,699.4l-116.9,2.1c0,0-76.1,6.8-254.8,68.1c0,0,14,127.6,81.7,172.3c0,0,274.3-34.5,349.6-37
						l45.9,112.3c0,0,107.2-35.7,126.3-126.3C1497.4,890.8,1402.3,736.4,1265.5,699.4z"/>
					<path fill="#EFE4F2" d="M947.6,915.6c59.2-3.4,179.8-10.6,189.1-13.2c12.3-3.5-14-87-14-87c-33.4,30.9-152.6,39.5-206.9,41.9
						C923.6,877.7,934,898.4,947.6,915.6z"/>
					<path fill="#EFE4F2" d="M1371.1,1017.1c0,0,24.6-8.2,52.3-26.7c-51.8-67-111.9-205.4-111.9-205.4l-12.7-5.1
						c0,0,3.6,61.1,6.6,125.9c7.5-0.5,14.2-0.9,19.7-1.1L1371.1,1017.1z"/>
					<g>
						<path fill="#F9D9B9" d="M1255,607.1c0,0,4.5,53.2,10.5,92.3c0,0-8.8,43.9-56.5,43.9c-44.7,0-60.4-41.8-60.4-41.8
							s5.1-40,5.1-94.8L1255,607.1z"/>
					</g>
					<path fill="#EFE4F2" d="M1040.2,907.4c0,0-2.5,222.2,16.4,271.4l60.2-267.1L1040.2,907.4z"/>
					<g>
						<path fill="#936952" d="M1046.6,1199h344.3c0,0-5.8-186.6-47.9-304.4c-6.4-17.9-17.8-118.7-17.8-171c0,0-21.1-15-46-20.1
							c0,0,7.8,115.2,3.9,157.9c0,0-86.8,4.5-129.5,8.3c0,0-22.3-106.7-24.9-165.3c0,0-26.1-1-47.8,9.9c0,0,22.2,137.8,18.5,161.8
							C1086.8,956.7,1046.6,1001.8,1046.6,1199z"/>
					</g>
					<path fill="#845C47" d="M1058.9,1037.1c-7.2,40.2-12.4,91.3-12.4,161.9h344.3c0,0-0.9-28-4.4-69.1c-4,0.2-8.1,0.5-12.3,0.8
						C1168.5,1145.6,1089.2,1082.7,1058.9,1037.1z"/>
					<g>
						<g>
							<path fill="#845C47" d="M1090.9,966.8c3.5,0,10.1,3.3,17.4,5.9c-0.9,15.1,6.9,31.5,19.3,41.6l11.8,9.7
								c0.3,2.3,0.7,4.6,1.3,6.8l11.3,9.2c3.7,15.6,12.4,30.1,25.7,41c32.4,26.5,80.1,21.7,106.6-10.7c15.6-19,20.3-43.4,15-65.6
								l21.4,8.3c1.4,0.5,2.9,0.3,4.1-0.5v0c1.4-1,2-2.6,1.8-4.2c3.1,5.2,8.2,21.8,3.1,72.8h18.1c0,0,3.8-66.7-27.3-79.4l-14.2-11.6
								l5.7-6.9l-27.8-22.7c2.3,1.8,5.6,1.5,7.4-0.7c1.8-2.3,1.5-5.6-0.7-7.4l-9.6-7.9c-2.3-1.8-5.6-1.5-7.4,0.7
								c-1.8,2.3-1.5,5.6,0.7,7.4l-27.8-22.7l-5.7,6.9l-1.9-1.6c-6.8-5.5-16.8-4.5-22.3,2.2c-2.3-0.1-4.6,0-6.9,0.1l-11.8-9.7
								c-8.4-6.8-19.2-11.1-29.8-11.9c-26.4-20.9-48.9-29.5-70.6-31.8c-5.7,31.6-15.6,58.4-25.2,92.7
								C1083.1,970.8,1089.6,966.8,1090.9,966.8z M1123.6,976c2.1,0,4.1-0.2,6-0.8c20.7-6.2,43.4-29.9,44.5-46.6
								c7.4-0.3,14.7,1.3,19.4,5.2l6.2,5c-16.7,3.3-32.3,12.2-43.9,26.3c-11.6,14.2-17.2,31.3-17.1,48.3l-6.2-5
								C1124.7,1002,1121.5,987.7,1123.6,976z"/>
						</g>
					</g>
					<linearGradient id="SVGID_4_" gradientUnits="userSpaceOnUse" x1="1366.3716" y1="1063.2357" x2="1366.3716" y2="592.9077">
						<stop  offset="0" style="stop-color:#FFFFFF"/>
						<stop  offset="1" style="stop-color:#FFFFFF;stop-opacity:0"/>
					</linearGradient>
					<path opacity="0.75" fill="url(#SVGID_4_)" d="M1362.9,1045.1c0,0,2.6-91.3,52.4-153.5c49.8-62.2,19-135.8-7.3-159.6
						c-26.4-23.8-31.5-132,20.5-172.2h-137.4c0,0-7.1,142.4,56.3,212.8s-6.2,80.2,0,215L1362.9,1045.1z"/>
					<g>
						<path fill="#4C3E3D" d="M1339.6,976.2c0,0,11.9,6,5,75h18.1c0,0,4-69.6-29.3-80.1L1339.6,976.2z"/>
					</g>
					<path fill="#3F3131" d="M1343.2,1057.7c0,0,8.5-36.1,3.7-62.1c0,0,5.7,13.6,5.7,31.9c0,0,3.5-22.2-4.4-42.6
						c0,0,14.3,18.5,7.7,67.9L1343.2,1057.7z"/>
					<polygon fill="#EFE4F2" points="1380.7,1123.8 1314.3,1123.8 1309.8,1031.9 1385.1,1031.9 					"/>
					<rect x="1314.3" y="1123.8" fill="#353535" width="66.3" height="6.9"/>
					<polygon fill="#D8CCDB" points="1314.1,1120.5 1314.3,1123.8 1380.7,1123.8 1385.1,1031.9 1330,1031.9 					"/>
					<g>
						<path fill="#F9D9B9" d="M1345.7,1060.5c-16.5,4.1-34.9,45.6-4.4,73.2c18,16.4,204.8,9.1,217-3c12.1-12.1,6.6-100.6-62.9-100.4
							C1430.8,1030.5,1378.2,1052.4,1345.7,1060.5z"/>
					</g>
					<path fill="#EFC4AC" d="M1507.6,1031.2c-5-0.3-10-0.3-15,0.2c-2.5,0.2-5,0.3-7.5,0.6c-2.5,0.2-5,0.4-7.4,0.7
						c-2.5,0.3-4.9,0.5-7.4,0.8c-2.5,0.3-4.9,0.6-7.4,1c-4.9,0.7-9.8,1.4-14.7,2.3c-4.9,0.8-9.8,1.7-14.7,2.7l-7.3,1.5
						c-2.4,0.5-4.9,1-7.3,1.5c-9.8,2.1-19.5,4.3-29.4,6.1c9.4-3.6,18.9-6.7,28.6-9.4c4.8-1.4,9.7-2.6,14.6-3.7
						c4.9-1.1,9.9-2.1,14.8-3c2.5-0.4,5-0.8,7.5-1.1c2.5-0.4,5-0.7,7.5-1c2.5-0.3,5-0.5,7.5-0.7c2.5-0.2,5-0.3,7.6-0.4
						c5-0.2,10.1-0.2,15.1,0C1497.6,1029.4,1502.7,1029.9,1507.6,1031.2z"/>
					<g>
						<rect x="791.8" y="1156.6" fill="#4C3431" width="898.3" height="44.9"/>
					</g>
					<g>
						<g>
							<path fill="#353535" d="M1159.1,999l-17-13.9c-18.1-14.8-26.6-43-11.8-61.2l20.2-24.7c14.8-18.1,44.2-15.4,62.3-0.6
								l15.5,12.7l-4.8,5.9l-15.5-12.7c-11-9-35.6-5.9-44.6,5.2l-20.2,24.7c-9,11-7.2,35.7,3.8,44.7l17,13.9L1159.1,999z"/>
						</g>
						<path fill="#353535" d="M1181.5,945.3c15.6-19,38.5-28.5,61.3-27.8l-11.3-9.2c-22.8-0.8-45.7,8.7-61.3,27.8
							c-15.6,19-20.3,43.4-15,65.6l11.3,9.2C1161.2,988.7,1165.9,964.3,1181.5,945.3z"/>
						<path fill="#EFE4F2" d="M1313.8,975.5l-71-58c-22.8-0.8-45.7,8.7-61.3,27.8c-26.5,32.4-21.7,80.1,10.7,106.6
							c32.4,26.5,80.1,21.7,106.6-10.7C1314.3,1022.1,1319.1,997.8,1313.8,975.5z"/>
						<path fill="#FFFFFF" d="M1233.9,929.8c3.8,4.8-33.9,15.3-39.2,62.6c-1.2,10.4-17.1,8.4-15-9.9c3.1-27.1,22.1-44.1,31.1-49.5
							C1224.7,924.7,1232,927.4,1233.9,929.8z"/>
						<path fill="#353535" d="M1339.6,976.2l-85.8-70.2c-6.8-5.5-16.8-4.5-22.3,2.2l0,0l82.3,67.3l21.4,8.3c1.4,0.5,2.9,0.3,4.1-0.5
							l0,0C1341.8,981.6,1341.9,978.1,1339.6,976.2z"/>
						
							<rect x="1286.7" y="888.7" transform="matrix(0.6329 -0.7742 0.7742 0.6329 -246.6773 1341.3688)" fill="#353535" width="8.9" height="84.2"/>
						<path fill="#353535" d="M1298.8,931.3l-9.6-7.9c-2.3-1.8-2.6-5.2-0.7-7.4v0c1.8-2.3,5.2-2.6,7.4-0.7l9.6,7.9
							c2.3,1.8,2.6,5.2,0.7,7.4l0,0C1304.3,932.8,1301,933.1,1298.8,931.3z"/>
						<g>
							<path fill="#4C3E3D" d="M1295.4,1038.4c13.9-17,19.1-38.9,14.5-60.4l-18.2-14.8c-15.3-0.8-31,3.1-48.9,7.5
								c-19.2,4.7-47.2,3.8-70.9,1.6c-8.2,26.9,0,57.3,23,76.2c12.7,10.4,28.7,16.1,45.1,16.1c0,0,0,0,0,0
								C1261.6,1064.6,1281.8,1055,1295.4,1038.4z"/>
						</g>
						<g>
							<path fill="#665656" d="M1181.4,973.1c-0.8,3-1.4,6.2-1.8,9.5c-2.1,18.3,13.8,20.3,15,9.9c0.8-6.9,2.3-13.1,4.2-18.5
								C1193,973.8,1187.1,973.5,1181.4,973.1z"/>
						</g>
						<g>
							<circle fill="#665656" cx="1195.6" cy="1019.6" r="8.7"/>
						</g>
						<g>
							<path fill="#3F3131" d="M1309.8,978l-18.2-14.8c-2.4-0.1-4.9-0.1-7.3,0c-4.2,28.9-19.4,70.9-70.2,96.5c8.2,3.2,17,4.9,26,4.9
								c0,0,0,0,0,0c21.5,0,41.7-9.5,55.3-26.2C1309.3,1021.4,1314.5,999.4,1309.8,978z"/>
						</g>
					</g>
					<g>
						<path fill="#F9D9B9" d="M857.2,879.9c30.6-14.6,82.6-6.6,149.8-13.4c67.2-6.8,109.3-32.7,176.5,20.7
							c17.2,13.7-12.8,50.9-39.5,58.8c-13.4,4-31.9-8.3-38.7-8.4c-6.4-0.1-132.4,91.3-219.1,67.5S819.7,897.8,857.2,879.9z"/>
					</g>
					<path fill="#EFC4AC" d="M857.2,879.9c2.8-1.4,5.6-3,8.6-3.9c1.5-0.5,3-1.2,4.5-1.6l4.6-1.3c1.5-0.5,3.1-0.7,4.7-1
						c1.6-0.3,3.1-0.7,4.7-0.9c3.1-0.5,6.3-1,9.4-1.3c12.6-1.4,25.3-1.8,37.8-2l37.7-0.5c12.6-0.2,25.1-0.5,37.8-0.9
						c-12.4,2.1-25,3.4-37.6,4.3c-6.3,0.4-12.6,0.7-18.9,0.9l-18.9,0.5c-6.3,0.1-12.6,0.2-18.8,0.3c-6.3,0.1-12.5,0.4-18.8,0.7
						C881.5,874,869,875.6,857.2,879.9z"/>
					<g>
						<path fill="#EFCE8E" d="M1690.1,1130.6c0,0-74.9,0-91,0s-24.7-35.3-16.2-61.7c8.5-26.4,23-89.3,23-89.3h84.2V1130.6z"/>
					</g>
					<rect x="1605.8" y="963.8" fill="#739E61" width="84.2" height="15.8"/>
					<g>
						<path fill="#EFCE8E" d="M1605.8,963.8c0,0-10.8-20.7-14.7-37.3c0,0,24.6-6.7,47.2-7c22.6-0.3,34.5,7.7,51.7,7.7v36.7H1605.8z"
							/>
					</g>
					<path fill="#739E61" d="M1690.1,1027.6c-7.4-6.5-17-10.5-27.6-10.5c-23,0-41.7,18.7-41.7,41.7s18.7,41.7,41.7,41.7
						c10.6,0,20.3-4,27.6-10.5V1027.6z"/>
					<g>
						<path fill="#EFC4AC" d="M1255,607.1l-101.3-0.4c-0.6,3.5-1,8.1-0.1,13.2c4.5,24.9,37.2,50.1,67.3,41.8
							c24.9-6.9,34.6-33,35.8-36.1C1256.1,619.4,1255.5,613.3,1255,607.1z"/>
					</g>
					<g>
						<path fill="#F9D9B9" d="M1144.8,577.3c0,0-19-32.6-36.2-8.9c-12.4,17.1,16.2,44.2,43,34L1144.8,577.3z"/>
					</g>
					<g>
						<path fill="#F9D9B9" d="M1259.6,577.3c0,0,19-32.6,36.2-8.9c12.4,17.1-16.2,44.2-43,34L1259.6,577.3z"/>
					</g>
					<g>
						<path fill="#F9D9B9" d="M1193.7,448c-35.7,1.7-57,43-57,87.2s8.2,102.9,66.8,112.3c23.8,3.8,54.9-17.4,59.5-61.7
							C1267.7,541.6,1274.1,444.2,1193.7,448z"/>
					</g>
					<g>
						<path fill="#77443D" d="M1141.4,583.4c0,0-3.4-41.4,18.3-64.3c0,0,47.6,7.7,82.9-2.1c0,0,21.2,30.2,20.8,65.3
							c0,0,11.5-15.1,17.5-31.7c6-16.6,19.1-19.1,22.5-35.7c3.4-16.6-9.8-14.5-11.5-25.1c-1.7-10.6-2.4-28.5-39.1-43.8
							c-23.4-9.8,1.2-58.5-98.3-35.1c-17.2,4.1-37.5-26.7-64.3-19.9c-33.7,8.5-33.4,45.2-21.1,72.9s-22.2,39.6,13.6,74.9
							C1109.1,564.5,1121.3,556.3,1141.4,583.4z"/>
					</g>
					<g>
						<path fill="#633833" d="M1263.4,582.2c0,0,11.5-15.1,17.5-31.7c1.9-5.4,4.7-9.3,7.5-12.7c-26.2-6.1-27.9-39.8-46.1-57.5
							c-21.2-20.7-46.9-4.2-59.7,0c-12.8,4.2-34.9-23.3-57.6-12.3c-22.7,11,3.7,42.5-13.2,59.3c-7.6,7.6-20.3,9-32,8.4
							c0.9,0.9,1.8,1.9,2.8,2.8c26.4,25.9,38.6,17.7,58.7,44.8c0,0-3.4-41.4,18.3-64.3c0,0,47.6,7.7,82.9-2.1
							C1242.6,516.9,1263.8,547.1,1263.4,582.2z"/>
					</g>
					<g>
						<path opacity="0.25" fill="#8C7C60" d="M1690.1,1070.5c-43.4,0.8-76.7-14.9-98.9-30.7c-2.9,11.1-5.8,21.6-8.2,29.1
							c-8.5,26.4,0,61.7,16.2,61.7s91,0,91,0V1070.5z"/>
					</g>
					<g>
						<path opacity="0.25" fill="#8C7C60" d="M1592.6,931.8c4.6,15.4,13.3,32,13.3,32h84.2v-10.2c-15.9-6-25.5-16.9-47.4-15
							C1622.8,940.4,1604.3,935.8,1592.6,931.8z"/>
					</g>
					<g>
						<path opacity="0.25" fill="#8C7C60" d="M1605.8,966.8c20.4,0.6,59.7,2.3,84.2,9.2v-12.2h-84.2V966.8z"/>
					</g>
				</g>
				<g>
					<rect x="1425.9" y="670" fill="#353535" width="142.9" height="21.1"/>
					<polygon fill="#EFE4F2" points="1542.5,589 1452.3,589 1436.5,670 1558.3,670 					"/>
					<polygon fill="#EFE4F2" points="1542.5,571.8 1452.3,571.5 1436.5,490.7 1558.3,490.7 					"/>
					<rect x="1452.3" y="571.8" fill="#353535" width="90.2" height="17.2"/>
					<path fill="#353535" d="M1434.9,482.7h-23.8c-3.2,0-4.7,3.9-2.3,6l33,29.5L1434.9,482.7z"/>
					<path fill="#353535" d="M1433.2,473.5v17.2h137.4c1.5,0,2.7,1.2,2.7,2.7v81c0,4.1,3.4,7.5,7.5,7.5h0c4.1,0,7.5-3.4,7.5-7.5V490
						c0-9.1-7.4-16.4-16.4-16.4H1433.2z"/>
					<polygon fill="#353535" points="1548,458.9 1446.8,458.9 1441.7,473.5 1553.1,473.5 					"/>
					<path fill="#353535" d="M1497.4,443.2L1497.4,443.2c-6.7,0-12.1,5.4-12.1,12.1v3.5h24.2v-3.5
						C1509.5,448.6,1504.1,443.2,1497.4,443.2z"/>
					<polygon fill="#EFE4F2" points="1666.8,684.2 1600.4,684.2 1596,592.4 1671.2,592.4 					"/>
					<g>
						<polygon fill="#D8CCDB" points="1640.6,684.2 1666.8,684.2 1671.2,592.4 1644.7,592.4 						"/>
						<polygon fill="#D8CCDB" points="1626.6,684.2 1635.3,684.2 1635.3,592.4 1624.1,592.4 						"/>
						<polygon fill="#F9F7F9" points="1608.1,684.2 1615.4,684.2 1612.8,592.4 1604.2,592.4 						"/>
					</g>
					<g>
						<polygon fill="#D8CCDB" points="1491.9,589 1476.1,589 1489.3,670 1509.3,670 						"/>
						<polygon fill="#D8CCDB" points="1474.4,490.7 1473.8,571.6 1491.9,571.6 1497.3,490.7 						"/>
						<polygon fill="#D8CCDB" points="1542.5,589 1506.8,589 1523,670 1558.3,670 						"/>
						<polygon fill="#D8CCDB" points="1507.5,571.7 1542.5,571.8 1558.3,490.7 1516.4,490.7 						"/>
					</g>
					<g>
						<polygon fill="#F9F7F9" points="1464.4,589 1452.3,589 1436.5,670 1464.4,670 						"/>
						<polygon fill="#F9F7F9" points="1462.9,571.5 1448.8,490.7 1436.5,490.7 1452.3,571.5 						"/>
					</g>
					<rect x="1600.4" y="684.2" fill="#353535" width="66.3" height="6.9"/>
				</g>
			</g>
		</g>
	</g>
</g>
<g display="none">
	<g display="inline">
		<path fill="#F2ECE9" d="M2644.6,2002.6c1.9,0,1.9-3,0-3C2642.6,1999.6,2642.6,2002.6,2644.6,2002.6L2644.6,2002.6z"/>
	</g>
</g>
</svg>
