<?xml version="1.0" encoding="utf-8"?>
<!-- Generator: Adobe Illustrator 23.0.4, SVG Export Plug-In . SVG Version: 6.00 Build 0)  -->
<svg version="1.1" id="Layer_1" xmlns="http://www.w3.org/2000/svg" xmlns:xlink="http://www.w3.org/1999/xlink" x="0px" y="0px"
	 viewBox="0 0 228.4 296" style="enable-background:new 0 0 228.4 296;" xml:space="preserve">
<style type="text/css">
	.st0{fill:#6594F7;}
	.st1{fill:#40454F;}
	.st2{fill:#222327;}
	.st3{fill:#303542;}
	.st4{fill:#27282F;}
	.st5{fill-rule:evenodd;clip-rule:evenodd;fill:#8A2B9F;}
	.st6{fill-rule:evenodd;clip-rule:evenodd;fill:#E065B7;}
	.st7{fill:#E065B7;}
	.st8{fill:#AAD0FB;}
	.st9{fill:#5981F7;}
	.st10{fill:#8DD1FB;}
	.st11{fill:#4AA6F6;}
	.st12{fill:#76E2FD;}
	.st13{fill:#2A79ED;}
	.st14{fill:#FA749B;}
	.st15{fill:#FF8DB9;}
	.st16{fill:#DD448E;}
	.st17{fill:#76EA72;}
	.st18{fill:#AFFE5A;}
	.st19{fill:#29D763;}
	.st20{fill:#B151D0;}
	.st21{fill:#DF64B3;}
	.st22{fill:#902D9E;}
	.st23{opacity:0.7;fill:url(#SVGID_1_);enable-background:new    ;}
	.st24{fill:#4D89EB;}
	.st25{fill:#62ACF8;}
	.st26{fill:#8CD2FB;}
	.st27{fill:#2672EC;}
	.st28{fill:#76E0FC;}
	.st29{fill:#CCAA05;}
	.st30{fill:#FFE200;}
	.st31{fill:#25CE6B;}
	.st32{fill:#ABFC63;}
</style>
<title>computer-dark</title>
<g>
	<g>
		<g>
			<path class="st0" d="M190.8,183.2l-52.2-29.8c-1.7-0.9-3.6-1.3-5.5-1.3c-2.1,0-4.1,0.5-6,1.4l-18.6,10.2c-2,1.1-3.2,2.7-3.3,4.4
				c0,1.8,1,3.5,2.6,4.3l52.2,29.8c1.7,0.9,3.6,1.3,5.5,1.3c2.1,0,4.1-0.5,6-1.4l18.6-10.2c2-1.1,3.2-2.7,3.3-4.4
				C193.5,185.7,192.5,184,190.8,183.2z"/>
			<g>
				<path class="st1" d="M182.5,177.3l-37.7-21.9c-3.1-1.6-6.9-1.6-10,0l-14.4,8.5c-2.8,1.6-2.8,4.2-0.1,5.8l37.7,21.9
					c3.1,1.6,6.9,1.6,10,0l14.4-8.5C185.2,181.4,185.2,178.9,182.5,177.3z"/>
				<path class="st2" d="M182.4,183.1l-14.4,8.5c-3.1,1.6-6.9,1.6-10,0l-37.7-21.9c-1.2-0.5-1.9-1.6-2.1-2.9v2.9
					c0.1,1.3,0.9,2.4,2.1,2.9l37.7,21.9c3.1,1.6,6.9,1.6,10,0l14.4-8.4c1.2-0.5,2-1.6,2.1-2.9v-2.9
					C184.4,181.5,183.6,182.6,182.4,183.1z"/>
			</g>
			<g>
				<polygon class="st2" points="164,183.6 168.9,180.8 168.9,160.3 164,163.2 				"/>
				<polygon class="st3" points="133.7,166.1 164,183.6 164,163.2 133.7,145.6 				"/>
			</g>
			<path class="st1" d="M223.9,72.8L99,1.6c-1.3-0.7-2.4-0.8-3.2-0.3l-4.4,2.6c1-0.5,2.3-0.4,3.2,0.3l124.9,71.3
				c2.6,1.7,4.3,4.5,4.5,7.6l-0.2,109.5c0.1,1.1-0.4,2.2-1.3,2.9l4.4-2.6c0.9-0.6,1.4-1.7,1.3-2.8l0.2-109.5
				C228.3,77.5,226.6,74.5,223.9,72.8z"/>
			<path class="st4" d="M219.5,75.4L94.5,4.1C92,2.7,90,3.8,90,6.6l-0.2,109.5c0.2,3.1,1.9,6,4.5,7.7l124.9,71.3
				c2.5,1.4,4.5,0.3,4.5-2.5l0.2-109.5C223.7,80,222.1,77.2,219.5,75.4z"/>
			<polygon class="st1" points="94.8,113.2 218.8,184.1 218.8,83 94.8,12.3 			"/>
			<polygon class="st3" points="99.3,110.7 214.3,176.4 214.3,85.6 99.3,20 			"/>
			<g>
				<g>
					<polygon class="st5" points="193.1,82.2 207.8,90.5 207.8,88.5 193.1,80.2 					"/>
					<polygon class="st5" points="163.9,71.5 185.4,83.5 185.4,81.5 163.9,69.5 					"/>
					<polygon class="st5" points="188.2,85.1 195.5,89.2 195.5,87.2 188.2,83.1 					"/>
					<polygon class="st5" points="183.6,77.4 190.9,81.5 190.9,79.5 183.6,75.4 					"/>
					<polygon class="st5" points="163.9,76.4 191.8,92.1 191.8,90.1 163.9,74.4 					"/>
					<polygon class="st5" points="194.2,93.4 207.8,101.1 207.8,99.1 194.2,91.4 					"/>
					<polygon class="st5" points="138.6,121.4 151,128.4 151,126.4 138.6,119.4 					"/>
					<polygon class="st5" points="134.5,99.4 151,108.5 151,106.5 134.5,97.3 					"/>
					<polygon class="st5" points="104,87 108.8,89.7 108.8,87.7 104,85 					"/>
					<polygon class="st5" points="104,97.5 108.7,100.1 108.7,98.1 104,95.5 					"/>
					<polygon class="st5" points="163.9,81.8 174.6,87.8 174.6,85.8 163.9,79.8 					"/>
					<polygon class="st5" points="192.4,97.7 199.4,101.7 199.4,99.7 192.4,95.7 					"/>
					<polygon class="st5" points="180.2,105.8 192.7,112.8 192.7,110.8 180.2,103.8 					"/>
					<polygon class="st5" points="175.2,93.1 195.5,104.5 195.5,102.5 175.2,91.1 					"/>
					<polygon class="st5" points="163.9,91.8 185.6,103.9 185.6,101.8 163.9,89.8 					"/>
					<polygon class="st5" points="198.7,111.2 207.8,116.3 207.8,114.3 198.7,109.2 					"/>
					<polygon class="st5" points="194.8,113.3 207.8,120.6 207.8,118.6 194.8,111.3 					"/>
					<polygon class="st5" points="170.6,106 198.8,121.7 198.8,119.7 170.6,104 					"/>
					<polygon class="st5" points="163.9,106.8 182.3,117.1 182.3,115.1 163.9,104.8 					"/>
					<polygon class="st5" points="163.9,111.8 190.2,126.6 190.2,124.6 163.9,109.8 					"/>
					<polygon class="st5" points="171.2,120.8 195.9,134.6 195.9,132.6 171.2,118.8 					"/>
					<polygon class="st5" points="197.8,135.6 207.8,141.4 207.8,139.4 197.8,133.6 					"/>
					<polygon class="st5" points="192.4,138.1 207.8,146.6 207.8,144.6 192.4,136.1 					"/>
					<polygon class="st5" points="163.9,127.1 207.8,151.6 207.8,149.6 163.9,125.1 					"/>
					<polygon class="st5" points="183.8,117.9 207.8,131.3 207.8,129.3 183.8,115.9 					"/>
					<polygon class="st5" points="141.9,98.6 151,103.7 151,101.7 141.9,96.6 					"/>
					<polygon class="st5" points="104,77.8 140.3,97.8 140.3,95.7 104,75.8 					"/>
					<polygon class="st5" points="104,82.5 132.1,98.2 132.1,96.2 104,80.5 					"/>
					<polygon class="st5" points="109.6,90.2 128,100.6 128,98.6 109.6,88.2 					"/>
					<polygon class="st5" points="104,92 130.4,106.8 130.4,104.8 104,89.9 					"/>
					<polygon class="st5" points="110.6,100.9 135.3,114.8 135.3,112.8 110.6,98.9 					"/>
					<polygon class="st5" points="137.6,115.7 151,122.7 151,120.7 137.6,113.7 					"/>
					<polygon class="st5" points="130.1,116.9 137.1,120.9 137.1,118.8 130.1,114.9 					"/>
					<polygon class="st5" points="104,102.4 111.1,106.3 111.1,104.3 104,100.4 					"/>
					<polygon class="st5" points="113.8,112.8 134.1,124.2 134.1,122.2 113.8,110.8 					"/>
					<polygon class="st5" points="163.9,136.9 182.3,147.1 182.3,145.1 163.9,134.9 					"/>
					<polygon class="st5" points="185,148.7 199.2,156.6 199.2,154.6 185,146.6 					"/>
					<polygon class="st5" points="201.5,158.1 207.8,161.6 207.8,159.6 201.5,156.1 					"/>
					<polygon class="st5" points="191.5,157.4 207.8,166.2 207.8,164.2 191.5,155.3 					"/>
				</g>
				<g>
					<polygon class="st6" points="163.9,66.7 181.9,76.8 181.9,74.8 163.9,64.7 					"/>
					<polygon class="st6" points="198.7,90.9 207.8,96.1 207.8,94 198.7,88.9 					"/>
					<polygon class="st6" points="104,107.3 113.1,112.4 113.1,110.4 104,105.3 					"/>
					<polygon class="st6" points="176.6,88.9 190,96.4 190,94.4 176.6,86.9 					"/>
					<polygon class="st6" points="163.9,96.9 178.3,105 178.3,103 163.9,94.9 					"/>
					<polygon class="st6" points="188.2,105.3 195.5,109.4 195.5,107.4 188.2,103.3 					"/>
					<polygon class="st6" points="197.9,105.5 207.8,111 207.8,109 197.9,103.5 					"/>
					<polygon class="st6" points="163.9,86.5 171.4,90.8 171.4,88.8 163.9,84.5 					"/>
					<polygon class="st6" points="135.3,124.9 151,133.6 151,131.6 135.3,122.9 					"/>
					<polygon class="st6" points="192.7,127.8 207.6,136.1 207.6,134.1 192.7,125.7 					"/>
					<polygon class="st6" points="201.3,122.8 207.6,126.1 207.6,124.1 201.3,120.7 					"/>
					<polygon class="st6" points="163.9,102.5 169.1,105.3 169.1,103.3 163.9,100.4 					"/>
					<polygon class="st6" points="137.6,110.5 151,117.9 151,115.9 137.6,108.5 					"/>
					<polygon class="st6" points="163.9,122.1 190,136.7 190,134.7 163.9,120.1 					"/>
					<polygon class="st6" points="163.9,116.7 169.4,119.9 169.4,117.7 163.9,114.7 					"/>
					<polygon class="st6" points="202.2,103.2 207.8,106.4 207.8,104.2 202.2,101.2 					"/>
					<polygon class="st6" points="129.3,101 151,113.2 151,111.2 129.3,99 					"/>
					<polygon class="st6" points="131.5,107.3 136.3,110 136.3,108 131.5,105.3 					"/>
					<polygon class="st6" points="112.8,107.3 128.6,116.1 128.6,114.1 112.8,105.3 					"/>
					<g>
						<polygon class="st6" points="163.9,132.1 178.9,140.7 178.9,138.7 163.9,130.1 						"/>
						<polygon class="st6" points="180.8,141.7 207.8,156.9 207.8,154.9 180.8,139.7 						"/>
					</g>
					<polygon class="st6" points="163.8,141.8 190.3,156.7 190.3,154.7 163.8,139.8 					"/>
				</g>
				<path id="Normal_Distribution" class="st7" d="M143.9,86.8c-0.4,0-0.7,0-1.1,0.1v-0.6c-11.3-6.5-22.6-13-33.8-19.5v-0.3
					c0.3,0.2,0.5,0.3,0.8,0.5v-0.5l0.1,0.1c0.7,0.4,1.4,0.8,2.2,1.2c0.8,0.5,1.7,0.9,2.6,1.2c1,0.4,2,0.2,2.8-0.5
					c0.7-0.7,1.3-1.6,1.6-2.5c0.7-1.6,1.3-3.2,1.7-4.8c0.5-1.8,1.1-3.7,1.6-5.5c0.3-1.1,0.7-2.3,1.1-3.4c0.2-0.6,0.5-1.1,0.8-1.6
					c0.2-0.2,0.3-0.4,0.6-0.5h0.6v-0.9c-0.2-0.1-0.3-0.2-0.5-0.3l0.6-0.9c0.2,0.6,0.4,1.1,0.6,1.7c-0.2-0.1-0.3-0.2-0.5-0.3v1
					c0.3,0.3,0.6,0.7,0.8,1.1c0.3,0.5,0.5,1,0.7,1.6c0.5,1.5,0.9,3,1.2,4.5c0.6,2.8,1.2,5.5,1.8,8.3c0.5,2.3,1,4.6,1.7,7
					c0.4,1.3,0.8,2.6,1.3,3.9c0.4,0.9,0.9,1.8,1.4,2.7c0.6,0.9,1.2,1.6,2,2.3c0.7,0.6,1.5,1.1,2.2,1.6s1.6,1,2.5,1.5
					c0.1,0.1,0.1,0.1,0.1,0.2v0.4c0.4,0.2,0.8,0.5,1.2,0.7v-0.6C143.2,85.9,143.5,86.4,143.9,86.8z M125.8,76.2
					c4.6,2.6,9.1,5.3,13.7,7.9c-0.3-0.2-0.7-0.4-1-0.6c-0.6-0.4-1.2-0.8-1.8-1.3c-0.9-0.8-1.7-1.8-2.4-2.8c-0.7-1-1.2-2.1-1.6-3.3
					c-0.6-1.5-1.1-3.1-1.5-4.7c-0.7-2.6-1.2-5.1-1.8-7.7c-0.5-2.4-1-4.8-1.6-7.2c-0.3-1.2-0.6-2.4-1-3.7c-0.2-0.6-0.4-1.1-0.7-1.6
					c-0.1-0.1-0.2-0.2-0.3-0.4V76.2 M125.5,76.1c0-8.4,0-16.8,0.1-25.3c-0.1,0-0.2,0-0.3,0.1c-0.2,0.1-0.3,0.2-0.4,0.4
					c-0.3,0.5-0.6,1-0.8,1.5c-0.5,1.3-0.9,2.6-1.3,3.9c-0.5,1.8-1.1,3.7-1.6,5.5c-0.4,1.4-0.9,2.8-1.5,4.2c-0.4,1-1,1.9-1.8,2.7
					c-0.6,0.5-1.4,0.8-2.2,0.7c-0.9-0.1-1.7-0.4-2.5-0.8c-0.5-0.2-0.9-0.5-1.4-0.7C116.4,70.8,121,73.4,125.5,76.1"/>
			</g>
		</g>
		<g>
			<path class="st8" d="M160.5,215.2l-78-47c-2.6-1.4-5.5-2.1-8.5-2.1c-3.4,0-6.7,0.8-9.7,2.3l-30.6,16c-3.3,1.7-5.4,4.2-5.9,6.9
				s0.9,5.1,3.6,6.7l78,47c2.6,1.4,5.5,2.1,8.5,2.1c3.4,0,6.7-0.8,9.7-2.3l30.6-16c3.3-1.7,5.4-4.2,5.9-6.9S163.2,216.9,160.5,215.2
				z"/>
			<g>
				<polygon class="st9" points="31.4,192.8 117.8,244.3 117.8,240.4 31.4,188.6 				"/>
				<polygon class="st9" points="117.9,244.2 154.7,221.4 154.7,213.4 117.9,240.4 				"/>
				<polygon class="st0" points="31.2,188.4 117.9,240.4 154.7,213.4 68.9,161.8 				"/>
			</g>
			<g>
				<polygon class="st10" points="38.9,188.1 42.4,190.1 45.4,187.9 41.9,185.9 				"/>
				<polygon class="st10" points="42.7,185.2 46.2,187.4 48.8,185.4 49,185.4 45.6,183.2 				"/>
				<polygon class="st10" points="43.2,190.6 46.6,192.6 49.7,190.4 46.2,188.4 				"/>
				<polygon class="st10" points="46,182.9 49.5,184.9 52.3,182.9 48.9,180.8 				"/>
				<polygon class="st10" points="47,187.9 50.5,189.9 53,188.1 49.6,185.9 				"/>
				<polygon class="st10" points="47.4,193.1 51.3,195.6 54.5,193.3 50.5,190.9 				"/>
				<polygon class="st10" points="49.5,180.4 53,182.4 55.8,180.4 52.3,178.4 				"/>
				<polygon class="st10" points="50.3,185.4 53.8,187.6 56.7,185.4 53.2,183.4 				"/>
				<polygon class="st10" points="51.3,190.4 55.2,192.8 57.8,190.9 53.8,188.6 				"/>
				<polygon class="st10" points="53,177.9 56.5,179.9 59.3,177.9 55.8,175.8 				"/>
				<polygon class="st10" points="53.8,182.9 57.2,185.1 60,182.9 56.5,180.9 				"/>
				<polygon class="st10" points="54.5,188.1 58.5,190.4 61.5,188.4 57.5,185.9 				"/>
				<polygon class="st10" points="54.8,197.6 58.2,199.7 61.5,197.4 58,195.2 				"/>
				<polygon class="st10" points="56.5,175.4 60,177.5 62.5,175.7 59,173.6 				"/>
				<polygon class="st10" points="57.2,180.4 60.8,182.4 63.6,180.4 60.2,178.4 				"/>
				<polygon class="st10" points="58,185.6 57.8,185.6 61.8,188.1 64.8,185.9 64.8,185.9 60.8,183.4 				"/>
				<polygon class="st10" points="59.2,200.3 62.5,202.2 65.7,199.9 62.5,197.9 				"/>
				<polygon class="st10" points="59.5,173.2 63,175.3 66.4,172.8 62.9,170.7 				"/>
				<polygon class="st10" points="60.8,177.9 64.2,179.9 66.6,178.2 63.1,176.2 				"/>
				<polygon class="st10" points="61.5,182.9 65.4,185.4 65.5,185.4 65.6,185.2 68.1,183.4 68.4,183.2 64.4,180.9 				"/>
				<polygon class="st10" points="63,197.5 66.3,199.5 69,197.5 65.7,195.5 				"/>
				<polygon class="st10" points="63.4,202.8 66.6,204.7 69.9,202.4 66.5,200.4 				"/>
				<polygon class="st10" points="63.7,175.7 67.2,177.8 70.7,175.4 67.2,173.2 				"/>
				<polygon class="st10" points="65,180.4 68.9,182.9 71.4,181.1 67.4,178.7 				"/>
				<polygon class="st10" points="66.1,168.3 69.3,170.2 73.1,167.4 69.9,165.6 				"/>
				<polygon class="st10" points="68,178.2 72,180.6 72.4,180.4 75.4,178.2 71.4,175.8 				"/>
				<polygon class="st10" points="72.5,195.3 72.3,195.2 68.9,193.1 66.4,195 69.7,197 70,197.2 70.6,197.5 73.9,199.5 76.5,197.7 
					73.1,195.7 				"/>
				<polygon class="st10" points="70.5,171 73.5,172.8 77.3,170 74.3,168.2 				"/>
				<polygon class="st10" points="75.1,205.6 74.8,205.4 71.6,207.7 75.4,210 78.7,207.7 78.2,207.5 				"/>
				<polygon class="st10" points="76.2,192.7 75.9,192.5 75.9,192.5 75.9,192.5 75.9,192.5 76.6,192 76.6,192 76.7,191.9 
					79.3,190.1 75.9,188.1 73.3,189.9 73,190.1 71.9,191 69.6,192.6 73,194.7 73.2,194.8 73.8,195.1 77.2,197.2 80.1,195.1 
					76.7,193 				"/>
				<polygon class="st10" points="74.6,173.5 78.2,175.6 82,172.8 78.4,170.7 				"/>
				<polygon class="st10" points="74.7,200 78.4,202.2 80.9,200.4 77.3,198.2 				"/>
				<polygon class="st10" points="75.7,205.1 78.8,207 81.5,205.1 78.4,203.2 				"/>
				<polygon class="st10" points="76.5,187.6 79.9,189.6 82.6,187.8 79.2,185.6 				"/>
				<polygon class="st10" points="77.5,192.4 80.9,194.5 83.5,192.7 80.1,190.6 				"/>
				<polygon class="st10" points="78,197.7 81.6,199.9 84.6,197.7 81,195.5 				"/>
				<polygon class="st10" points="79.1,202.7 82.3,204.5 84.8,202.7 81.7,200.8 				"/>
				<polygon class="st10" points="79.2,176.2 81.2,177.4 85.1,174.7 83,173.5 				"/>
				<polygon class="st10" points="79.6,207.5 83.2,209.6 85.9,207.7 82.3,205.5 				"/>
				<polygon class="st10" points="79.6,212.6 118.2,235.8 121.4,233.4 82.8,210.2 				"/>
				<polygon class="st10" points="80.1,185.1 83.5,187.1 86.5,184.9 83.1,182.9 				"/>
				<polygon class="st10" points="80.7,190.1 84.2,192.2 86.9,190.2 83.4,188.1 				"/>
				<polygon class="st10" points="81.7,195 85.4,197.2 87.9,195.3 84.3,193.1 				"/>
				<polygon class="st10" points="82.2,178.1 85.4,179.9 89.2,177.2 86.1,175.3 				"/>
				<polygon class="st10" points="82.4,200.3 85.5,202.2 88.5,200.1 85.4,198.2 				"/>
				<polygon class="st10" points="83,205 86.6,207.1 89.1,205.3 85.5,203.2 				"/>
				<polygon class="st10" points="83.9,210.1 87.7,212.3 90.4,210.4 86.6,208.1 				"/>
				<polygon class="st10" points="84.3,187.6 87.8,189.6 90.8,187.4 87.3,185.4 				"/>
				<polygon class="st10" points="85,192.6 88.6,194.8 91.3,192.9 87.7,190.7 				"/>
				<polygon class="st10" points="86.2,197.6 89.3,199.5 91.8,197.6 88.7,195.8 				"/>
				<polygon class="st10" points="86.3,202.7 89.8,204.8 92.8,202.7 89.2,200.5 				"/>
				<polygon class="st10" points="86.4,180.6 89.6,182.4 93.4,179.6 90.2,177.8 				"/>
				<polygon class="st10" points="87.3,207.6 91.1,209.9 93.6,208 89.9,205.8 				"/>
				<polygon class="st10" points="88.4,212.8 92.2,215.1 94.9,213.1 91.1,210.8 				"/>
				<polygon class="st10" points="88.5,190.1 92.2,192.3 95.3,190 91.6,187.9 				"/>
				<polygon class="st10" points="89.4,195.3 92.5,197.2 95.2,195.2 92.1,193.3 				"/>
				<polygon class="st10" points="90,199.9 93.6,202.1 96.1,200.2 92.6,198.1 				"/>
				<polygon class="st10" points="90.6,183.1 94.2,185.1 98,182.4 94.4,180.2 				"/>
				<polygon class="st10" points="90.6,205.2 94.3,207.5 97.3,205.4 93.6,203.1 				"/>
				<polygon class="st10" points="91.8,210.3 95.6,212.6 98.2,210.7 94.4,208.5 				"/>
				<polygon class="st10" points="92.9,192.7 96.1,194.6 99.1,192.4 96,190.5 				"/>
				<polygon class="st10" points="93,215.5 96.2,217.4 98.9,215.5 95.7,213.6 				"/>
				<polygon class="st10" points="93.2,197.6 96.8,199.8 99.5,197.8 95.9,195.7 				"/>
				<polygon class="st10" points="94.3,202.5 98.1,204.8 100.6,203 96.9,200.7 				"/>
				<polygon class="st10" points="95.1,208 98.9,210.2 101.8,208.1 98.1,205.8 				"/>
				<polygon class="st10" points="95.2,185.8 98.3,187.6 102.1,184.9 99,183.1 				"/>
				<polygon class="st10" points="96.4,213 99.6,215 102.1,213.1 98.9,211.2 				"/>
				<polygon class="st10" points="96.8,195 100.4,197.2 103.4,195 99.9,192.8 				"/>
				<polygon class="st10" points="96.9,217.9 100.3,220 103,218 99.6,215.9 				"/>
				<polygon class="st10" points="97.5,200.2 101.3,202.5 104,200.5 100.2,198.3 				"/>
				<polygon class="st10" points="98.8,205.2 102.6,207.5 105.2,205.7 101.4,203.4 				"/>
				<polygon class="st10" points="99.3,188.2 102.2,190 106,187.2 103.1,185.6 				"/>
				<polygon class="st10" points="99.6,210.7 102.8,212.6 105.8,210.5 102.6,208.6 				"/>
				<polygon class="st10" points="100.4,215.4 103.8,217.5 106.3,215.6 102.9,213.6 				"/>
				<polygon class="st10" points="101.1,197.6 104.9,199.9 107.9,197.7 104.2,195.4 				"/>
				<polygon class="st10" points="101.1,220.4 104.8,222.7 107.6,220.7 103.8,218.5 				"/>
				<polygon class="st10" points="102.1,202.9 105.8,205.2 108.6,203.3 104.8,201 				"/>
				<polygon class="st10" points="103.2,190.6 106.3,192.5 110.2,189.8 107,187.9 				"/>
				<polygon class="st10" points="103.4,208 106.6,209.9 109.2,208.1 106,206.1 				"/>
				<polygon class="st10" points="103.6,213.1 107,215.1 110,213 106.6,210.9 				"/>
				<polygon class="st10" points="104.5,217.9 108.3,220.2 110.8,218.4 107.1,216.1 				"/>
				<polygon class="st10" points="105.6,200.3 109.4,202.6 112.5,200.4 108.7,198.1 				"/>
				<polygon class="st10" points="105.6,223.1 109.1,225.2 111.8,223.2 108.3,221.2 				"/>
				<polygon class="st10" points="106.6,205.7 109.8,207.6 112.5,205.6 109.3,203.7 				"/>
				<polygon class="st10" points="107.3,193.1 110.6,195 114.4,192.2 111.2,190.3 				"/>
				<polygon class="st10" points="107.4,210.4 110.8,212.4 113.3,210.6 109.9,208.5 				"/>
				<polygon class="st10" points="107.8,215.6 111.5,217.9 114.5,215.7 110.7,213.4 				"/>
				<polygon class="st10" points="109,220.6 112.5,222.7 115,220.9 111.6,218.8 				"/>
				<polygon class="st10" points="109.8,225.7 113.1,227.6 115.8,225.7 112.5,223.7 				"/>
				<polygon class="st10" points="110.2,203.1 113.4,205 116.4,202.8 113.2,200.9 				"/>
				<polygon class="st10" points="110.6,208.1 114,210.1 116.7,208.1 113.3,206.1 				"/>
				<polygon class="st10" points="111.5,212.9 115.3,215.1 117.8,213.3 114.1,211 				"/>
				<polygon class="st10" points="111.6,195.6 115.6,198 119.5,195.3 115.4,192.8 				"/>
				<polygon class="st10" points="112.3,218.3 115.7,220.4 118.7,218.2 115.3,216.2 				"/>
				<polygon class="st10" points="113.3,223.2 116.5,225.1 119,223.3 115.8,221.3 				"/>
				<polygon class="st10" points="113.8,228.1 117.1,230.1 119.9,228.1 116.5,226.1 				"/>
				<polygon class="st10" points="114.2,205.5 117.6,207.5 120.6,205.3 117.2,203.3 				"/>
				<polygon class="st10" points="114.7,210.6 118.5,212.8 121.2,210.9 117.4,208.6 				"/>
				<polygon class="st10" points="116,215.6 119.5,217.7 122.1,215.8 118.6,213.7 				"/>
				<polygon class="st10" points="116.5,220.8 119.7,222.8 122.7,220.6 119.5,218.7 				"/>
				<polygon class="st10" points="116.6,198.7 119.6,200.4 123.4,197.6 120.5,195.9 				"/>
				<polygon class="st10" points="117.3,225.6 120.6,227.6 123.1,225.8 119.8,223.8 				"/>
				<polygon class="st10" points="117.9,230.5 122,233 124.7,231 120.6,228.6 				"/>
				<polygon class="st10" points="118.3,208 122.1,210.2 125.1,208 121.4,205.8 				"/>
				<polygon class="st10" points="119.3,213.3 122.7,215.3 125.4,213.4 122,211.3 				"/>
				<polygon class="st10" points="120.3,218.1 123.5,220.1 126.1,218.2 122.8,216.3 				"/>
				<polygon class="st10" points="120.5,223.3 123.8,225.2 126.8,223.1 123.5,221.1 				"/>
				<polygon class="st10" points="120.6,201 123.8,203 127.6,200.2 124.4,198.2 				"/>
				<polygon class="st10" points="121.3,228 125.4,230.5 128,228.7 123.9,226.2 				"/>
				<polygon class="st10" points="122.8,210.7 126.3,212.8 129.3,210.6 125.9,208.5 				"/>
				<polygon class="st10" points="123.5,215.8 126.7,217.8 129.4,215.8 126.2,213.9 				"/>
				<polygon class="st10" points="124.3,220.5 127.6,222.5 130.1,220.7 126.8,218.7 				"/>
				<polygon class="st10" points="127.6,223.6 124.6,225.7 128.7,228.2 131.7,226 131.1,225.7 				"/>
				<polygon class="st10" points="124.7,203.5 128.2,205.6 132,202.8 128.5,200.7 				"/>
				<polygon class="st10" points="127.1,213.2 130.3,215.2 133.3,213 130.1,211 				"/>
				<polygon class="st10" points="127.5,218.2 130.8,220.2 133.5,218.3 130.2,216.3 				"/>
				<polygon class="st10" points="128.3,223 132.5,225.4 135,223.6 130.9,221.1 				"/>
				<polygon class="st10" points="129.2,206.2 132.4,208.1 136.2,205.3 133,203.4 				"/>
				<polygon class="st10" points="131.1,215.6 134.4,217.6 137.4,215.4 134.1,213.4 				"/>
				<polygon class="st10" points="131.6,220.7 135.7,223.1 138.4,221.2 134.3,218.7 				"/>
				<polygon class="st10" points="133.3,208.7 136.3,210.5 140.1,207.7 137.1,205.9 				"/>
				<polygon class="st10" points="135.1,218.1 139.2,220.5 142.3,218.4 138.2,215.9 				"/>
				<polygon class="st10" points="137.3,211.1 140.6,213 144.4,210.3 141.2,208.3 				"/>
				<polygon class="st10" points="141.6,213.6 145.5,216 149.3,213.2 145.4,210.9 				"/>
			</g>
		</g>
	</g>
	<g>
		<g>
			<polygon class="st11" points="138.1,225.1 138.1,255 149.6,261.7 162.9,254 162.9,224.1 			"/>
			<polygon class="st12" points="149.6,231.7 138.1,225.1 151.4,217.4 162.9,224.1 			"/>
			<polygon class="st13" points="149.6,231.7 149.6,261.7 162.9,254 162.9,224.1 			"/>
		</g>
		<g>
			<polygon class="st14" points="157,212.8 157,266.3 168.4,272.9 181.7,265.2 181.7,211.8 			"/>
			<polygon class="st15" points="168.4,219.5 157,212.8 170.2,205.1 181.7,211.8 			"/>
			<polygon class="st16" points="168.4,219.5 168.4,272.9 181.7,265.2 181.7,211.8 			"/>
		</g>
		<g>
			<polygon class="st17" points="174.1,235.9 174.1,275.9 185.6,282.5 198.9,274.9 198.9,234.8 			"/>
			<polygon class="st18" points="185.6,242.5 174.1,235.9 187.4,228.2 198.9,234.8 			"/>
			<polygon class="st19" points="185.6,242.5 185.6,282.5 198.9,274.9 198.9,234.8 			"/>
		</g>
		<g>
			<polygon class="st20" points="190.8,255.6 190.8,285.5 202.3,292.1 215.6,284.5 215.6,254.6 			"/>
			<polygon class="st21" points="202.3,262.2 190.8,255.6 204.1,247.9 215.6,254.6 			"/>
			<polygon class="st22" points="202.3,262.2 202.3,292.1 215.6,284.5 215.6,254.6 			"/>
		</g>
		
			<linearGradient id="SVGID_1_" gradientUnits="userSpaceOnUse" x1="169.8622" y1="279.1408" x2="183.6422" y2="241.5108" gradientTransform="matrix(1 0 0 1 0 2)">
			<stop  offset="0" style="stop-color:#193E8D"/>
			<stop  offset="1" style="stop-color:#71E0FD;stop-opacity:0"/>
		</linearGradient>
		<path class="st23" d="M226.1,282.5v-0.2l-0.1-16.7c0.1-0.3,0.1-0.5,0-0.8l0,0c-0.1-0.2-0.2-0.4-0.4-0.5l-71.1-41.4
			c-0.3-0.2-0.7-0.2-1,0l-23.8,13.7c-0.3,0.2-0.5,0.5-0.5,0.9l0,0v17.1l0,0c0,0.4,0.2,0.7,0.5,0.9l71.1,41.4c0.3,0.2,0.7,0.2,1,0
			l23.8-13.7C225.9,283.1,226,282.8,226.1,282.5L226.1,282.5z"/>
	</g>
	<g>
		<polygon class="st24" points="34.8,150.3 34.8,134.5 14.1,141.8 31,151.8 		"/>
		<g>
			<path class="st24" d="M38.8,148.7l15.1,8.7v9.7c4.3-2,7-4.9,7-8.2V149L38.8,148.7z"/>
			<polygon class="st25" points="38.8,148.7 38.8,158.4 53.8,167.1 53.8,157.5 			"/>
			<path class="st26" d="M60.8,149.3c0-3.5-3.1-6.6-8.1-8.7l-14,8.1l15.1,8.7C58.2,155.4,60.8,152.5,60.8,149.3z"/>
		</g>
		<path class="st25" d="M25.9,149.1c-1.4-0.8-2.9-1.2-4.5-1.2h-0.7L0,143.2l0.1,15l0,0c0,0.3-0.1,0.5-0.1,0.8
			c0,6.1,9.6,11.1,21.4,11.1c5,0.1,9.9-0.9,14.5-2.9v-15.9L25.9,149.1z"/>
		<path class="st26" d="M34.8,134.5c-4.3-1.6-8.8-2.4-13.4-2.4c-11.8,0-21.4,5-21.4,11.1s9.6,11.1,21.4,11.1c5,0.1,9.9-0.9,14.5-2.9
			l-15.1-8.7L34.8,134.5z"/>
	</g>
	<g>
		<g>
			<path class="st27" d="M74.7,86.5c-3,0.7-4.8,5.2-4.8,5.2s-1.3,18.6-6.6,15.2c-8.5-5.6-17.2-36.2-23.8-40.5
				c-5.8-3.8-10.8,9.2-10.8,9.2l53.6,59.4l2.5-1.9C87.1,115.2,81.5,85,74.7,86.5z"/>
			<path class="st28" d="M72.7,89.3c-6.7,1.2-4.3,25.1-11.7,20.4c-8.5-5.5-17.4-36.3-23.8-40.9C28.5,62.6,23,98.1,23,98.1l59.3,37
				C84.4,117.4,79.3,88.1,72.7,89.3z"/>
		</g>
		<g>
			<path class="st29" d="M71.1,117.5l-1.6,1.3c0,0-1.9,7-4.2-2.2c-1.6-6.5-4.3-25.7-8.3-34.6c-1.3-3-5.3-2.9-7.7-0.6L47.3,84
				c0,0,3.3,20.1-3.8,21.5c-4.1,0.8-6.1-10-9.4-16.2c-1.6-3.1-5-3.7-7.3-1.3l-2,2.2l-3.5,12.9l57,38.4l2.2-1.8
				c1.1-10.1,0-18.7-3.1-22.3C75.9,115.6,73.2,115.7,71.1,117.5z"/>
			<path class="st30" d="M71,118c-4.3,0.8-5.1,12.2-8,1.1c-2.2-8.3-5.9-39.5-11.9-38.4c-9.5,1.8-1.9,26-10,27.5
				c-5.7,1-7.7-20.9-14.2-19.7c-5.1,1-7.8,17.4-7.8,17.4l59,35.5C79.6,127.7,77,116.9,71,118z"/>
		</g>
		<g>
			<path class="st31" d="M68.6,129.8l-0.6,0.4c0,0-1.1,4.4-3.7,2.8c-4.3-2.6-5.7-25.7-9.8-28.5c-4.6-3.2-6.8,18.1-13.9,13.8
				c-7.5-4.6-6.9-13.5-15.9-19.3c-0.5-0.4-1.2-0.6-1.8-0.7c-2.7-0.4-6,3-7.1,5.8l-1.3,3.8l58.7,37.8l2.4-1.9c0,0,0.5-8.6-1.9-13.6
				C72.9,128.7,70.5,128.5,68.6,129.8z"/>
			<path class="st32" d="M69.6,130.1c-3-1.9-3.6,7.7-7.4,5.4c-4.3-2.5-5.9-25-9.9-27.7c-4.6-3.1-6.6,17.6-13.6,13.4
				c-7.4-4.4-6.9-13.1-15.9-18.8c-8.2-5.2-8.6,9-8.6,9l59,34.4C73.2,145.9,74.5,133.2,69.6,130.1z"/>
		</g>
	</g>
</g>
</svg>
