<?xml version="1.0" encoding="utf-8"?>
<!-- Generator: Adobe Illustrator 23.0.2, SVG Export Plug-In . SVG Version: 6.00 Build 0)  -->
<svg version="1.1" id="Layer_1" xmlns="http://www.w3.org/2000/svg" xmlns:xlink="http://www.w3.org/1999/xlink" x="0px" y="0px"
	 viewBox="0 0 229 296" enable-background="new 0 0 229 296" xml:space="preserve">
<g>
	<g>
		<g>
			<g>
				<g>
					<path fill="#DDDDDD" d="M191,183l-52.2-29.8c-1.5-0.8-3.4-1.3-5.5-1.3c-2.2,0-4.3,0.5-6,1.4l-18.6,10.2c-2,1.1-3.2,2.7-3.3,4.4
						c-0.1,1.7,0.8,3.2,2.6,4.3l52.2,29.8c1.5,0.8,3.4,1.3,5.5,1.3c2.2,0,4.3-0.5,6-1.4l18.6-10.2c2-1.1,3.2-2.7,3.3-4.4
						C193.7,185.6,192.8,184,191,183z"/>
				</g>
			</g>
			<g>
				<g>
					<g>
						<g>
							<path fill="#FFFFFF" d="M182.7,177L145,155.1c-2.8-1.6-7.2-1.6-10,0l-14.4,8.5c-2.8,1.6-2.8,4.2-0.1,5.8l37.7,21.9
								c2.7,1.6,7.2,1.6,10,0l14.4-8.5C185.4,181.2,185.4,178.6,182.7,177z"/>
						</g>
					</g>
				</g>
				<g>
					<g>
						<g>
							<path fill="#A2A2A2" d="M182.6,182.8l-14.4,8.5c-1.4,0.8-3.2,1.2-5,1.2c-1.8,0-3.6-0.4-5-1.2l-37.7-21.9
								c-1.4-0.8-2-1.8-2.1-2.9l0,2.9c0,1,0.7,2.1,2.1,2.9l37.7,21.9c1.4,0.8,3.2,1.2,5,1.2c1.8,0,3.6-0.4,5-1.2l14.4-8.5
								c1.4-0.8,2.1-1.9,2.1-2.9l0-2.9C184.7,181,184,182,182.6,182.8z"/>
						</g>
					</g>
				</g>
			</g>
			<g>
				<g enable-background="new    ">
					<g>
						<g>
							<g>
								<g>
									<polygon fill="#7A7A7A" points="164.1,183.4 169.1,180.5 169.1,160 164.1,162.9 									"/>
								</g>
							</g>
						</g>
					</g>
					<g>
						<g>
							<g>
								<g>
									<polygon fill="#303030" points="133.8,145.3 164.1,162.9 169.1,160 138.8,142.4 									"/>
								</g>
							</g>
						</g>
					</g>
					<g>
						<g>
							<g>
								<g>
									<polygon fill="#A2A2A2" points="133.8,165.8 164.1,183.4 164.1,162.9 133.8,145.3 									"/>
								</g>
							</g>
						</g>
					</g>
				</g>
			</g>
			<g>
				<g>
					<g>
						<path fill="#A2A2A2" d="M224.1,72.5L99.1,1.2c-1.3-0.7-2.4-0.8-3.2-0.3l-4.4,2.6c0.8-0.5,2-0.4,3.2,0.3l125,71.4
							c2.5,1.4,4.5,4.8,4.5,7.6l-0.2,109.6c0,1.4-0.5,2.4-1.3,2.9l4.4-2.6c0.8-0.5,1.3-1.4,1.3-2.8l0.2-109.6
							C228.6,77.3,226.6,73.9,224.1,72.5z"/>
					</g>
				</g>
			</g>
			<g>
				<g>
					<g>
						<path fill="#F5F5F5" d="M219.7,75.1L94.6,3.7c-2.5-1.4-4.5-0.3-4.5,2.5l-0.2,109.6c0,2.8,2,6.3,4.5,7.7l125,71.4
							c2.5,1.4,4.5,0.3,4.5-2.5l0.2-109.6C224.1,79.9,222.1,76.5,219.7,75.1z"/>
					</g>
				</g>
			</g>
			<g>
				<g>
					<g>
						<polygon fill="#7A7A7A" points="94.9,112.9 219,183.8 219,82.7 94.9,11.9 						"/>
					</g>
				</g>
			</g>
			<g>
				<g>
					<polygon fill="#434343" points="99.4,110.4 214.5,176.1 214.5,85.3 99.4,19.6 					"/>
				</g>
			</g>
			<g>
				<g id="XMLID_3793_">
					<g>
						<g>
							<g>
								<g>
									<polygon fill-rule="evenodd" clip-rule="evenodd" fill="#7A7A7A" points="170.5,69.2 189.1,79.6 189.1,77.6 170.5,67.2 
																			"/>
								</g>
							</g>
						</g>
					</g>
				</g>
				<g id="XMLID_3791_">
					<g>
						<g>
							<g>
								<g>
									<polygon fill-rule="evenodd" clip-rule="evenodd" fill="#5A5A5A" points="193.3,81.9 208,90.2 208,88.2 193.3,79.9 
																			"/>
								</g>
							</g>
						</g>
					</g>
				</g>
				<g id="XMLID_3789_">
					<g>
						<g>
							<g>
								<g>
									<polygon fill-rule="evenodd" clip-rule="evenodd" fill="#5A5A5A" points="163.8,71 185.6,83.2 185.6,81.2 163.8,69 
																			"/>
								</g>
							</g>
						</g>
					</g>
				</g>
				<g id="XMLID_3787_">
					<g>
						<g>
							<g>
								<g>
									<polygon fill-rule="evenodd" clip-rule="evenodd" fill="#5A5A5A" points="188.4,84.8 195.7,88.9 195.7,86.9 188.4,82.8 
																			"/>
								</g>
							</g>
						</g>
					</g>
				</g>
				<g id="XMLID_3785_">
					<g>
						<g>
							<g>
								<g>
									<polygon fill-rule="evenodd" clip-rule="evenodd" fill="#7A7A7A" points="198.9,90.6 208,95.8 208,93.7 198.9,88.6 
																			"/>
								</g>
							</g>
						</g>
					</g>
				</g>
				<g id="XMLID_22_">
					<g>
						<g>
							<g>
								<g>
									<polygon fill-rule="evenodd" clip-rule="evenodd" fill="#7A7A7A" points="103.8,106.7 112.9,111.8 112.9,109.8 
										103.8,104.7 									"/>
								</g>
							</g>
						</g>
					</g>
				</g>
				<g id="XMLID_3783_">
					<g>
						<g>
							<g>
								<g>
									<polygon fill-rule="evenodd" clip-rule="evenodd" fill="#5A5A5A" points="168.4,78.5 192,91.8 192,89.8 168.4,76.5 
																			"/>
								</g>
							</g>
						</g>
					</g>
				</g>
				<g id="XMLID_3781_">
					<g>
						<g>
							<g>
								<g>
									<polygon fill-rule="evenodd" clip-rule="evenodd" fill="#5A5A5A" points="194.4,93.1 199.2,95.8 199.2,93.8 194.4,91.1 
																			"/>
								</g>
							</g>
						</g>
					</g>
				</g>
				<g id="XMLID_21_">
					<g>
						<g>
							<g>
								<g>
									<polygon fill-rule="evenodd" clip-rule="evenodd" fill="#5A5A5A" points="141.2,121.8 146,124.5 146,122.5 141.2,119.8 
																			"/>
								</g>
							</g>
						</g>
					</g>
				</g>
				<g id="XMLID_18_">
					<g>
						<g>
							<g>
								<g>
									<polygon fill-rule="evenodd" clip-rule="evenodd" fill="#5A5A5A" points="141.2,103.4 146,106 146,104 141.2,101.3 
																			"/>
								</g>
							</g>
						</g>
					</g>
				</g>
				<g id="XMLID_20_">
					<g>
						<g>
							<g>
								<g>
									<polygon fill-rule="evenodd" clip-rule="evenodd" fill="#5A5A5A" points="103.6,86.4 108.4,89.1 108.4,87.1 103.6,84.4 
																			"/>
								</g>
							</g>
						</g>
					</g>
				</g>
				<g id="XMLID_17_">
					<g>
						<g>
							<g>
								<g>
									<polygon fill-rule="evenodd" clip-rule="evenodd" fill="#5A5A5A" points="104.1,97.2 108.8,99.8 108.8,97.8 104.1,95.2 
																			"/>
								</g>
							</g>
						</g>
					</g>
				</g>
				<g id="XMLID_3779_">
					<g>
						<g>
							<g>
								<g>
									<polygon fill-rule="evenodd" clip-rule="evenodd" fill="#5A5A5A" points="163.8,81.3 174.6,87.4 174.6,85.3 163.8,79.3 
																			"/>
								</g>
							</g>
						</g>
					</g>
				</g>
				<g id="XMLID_3777_">
					<g>
						<g>
							<g>
								<g>
									<polygon fill-rule="evenodd" clip-rule="evenodd" fill="#7A7A7A" points="176.8,88.6 190.2,96.1 190.2,94.1 176.8,86.6 
																			"/>
								</g>
							</g>
						</g>
					</g>
				</g>
				<g id="XMLID_3775_">
					<g>
						<g>
							<g>
								<g>
									<polygon fill-rule="evenodd" clip-rule="evenodd" fill="#5A5A5A" points="192.6,97.4 199.6,101.4 199.6,99.4 192.6,95.4 
																			"/>
								</g>
							</g>
						</g>
					</g>
				</g>
				<g id="XMLID_3773_">
					<g>
						<g>
							<g>
								<g>
									<polygon fill-rule="evenodd" clip-rule="evenodd" fill="#5A5A5A" points="175.4,92.8 195.7,104.2 195.7,102.2 175.4,90.8 
																			"/>
								</g>
							</g>
						</g>
					</g>
				</g>
				<g id="XMLID_3771_">
					<g>
						<g>
							<g>
								<g>
									<polygon fill-rule="evenodd" clip-rule="evenodd" fill="#7A7A7A" points="161.3,94.8 176.1,103.1 176.1,101.1 161.3,92.8 
																			"/>
								</g>
							</g>
						</g>
					</g>
				</g>
				<g id="XMLID_3769_">
					<g>
						<g>
							<g>
								<g>
									<polygon fill-rule="evenodd" clip-rule="evenodd" fill="#5A5A5A" points="163.8,91.3 185.6,103.5 185.6,101.4 163.8,89.3 
																			"/>
								</g>
							</g>
						</g>
					</g>
				</g>
				<g id="XMLID_3767_">
					<g>
						<g>
							<g>
								<g>
									<polygon fill-rule="evenodd" clip-rule="evenodd" fill="#7A7A7A" points="188.4,105 195.7,109.1 195.7,107.1 188.4,103 
																			"/>
								</g>
							</g>
						</g>
					</g>
				</g>
				<g id="XMLID_15_">
					<g>
						<g>
							<g>
								<g>
									<polygon fill-rule="evenodd" clip-rule="evenodd" fill="#7A7A7A" points="136.3,124.7 143.6,128.8 143.6,126.8 
										136.3,122.7 									"/>
								</g>
							</g>
						</g>
					</g>
				</g>
				<g id="XMLID_3765_">
					<g>
						<g>
							<g>
								<g>
									<polygon fill-rule="evenodd" clip-rule="evenodd" fill="#5A5A5A" points="198.9,110.9 208,116 208,114 198.9,108.9 
																			"/>
								</g>
							</g>
						</g>
					</g>
				</g>
				<g id="XMLID_3763_">
					<g>
						<g>
							<g>
								<g>
									<polygon fill-rule="evenodd" clip-rule="evenodd" fill="#5A5A5A" points="186.6,109 199.6,116.3 199.6,114.3 186.6,107 
																			"/>
								</g>
							</g>
						</g>
					</g>
				</g>
				<g id="XMLID_3761_">
					<g>
						<g>
							<g>
								<g>
									<polygon fill-rule="evenodd" clip-rule="evenodd" fill="#5A5A5A" points="170.8,105.7 199,121.4 199,119.4 170.8,103.7 
																			"/>
								</g>
							</g>
						</g>
					</g>
				</g>
				<g id="XMLID_3759_">
					<g>
						<g>
							<g>
								<g>
									<polygon fill-rule="evenodd" clip-rule="evenodd" fill="#5A5A5A" points="170.8,110.3 189.3,120.6 189.3,118.6 
										170.8,108.3 									"/>
								</g>
							</g>
						</g>
					</g>
				</g>
				<g id="XMLID_3757_">
					<g>
						<g>
							<g>
								<g>
									<polygon fill-rule="evenodd" clip-rule="evenodd" fill="#5A5A5A" points="165.6,112.3 192,127.1 192,125.1 165.6,110.3 
																			"/>
								</g>
							</g>
						</g>
					</g>
				</g>
				<g id="XMLID_3755_">
					<g>
						<g>
							<g>
								<g>
									<polygon fill-rule="evenodd" clip-rule="evenodd" fill="#7A7A7A" points="194.4,128.5 199.2,131.1 199.2,129.1 
										194.4,126.4 									"/>
								</g>
							</g>
						</g>
					</g>
				</g>
				<g id="XMLID_16_">
					<g>
						<g>
							<g>
								<g>
									<polygon fill-rule="evenodd" clip-rule="evenodd" fill="#7A7A7A" points="141.2,112.1 146,114.8 146,112.8 141.2,110.1 
																			"/>
								</g>
							</g>
						</g>
					</g>
				</g>
				<g id="XMLID_3753_">
					<g>
						<g>
							<g>
								<g>
									<polygon fill-rule="evenodd" clip-rule="evenodd" fill="#5A5A5A" points="172.2,121 196.9,134.8 196.9,132.8 172.2,118.9 
																			"/>
								</g>
							</g>
						</g>
					</g>
				</g>
				<g id="XMLID_3751_">
					<g>
						<g>
							<g>
								<g>
									<polygon fill-rule="evenodd" clip-rule="evenodd" fill="#5A5A5A" points="199.4,136.2 204.5,139.1 204.5,137.1 
										199.4,134.2 									"/>
								</g>
							</g>
						</g>
					</g>
				</g>
				<g id="XMLID_3749_">
					<g>
						<g>
							<g>
								<g>
									<polygon fill-rule="evenodd" clip-rule="evenodd" fill="#7A7A7A" points="176.8,128.9 190.2,136.4 190.2,134.4 
										176.8,126.9 									"/>
								</g>
							</g>
						</g>
					</g>
				</g>
				<g id="XMLID_14_">
					<g>
						<g>
							<g>
								<g>
									<polygon fill-rule="evenodd" clip-rule="evenodd" fill="#7A7A7A" points="131.4,102 144.8,109.5 144.8,107.5 131.4,100 
																			"/>
								</g>
							</g>
						</g>
					</g>
				</g>
				<g id="XMLID_3747_">
					<g>
						<g>
							<g>
								<g>
									<polygon fill-rule="evenodd" clip-rule="evenodd" fill="#5A5A5A" points="192.6,137.8 199.6,141.7 199.6,139.7 
										192.6,135.8 									"/>
								</g>
							</g>
						</g>
					</g>
				</g>
				<g id="XMLID_3745_">
					<g>
						<g>
							<g>
								<g>
									<polygon fill-rule="evenodd" clip-rule="evenodd" fill="#5A5A5A" points="175.4,133.1 195.7,144.5 195.7,142.5 
										175.4,131.1 									"/>
								</g>
							</g>
						</g>
					</g>
				</g>
				<g id="XMLID_13_">
					<g>
						<g>
							<g>
								<g>
									<polygon fill-rule="evenodd" clip-rule="evenodd" fill="#5A5A5A" points="142,98.3 151.1,103.4 151.1,101.4 142,96.3 
																			"/>
								</g>
							</g>
						</g>
					</g>
				</g>
				<g id="XMLID_12_">
					<g>
						<g>
							<g>
								<g>
									<polygon fill-rule="evenodd" clip-rule="evenodd" fill="#5A5A5A" points="125.1,88.4 138.1,95.7 138.1,93.6 125.1,86.4 
																			"/>
								</g>
							</g>
						</g>
					</g>
				</g>
				<g id="XMLID_11_">
					<g>
						<g>
							<g>
								<g>
									<polygon fill-rule="evenodd" clip-rule="evenodd" fill="#5A5A5A" points="109.3,85.1 137.4,100.8 137.4,98.8 109.3,83.1 
																			"/>
								</g>
							</g>
						</g>
					</g>
				</g>
				<g id="XMLID_10_">
					<g>
						<g>
							<g>
								<g>
									<polygon fill-rule="evenodd" clip-rule="evenodd" fill="#5A5A5A" points="109.3,89.6 127.7,100 127.7,98 109.3,87.6 
																			"/>
								</g>
							</g>
						</g>
					</g>
				</g>
				<g id="XMLID_9_">
					<g>
						<g>
							<g>
								<g>
									<polygon fill-rule="evenodd" clip-rule="evenodd" fill="#5A5A5A" points="104.1,91.7 130.5,106.5 130.5,104.5 104.1,89.6 
																			"/>
								</g>
							</g>
						</g>
					</g>
				</g>
				<g id="XMLID_8_">
					<g>
						<g>
							<g>
								<g>
									<polygon fill-rule="evenodd" clip-rule="evenodd" fill="#7A7A7A" points="132.9,107.8 137.7,110.5 137.7,108.5 
										132.9,105.8 									"/>
								</g>
							</g>
						</g>
					</g>
				</g>
				<g id="XMLID_7_">
					<g>
						<g>
							<g>
								<g>
									<polygon fill-rule="evenodd" clip-rule="evenodd" fill="#5A5A5A" points="110.7,100.3 135.4,114.2 135.4,112.2 110.7,98.3 
																			"/>
								</g>
							</g>
						</g>
					</g>
				</g>
				<g id="XMLID_6_">
					<g>
						<g>
							<g>
								<g>
									<polygon fill-rule="evenodd" clip-rule="evenodd" fill="#5A5A5A" points="137.9,115.6 143,118.4 143,116.4 137.9,113.6 
																			"/>
								</g>
							</g>
						</g>
					</g>
				</g>
				<g id="XMLID_5_">
					<g>
						<g>
							<g>
								<g>
									<polygon fill-rule="evenodd" clip-rule="evenodd" fill="#7A7A7A" points="115.2,108.3 128.7,115.8 128.7,113.8 
										115.2,106.3 									"/>
								</g>
							</g>
						</g>
					</g>
				</g>
				<g id="XMLID_4_">
					<g>
						<g>
							<g>
								<g>
									<polygon fill-rule="evenodd" clip-rule="evenodd" fill="#5A5A5A" points="131.1,117.1 138.1,121.1 138.1,119 131.1,115.1 
																			"/>
								</g>
							</g>
						</g>
					</g>
				</g>
				<g id="XMLID_19_">
					<g>
						<g>
							<g>
								<g>
									<polygon fill-rule="evenodd" clip-rule="evenodd" fill="#5A5A5A" points="107.1,103.8 114.2,107.7 114.2,105.7 
										107.1,101.8 									"/>
								</g>
							</g>
						</g>
					</g>
				</g>
				<g id="XMLID_3_">
					<g>
						<g>
							<g>
								<g>
									<polygon fill-rule="evenodd" clip-rule="evenodd" fill="#5A5A5A" points="113.9,112.5 134.2,123.9 134.2,121.9 
										113.9,110.5 									"/>
								</g>
							</g>
						</g>
					</g>
				</g>
				<g id="XMLID_3743_">
					<g>
						<g>
							<g>
								<g>
									<polygon fill-rule="evenodd" clip-rule="evenodd" fill="#7A7A7A" points="165.3,132.6 176.3,138.8 176.3,136.8 
										165.3,130.6 									"/>
								</g>
								<g>
									<polygon fill-rule="evenodd" clip-rule="evenodd" fill="#7A7A7A" points="179.1,140.4 202.4,153.5 202.4,151.5 
										179.1,138.4 									"/>
								</g>
							</g>
						</g>
					</g>
				</g>
				<g id="XMLID_3741_">
					<g>
						<g>
							<g>
								<g>
									<polygon fill-rule="evenodd" clip-rule="evenodd" fill="#5A5A5A" points="165.3,137.3 183.7,147.6 183.7,145.6 
										165.3,135.3 									"/>
								</g>
							</g>
						</g>
					</g>
				</g>
				<g id="XMLID_3739_">
					<g>
						<g>
							<g>
								<g>
									<polygon fill-rule="evenodd" clip-rule="evenodd" fill="#5A5A5A" points="192.1,152.4 198.6,156 198.6,154 192.1,150.3 
																			"/>
								</g>
							</g>
						</g>
					</g>
				</g>
				<g id="XMLID_3737_">
					<g>
						<g>
							<g>
								<g>
									<polygon fill-rule="evenodd" clip-rule="evenodd" fill="#5A5A5A" points="201.7,157.8 208,161.3 208,159.3 201.7,155.8 
																			"/>
								</g>
							</g>
						</g>
					</g>
				</g>
				<g id="XMLID_3735_">
					<g>
						<g>
							<g>
								<g>
									<polygon fill-rule="evenodd" clip-rule="evenodd" fill="#7A7A7A" points="160,139.3 186.5,154.2 186.5,152.2 160,137.3 
																			"/>
								</g>
							</g>
						</g>
					</g>
				</g>
				<g id="XMLID_3720_">
					<g>
						<g>
							<g>
								<g>
									<polygon fill-rule="evenodd" clip-rule="evenodd" fill="#5A5A5A" points="194.4,158.7 199.2,161.3 199.2,159.3 
										194.4,156.6 									"/>
								</g>
							</g>
						</g>
					</g>
				</g>
			</g>
		</g>
		<g>
			<g>
				<g>
					<path fill="#DDDDDD" d="M160.6,215l-78.1-47c-2.2-1.3-5.2-2.1-8.5-2.1c-3.5,0-6.9,0.8-9.7,2.3l-30.6,16
						c-3.3,1.7-5.4,4.2-5.9,6.9c-0.4,2.6,0.9,5.1,3.6,6.7l78.1,47c2.2,1.3,5.2,2.1,8.5,2.1c3.5,0,6.9-0.8,9.7-2.3l30.6-16
						c3.3-1.7,5.4-4.2,5.9-6.9C164.6,219.1,163.3,216.7,160.6,215z"/>
				</g>
			</g>
			<g>
				<g>
					<g>
						<g>
							<polygon fill="#7A7A7A" points="31.4,192.6 117.9,244.1 117.9,240.2 31.4,188.4 							"/>
						</g>
					</g>
				</g>
				<g>
					<g>
						<g>
							<polygon fill="#7A7A7A" points="118,244 154.8,221.2 154.8,213.2 118,240.2 							"/>
						</g>
					</g>
				</g>
				<g>
					<g>
						<g>
							<g>
								<polygon fill="#A2A2A2" points="31.2,188.2 118,240.2 154.8,213.2 69,161.5 								"/>
							</g>
						</g>
					</g>
				</g>
			</g>
			<g>
				<g>
					<g>
						<g>
							<polygon fill="#F5F5F5" points="38.9,187.8 42.4,189.9 45.4,187.7 41.9,185.6 							"/>
						</g>
					</g>
				</g>
				<g>
					<g>
						<g>
							<polygon fill="#F5F5F5" points="42.7,185 46.2,187.1 48.8,185.2 49,185.1 45.6,183 							"/>
						</g>
					</g>
				</g>
				<g>
					<g>
						<g>
							<polygon fill="#F5F5F5" points="43.2,190.4 46.6,192.4 49.7,190.2 46.2,188.2 							"/>
						</g>
					</g>
				</g>
				<g>
					<g>
						<g>
							<polygon fill="#F5F5F5" points="46,182.6 49.5,184.7 52.4,182.6 48.9,180.5 							"/>
						</g>
					</g>
				</g>
				<g>
					<g>
						<g>
							<polygon fill="#F5F5F5" points="47,187.6 50.5,189.7 53.1,187.8 49.6,185.7 							"/>
						</g>
					</g>
				</g>
				<g>
					<g>
						<g>
							<polygon fill="#F5F5F5" points="47.4,192.9 51.4,195.4 54.5,193.1 50.5,190.7 							"/>
						</g>
					</g>
				</g>
				<g>
					<g>
						<g>
							<polygon fill="#F5F5F5" points="49.5,180.1 53,182.2 55.8,180.1 52.4,178.1 							"/>
						</g>
					</g>
				</g>
				<g>
					<g>
						<g>
							<polygon fill="#F5F5F5" points="50.3,185.2 53.8,187.3 56.7,185.2 53.2,183.1 							"/>
						</g>
					</g>
				</g>
				<g>
					<g>
						<g>
							<polygon fill="#F5F5F5" points="51.3,190.2 55.3,192.6 57.9,190.7 53.9,188.3 							"/>
						</g>
					</g>
				</g>
				<g>
					<g>
						<g>
							<polygon fill="#F5F5F5" points="53,177.6 56.5,179.7 59.4,177.6 55.9,175.5 							"/>
						</g>
					</g>
				</g>
				<g>
					<g>
						<g>
							<polygon fill="#F5F5F5" points="53.8,182.7 57.3,184.8 60.1,182.7 56.6,180.6 							"/>
						</g>
					</g>
				</g>
				<g>
					<g>
						<g>
							<polygon fill="#F5F5F5" points="54.6,187.8 58.6,190.2 61.5,188.1 57.5,185.7 							"/>
						</g>
					</g>
				</g>
				<g>
					<g>
						<g>
							<polygon fill="#F5F5F5" points="54.8,197.4 58.3,199.5 61.5,197.2 58,195 							"/>
						</g>
					</g>
				</g>
				<g>
					<g>
						<g>
							<polygon fill="#F5F5F5" points="56.5,175.1 60,177.2 62.5,175.4 59,173.3 							"/>
						</g>
					</g>
				</g>
				<g>
					<g>
						<g>
							<polygon fill="#F5F5F5" points="57.3,180.1 60.8,182.2 63.7,180.2 60.2,178.1 							"/>
						</g>
					</g>
				</g>
				<g>
					<g>
						<g>
							<polygon fill="#F5F5F5" points="58.1,185.3 57.9,185.3 61.9,187.8 64.9,185.6 64.9,185.6 60.9,183.2 							"/>
						</g>
					</g>
				</g>
				<g>
					<g>
						<g>
							<polygon fill="#F5F5F5" points="59.3,200.1 62.6,202 65.8,199.7 62.5,197.7 							"/>
						</g>
					</g>
				</g>
				<g>
					<g>
						<g>
							<polygon fill="#F5F5F5" points="59.6,172.9 63.1,175 66.5,172.5 63,170.4 							"/>
						</g>
					</g>
				</g>
				<g>
					<g>
						<g>
							<polygon fill="#F5F5F5" points="60.8,177.6 64.3,179.7 66.7,178 63.2,175.9 							"/>
						</g>
					</g>
				</g>
				<g>
					<g>
						<g>
							<polygon fill="#F5F5F5" points="61.6,182.7 65.5,185.1 65.6,185.1 65.7,185 68.2,183.2 68.5,183 64.5,180.6 							"/>
						</g>
					</g>
				</g>
				<g>
					<g>
						<g>
							<polygon fill="#F5F5F5" points="63.1,197.3 66.4,199.3 69.1,197.3 65.8,195.3 							"/>
						</g>
					</g>
				</g>
				<g>
					<g>
						<g>
							<polygon fill="#F5F5F5" points="63.5,202.6 66.7,204.5 70,202.2 66.6,200.2 							"/>
						</g>
					</g>
				</g>
				<g>
					<g>
						<g>
							<polygon fill="#F5F5F5" points="63.8,175.4 67.3,177.5 70.8,175.1 67.3,172.9 							"/>
						</g>
					</g>
				</g>
				<g>
					<g>
						<g>
							<polygon fill="#F5F5F5" points="65.1,180.2 69,182.6 71.5,180.8 67.5,178.4 							"/>
						</g>
					</g>
				</g>
				<g>
					<g>
						<g>
							<polygon fill="#F5F5F5" points="66.2,168 69.4,169.9 73.2,167.1 70,165.3 							"/>
						</g>
					</g>
				</g>
				<g>
					<g>
						<g>
							<polygon fill="#F5F5F5" points="68.1,178 72.1,180.4 72.5,180.1 75.5,177.9 71.5,175.5 							"/>
						</g>
					</g>
				</g>
				<g>
					<g>
						<g>
							<polygon fill="#F5F5F5" points="72.6,195.1 72.4,195 69,192.9 66.5,194.8 69.8,196.8 70.1,197 70.7,197.3 74,199.3 
								76.6,197.5 73.2,195.5 							"/>
						</g>
					</g>
				</g>
				<g>
					<g>
						<g>
							<polygon fill="#F5F5F5" points="70.6,170.7 73.6,172.5 77.4,169.7 74.4,167.9 							"/>
						</g>
					</g>
				</g>
				<g>
					<g>
						<g>
							<polygon fill="#F5F5F5" points="75.2,205.4 74.9,205.2 71.7,207.5 75.5,209.8 78.8,207.5 78.3,207.3 							"/>
						</g>
					</g>
				</g>
				<g>
					<g>
						<g>
							<polygon fill="#F5F5F5" points="76.3,192.5 76,192.3 76,192.3 76,192.3 76,192.3 76.7,191.8 76.7,191.8 76.8,191.7 
								79.4,189.9 76,187.9 73.4,189.7 73.1,189.9 72,190.8 69.7,192.4 73.1,194.5 73.3,194.6 73.9,194.9 77.3,197 80.2,194.9 
								76.8,192.8 							"/>
						</g>
					</g>
				</g>
				<g>
					<g>
						<g>
							<polygon fill="#F5F5F5" points="74.7,173.2 78.3,175.3 82.1,172.5 78.5,170.4 							"/>
						</g>
					</g>
				</g>
				<g>
					<g>
						<g>
							<polygon fill="#F5F5F5" points="74.8,199.8 78.5,202 81,200.2 77.4,198 							"/>
						</g>
					</g>
				</g>
				<g>
					<g>
						<g>
							<polygon fill="#F5F5F5" points="75.8,204.9 78.9,206.8 81.6,204.9 78.5,203 							"/>
						</g>
					</g>
				</g>
				<g>
					<g>
						<g>
							<polygon fill="#F5F5F5" points="76.6,187.4 80,189.4 82.7,187.5 79.3,185.4 							"/>
						</g>
					</g>
				</g>
				<g>
					<g>
						<g>
							<polygon fill="#F5F5F5" points="77.6,192.2 81,194.3 83.6,192.5 80.2,190.4 							"/>
						</g>
					</g>
				</g>
				<g>
					<g>
						<g>
							<polygon fill="#F5F5F5" points="78.1,197.5 81.7,199.7 84.7,197.5 81.1,195.3 							"/>
						</g>
					</g>
				</g>
				<g>
					<g>
						<g>
							<polygon fill="#F5F5F5" points="79.2,202.5 82.4,204.3 84.9,202.5 81.8,200.6 							"/>
						</g>
					</g>
				</g>
				<g>
					<g>
						<g>
							<polygon fill="#F5F5F5" points="79.3,175.9 81.3,177.1 85.2,174.4 83.1,173.2 							"/>
						</g>
					</g>
				</g>
				<g>
					<g>
						<g>
							<polygon fill="#F5F5F5" points="79.7,207.3 83.3,209.4 86,207.5 82.4,205.3 							"/>
						</g>
					</g>
				</g>
				<g>
					<g>
						<g>
							<polygon fill="#F5F5F5" points="79.7,212.4 118.3,235.6 121.5,233.2 82.9,210 							"/>
						</g>
					</g>
				</g>
				<g>
					<g>
						<g>
							<polygon fill="#F5F5F5" points="80.2,184.8 83.6,186.8 86.6,184.6 83.2,182.6 							"/>
						</g>
					</g>
				</g>
				<g>
					<g>
						<g>
							<polygon fill="#F5F5F5" points="80.8,189.9 84.3,192 87,190 83.5,187.9 							"/>
						</g>
					</g>
				</g>
				<g>
					<g>
						<g>
							<polygon fill="#F5F5F5" points="81.8,194.8 85.5,197 88,195.1 84.4,192.9 							"/>
						</g>
					</g>
				</g>
				<g>
					<g>
						<g>
							<polygon fill="#F5F5F5" points="82.3,177.8 85.5,179.6 89.3,176.9 86.2,175 							"/>
						</g>
					</g>
				</g>
				<g>
					<g>
						<g>
							<polygon fill="#F5F5F5" points="82.5,200.1 85.6,202 88.6,199.9 85.5,198 							"/>
						</g>
					</g>
				</g>
				<g>
					<g>
						<g>
							<polygon fill="#F5F5F5" points="83.1,204.8 86.7,206.9 89.2,205.1 85.6,203 							"/>
						</g>
					</g>
				</g>
				<g>
					<g>
						<g>
							<polygon fill="#F5F5F5" points="84,209.9 87.8,212.1 90.5,210.2 86.7,207.9 							"/>
						</g>
					</g>
				</g>
				<g>
					<g>
						<g>
							<polygon fill="#F5F5F5" points="84.4,187.3 87.9,189.4 90.9,187.2 87.4,185.1 							"/>
						</g>
					</g>
				</g>
				<g>
					<g>
						<g>
							<polygon fill="#F5F5F5" points="85.1,192.4 88.7,194.6 91.4,192.7 87.8,190.5 							"/>
						</g>
					</g>
				</g>
				<g>
					<g>
						<g>
							<polygon fill="#F5F5F5" points="86.3,197.4 89.4,199.3 91.9,197.4 88.8,195.6 							"/>
						</g>
					</g>
				</g>
				<g>
					<g>
						<g>
							<polygon fill="#F5F5F5" points="86.4,202.5 89.9,204.6 92.9,202.5 89.3,200.3 							"/>
						</g>
					</g>
				</g>
				<g>
					<g>
						<g>
							<polygon fill="#F5F5F5" points="86.5,180.3 89.7,182.2 93.5,179.4 90.3,177.5 							"/>
						</g>
					</g>
				</g>
				<g>
					<g>
						<g>
							<polygon fill="#F5F5F5" points="87.4,207.4 91.2,209.7 93.7,207.8 90,205.6 							"/>
						</g>
					</g>
				</g>
				<g>
					<g>
						<g>
							<polygon fill="#F5F5F5" points="88.5,212.6 92.3,214.9 95,212.9 91.2,210.6 							"/>
						</g>
					</g>
				</g>
				<g>
					<g>
						<g>
							<polygon fill="#F5F5F5" points="88.6,189.9 92.3,192.1 95.4,189.8 91.7,187.7 							"/>
						</g>
					</g>
				</g>
				<g>
					<g>
						<g>
							<polygon fill="#F5F5F5" points="89.5,195.1 92.6,197 95.3,195 92.2,193.1 							"/>
						</g>
					</g>
				</g>
				<g>
					<g>
						<g>
							<polygon fill="#F5F5F5" points="90.1,199.7 93.7,201.9 96.2,200 92.7,197.9 							"/>
						</g>
					</g>
				</g>
				<g>
					<g>
						<g>
							<polygon fill="#F5F5F5" points="90.7,182.8 94.3,184.9 98.1,182.2 94.5,180 							"/>
						</g>
					</g>
				</g>
				<g>
					<g>
						<g>
							<polygon fill="#F5F5F5" points="90.7,205 94.4,207.3 97.4,205.2 93.7,202.9 							"/>
						</g>
					</g>
				</g>
				<g>
					<g>
						<g>
							<polygon fill="#F5F5F5" points="91.9,210.1 95.7,212.4 98.3,210.5 94.5,208.3 							"/>
						</g>
					</g>
				</g>
				<g>
					<g>
						<g>
							<polygon fill="#F5F5F5" points="93,192.5 96.2,194.4 99.2,192.2 96.1,190.3 							"/>
						</g>
					</g>
				</g>
				<g>
					<g>
						<g>
							<polygon fill="#F5F5F5" points="93.1,215.3 96.3,217.2 99,215.3 95.8,213.4 							"/>
						</g>
					</g>
				</g>
				<g>
					<g>
						<g>
							<polygon fill="#F5F5F5" points="93.3,197.4 96.9,199.6 99.6,197.6 96,195.5 							"/>
						</g>
					</g>
				</g>
				<g>
					<g>
						<g>
							<polygon fill="#F5F5F5" points="94.4,202.3 98.2,204.6 100.7,202.8 97,200.5 							"/>
						</g>
					</g>
				</g>
				<g>
					<g>
						<g>
							<polygon fill="#F5F5F5" points="95.2,207.8 99,210 101.9,207.9 98.2,205.6 							"/>
						</g>
					</g>
				</g>
				<g>
					<g>
						<g>
							<polygon fill="#F5F5F5" points="95.3,185.5 98.4,187.4 102.2,184.6 99.1,182.8 							"/>
						</g>
					</g>
				</g>
				<g>
					<g>
						<g>
							<polygon fill="#F5F5F5" points="96.5,212.8 99.7,214.8 102.2,212.9 99,211 							"/>
						</g>
					</g>
				</g>
				<g>
					<g>
						<g>
							<polygon fill="#F5F5F5" points="96.9,194.8 100.5,197 103.5,194.8 100,192.6 							"/>
						</g>
					</g>
				</g>
				<g>
					<g>
						<g>
							<polygon fill="#F5F5F5" points="97,217.7 100.4,219.8 103.1,217.8 99.7,215.7 							"/>
						</g>
					</g>
				</g>
				<g>
					<g>
						<g>
							<polygon fill="#F5F5F5" points="97.6,200 101.4,202.3 104.1,200.3 100.3,198.1 							"/>
						</g>
					</g>
				</g>
				<g>
					<g>
						<g>
							<polygon fill="#F5F5F5" points="98.9,205 102.7,207.3 105.3,205.5 101.5,203.2 							"/>
						</g>
					</g>
				</g>
				<g>
					<g>
						<g>
							<polygon fill="#F5F5F5" points="99.4,188 102.3,189.8 106.1,187 103.2,185.3 							"/>
						</g>
					</g>
				</g>
				<g>
					<g>
						<g>
							<polygon fill="#F5F5F5" points="99.7,210.5 102.9,212.4 105.9,210.3 102.7,208.4 							"/>
						</g>
					</g>
				</g>
				<g>
					<g>
						<g>
							<polygon fill="#F5F5F5" points="100.5,215.2 103.9,217.3 106.4,215.4 103,213.4 							"/>
						</g>
					</g>
				</g>
				<g>
					<g>
						<g>
							<polygon fill="#F5F5F5" points="101.2,197.4 105,199.7 108,197.5 104.3,195.2 							"/>
						</g>
					</g>
				</g>
				<g>
					<g>
						<g>
							<polygon fill="#F5F5F5" points="101.2,220.2 104.9,222.5 107.7,220.5 103.9,218.3 							"/>
						</g>
					</g>
				</g>
				<g>
					<g>
						<g>
							<polygon fill="#F5F5F5" points="102.2,202.7 105.9,205 108.7,203.1 104.9,200.8 							"/>
						</g>
					</g>
				</g>
				<g>
					<g>
						<g>
							<polygon fill="#F5F5F5" points="103.3,190.4 106.4,192.3 110.3,189.5 107.1,187.6 							"/>
						</g>
					</g>
				</g>
				<g>
					<g>
						<g>
							<polygon fill="#F5F5F5" points="103.5,207.8 106.7,209.7 109.3,207.9 106.1,205.9 							"/>
						</g>
					</g>
				</g>
				<g>
					<g>
						<g>
							<polygon fill="#F5F5F5" points="103.7,212.9 107.1,214.9 110.1,212.8 106.7,210.7 							"/>
						</g>
					</g>
				</g>
				<g>
					<g>
						<g>
							<polygon fill="#F5F5F5" points="104.6,217.7 108.4,220 110.9,218.2 107.2,215.9 							"/>
						</g>
					</g>
				</g>
				<g>
					<g>
						<g>
							<polygon fill="#F5F5F5" points="105.7,200.1 109.5,202.4 112.6,200.2 108.8,197.9 							"/>
						</g>
					</g>
				</g>
				<g>
					<g>
						<g>
							<polygon fill="#F5F5F5" points="105.7,222.9 109.2,225 111.9,223 108.4,221 							"/>
						</g>
					</g>
				</g>
				<g>
					<g>
						<g>
							<polygon fill="#F5F5F5" points="106.7,205.5 109.9,207.4 112.6,205.4 109.4,203.5 							"/>
						</g>
					</g>
				</g>
				<g>
					<g>
						<g>
							<polygon fill="#F5F5F5" points="107.4,192.9 110.7,194.8 114.5,192 111.3,190.1 							"/>
						</g>
					</g>
				</g>
				<g>
					<g>
						<g>
							<polygon fill="#F5F5F5" points="107.5,210.2 110.9,212.2 113.4,210.4 110,208.3 							"/>
						</g>
					</g>
				</g>
				<g>
					<g>
						<g>
							<polygon fill="#F5F5F5" points="107.9,215.4 111.6,217.7 114.6,215.5 110.8,213.2 							"/>
						</g>
					</g>
				</g>
				<g>
					<g>
						<g>
							<polygon fill="#F5F5F5" points="109.1,220.4 112.6,222.5 115.1,220.7 111.7,218.6 							"/>
						</g>
					</g>
				</g>
				<g>
					<g>
						<g>
							<polygon fill="#F5F5F5" points="109.9,225.5 113.2,227.4 115.9,225.5 112.6,223.5 							"/>
						</g>
					</g>
				</g>
				<g>
					<g>
						<g>
							<polygon fill="#F5F5F5" points="110.3,202.9 113.5,204.8 116.5,202.6 113.3,200.7 							"/>
						</g>
					</g>
				</g>
				<g>
					<g>
						<g>
							<polygon fill="#F5F5F5" points="110.7,207.9 114.1,209.9 116.8,207.9 113.4,205.9 							"/>
						</g>
					</g>
				</g>
				<g>
					<g>
						<g>
							<polygon fill="#F5F5F5" points="111.6,212.7 115.4,214.9 117.9,213.1 114.2,210.8 							"/>
						</g>
					</g>
				</g>
				<g>
					<g>
						<g>
							<polygon fill="#F5F5F5" points="111.7,195.4 115.7,197.8 119.6,195.1 115.5,192.6 							"/>
						</g>
					</g>
				</g>
				<g>
					<g>
						<g>
							<polygon fill="#F5F5F5" points="112.4,218.1 115.8,220.2 118.8,218 115.4,216 							"/>
						</g>
					</g>
				</g>
				<g>
					<g>
						<g>
							<polygon fill="#F5F5F5" points="113.4,223 116.6,224.9 119.1,223.1 115.9,221.1 							"/>
						</g>
					</g>
				</g>
				<g>
					<g>
						<g>
							<polygon fill="#F5F5F5" points="113.9,227.9 117.2,229.9 120,227.9 116.6,225.9 							"/>
						</g>
					</g>
				</g>
				<g>
					<g>
						<g>
							<polygon fill="#F5F5F5" points="114.3,205.3 117.7,207.3 120.7,205.1 117.3,203.1 							"/>
						</g>
					</g>
				</g>
				<g>
					<g>
						<g>
							<polygon fill="#F5F5F5" points="114.8,210.4 118.6,212.6 121.3,210.7 117.5,208.4 							"/>
						</g>
					</g>
				</g>
				<g>
					<g>
						<g>
							<polygon fill="#F5F5F5" points="116.1,215.4 119.6,217.5 122.2,215.6 118.7,213.5 							"/>
						</g>
					</g>
				</g>
				<g>
					<g>
						<g>
							<polygon fill="#F5F5F5" points="116.6,220.6 119.8,222.6 122.8,220.4 119.6,218.5 							"/>
						</g>
					</g>
				</g>
				<g>
					<g>
						<g>
							<polygon fill="#F5F5F5" points="116.7,198.5 119.7,200.2 123.5,197.4 120.6,195.7 							"/>
						</g>
					</g>
				</g>
				<g>
					<g>
						<g>
							<polygon fill="#F5F5F5" points="117.4,225.4 120.7,227.4 123.2,225.6 119.9,223.6 							"/>
						</g>
					</g>
				</g>
				<g>
					<g>
						<g>
							<polygon fill="#F5F5F5" points="118,230.3 122.1,232.8 124.8,230.8 120.7,228.4 							"/>
						</g>
					</g>
				</g>
				<g>
					<g>
						<g>
							<polygon fill="#F5F5F5" points="118.4,207.8 122.2,210 125.2,207.8 121.5,205.6 							"/>
						</g>
					</g>
				</g>
				<g>
					<g>
						<g>
							<polygon fill="#F5F5F5" points="119.4,213.1 122.8,215.1 125.5,213.2 122.1,211.1 							"/>
						</g>
					</g>
				</g>
				<g>
					<g>
						<g>
							<polygon fill="#F5F5F5" points="120.4,217.9 123.6,219.9 126.2,218 122.9,216.1 							"/>
						</g>
					</g>
				</g>
				<g>
					<g>
						<g>
							<polygon fill="#F5F5F5" points="120.6,223.1 123.9,225 126.9,222.9 123.6,220.9 							"/>
						</g>
					</g>
				</g>
				<g>
					<g>
						<g>
							<polygon fill="#F5F5F5" points="120.7,200.8 123.9,202.8 127.7,200 124.5,198 							"/>
						</g>
					</g>
				</g>
				<g>
					<g>
						<g>
							<polygon fill="#F5F5F5" points="121.4,227.8 125.5,230.3 128.1,228.5 124,226 							"/>
						</g>
					</g>
				</g>
				<g>
					<g>
						<g>
							<polygon fill="#F5F5F5" points="122.9,210.5 126.4,212.6 129.4,210.4 126,208.3 							"/>
						</g>
					</g>
				</g>
				<g>
					<g>
						<g>
							<polygon fill="#F5F5F5" points="123.6,215.6 126.8,217.6 129.5,215.6 126.3,213.7 							"/>
						</g>
					</g>
				</g>
				<g>
					<g>
						<g>
							<polygon fill="#F5F5F5" points="124.4,220.3 127.7,222.3 130.2,220.5 126.9,218.5 							"/>
						</g>
					</g>
				</g>
				<g>
					<g>
						<g>
							<polygon fill="#F5F5F5" points="127.7,223.4 124.7,225.5 128.8,228 131.8,225.8 131.2,225.5 							"/>
						</g>
					</g>
				</g>
				<g>
					<g>
						<g>
							<polygon fill="#F5F5F5" points="124.8,203.3 128.3,205.4 132.1,202.6 128.6,200.5 							"/>
						</g>
					</g>
				</g>
				<g>
					<g>
						<g>
							<polygon fill="#F5F5F5" points="127.2,213 130.4,215 133.4,212.8 130.2,210.8 							"/>
						</g>
					</g>
				</g>
				<g>
					<g>
						<g>
							<polygon fill="#F5F5F5" points="127.6,218 130.9,220 133.6,218.1 130.3,216.1 							"/>
						</g>
					</g>
				</g>
				<g>
					<g>
						<g>
							<polygon fill="#F5F5F5" points="128.4,222.8 132.6,225.2 135.1,223.4 131,220.9 							"/>
						</g>
					</g>
				</g>
				<g>
					<g>
						<g>
							<polygon fill="#F5F5F5" points="129.3,206 132.5,207.9 136.3,205.1 133.1,203.2 							"/>
						</g>
					</g>
				</g>
				<g>
					<g>
						<g>
							<polygon fill="#F5F5F5" points="131.2,215.4 134.5,217.4 137.5,215.2 134.2,213.2 							"/>
						</g>
					</g>
				</g>
				<g>
					<g>
						<g>
							<polygon fill="#F5F5F5" points="131.7,220.5 135.8,222.9 138.5,221 134.4,218.5 							"/>
						</g>
					</g>
				</g>
				<g>
					<g>
						<g>
							<polygon fill="#F5F5F5" points="133.4,208.5 136.4,210.3 140.2,207.5 137.2,205.7 							"/>
						</g>
					</g>
				</g>
				<g>
					<g>
						<g>
							<polygon fill="#F5F5F5" points="135.2,217.9 139.3,220.3 142.4,218.2 138.3,215.7 							"/>
						</g>
					</g>
				</g>
				<g>
					<g>
						<g>
							<polygon fill="#F5F5F5" points="137.4,210.9 140.7,212.8 144.5,210.1 141.3,208.1 							"/>
						</g>
					</g>
				</g>
				<g>
					<g>
						<g>
							<polygon fill="#F5F5F5" points="141.7,213.4 145.6,215.8 149.4,213 145.5,210.7 							"/>
						</g>
					</g>
				</g>
			</g>
		</g>
	</g>
</g>
<g>
	<g>
		<polygon fill="#ACACAC" points="138.2,224.9 138.2,254.8 149.7,261.5 163,253.8 163,223.9 		"/>
		<polygon fill="#C4C4C4" points="149.7,231.5 138.2,224.9 151.5,217.2 163,223.9 		"/>
		<polygon fill="#949494" points="149.7,231.5 149.7,261.5 163,253.8 163,223.9 		"/>
	</g>
	<g>
		<polygon fill="#959595" points="157.1,212.6 157.1,266.1 168.6,272.7 181.9,265 181.9,211.6 		"/>
		<polygon fill="#ABABAB" points="168.6,219.3 157.1,212.6 170.4,204.9 181.9,211.6 		"/>
		<polygon fill="#848484" points="168.6,219.3 168.6,272.7 181.9,265 181.9,211.6 		"/>
	</g>
	<g>
		<polygon fill="#C0C0C0" points="174.3,235.7 174.3,275.7 185.8,282.3 199.1,274.7 199.1,234.6 		"/>
		<polygon fill="#D8D8D8" points="185.8,242.3 174.3,235.7 187.6,228 199.1,234.6 		"/>
		<polygon fill="#B0B0B0" points="185.8,242.3 185.8,282.3 199.1,274.7 199.1,234.6 		"/>
	</g>
	<g>
		<polygon fill="#DBDBDB" points="191,255.4 191,285.3 202.5,292 215.8,284.3 215.8,254.4 		"/>
		<polygon fill="#E9E9E9" points="202.5,262 191,255.4 204.3,247.7 215.8,254.4 		"/>
		<polygon fill="#C8C8C8" points="202.5,262 202.5,292 215.8,284.3 215.8,254.4 		"/>
	</g>
	<linearGradient id="SVGID_1_" gradientUnits="userSpaceOnUse" x1="170.0509" y1="280.988" x2="183.8378" y2="243.3262">
		<stop  offset="0" style="stop-color:#B8B8B8"/>
		<stop  offset="1" style="stop-color:#B8B8B8;stop-opacity:0"/>
	</linearGradient>
	<path opacity="0.7" fill="url(#SVGID_1_)" d="M226.3,282.3c0-0.1,0-0.1,0-0.2l-0.1-16.7c0.1-0.2,0.1-0.5,0-0.8l0,0l0,0
		c-0.1-0.2-0.2-0.3-0.4-0.5l-71.2-41.4c-0.3-0.2-0.7-0.2-1,0l-23.8,13.7c-0.3,0.2-0.5,0.5-0.5,0.9l0,0l0,17.1l0,0
		c0,0.4,0.1,0.7,0.5,0.9l71.2,41.4c0.3,0.2,0.7,0.2,1,0l23.8-13.7C226.1,282.9,226.2,282.6,226.3,282.3L226.3,282.3L226.3,282.3z"/>
</g>
<g>
	<linearGradient id="SVGID_2_" gradientUnits="userSpaceOnUse" x1="22.0158" y1="174.9308" x2="49.6263" y2="133.5151">
		<stop  offset="0" style="stop-color:#5A5A5A"/>
		<stop  offset="1" style="stop-color:#5A5A5A;stop-opacity:0"/>
	</linearGradient>
	<polygon display="none" fill="url(#SVGID_2_)" points="38.8,158.1 53.9,166.8 75.7,143.7 40.8,122.6 0,158.7 35.9,166.8 	"/>
	<polygon fill="#848484" points="34.8,150 34.8,134.2 14.1,141.5 31,151.5 	"/>
	<g>
		<path fill="#949494" d="M38.8,148.4l15.1,8.7v9.7c4.3-2,7-4.9,7-8.2v-9.9L38.8,148.4z"/>
		<polygon fill="#ACACAC" points="38.8,148.4 38.8,158.1 53.9,166.8 53.9,157.2 		"/>
		<path fill="#C4C4C4" d="M60.9,149c0-3.5-3.1-6.6-8.1-8.7l-14,8.1l15.1,8.7C58.2,155.1,60.9,152.2,60.9,149z"/>
	</g>
	<path fill="#959595" d="M25.9,148.8c-1.2-0.7-2.7-1.2-4.5-1.2c-0.2,0-0.5,0-0.7,0L0,142.9l0.1,15l0,0c0,0.3-0.1,0.5-0.1,0.8
		c0,6.1,9.6,11.1,21.4,11.1c5.6,0,10.6-1.1,14.5-2.9V151L25.9,148.8z"/>
	<path fill="#ABABAB" d="M34.8,134.2c-3.7-1.5-8.3-2.4-13.4-2.4c-11.8,0-21.4,5-21.4,11.1c0,6.1,9.6,11.1,21.4,11.1
		c5.6,0,10.6-1.1,14.5-2.9l-15.1-8.7L34.8,134.2z"/>
</g>
<g>
	<g>
		<path fill="#CECECE" d="M74.8,86.2c-3,0.7-4.8,5.2-4.8,5.2s-1.3,18.6-6.6,15.2c-8.5-5.6-17.2-36.2-23.8-40.5
			c-5.8-3.8-10.8,9.2-10.8,9.2l53.6,59.5l2.5-1.9C87.2,114.9,81.6,84.7,74.8,86.2z"/>
		<path fill="#F7F7F7" d="M72.8,89c-6.7,1.2-4.3,25.1-11.7,20.4c-8.5-5.5-17.4-36.3-23.8-40.9C28.5,62.2,23,97.8,23,97.8l59.4,37
			C84.5,117.1,79.4,87.8,72.8,89z"/>
	</g>
	<g>
		<path fill="#828282" d="M71.2,117.2l-1.6,1.3c0,0-1.9,7-4.2-2.2c-1.6-6.5-4.3-25.7-8.3-34.6c-1.3-3-5.3-2.9-7.7-0.6l-2.1,2.6
			c0,0,3.3,20.1-3.8,21.5c-4.1,0.8-6.1-10-9.4-16.2c-1.6-3.1-5-3.7-7.3-1.3l-2,2.2l-3.5,12.9l57,38.4l2.2-1.8
			c1.1-10.1,0-18.7-3.1-22.3C76,115.3,73.3,115.4,71.2,117.2z"/>
		<path fill="#B2B2B2" d="M71.1,117.7c-4.3,0.8-5.1,12.2-8,1.1c-2.2-8.3-5.9-39.5-11.9-38.4c-9.5,1.8-1.9,26-10,27.5
			c-5.7,1-7.7-20.9-14.2-19.7c-5.1,1-7.8,17.4-7.8,17.4l59.1,35.5C79.7,127.4,77.1,116.6,71.1,117.7z"/>
	</g>
	<g>
		<path fill="#888888" d="M68.7,129.5l-0.6,0.4c0,0-1.1,4.4-3.7,2.8c-4.3-2.6-5.7-25.7-9.8-28.5c-4.6-3.2-6.8,18.1-13.9,13.8
			c-7.5-4.6-6.9-13.5-15.9-19.3c-0.6-0.4-1.2-0.6-1.8-0.7c-2.7-0.4-6,3-7.1,5.8l-1.3,3.8l58.7,37.8l2.4-1.9c0,0,0.5-8.6-1.9-13.6
			C73,128.4,70.6,128.2,68.7,129.5z"/>
		<path fill="#C4C4C4" d="M69.7,129.8c-3-1.9-3.6,7.7-7.4,5.4c-4.3-2.5-5.9-25-9.9-27.7c-4.6-3.1-6.6,17.6-13.6,13.4
			c-7.4-4.4-6.9-13.1-15.9-18.8c-8.2-5.2-8.6,9-8.6,9l59.1,34.4C73.3,145.6,74.6,132.9,69.7,129.8z"/>
	</g>
</g>
<g>
	<g>
		<g>
			<path fill="#FFFFFF" d="M144,86.5c-0.4,0-0.8,0-1.1,0.1c0-0.2,0-0.4,0-0.6c-11.3-6.5-22.6-13-33.8-19.5c0-0.1,0-0.2,0-0.3
				c0.3,0.2,0.5,0.3,0.8,0.5c0-0.2,0-0.4,0-0.5l0.1,0.1c0.7,0.4,1.4,0.8,2.2,1.2c0.9,0.5,1.8,0.9,2.6,1.2c1.2,0.4,2.1,0.1,2.8-0.5
				c0.7-0.6,1.2-1.5,1.6-2.5c0.7-1.5,1.2-3.1,1.7-4.8c0.5-1.8,1.1-3.7,1.6-5.5c0.3-1.2,0.7-2.3,1.1-3.4c0.2-0.6,0.5-1.1,0.8-1.6
				c0.2-0.2,0.3-0.4,0.6-0.5c0.1,0,0.3,0,0.5,0l0.1,0c0-0.3,0-0.6,0-0.9c-0.2-0.1-0.3-0.2-0.5-0.3c0.2-0.3,0.4-0.6,0.6-0.9
				c0.2,0.6,0.4,1.1,0.6,1.7c-0.2-0.1-0.3-0.2-0.5-0.3c0,0.3,0,0.6,0,1c0.4,0.4,0.6,0.7,0.8,1.1c0.3,0.5,0.5,1.1,0.7,1.6
				c0.5,1.5,0.9,3,1.2,4.5c0.6,2.8,1.2,5.5,1.8,8.3c0.5,2.3,1,4.6,1.7,7c0.4,1.3,0.8,2.6,1.3,3.9c0.4,0.9,0.8,1.8,1.4,2.7
				c0.6,0.9,1.3,1.7,2,2.3c0.7,0.6,1.5,1.1,2.2,1.6c0.8,0.5,1.6,1,2.5,1.5c0.1,0.1,0.1,0.1,0.1,0.2c0,0.1,0,0.3,0,0.4
				c0.4,0.2,0.8,0.5,1.2,0.7c0-0.2,0-0.4,0-0.6C143.3,85.6,143.6,86.1,144,86.5z M125.9,75.9c4.6,2.6,9.1,5.3,13.7,7.9
				c-0.3-0.2-0.7-0.4-1-0.6c-0.6-0.4-1.2-0.8-1.8-1.3c-0.9-0.8-1.7-1.7-2.4-2.8c-0.7-1.1-1.2-2.2-1.6-3.3c-0.6-1.6-1.1-3.1-1.5-4.7
				c-0.7-2.6-1.2-5.1-1.8-7.7c-0.5-2.4-1-4.8-1.6-7.2c-0.3-1.2-0.6-2.4-1-3.7c-0.2-0.6-0.4-1.1-0.7-1.6c-0.1-0.1-0.2-0.2-0.3-0.4
				C125.9,59.1,125.9,67.5,125.9,75.9 M125.6,75.7c0-8.4,0-16.8,0.1-25.3c-0.1,0-0.2,0-0.3,0.1c-0.2,0.1-0.3,0.2-0.4,0.4
				c-0.3,0.4-0.6,0.9-0.8,1.5c-0.5,1.2-0.9,2.5-1.3,3.9c-0.5,1.8-1.1,3.7-1.6,5.5c-0.4,1.5-0.9,2.9-1.5,4.2c-0.5,1-1,2-1.8,2.7
				c-0.6,0.5-1.3,0.8-2.2,0.7c-0.8-0.1-1.6-0.4-2.5-0.8c-0.5-0.2-0.9-0.5-1.4-0.7C116.5,70.5,121.1,73.1,125.6,75.7"/>
		</g>
	</g>
</g>
</svg>
