<?xml version="1.0" encoding="utf-8"?>
<!-- Generator: Adobe Illustrator 23.0.2, SVG Export Plug-In . SVG Version: 6.00 Build 0)  -->
<svg version="1.1" id="Layer_1" xmlns="http://www.w3.org/2000/svg" xmlns:xlink="http://www.w3.org/1999/xlink" x="0px" y="0px"
	 viewBox="0 0 1920 1080" enable-background="new 0 0 1920 1080" xml:space="preserve">
<g>

		<linearGradient id="SVGID_1_" gradientUnits="userSpaceOnUse" x1="-5" y1="540" x2="1915" y2="540" gradientTransform="matrix(1 0 0 -1 0 1080)">
		<stop  offset="0" style="stop-color:#F16C24"/>
		<stop  offset="1" style="stop-color:#D0005D"/>
	</linearGradient>
	<rect x="-5" fill="url(#SVGID_1_)" width="1920" height="1080"/>
</g>
<g>

		<linearGradient id="SVGID_2_" gradientUnits="userSpaceOnUse" x1="73" y1="204" x2="889" y2="204" gradientTransform="matrix(1 0 0 -1 0 1080)">
		<stop  offset="0" style="stop-color:#F16C24"/>
		<stop  offset="1" style="stop-color:#D0005D"/>
	</linearGradient>
	<path fill="url(#SVGID_2_)" d="M889,1080H73c0-225.3,182.7-408,408-408S889,854.7,889,1080z"/>

		<linearGradient id="SVGID_3_" gradientUnits="userSpaceOnUse" x1="1019" y1="873" x2="1835" y2="873" gradientTransform="matrix(1 0 0 -1 0 1080)">
		<stop  offset="0" style="stop-color:#F16C24"/>
		<stop  offset="1" style="stop-color:#D0005D"/>
	</linearGradient>
	<path fill="url(#SVGID_3_)" d="M1835,3c0,225.3-182.7,408-408,408S1019,228.3,1019,3H1835z"/>
</g>
<g>
	<polygon fill="none" stroke="#FFFFFF" stroke-width="10" stroke-miterlimit="10" points="1018.9,299.6 959.8,265.5 900.8,299.6
		900.8,367.8 959.8,401.9 1018.9,367.8 	"/>
	<g enable-background="new    ">
		<path fill="#FFFFFF" d="M963.1,305.6v52.2h-7v-43.5l-10.2,4.4l-2.7-6l15.3-7.2H963.1z"/>
	</g>
</g>
<g>
	<polygon fill="none" stroke="#FFFFFF" stroke-width="10" stroke-miterlimit="10" points="1078,401.1 1018.9,367 959.8,401.1
		959.8,469.3 1018.9,503.4 1078,469.3 	"/>
	<g enable-background="new    ">
		<path fill="#FFFFFF" d="M1028.8,409.1v52.2h-7v-43.5l-10.2,4.4l-2.7-6l15.3-7.2H1028.8z"/>
	</g>
</g>
<g>
	<polygon fill="none" stroke="#FFFFFF" stroke-width="10" stroke-miterlimit="10" points="959.8,402.3 900.8,368.2 841.7,402.3
		841.7,470.5 900.8,504.6 959.8,470.5 	"/>
	<g enable-background="new    ">
		<path fill="#FFFFFF" d="M904,408.3v52.2h-7V417l-10.2,4.4l-2.7-6l15.3-7.2H904z"/>
	</g>
</g>
<g>
	<polygon fill="none" stroke="#FFFFFF" stroke-width="10" stroke-miterlimit="10" points="1138,505 1078.9,470.9 1019.8,505
		1019.8,573.2 1078.9,607.3 1138,573.2 	"/>
	<g enable-background="new    ">
		<path fill="#FFFFFF" d="M1082.2,510.9v52.2h-7v-43.5l-10.2,4.4l-2.7-6l15.3-7.2H1082.2z"/>
	</g>
</g>
<g>
	<polygon fill="none" stroke="#FFFFFF" stroke-width="10" stroke-miterlimit="10" points="1018.9,505 959.8,470.9 900.8,505
		900.8,573.2 959.8,607.3 1018.9,573.2 	"/>
	<g enable-background="new    ">
		<path fill="#FFFFFF" d="M976.5,556.4v6.7h-33.3v-7l13.5-13.7c4.5-4.6,7.7-8.1,9.4-10.4c1.7-2.3,2.6-4.7,2.6-7.3
			c0-2.3-0.9-4.2-2.7-5.9c-1.8-1.6-4.1-2.4-6.9-2.4c-2.4,0-4.5,0.7-6.2,2.1c-1.7,1.4-2.9,3.2-3.4,5.2l-6.4-2.6c1-3.2,3-5.9,5.9-8.1
			c2.9-2.2,6.3-3.3,10.2-3.3c4.7,0,8.7,1.5,11.8,4.4c3.2,2.9,4.7,6.5,4.7,10.7c0,5-2.8,10.5-8.3,16.3l-15.3,15.3H976.5z"/>
	</g>
</g>
<g>
	<polygon fill="none" stroke="#FFFFFF" stroke-width="10" stroke-miterlimit="10" points="900.8,505 841.7,470.9 782.6,505
		782.6,573.2 841.7,607.3 900.8,573.2 	"/>
	<g enable-background="new    ">
		<path fill="#FFFFFF" d="M845,510.9v52.2h-7v-43.5l-10.2,4.4l-2.7-6l15.3-7.2H845z"/>
	</g>
</g>
<g>
	<polygon fill="none" stroke="#FFFFFF" stroke-width="10" stroke-miterlimit="10" points="959.8,606.8 900.8,572.7 841.7,606.8
		841.7,675 900.8,709.1 959.8,675 	"/>
	<g enable-background="new    ">
		<path fill="#FFFFFF" d="M918.2,651.9c0,4.6-1.7,8.4-5.1,11.5c-3.4,3.1-7.5,4.6-12.5,4.6c-3.9,0-7.5-1.2-10.6-3.5
			c-3.2-2.4-5.4-5.6-6.5-9.5l6.4-2.7c0.8,2.9,2.1,5.1,4,6.7c1.9,1.6,4.1,2.3,6.7,2.3c2.8,0,5.3-0.9,7.4-2.7c2-1.8,3.1-4,3.1-6.6
			c0-2.6-1.1-4.8-3.2-6.6c-2.1-1.8-4.6-2.7-7.6-2.7h-4.5v-6.6h4c2.8,0,5.1-0.8,6.9-2.3c1.8-1.6,2.7-3.6,2.7-6.1
			c0-2.3-0.8-4.1-2.5-5.6c-1.7-1.4-3.9-2.1-6.6-2.1c-4.4,0-7.5,2.3-9.1,6.8l-6.5-2.7c1.2-3.2,3.1-5.8,5.9-7.8c2.7-2,6-3,9.7-3
			c4.6,0,8.5,1.4,11.7,4.1c3.1,2.6,4.7,6.1,4.7,10.3c0,5-2.3,8.8-7,11.2v0.3c2.7,1.2,4.9,2.9,6.5,5.1
			C917.4,646.6,918.2,649.1,918.2,651.9z"/>
	</g>
</g>
<g>
	<polygon fill="none" stroke="#FFFFFF" stroke-width="10" stroke-miterlimit="10" points="840.8,608.6 781.7,574.5 722.7,608.6
		722.7,676.8 781.7,710.9 840.8,676.8 	"/>
	<g enable-background="new    ">
		<path fill="#FFFFFF" d="M785,614.5v52.2h-7v-43.5l-10.2,4.4l-2.7-6l15.3-7.2H785z"/>
	</g>
</g>
<g>
	<polygon fill="none" stroke="#FFFFFF" stroke-width="10" stroke-miterlimit="10" points="900.8,710.4 841.7,676.3 782.6,710.4
		782.6,778.6 841.7,812.7 900.8,778.6 	"/>
	<g enable-background="new    ">
		<path fill="#FFFFFF" d="M853.4,761.4v11h-7v-11h-24.8v-5.3l24.2-35.9h7.6v34.7h6.7v6.6H853.4z M829.5,754.8h16.9v-24.4H846
			L829.5,754.8z"/>
	</g>
</g>
<g>
	<polygon fill="none" stroke="#FFFFFF" stroke-width="10" stroke-miterlimit="10" points="1018.9,711.3 959.8,677.2 900.8,711.3
		900.8,779.5 959.8,813.6 1018.9,779.5 	"/>
	<g enable-background="new    ">
		<path fill="#FFFFFF" d="M961.4,737.5c4.2,0,8,1.7,11.3,5c3.4,3.3,5,7.3,5,11.8c0,4.7-1.8,8.8-5.3,12.3c-3.6,3.5-7.8,5.2-12.5,5.2
			c-5,0-9.3-1.7-12.7-5.2c-3.5-3.5-5.2-7.6-5.2-12.3c0-4.2,1.7-9,5.1-14.4l15.2-22.7l5.6,3.9L955,738.9l0.2,0.2
			C956.7,738,958.8,737.5,961.4,737.5z M949,754.4c0,3,1,5.5,3.1,7.6c2.1,2,4.7,3.1,7.7,3.1c3.1,0,5.6-1,7.6-3.1
			c2.1-2.1,3.1-4.6,3.1-7.6c0-3-1.1-5.5-3.2-7.6c-2.1-2.1-4.6-3.1-7.6-3.1c-2.9,0-5.4,1-7.6,3.1C950.1,749,949,751.5,949,754.4z"/>
	</g>
</g>
<g>
	<polygon fill="none" stroke="#FFFFFF" stroke-width="10" stroke-miterlimit="10" points="1138,712.2 1078.9,678.1 1019.8,712.2
		1019.8,780.4 1078.9,814.5 1138,780.4 	"/>
	<g enable-background="new    ">
		<path fill="#FFFFFF" d="M1092.4,761.4v11h-7v-11h-24.8v-5.3l24.2-35.9h7.6v34.7h6.7v6.6H1092.4z M1068.5,754.8h16.9v-24.4h-0.3
			L1068.5,754.8z"/>
	</g>
</g>
<g>
	<polygon fill="none" stroke="#FFFFFF" stroke-width="10" stroke-miterlimit="10" points="1257,712.2 1197.9,678.1 1138.9,712.2
		1138.9,780.4 1197.9,814.5 1257,780.4 	"/>
	<g enable-background="new    ">
		<path fill="#FFFFFF" d="M1207.8,718.1v52.2h-7v-43.5l-10.2,4.4l-2.7-6l15.3-7.2H1207.8z"/>
	</g>
</g>
<g>
	<polygon fill="none" stroke="#FFFFFF" stroke-width="10" stroke-miterlimit="10" points="781.7,711.3 722.7,677.2 663.6,711.3
		663.6,779.5 722.7,813.6 781.7,779.5 	"/>
	<g enable-background="new    ">
		<path fill="#FFFFFF" d="M725.9,717.2v52.2h-7v-43.5l-10.2,4.4l-2.7-6l15.3-7.2H725.9z"/>
	</g>
</g>
<g>
	<polygon fill="none" stroke="#FFFFFF" stroke-width="10" stroke-miterlimit="10" points="1078,608.6 1018.9,574.5 959.8,608.6
		959.8,676.8 1018.9,710.9 1078,676.8 	"/>
	<g enable-background="new    ">
		<path fill="#FFFFFF" d="M1036.8,651.9c0,4.6-1.7,8.4-5.1,11.5c-3.4,3.1-7.5,4.6-12.5,4.6c-3.9,0-7.5-1.2-10.6-3.5
			c-3.2-2.4-5.4-5.6-6.5-9.5l6.4-2.7c0.8,2.9,2.1,5.1,4,6.7c1.9,1.6,4.1,2.3,6.7,2.3c2.8,0,5.3-0.9,7.4-2.7c2-1.8,3.1-4,3.1-6.6
			c0-2.6-1.1-4.8-3.2-6.6c-2.1-1.8-4.6-2.7-7.6-2.7h-4.5v-6.6h4c2.8,0,5.1-0.8,6.9-2.3c1.8-1.6,2.7-3.6,2.7-6.1
			c0-2.3-0.8-4.1-2.5-5.6c-1.7-1.4-3.9-2.1-6.6-2.1c-4.4,0-7.5,2.3-9.1,6.8l-6.5-2.7c1.2-3.2,3.1-5.8,5.9-7.8c2.7-2,6-3,9.7-3
			c4.6,0,8.5,1.4,11.7,4.1c3.1,2.6,4.7,6.1,4.7,10.3c0,5-2.3,8.8-7,11.2v0.3c2.7,1.2,4.9,2.9,6.5,5.1
			C1036,646.6,1036.8,649.1,1036.8,651.9z"/>
	</g>
</g>
<g>
	<polygon fill="none" stroke="#FFFFFF" stroke-width="10" stroke-miterlimit="10" points="1197.9,608.6 1138.9,574.5 1079.8,608.6
		1079.8,676.8 1138.9,710.9 1197.9,676.8 	"/>
	<g enable-background="new    ">
		<path fill="#FFFFFF" d="M1142.1,614.5v52.2h-7v-43.5l-10.2,4.4l-2.7-6l15.3-7.2H1142.1z"/>
	</g>
</g>
<g>

		<radialGradient id="SVGID_4_" cx="1553.6439" cy="841.45" r="142.1719" gradientTransform="matrix(1 0 0 -1 0 1080)" gradientUnits="userSpaceOnUse">
		<stop  offset="0" style="stop-color:#E91A00"/>
		<stop  offset="0.9294" style="stop-color:#FDD63A"/>
		<stop  offset="1" style="stop-color:#FFE53F"/>
	</radialGradient>
	<path opacity="0.6" fill="url(#SVGID_4_)" enable-background="new    " d="M1694.7,97.5L1694.7,97.5c-1.5-1.5-3.9-1.5-5.4,0
		l-20.1,20.1l-2.1,2.1l-16,16l-4.1,4.1l-5.1,5.1l0,0l-20.1,20.1l-2.1,2.1l-16,16l-4.1,4.1l-16.3,16.3l0,0l-20.1,20.1l-2.1,2.1
		l-16,16l-4.1,4.1l-13.9,13.9l0,0l-20.1,20.1l-2.1,2.1l-16,16l-4.1,4.1l-11.8,11.8l0,0l-20.1,20.1l-2.1,2.1l-16,16l-4.1,4.1
		l-18.1,18.1c-1.5,1.5-1.5,3.9,0,5.4s3.9,1.5,5.4,0l18.1-18.1l4.1-4.1l16-16l2.1-2.1l13.8-13.8l0,0l18.1-18.1l4.1-4.1l16-16l2.1-2.1
		l15.9-15.9l0,0l18.1-18.1l4.1-4.1l16-16l2.1-2.1l18.2-18.2l0,0l18.1-18.1l4.1-4.1l16-16l2.1-2.1l7.1-7.1l0,0l18.1-18.1l4.1-4.1
		l16-16l2.1-2.1l20.1-20.1C1696.2,101.5,1696.2,99,1694.7,97.5z"/>

		<radialGradient id="SVGID_5_" cx="1059.144" cy="33.2502" r="142.1718" gradientTransform="matrix(1 0 0 -1 0 1080)" gradientUnits="userSpaceOnUse">
		<stop  offset="0" style="stop-color:#E91A00"/>
		<stop  offset="0.9294" style="stop-color:#FDD63A"/>
		<stop  offset="1" style="stop-color:#FFE53F"/>
	</radialGradient>
	<path opacity="0.6" fill="url(#SVGID_5_)" enable-background="new    " d="M1200.2,905.7L1200.2,905.7c-1.5-1.5-3.9-1.5-5.4,0
		l-20.1,20.1l-2.1,2.1l-16,16l-4.1,4.1l-5.1,5.1l0,0l-20.1,20.1l-2.1,2.1l-16,16l-4.1,4.1l-16.3,16.3l0,0l-20.1,20.1l-2.1,2.1
		l-16,16l-4.1,4.1l-13.9,13.9l0,0l-20.1,20.1l-2.1,2.1l-16,16l-4.1,4.1l-11.8,11.8l0,0l-20.1,20.1l-2.1,2.1l-16,16l-4.1,4.1
		l-18.1,18.1c-1.5,1.5-1.5,3.9,0,5.4s3.9,1.5,5.4,0l18.1-18.1l4.1-4.1l16-16l2.1-2.1l13.8-13.8l0,0l18.1-18.1l4.1-4.1l16-16l2.1-2.1
		l15.9-15.9l0,0l18.1-18.1l4.1-4.1l16-16l2.1-2.1l18.2-18.2l0,0l18.1-18.1l4.1-4.1l16-16l2.1-2.1l7.1-7.1l0,0l18.1-18.1l4.1-4.1
		l16-16l2.1-2.1l20.1-20.1C1201.7,909.6,1201.7,907.2,1200.2,905.7z"/>

		<radialGradient id="SVGID_6_" cx="1778.844" cy="317.6502" r="142.1718" gradientTransform="matrix(1 0 0 -1 0 1080)" gradientUnits="userSpaceOnUse">
		<stop  offset="0" style="stop-color:#E91A00"/>
		<stop  offset="0.9294" style="stop-color:#FDD63A"/>
		<stop  offset="1" style="stop-color:#FFE53F"/>
	</radialGradient>
	<path opacity="0.6" fill="url(#SVGID_6_)" enable-background="new    " d="M1919.9,621.3L1919.9,621.3c-1.5-1.5-3.9-1.5-5.4,0
		l-20.1,20.1l-2.1,2.1l-16,16l-4.1,4.1l-5.1,5.1l0,0l-20.1,20.1l-2.1,2.1l-16,16l-4.1,4.1l-16.3,16.3l0,0l-20.1,20.1l-2.1,2.1
		l-16,16l-4.1,4.1l-13.9,13.9l0,0l-20.1,20.1l-2.1,2.1l-16,16l-4.1,4.1l-11.8,11.8l0,0l-20.1,20.1l-2.1,2.1l-16,16l-4.1,4.1
		l-18.1,18.1c-1.5,1.5-1.5,3.9,0,5.4s3.9,1.5,5.4,0l18.1-18.1l4.1-4.1l16-16l2.1-2.1l13.8-13.8l0,0l18.1-18.1l4.1-4.1l16-16l2.1-2.1
		l15.9-15.9l0,0l18.1-18.1l4.1-4.1l16-16l2.1-2.1l18.2-18.2l0,0l18.1-18.1l4.1-4.1l16-16l2.1-2.1l7.1-7.1l0,0l18.1-18.1l4.1-4.1
		l16-16l2.1-2.1l20.1-20.1C1921.4,625.2,1921.4,622.8,1919.9,621.3z"/>

		<radialGradient id="SVGID_7_" cx="898.744" cy="944.85" r="142.1719" gradientTransform="matrix(1 0 0 -1 0 1080)" gradientUnits="userSpaceOnUse">
		<stop  offset="0" style="stop-color:#E91A00"/>
		<stop  offset="0.9294" style="stop-color:#FDD63A"/>
		<stop  offset="1" style="stop-color:#FFE53F"/>
	</radialGradient>
	<path opacity="0.6" fill="url(#SVGID_7_)" enable-background="new    " d="M1039.8-5.9L1039.8-5.9c-1.5-1.5-3.9-1.5-5.4,0
		l-20.1,20.1l-2.1,2.1l-16,16l-4.1,4.1l-5.1,5.1l0,0l-20.1,20.1l-2.1,2.1l-16,16l-4.1,4.1l-16.3,16.3l0,0l-20.1,20.1l-2.1,2.1
		l-16,16l-4.1,4.1l-13.9,13.9l0,0l-20.1,20.1l-2.1,2.1l-16,16l-4.1,4.1l-11.8,11.8l0,0L798,230.5l-2.1,2.1l-16,16l-4.1,4.1
		l-18.1,18.1c-1.5,1.5-1.5,3.9,0,5.4s3.9,1.5,5.4,0l18.1-18.1l4.1-4.1l16-16l2.1-2.1l13.8-13.8l0,0l18.1-18.1l4.1-4.1l16-16l2.1-2.1
		l15.9-15.9l0,0l18.1-18.1l4.1-4.1l16-16l2.1-2.1l18.2-18.2l0,0L950,89.3l4.1-4.1l16-16l2.1-2.1l7.1-7.1l0,0l18.1-18.1l4.1-4.1
		l16-16l2.1-2.1l20.1-20.1C1041.3-2,1041.3-4.5,1039.8-5.9z"/>

		<radialGradient id="SVGID_8_" cx="156.9439" cy="203.0501" r="142.1719" gradientTransform="matrix(1 0 0 -1 0 1080)" gradientUnits="userSpaceOnUse">
		<stop  offset="0" style="stop-color:#E91A00"/>
		<stop  offset="0.9294" style="stop-color:#FDD63A"/>
		<stop  offset="1" style="stop-color:#FFE53F"/>
	</radialGradient>
	<path opacity="0.6" fill="url(#SVGID_8_)" enable-background="new    " d="M298,735.9L298,735.9c-1.5-1.5-3.9-1.5-5.4,0L272.5,756
		l-2.1,2.1l-16,16l-4.1,4.1l-5.1,5.1l0,0l-20.1,20.1l-2.1,2.1l-16,16l-4.1,4.1l-16.3,16.3l0,0L166.5,862l-2.1,2.1l-16,16l-4.1,4.1
		l-13.9,13.9l0,0l-20.1,20.1l-2.1,2.1l-16,16l-4.1,4.1l-11.8,11.8l0,0l-20.1,20.1l-2.1,2.1l-16,16l-4.1,4.1l-18.1,18.1
		c-1.5,1.5-1.5,3.9,0,5.4s3.9,1.5,5.4,0l18.1-18.1l4.1-4.1l16-16l2.1-2.1l13.8-13.8l0,0l18.1-18.1l4.1-4.1l16-16l2.1-2.1l15.9-15.9
		l0,0l18.1-18.1l4.1-4.1l16-16l2.1-2.1l18.2-18.2l0,0l18.1-18.1l4.1-4.1l16-16l2.1-2.1l7.1-7.1l0,0l18.1-18.1l4.1-4.1l16-16l2.1-2.1
		l20.1-20.1C299.5,739.8,299.5,737.3,298,735.9z"/>
</g>
</svg>
