<svg id="Layer_1" data-name="Layer 1" xmlns="http://www.w3.org/2000/svg" viewBox="0 0 90.67 83.31">
  <title>hex</title>
  <path d="M31.93,18.45H59.45a3.82,3.82,0,0,1,3.31,1.91L76.52,44.19a3.83,3.83,0,0,1,0,3.82L62.76,71.85a3.82,3.82,0,0,1-3.31,1.91H31.93a3.83,3.83,0,0,1-3.31-1.91L14.86,48a3.83,3.83,0,0,1,0-3.82L28.62,20.36a3.83,3.83,0,0,1,3.31-1.91m0-14h0A17.85,17.85,0,0,0,16.5,13.36L2.74,37.19A17.84,17.84,0,0,0,2.74,55L16.5,78.85a17.87,17.87,0,0,0,15.43,8.91H59.45a17.87,17.87,0,0,0,15.43-8.91L88.64,55a17.84,17.84,0,0,0,0-17.82L74.88,13.36A17.85,17.85,0,0,0,59.45,4.45Z" transform="translate(-0.36 -4.45)" fill="#affe5a"/>
</svg>
