<?xml version="1.0" encoding="utf-8"?>
<!-- Generator: Adobe Illustrator 23.0.3, SVG Export Plug-In . SVG Version: 6.00 Build 0)  -->
<svg version="1.1" id="Layer_1" xmlns:ev="http://www.w3.org/2001/xml-events"
	 xmlns="http://www.w3.org/2000/svg" xmlns:xlink="http://www.w3.org/1999/xlink" x="0px" y="0px" viewBox="0 0 1920 1080"
	 style="enable-background:new 0 0 1920 1080;" xml:space="preserve">
<style type="text/css">
	.st0{display:none;fill:#FFFFFF;}
	.st1{fill:url(#SVGID_1_);}
	.st2{fill:url(#SVGID_2_);}
	.st3{display:none;opacity:0.4;fill:#0EE281;enable-background:new    ;}
	.st4{display:none;opacity:0.4;fill:#00FC72;enable-background:new    ;}
	.st5{fill:url(#SVGID_3_);}
	.st6{fill:#FFFFFF;}
</style>
<title>blue green linear gradient turquoise pale green 1920x1080 #40e0d0 #98fb98 150°</title>
<desc>blue green linear gradient turquoise pale green 1920x1080 #40e0d0 #98fb98 150°</desc>
<rect x="-0.1" class="st0" width="1920" height="1078.8"/>
<linearGradient id="SVGID_1_" gradientUnits="userSpaceOnUse" x1="1584.111" y1="617.5867" x2="1583.142" y2="618.5917" gradientTransform="matrix(1920 0 0 -1080 -3039696 668022)">
	<stop  offset="0.1882" style="stop-color:#40E0D0"/>
	<stop  offset="0.8503" style="stop-color:#98FB98"/>
</linearGradient>
<rect class="st1" width="1920" height="1080"/>
<linearGradient id="SVGID_2_" gradientUnits="userSpaceOnUse" x1="1529.8071" y1="-439.6432" x2="3449.8071" y2="-439.6432" gradientTransform="matrix(-1 0 0 1 3449.8071 1236.9451)">
	<stop  offset="0" style="stop-color:#00CDD0"/>
	<stop  offset="0.5392" style="stop-color:#11E1AD;stop-opacity:0.4608"/>
	<stop  offset="1" style="stop-color:#1DEF94;stop-opacity:0"/>
</linearGradient>
<path class="st2" d="M1920,535.8c-6.9-11.3-171.9-54.7-523.1,29.9C896,686.3,483.4,1194.3,1,978.7L0,1080h1920V535.8z"/>
<circle class="st3" cx="1254.6" cy="746.2" r="164.4"/>
<circle class="st4" cx="518.5" cy="505.5" r="214.5"/>
<linearGradient id="SVGID_3_" gradientUnits="userSpaceOnUse" x1="537.8073" y1="66.9561" x2="2457.8074" y2="66.9561" gradientTransform="matrix(1 0 0 -1 -537.8073 349.6542)">
	<stop  offset="0" style="stop-color:#00CDD0"/>
	<stop  offset="0.5392" style="stop-color:#11E1AD;stop-opacity:0.4608"/>
	<stop  offset="1" style="stop-color:#1DEF94;stop-opacity:0"/>
</linearGradient>
<path class="st5" d="M0,544.2c6.9,11.3,171.9,54.7,523.1-29.9c500.8-120.6,913.5-628.7,1395.8-413L1920,0H0V544.2z"/>
<g>
	<path class="st6" d="M973.7,282.7c58.5,33.2,117.1,66.4,175.6,99.8c11.8,6.7,17.2,17.6,17.2,30.9c0.1,61.8,0.1,123.5,0,185.3
		c0,13.9-6.2,24.7-18.5,31.8c-52.1,30.2-104.2,60.4-156.3,90.7c-14.4,8.3-28.4,8.8-42.8,0c-16.3-9.9-32.8-19.5-49.2-29.3
		c-1.7-1-3.2-2.3-5.5-3.9c9.4-4.5,18-9,27-12.6c1.8-0.8,5.1,1.1,7.4,2.4c11.1,6.5,22.2,13,33.1,19.9c5,3.1,9.2,3.3,14.4,0.3
		c51.8-30.2,103.7-60.4,155.6-90.3c4.7-2.7,6.3-6.1,6.3-11.4c-0.1-60.3-0.2-120.5,0-180.8c0-5.7-1.8-9-6.7-11.9
		c-51.4-29.5-102.7-59.1-153.9-88.9c-6.1-3.6-10.7-3.5-16.9,0.1c-50.9,29.8-102.1,59.2-153.2,88.5c-5.2,3-7.2,6.4-7.2,12.4
		c0.2,60,0.2,120.1,0,180.1c0,6,1.8,9.6,7.1,12.4c13.3,7.2,26,15.5,39.5,22.3c6.2,3.1,13.5,5.1,20.4,5.3
		c10.9,0.4,19.6-8.6,20.7-19.5c0.5-4.4,0.6-8.9,0.6-13.4c0-56.1,0-112.1,0-168.2c0-10.9,0.6-11.4,11.2-11.5
		c18.5,0,16.9-1.2,16.9,16.8c0,59.5,0.2,119.1-0.2,178.6c-0.2,31.2-21.3,48-52.4,45.1c-8.9-0.8-18.2-3.4-26.2-7.4
		c-17.2-8.7-34-18.5-50.5-28.5c-9.5-5.8-14.1-15.1-14.1-26.3c0-63.7-0.1-127.5,0-191.2c0-13.2,6.8-22.3,17.9-28.7
		c42.5-24.6,84.8-49.4,127.4-73.8c15.2-8.7,30.7-16.7,46.1-25.1C967.7,282.7,970.7,282.7,973.7,282.7z"/>
	<path class="st6" d="M1016.5,418.4c14.6-0.2,30,1.2,44.7,7.3c19,7.8,28.9,22.6,32.2,42.2c1.5,9,0,10.6-9,10.6c-1,0-2-0.1-3,0
		c-10.3,1.8-16.3-1.4-19.1-12.5c-2.7-10.7-12-16.1-22.4-18.5c-16.4-3.7-32.9-4-49.3-0.1c-3.8,0.9-7.5,2.6-10.9,4.6
		c-7,4-9.5,10.6-9.2,18.2c0.3,7.9,5.7,12.1,12.6,13.7c13.5,3,27.2,5.1,40.7,7.7c15.3,2.9,30.8,5.1,45.7,9.2
		c15,4.1,27.2,12.9,29.8,29.8c3.1,20-0.6,38.1-17.9,51.2c-14,10.6-30.5,14.2-47.4,15.5c-18.5,1.4-37.1,0.7-55.3-4.2
		c-27.3-7.4-41.1-23.3-44.4-51c-0.6-5.3,1.4-7.4,6.4-7.5c1.2,0,2.5,0,3.7,0c15.9-0.1,15.9-0.1,21.4,14.3c3.2,8.4,9,14.5,17.6,17
		c23.3,6.9,46.8,7.1,70.2,0.3c7.8-2.3,13.4-7.4,15.6-15.6c3.1-11.7,0.2-19.5-11.5-22.8c-14.9-4.2-30.4-6.1-45.6-9.1
		c-14.5-2.8-29.3-4.8-43.5-8.9c-17.3-5.1-27.4-17.6-28.5-35.9c-1.1-17.4,4.7-32.1,19.7-42.4C976.8,420.1,995.8,418,1016.5,418.4z"/>
</g>
</svg>
