<?xml version="1.0" encoding="utf-8"?>
<!-- Generator: Adobe Illustrator 23.0.2, SVG Export Plug-In . SVG Version: 6.00 Build 0)  -->
<svg version="1.1" xmlns="http://www.w3.org/2000/svg" xmlns:xlink="http://www.w3.org/1999/xlink" x="0px" y="0px"
	 viewBox="0 0 1440 900" enable-background="new 0 0 1440 900" xml:space="preserve">
<g id="Background">
	<linearGradient id="SVGID_1_" gradientUnits="userSpaceOnUse" x1="243.6644" y1="-141.7798" x2="1150.3047" y2="982.6895">
		<stop  offset="0.3052" style="stop-color:#FC632C"/>
		<stop  offset="0.6432" style="stop-color:#FEA314"/>
		<stop  offset="0.8872" style="stop-color:#FFCD05"/>
	</linearGradient>
	<rect fill-rule="evenodd" clip-rule="evenodd" fill="url(#SVGID_1_)" width="1440" height="898"/>
</g>
<g id="Graphic_and_Element">
	<g>
		<path fill-rule="evenodd" clip-rule="evenodd" fill="#1EF2EC" d="M1215.6,621.5c-9.4-11.2-21.8-27.4-25.2-40.8
			c-3.3-13.3,2.5-23.7,9.6-38.7c7.1-15,15.4-34.5,14.6-48c-0.8-13.5-10.8-21-18.9-29.9c-8.1-8.9-14.3-19.3-17.5-29.1
			c-3.1-9.8-3.1-18.9,1.9-26.6c5-7.7,15-13.9,20.8-22.7c5.8-8.7,7.5-20,5.4-30.1c-2.1-10.2-7.9-19.3-12.3-28.9
			c-4.4-9.6-7.3-19.5-7.3-31.2s2.9-25,10-35.6c7.1-10.6,18.3-18.5,29.7-18.9c11.4-0.4,23.1,6.7,33.5,21.8
			c10.4,15.2,19.5,38.5,24.7,59.7c5.2,21.2,6.4,40.3,3.3,53.4c-3.1,13.1-10.6,20.2-13.9,30.2c-3.3,10-2.5,22.9,0.2,32.6
			c2.7,9.8,7.3,16.4,12.5,27.4c5.2,11,11.1,26.3,9.5,40.2c-1.7,13.9-10.9,26.5-15.7,34.6c-4.9,8.1-5.4,11.8-5.6,21.3
			c-0.2,9.6-0.1,25-2.3,36.7c-2.2,11.7-6.8,19.6-11,26.2c-4.2,6.7-7.9,12.1-11.9,15.2c-4,3.1-8.1,4-13.3,1.2
			C1231.2,639,1224.9,632.8,1215.6,621.5z"/>
		<linearGradient id="SVGID_2_" gradientUnits="userSpaceOnUse" x1="1236.2159" y1="648.6729" x2="1236.2159" y2="370.8038">
			<stop  offset="0" style="stop-color:#529DA9"/>
			<stop  offset="0.3933" style="stop-color:#48BAC1"/>
			<stop  offset="1" style="stop-color:#3AE4E2"/>
		</linearGradient>
		<path fill-rule="evenodd" clip-rule="evenodd" fill="url(#SVGID_2_)" d="M1215.6,621.5c-9.4-11.2-21.8-27.4-25.2-40.8
			c-3.3-13.3,2.5-23.7,9.6-38.7c7.1-15,15.4-34.5,14.6-48c-0.8-13.5-10.8-21-18.9-29.9c-8.1-8.9-14.3-19.3-17.5-29.1
			c-1.4-4.3-2.1-8.4-2.1-12.4c48.6-5.6,85.3-19.2,110.1-40.7c-3.6,9.5-9.3,15.8-12.1,24.2c-3.3,10-2.5,22.9,0.2,32.6
			c2.7,9.8,7.3,16.4,12.5,27.4c5.2,11,11.1,26.3,9.5,40.2c-1.7,13.9-10.9,26.5-15.7,34.6c-4.9,8.1-5.4,11.8-5.6,21.3
			c-0.2,9.6-0.1,25-2.3,36.7c-2.2,11.7-6.8,19.6-11,26.2c-4.2,6.7-7.9,12.1-11.9,15.2c-4,3.1-8.1,4-13.3,1.2
			C1231.2,639,1224.9,632.8,1215.6,621.5z"/>
		<path fill-rule="evenodd" clip-rule="evenodd" fill="#3657A6" d="M1241.9,563.6l0.1-0.4c0.5-2.3,0.9-4.1,1.3-6
			c3.2-14.7,6.4-29.3,3.8-42.2c-1.9-9-6.7-17.6-11.5-26.2l-0.1-0.2c-3-5.4-6.1-10.8-8.4-16.3c-3.2-7.5-5.3-15.4-6.2-23.3
			c-0.9-8-0.7-16,0.8-23.7c1.5-8.2,4.5-16,7.3-23.5c2.3-6.1,4.5-12.1,5.9-18.1c1.4-6.1,2-12.3,1.8-18.4c-0.2-6.8-1.2-13.5-2.7-19.8
			c-1.5-6-3.5-11.8-5.7-17.4c-2.2-5.5-4.7-11.1-7.3-16.6c-0.6-1.3,0-2.8,1.3-3.4c1.3-0.6,2.8,0,3.4,1.3c2.5,5.5,5,11,7.3,16.9
			c2.3,5.8,4.4,11.8,5.9,18c1.6,6.7,2.7,13.7,2.9,20.9c0.1,6.5-0.4,13.1-2,19.6c-1.5,6.2-3.8,12.4-6.1,18.7
			c-2.8,7.3-5.6,14.9-7,22.7c-1.3,7.1-1.6,14.6-0.7,22.1c0.9,7.4,2.8,14.8,5.8,21.9c2.3,5.4,5.2,10.6,8.2,15.8
			c0,0.1,0.1,0.1,0.1,0.2c5,9,10.1,17.9,12.1,27.7c2.9,14-0.5,29.1-3.8,44.3l-0.2,1.1C1246,560.8,1244,562.1,1241.9,563.6z"/>
		<path fill-rule="evenodd" clip-rule="evenodd" fill="#1EF2EC" d="M1257.2,640.1c-5.3-9-11.3-23.7-14.1-38.6
			c-2.8-14.9-2.4-29.9,1.4-39.4c3.8-9.5,11-13.5,19-18.9c8-5.3,16.7-12,19.6-23c2.9-11-0.1-26.3-2.4-37.6
			c-2.3-11.3-3.9-18.7-1.2-26.2c2.7-7.6,9.5-15.4,17-20.6c7.5-5.2,15.5-7.8,19.1-15.2c3.6-7.4,2.7-19.6,1.7-28.7
			c-1-9.1-2.3-15.2,0.5-20.5c2.7-5.3,9.4-9.9,17.7-14c8.3-4.1,18.3-7.7,28.5-6c10.2,1.7,20.6,8.6,26.6,21
			c6.1,12.4,7.9,30.2,4.4,41.8c-3.5,11.6-12.2,17-21.2,23.5c-9,6.5-18.1,14.2-22.4,21.5c-4.3,7.4-3.6,14.5-0.8,23.2
			c2.9,8.7,8,18.9,9.8,26.1c1.8,7.1,0.3,11.1-4.1,16c-4.4,4.8-11.6,10.5-18.8,15.4c-7.1,4.9-14.1,9.1-18.2,14.5
			c-4.1,5.5-5.3,12.2-6.2,20c-0.8,7.8-1.3,16.7-3.6,24c-2.3,7.3-6.5,13.2-13.1,22.5c-6.6,9.3-15.5,22-22.3,26.8
			C1267.2,652.3,1262.5,649.1,1257.2,640.1z"/>
		<linearGradient id="SVGID_3_" gradientUnits="userSpaceOnUse" x1="1291.9198" y1="674.6843" x2="1318.7545" y2="298.9983">
			<stop  offset="0" style="stop-color:#70B3BF"/>
			<stop  offset="0.1974" style="stop-color:#5CC5CC"/>
			<stop  offset="0.454" style="stop-color:#49D6D8"/>
			<stop  offset="0.7183" style="stop-color:#3EE1E0"/>
			<stop  offset="1" style="stop-color:#3AE4E2"/>
		</linearGradient>
		<path fill-rule="evenodd" clip-rule="evenodd" fill="url(#SVGID_3_)" d="M1257.2,640.1c-5.3-9-11.3-23.7-14.1-38.6
			c-2.8-14.9-2.4-29.9,1.4-39.4c3.8-9.5,11-13.5,19-18.9c8-5.3,16.7-12,19.6-23c2.9-11-0.2-26.3-2.4-37.6
			c-2.3-11.3-3.9-18.7-1.2-26.2c2.7-7.6,9.5-15.4,17-20.6c0.4-0.3,0.8-0.5,1.2-0.8c19.4,4.3,36.6,13.9,51.6,28.7
			c-1.8,5.8-1,11.7,1.3,18.6c2.9,8.7,8,18.9,9.8,26.1c1.8,7.1,0.3,11.1-4.1,16c-4.4,4.8-11.6,10.5-18.8,15.4
			c-7.1,4.9-14.1,9.1-18.2,14.5c-4.1,5.5-5.3,12.2-6.2,20c-0.9,7.8-1.3,16.7-3.6,24c-2.3,7.3-6.5,13.2-13.1,22.5
			c-6.6,9.3-15.5,22-22.3,26.8C1267.2,652.3,1262.5,649.1,1257.2,640.1z"/>
		<path fill-rule="evenodd" clip-rule="evenodd" fill="#3657A6" d="M1358.8,379.4c0.2-1.6,1.7-2.7,3.3-2.5c1.6,0.2,2.7,1.7,2.5,3.3
			l0,0l0,0.1c-1.2,8.8-2.4,17.6-7.7,27.6c-3.6,6.6-8.9,13.6-14,20.3c-2.5,3.3-5.1,6.6-7.1,9.4c-3.2,4.5-5.7,8.7-7.8,13.2
			c-2.1,4.5-3.7,9.4-5,15.3c-1.3,5.7-2.3,12.6-3.3,19.6c-1.1,7.6-2.3,15.4-3.9,22.5l0,0h0c-1.5,6.8-3.5,12.7-5.8,17.8
			c-2.3,5.2-4.9,9.7-7.6,13.5c-2.3,3.1-4.7,5.9-7.1,8.6l0,0c-3.1,3.5-6.3,7-8.9,11.4c-1.7,2.9-17.3,76-18.7,79.3
			c-2.5,0.8-4.9,1.7-7.4,2.6l14.5-71.2c1.8-4.7,4-9.6,6.6-13.8c3-4.9,6.2-8.6,9.5-12.3l0,0l0,0c2.3-2.5,4.6-5.1,6.7-8.1
			c2.5-3.5,4.9-7.6,7-12.3c2.1-4.8,3.9-10.4,5.4-16.8h0c1.5-6.7,2.7-14.4,3.8-22c1-7,2-13.9,3.4-20c1.4-6.4,3.2-11.7,5.4-16.5
			c2.2-4.9,5-9.3,8.4-14.1c2.3-3.3,4.7-6.4,7.2-9.6c5-6.5,10.2-13.3,13.5-19.6c4.9-9.1,6-17.3,7.1-25.6L1358.8,379.4L1358.8,379.4z"
			/>
		<path fill-rule="evenodd" clip-rule="evenodd" fill="#1EF2EC" d="M1233,686c5-10.3,9.9-23.9,12.5-37.6c3.3-17.4,2.8-34.9-1.6-46
			c-4.4-11.1-12.8-15.8-22.1-22c-9.3-6.2-19.5-14-22.9-26.8c-3.3-12.8,0.2-30.7,2.8-43.9c2.7-13.2,4.5-21.8,1.4-30.6
			c-3.1-8.8-11.1-18-19.8-24c-8.7-6.1-18.1-9.1-22.3-17.8c-4.2-8.6-3.2-22.9-2-33.5c1.2-10.7,2.6-17.7-0.5-23.9
			c-3.2-6.2-11-11.6-20.7-16.4c-9.7-4.8-21.4-9-33.3-7c-11.9,2-24,10.1-31.1,24.5c-7.1,14.5-9.2,35.2-5.1,48.8
			c4.1,13.5,14.3,19.8,24.8,27.4c10.5,7.6,21.2,16.5,26.1,25.1c5,8.6,4.2,16.9,0.9,27c-3.4,10.1-9.3,22.1-11.4,30.4
			c-2.1,8.3-0.3,13,4.8,18.6c5.1,5.6,13.6,12.2,21.9,18c8.3,5.7,16.5,10.6,21.2,17c4.8,6.4,6.2,14.3,7.2,23.4c1,9.1,1.5,19.4,4.2,28
			c2.7,8.6,7.6,15.4,15.2,26.2c3.3,4.7,7.1,10.1,11,15.2H1233z"/>
		<linearGradient id="SVGID_4_" gradientUnits="userSpaceOnUse" x1="1211.6781" y1="739.6166" x2="1143.2928" y2="422.7939">
			<stop  offset="0" style="stop-color:#70B3BF"/>
			<stop  offset="0.1974" style="stop-color:#5CC5CC"/>
			<stop  offset="0.454" style="stop-color:#49D6D8"/>
			<stop  offset="0.7183" style="stop-color:#3EE1E0"/>
			<stop  offset="1" style="stop-color:#3AE4E2"/>
		</linearGradient>
		<path fill-rule="evenodd" clip-rule="evenodd" fill="url(#SVGID_4_)" d="M1233,686c5-10.3,9.9-23.9,12.5-37.6
			c3.3-17.4,2.8-34.9-1.6-46c-4.4-11.1-12.8-15.8-22.1-22c-9.3-6.2-19.5-14-22.9-26.8c-3.3-12.8,0.2-30.7,2.9-43.9
			c0.6-3.1,1.2-5.9,1.7-8.5c-37.4-6.7-69.4-17.6-96-32.7c5,4.5,9.3,9.2,11.9,13.8c5,8.6,4.2,16.9,0.9,27
			c-3.4,10.1-9.3,22.1-11.4,30.4c-2.1,8.3-0.3,13,4.8,18.6c5.1,5.6,13.6,12.2,21.9,18c8.3,5.7,16.5,10.6,21.2,17
			c4.8,6.4,6.2,14.3,7.2,23.4c1,9.1,1.5,19.4,4.2,28c2.7,8.6,7.6,15.4,15.2,26.2c3.3,4.7,7.1,10.1,11,15.2H1233z"/>
		<path fill-rule="evenodd" clip-rule="evenodd" fill="#3657A6" d="M1118.5,408.8c-0.5-1.6,0.4-3.2,2-3.7c1.6-0.5,3.2,0.4,3.7,2l0,0
			l0.1,0.2c3.4,12.7,6.8,25.4,14,38.9c2.6,4.8,5.7,9.9,9,15.1c5.9,9.5,12.2,19.5,16.3,30.3c5.3,13.8,6.8,28.3,8.3,41.7
			c0.3,2.6,0.6,5.2,0.9,8.2c0.9,7.6,2.1,14.5,3.7,21.3c1.7,6.7,3.9,13.3,6.9,20.1c3,6.8,7,13.9,11.6,21.1
			c4.6,7.3,9.9,14.7,15.7,22.2c3.3,4.4,6.9,8.7,10.5,13.1c-1.2,1.6-2.4,3.3-3.6,5c-4-4.8-7.9-9.7-11.6-14.5
			c-5.9-7.7-11.3-15.2-16-22.6c-4.7-7.4-8.8-14.8-12-21.9c-3.2-7.1-5.5-14-7.2-21.1c-1.7-7.1-2.9-14.2-3.9-22
			c-0.3-2.4-0.6-5.3-0.9-8.3c-1.4-13-2.9-27.2-7.9-40.2c-3.9-10.2-10-20-15.8-29.2c-3.3-5.2-6.4-10.3-9.2-15.4
			C1125.5,434.9,1122,421.9,1118.5,408.8L1118.5,408.8L1118.5,408.8z"/>
	</g>
	<g>
		<path fill-rule="evenodd" clip-rule="evenodd" fill="#52A3FF" d="M824.8,701c51.2-38.1,76.8-57.2,76.8-57.2s111.4,24.2,334.3,72.7
			c2.6,1.6,3.4,5,1.8,7.6L1137.1,813L824.8,701z"/>
		<path fill-rule="evenodd" clip-rule="evenodd" fill="#6190C2" d="M824.8,701c51.2-38.1,76.8-57.2,76.8-57.2s111.4,24.2,334.3,72.7
			c2.6,1.6,3.4,5,1.8,7.6l-24.3,21.2l-181.5-40.7l-73.2,44.2L824.8,701z"/>
		<polygon fill-rule="evenodd" clip-rule="evenodd" fill="#5179A4" points="871.5,666.3 901.6,643.9 1013.5,668.2 1182.4,725.7 		
			"/>
		<path fill-rule="evenodd" clip-rule="evenodd" fill="#666666" d="M979.5,505.3l278.9-18.7c3.9,1.4,6.7,4.6,7.6,8.4l-73.9,224.8h0
			c-1.6,4-5.7,6.3-9.8,5.8l-2.1-0.5l0,0l0,0l-274.5-60.5l0,0c-2.7-2.2-4.1-5.5-3.9-9l68.8-144C972.8,508.7,975.9,506.4,979.5,505.3z
			"/>
		<path fill-rule="evenodd" clip-rule="evenodd" fill="#4D4D4D" d="M1263.8,490.4c1,1.3,1.8,2.9,2.2,4.5l-73.9,224.8h0
			c-1.3,3.2-4.1,5.3-7.3,5.8l2.5-7.5c-0.6,0.2-1.2,0.2-1.9,0.1c-1.5-0.3-2.6-1.4-2.9-2.9c2.8,0.1,5-0.8,6.7-2.8l0,0l68.1-202.9
			c0.4-4-2.2-7.7-6.1-8.7l9.9-2.4L1263.8,490.4z"/>
		<path fill-rule="evenodd" clip-rule="evenodd" fill="#4D4D4D" d="M1192.9,717.5l-0.8,2.3h0c-1.6,4-5.7,6.3-9.8,5.8l-2.1-0.5l0,0
			l0,0l-274.5-60.5l0,0c-2.2-1.8-3.6-4.5-3.9-7.3L1192.9,717.5z"/>
		<path fill-rule="evenodd" clip-rule="evenodd" fill="#4D4D4D" d="M979.5,505.3l278.9-18.7c3.9,1.4,6.7,4.6,7.6,8.4l-1.8,5.5
			l-292.8,10.3C973.5,508.2,976.3,506.3,979.5,505.3z"/>
		<polygon fill-rule="evenodd" clip-rule="evenodd" fill="#4D4D4D" points="1000.1,503.9 1002.6,503.7 930.1,670.1 927.9,669.6 		
			"/>
		<polygon fill-rule="evenodd" clip-rule="evenodd" fill="#4D4D4D" points="1216.6,489.4 1219,489.2 1139,716.1 1136.7,715.6 		"/>
		<polygon fill-rule="evenodd" clip-rule="evenodd" fill="#F8F8F8" points="946.1,644.3 997.8,524.3 1190.3,518.6 1132.6,679.2 		
			"/>
		<g>
			
				<ellipse transform="matrix(0.6722 -0.7404 0.7404 0.6722 -86.0921 981.1005)" fill-rule="evenodd" clip-rule="evenodd" fill="#FBB03B" cx="1064.9" cy="587.8" rx="49.1" ry="40.5"/>
			<g>
				<path fill-rule="evenodd" clip-rule="evenodd" fill="#666666" d="M1027.2,591.9c0-1.2,1.1-2.3,2.3-2.4c1.2-0.1,2.2,0.8,2.2,2
					c-0.1,7.2,2.5,13.6,6.9,18.2c4.4,4.6,10.7,7.5,17.9,7.7c7.2,0.2,14.2-2.4,19.9-6.7c5.7-4.4,10-10.6,11.8-17.8
					c0.3-1.2,1.5-2.1,2.8-1.9c1.2,0.2,1.9,1.3,1.6,2.5c-2.1,8.3-7.1,15.5-13.7,20.6c-6.6,5.1-14.7,8-23,7.8
					c-8.4-0.2-15.6-3.5-20.8-8.9C1030,607.7,1027,600.3,1027.2,591.9z"/>
				<path fill-rule="evenodd" clip-rule="evenodd" fill="#666666" d="M1052.2,559.9c3,0,4.1,4.8,2.5,10.7
					c-1.6,5.9-5.3,10.7-8.2,10.7c-3,0-4.1-4.8-2.5-10.7C1045.5,564.7,1049.2,559.9,1052.2,559.9z"/>
				<path fill-rule="evenodd" clip-rule="evenodd" fill="#666666" d="M1079,559.9c3,0,4.1,4.8,2.5,10.7c-1.6,5.9-5.3,10.7-8.2,10.7
					c-3,0-4.1-4.8-2.5-10.7C1072.4,564.7,1076.1,559.9,1079,559.9z"/>
			</g>
		</g>
		<path fill-rule="evenodd" clip-rule="evenodd" fill="#FFE7D4" d="M895.9,695.9c16.6-7.1,32.5-18.9,47.6-35.1
			c8.7,6.7,15.6,8.9,20.7,6.4c60.1-25.7,93.4-47.7,99.9-66.1c0.6-5.4,4.6-13.3,11.8-23.7c4-6.3,7.6-9.7,10.8-10.4
			c3.8,0.1,7.4-0.3,10.8-1.2c1.3-3,4.2-4,8.6-3.1c4.7,1.8,6.5,5.4,5.1,10.8c6.5-0.8,9.1,1.8,7.7,8c1.6,2.3,2,5.2,1,8.8
			c-1.2,4.8-2.3,8.6-3.3,11.4c0.6,4.8-0.6,9.2-3.6,13.1c-10.4,11.8-21.6,18.7-33.4,20.7c-2.8,6.1-8.3,10.4-16.4,12.9
			c-21,22.6-51.3,46.2-91,70.5c-11.3,7.2-23.6,7.3-36.9,0.5C935.5,719.5,922.3,711.6,895.9,695.9z"/>
		<path fill-rule="evenodd" clip-rule="evenodd" fill="#EEDACB" d="M1097.7,565.8c1.2-2.8,3.8-3.9,7.6-3.3c-3.9,0.4-5.9,2.3-5.8,4.7
			c0,0.6,0.1,1.2,0.3,1.7c-1.5,3.8-4.2,7.2-8.1,10c-1.3-1.2-2.3-2.7-3.1-4.3C1095.7,572.9,1098.7,569.9,1097.7,565.8z"/>
		<path fill-rule="evenodd" clip-rule="evenodd" fill="#EEDACB" d="M1120.4,589.4c-0.1,0.3-0.2,0.7-0.3,1c-1.2,4.8-2.3,8.6-3.3,11.4
			c0,0.4,0.1,0.8,0.1,1.2c-1.5,1.7-3.5,3.5-5.9,5.2C1115.1,603.6,1118.3,597.3,1120.4,589.4L1120.4,589.4z"/>
		<path fill-rule="evenodd" clip-rule="evenodd" fill="#EEDACB" d="M1119.2,581.6c1.4,1.9,1.8,4.2,1.4,7c-0.5-1.1-1.1-2.2-1.8-3.3
			c0,0-2.9,3.4-8.7,10.2C1110.1,595.5,1113.1,590.9,1119.2,581.6z"/>
		<path fill-rule="evenodd" clip-rule="evenodd" fill="#EEDACB" d="M1111.8,569.7c0.1,1.2-0.1,2.4-0.4,3.8c4.7-0.6,7.4,0.6,8,3.7
			c-1.6-2.5-4.9-3.2-7.5-1.7c0,0-3.1,3-9.2,9.1C1106.7,579.9,1109.7,574.9,1111.8,569.7z"/>
		<path fill-rule="evenodd" clip-rule="evenodd" fill="#EEDACB" d="M895.9,695.9c16.6-7.1,32.5-18.9,47.6-35.1
			c2,1.5,3.8,2.8,5.6,3.9v0c-3.1,19.4-10.5,36-22.2,49.8L895.9,695.9z"/>
		<path fill-rule="evenodd" clip-rule="evenodd" fill="#EEDACB" d="M920.6,612.9c5.5-2.3,5.6-13.5,11.3-21.5c3.5-3.4,4.5-6.7,3-9.8
			c0,0-1.7,1.3-5.1,3.8c-1.3,0.7-3.1,2.2-5.1,4.6c-2.4,3-6,6.4-10.8,10.4L920.6,612.9z"/>
		<path fill-rule="evenodd" clip-rule="evenodd" fill="#FFE7D4" d="M820.9,507.6c13.8,4.7,26.7,10.5,38.9,17.3
			c1.7-3,2.6-4.6,2.6-4.6c8.1,4.8,12.1,7.1,12.1,7.1c5.6,1.9,9.8,1.2,12.5-2.2c8.2-13.6,12.3-20.4,12.3-20.4
			c12.6-23.3,19.3-40.3,20.1-51.2c4.4-22.7-5.6-45.8-25.3-57.9c-19.7-12.2-44.8-10.9-63.1,3.3c-18.3,14.1-26,38.1-19.2,60.2
			C817.8,480.4,820.9,496.6,820.9,507.6z"/>
		<path fill-rule="evenodd" clip-rule="evenodd" fill="#EEDACB" d="M853.6,521.5c2.1,1.1,4.2,2.2,6.3,3.4c1.7-3,2.6-4.6,2.6-4.6
			c8.1,4.8,12.1,7.1,12.1,7.1c5.6,1.9,9.8,1.2,12.5-2.2l1.5-2.4c-10.7-1-22.3-6.8-34.9-17.3V521.5z"/>
		<linearGradient id="SVGID_5_" gradientUnits="userSpaceOnUse" x1="835.5845" y1="537.0745" x2="787.0368" y2="701.1322">
			<stop  offset="0" style="stop-color:#FFB0AA"/>
			<stop  offset="1" style="stop-color:#FF7FA5"/>
		</linearGradient>
		<path fill-rule="evenodd" clip-rule="evenodd" fill="url(#SVGID_5_)" d="M652.2,795c0,0,83.1,0,249.2,0
			c-15.3-19.4-22.4-57-21.4-112.7c0,0,4.6,6.5,13.8,19.5c31-13.3,49.2-28.3,54.7-45c-28.9-50.3-53.8-91.1-74.8-122.4
			c-14.1-15.8-33-26.1-56.7-31c-48.2-3.3-80.1,1.3-95.8,13.8C647.7,607.1,643.2,679.8,652.2,795z"/>
		<path fill-rule="evenodd" clip-rule="evenodd" fill="#F47898" d="M882.7,740.5c-2.2-16.5-3.1-35.9-2.7-58.2
			c-22-28.6-33-42.8-33-42.8C870.8,706.8,882.7,740.5,882.7,740.5L882.7,740.5z"/>
		<path fill-rule="evenodd" clip-rule="evenodd" fill="#F47898" d="M652.2,795c0,0,83.1,0,249.2,0
			c-90.7-15.4-27.2-214.6-175.9-226.7c-13.9-0.4-27.1-0.4-39.9,0C646.5,637,645,702.3,652.2,795z"/>
		<path fill-rule="evenodd" clip-rule="evenodd" fill="#F47898" d="M906,585.1c-11.7-19-22.5-35.9-32.4-50.7
			c-14.1-15.8-33-26.1-56.7-31c-4.3-0.3-8.4-0.5-12.4-0.7C829.7,520.5,860.2,509,906,585.1z"/>
		<path fill-rule="evenodd" clip-rule="evenodd" fill="#333333" d="M887,478.9c-1.1-1.8-0.8-5.6-0.5-9.7c0.3-4.1,0.7-8.5-0.5-11.1
			c-1.2-2.6-4-3.4-6.5-2.2c-2.5,1.1-4.8,4.2-6.6,8.9c-1.9,4.7-3.3,11.1-4.1,15.9c-0.8,4.9-0.9,8.3-3.7,11.4
			c-2.8,3.1-8.2,5.9-15.2,8.1c-7,2.2-15.5,3.8-21.2,4.2c-5.8,0.4-8.8-0.3-10.9-2.4c-2.1-2.1-3.3-5.6-4.5-10.4
			c-1.2-4.7-2.4-10.7-4.1-17.2c-1.7-6.5-4-13.5-6-20.2c-2-6.7-3.7-13-4.8-20c-1.1-6.9-1.5-14.5-0.5-21.1c0.9-6.6,3.2-12.3,6.1-16.7
			c2.9-4.4,6.5-7.4,10.9-8.6c4.4-1.2,9.7-0.5,15.1-2.5c5.4-2,10.8-6.6,18-9.1c7.2-2.4,16.2-2.7,25.9-0.9c9.7,1.9,20.2,5.8,28.4,12.8
			c8.2,6.9,14.2,16.9,18.9,26.1c4.8,9.2,8.3,17.7,13.4,22.8c5,5.2,11.5,7,16.9,7.4c5.4,0.4,9.8-0.7,9.1,3.3c-0.7,4-6.6,13-12.7,19.4
			c-6.2,6.4-12.6,10.3-19.1,9.9c-6.5-0.4-13-5-17.9-7.7c-5-2.6-8.4-3.3-11.3-3.2c-2.9,0.1-5.3,1.1-6.4,3.5c-1.1,2.4-0.8,6.4-1.9,8.5
			C890.4,480.5,888,480.7,887,478.9z"/>
		<path fill-rule="evenodd" clip-rule="evenodd" fill="#0075BF" d="M676.6,565.1c32.8-2.6,65.8,4.3,94.9,20.2
			c10.7,6.7,17.3,15.2,19.8,25.5c13.5,73.5,16.7,128.4,9.5,164.8c-2.7,8.1-7.2,14.6-13.5,19.4h-76.7l-80.1-17.2
			c0.3-0.1,0.6-0.2,1-0.4c-38.6-1-17.7-128.6-12.6-158.8C625.7,578.8,639.4,568.1,676.6,565.1z"/>
		<path fill-rule="evenodd" clip-rule="evenodd" fill="#075C95" d="M771.6,585.3c10.7,6.7,17.3,15.2,19.8,25.5
			c13.5,73.5,16.7,128.4,9.5,164.8c-2.7,8.1-7.2,14.6-13.5,19.4h-76.7l-94.8-20.4C735.9,799.4,787.8,736.3,771.6,585.3z"/>
		<path fill-rule="evenodd" clip-rule="evenodd" fill="#3E4DAF" d="M715.7,795c0.4-29.6,2.6-62.7,6.8-99.5h0l0,0l0.1-0.7
			c0.6-6-2-11.9-6.9-15.6c-15.6-7.5-33-10.4-50.2-8.2c-4.7,1-8.5,4.7-9.5,9.5c-3.6,41-5.4,79.2-5.6,114.5H715.7z"/>
		<path fill-rule="evenodd" clip-rule="evenodd" fill="#273485" d="M715.7,795c0.4-29.6,2.6-62.7,6.8-99.5h0l0,0l0.1-0.7
			c0.6-6-2-11.9-6.9-15.6c-0.8-0.4-1.7-0.8-2.5-1.2c-9,59.5-23.9,98.5-44.8,116.9H715.7z"/>
		<path fill-rule="evenodd" clip-rule="evenodd" fill="#4D4D4D" d="M1090.7,579.7c3-1.4,4.8-4.5,4.5-7.7c0,0-5.9,2.2-17.7,6.6
			c-1.4,0.5-2.2,2-1.9,3.5c0.3,1.5,1.7,2.5,3.1,2.4C1086.7,581.3,1090.7,579.7,1090.7,579.7z"/>
		<g>
			<path fill-rule="evenodd" clip-rule="evenodd" fill="#4D4D4D" d="M1205.1,560.6c4.8-0.6,8.6,2.7,8.6,7.5c0,4.8-3.9,9.1-8.6,9.8
				c-4.8,0.6-8.6-2.7-8.6-7.5C1196.4,565.6,1200.3,561.3,1205.1,560.6z"/>
			<path fill-rule="evenodd" clip-rule="evenodd" fill="#666666" d="M1203.8,564.3c2.6-0.3,4.7,1.5,4.7,4.1c0,2.6-2.1,5-4.7,5.3
				c-2.6,0.3-4.7-1.5-4.7-4.1C1199.1,567.1,1201.2,564.7,1203.8,564.3z"/>
			<g>
				<path fill-rule="evenodd" clip-rule="evenodd" fill="#4D4D4D" d="M1224.8,559.7c1.2-0.2,2.3,0.7,2.3,2c0,1.2-1,2.4-2.3,2.5
					c-1.2,0.2-2.2-0.7-2.2-2S1223.6,559.9,1224.8,559.7z"/>
				<path fill-rule="evenodd" clip-rule="evenodd" fill="#4D4D4D" d="M1222.6,567c1.2-0.2,2.2,0.7,2.2,2c0,1.2-1,2.4-2.2,2.5
					c-1.2,0.2-2.3-0.7-2.3-2S1221.4,567.2,1222.6,567z"/>
				<path fill-rule="evenodd" clip-rule="evenodd" fill="#4D4D4D" d="M1220.4,574.3c1.2-0.2,2.3,0.7,2.3,2c0,1.2-1,2.4-2.3,2.5
					c-1.2,0.2-2.3-0.7-2.3-2C1218.2,575.6,1219.2,574.5,1220.4,574.3z"/>
			</g>
			<g>
				<path fill-rule="evenodd" clip-rule="evenodd" fill="#4D4D4D" d="M1193,586.3l10.1,0.4c1.4,0.1,2.1,1.2,1.7,2.6l0,0
					c-0.5,1.4-2,2.4-3.3,2.4l-10.1-0.4c-1.4-0.1-2.1-1.2-1.7-2.6l0,0C1190.2,587.3,1191.7,586.2,1193,586.3z"/>
				<path fill-rule="evenodd" clip-rule="evenodd" fill="#4D4D4D" d="M1190.7,593.4l10.1,0.4c1.4,0.1,2.1,1.2,1.7,2.6l0,0
					c-0.5,1.4-2,2.4-3.3,2.4l-10.1-0.4c-1.4-0.1-2.1-1.2-1.7-2.6l0,0C1187.8,594.4,1189.3,593.4,1190.7,593.4z"/>
				<path fill-rule="evenodd" clip-rule="evenodd" fill="#4D4D4D" d="M1188.3,600.5l10.1,0.4c1.4,0.1,2.1,1.2,1.7,2.6l0,0
					c-0.5,1.4-2,2.4-3.3,2.4l-10.1-0.4c-1.4-0.1-2.1-1.2-1.7-2.6l0,0C1185.4,601.6,1186.9,600.5,1188.3,600.5z"/>
				<path fill-rule="evenodd" clip-rule="evenodd" fill="#4D4D4D" d="M1201.8,603.8l4.9-14.7c0.4-1.3,1.9-2.2,3.3-2.2l0,0
					c1.4,0.1,2.2,1.1,1.7,2.4l-4.9,14.7c-0.4,1.3-1.9,2.2-3.3,2.2h0C1202.1,606.2,1201.4,605.1,1201.8,603.8z"/>
				<path fill-rule="evenodd" clip-rule="evenodd" fill="#4D4D4D" d="M1208.5,604.1l4.9-14.7c0.4-1.3,1.9-2.2,3.3-2.2h0
					c1.4,0.1,2.2,1.1,1.7,2.4l-4.9,14.7c-0.4,1.3-1.9,2.2-3.3,2.2h0C1208.9,606.5,1208.1,605.4,1208.5,604.1z"/>
			</g>
			<g>
				<path fill-rule="evenodd" clip-rule="evenodd" fill="#4D4D4D" d="M958.7,555.2c2.9-0.4,4.8,1.6,4.3,4.5
					c-0.5,2.8-3.3,5.4-6.2,5.8c-2.9,0.4-4.8-1.6-4.3-4.5C953,558.2,955.8,555.6,958.7,555.2z"/>
				<path fill-rule="evenodd" clip-rule="evenodd" fill="#666666" d="M957.5,557.4c1.6-0.2,2.6,0.9,2.3,2.4c-0.3,1.5-1.8,3-3.4,3.2
					c-1.6,0.2-2.6-0.9-2.3-2.4C954.4,559.1,955.9,557.6,957.5,557.4z"/>
				<g>
					<path fill-rule="evenodd" clip-rule="evenodd" fill="#4D4D4D" d="M970.5,554.7c0.8-0.1,1.3,0.4,1.1,1.2
						c-0.1,0.7-0.9,1.4-1.6,1.5c-0.8,0.1-1.3-0.4-1.1-1.2C969,555.5,969.8,554.8,970.5,554.7z"/>
					<path fill-rule="evenodd" clip-rule="evenodd" fill="#4D4D4D" d="M968.4,559c0.8-0.1,1.3,0.4,1.1,1.2c-0.1,0.7-0.9,1.4-1.6,1.5
						c-0.8,0.1-1.3-0.4-1.1-1.2C966.9,559.8,967.6,559.1,968.4,559z"/>
					<path fill-rule="evenodd" clip-rule="evenodd" fill="#4D4D4D" d="M966.3,563.4c0.8-0.1,1.3,0.4,1.1,1.2
						c-0.1,0.7-0.9,1.4-1.6,1.5c-0.8,0.1-1.3-0.4-1.1-1.2C964.8,564.1,965.5,563.5,966.3,563.4z"/>
				</g>
				<g>
					<path fill-rule="evenodd" clip-rule="evenodd" fill="#4D4D4D" d="M948.7,570.5l5.9,0.3c0.8,0,1.2,0.7,0.7,1.5l0,0
						c-0.4,0.8-1.4,1.4-2.3,1.4l-5.9-0.3c-0.8,0-1.2-0.7-0.7-1.5l0,0C946.8,571.1,947.8,570.4,948.7,570.5z"/>
					<path fill-rule="evenodd" clip-rule="evenodd" fill="#4D4D4D" d="M946.5,574.7l5.9,0.3c0.8,0,1.2,0.7,0.7,1.5l0,0
						c-0.4,0.8-1.4,1.4-2.3,1.4l-5.9-0.3c-0.8,0-1.2-0.7-0.7-1.5l0,0C944.6,575.3,945.6,574.7,946.5,574.7z"/>
					<path fill-rule="evenodd" clip-rule="evenodd" fill="#4D4D4D" d="M944.2,579l5.9,0.3c0.8,0,1.2,0.7,0.7,1.5l0,0
						c-0.4,0.8-1.4,1.4-2.3,1.4l-5.9-0.3c-0.8,0-1.2-0.7-0.7-1.5l0,0C942.4,579.6,943.4,578.9,944.2,579z"/>
					<path fill-rule="evenodd" clip-rule="evenodd" fill="#4D4D4D" d="M951.8,581.1l4.7-9.1c0.3-0.7,1.3-1.2,2.1-1.1l0,0
						c0.8,0,1.2,0.6,0.9,1.2l-4.7,9.1c-0.3,0.7-1.3,1.2-2.1,1.1l0,0C951.8,582.3,951.4,581.7,951.8,581.1z"/>
					<path fill-rule="evenodd" clip-rule="evenodd" fill="#4D4D4D" d="M955.7,581.3l4.7-9.1c0.3-0.7,1.3-1.2,2.1-1.1l0,0
						c0.8,0,1.2,0.6,0.9,1.2l-4.7,9.1c-0.3,0.7-1.3,1.2-2.1,1.1l0,0C955.8,582.5,955.4,581.9,955.7,581.3z"/>
				</g>
			</g>
		</g>
	</g>
	<rect x="515" y="795" fill-rule="evenodd" clip-rule="evenodd" fill="#FFFFFF" width="925" height="18"/>
	<g>
		<path fill-rule="evenodd" clip-rule="evenodd" fill="#1EF2EC" d="M1296.9,761.5c-6.3-7.6-14.7-18.5-17-27.5
			c-2.2-9,1.7-16,6.4-26.1c4.8-10.1,10.4-23.3,9.8-32.4c-0.6-9.1-7.3-14.2-12.8-20.2c-5.5-6-9.7-13-11.8-19.6
			c-2.1-6.6-2.1-12.8,1.3-17.9c3.4-5.2,10.1-9.4,14-15.3c3.9-5.9,5-13.5,3.6-20.3c-1.4-6.9-5.3-13-8.3-19.5
			c-2.9-6.4-4.9-13.2-4.9-21c0-7.8,2-16.8,6.7-24c4.8-7.1,12.3-12.5,20-12.8c7.7-0.3,15.6,4.5,22.6,14.7c7,10.2,13.2,25.9,16.7,40.2
			c3.5,14.3,4.3,27.2,2.2,36c-2.1,8.8-7.1,13.6-9.4,20.3c-2.2,6.7-1.7,15.4,0.1,22c1.8,6.6,4.9,11.1,8.4,18.5
			c3.5,7.4,7.5,17.7,6.4,27.1c-1.1,9.4-7.3,17.9-10.6,23.3c-3.3,5.5-3.6,7.9-3.8,14.4c-0.1,6.4-0.1,16.9-1.6,24.8
			c-1.5,7.9-4.6,13.2-7.4,17.7c-2.8,4.5-5.3,8.1-8,10.2c-2.7,2.1-5.5,2.7-9,0.8C1307.4,773.3,1303.2,769.1,1296.9,761.5z"/>
		<linearGradient id="SVGID_6_" gradientUnits="userSpaceOnUse" x1="1310.8401" y1="779.8358" x2="1310.8401" y2="592.5082">
			<stop  offset="0" style="stop-color:#529DA9"/>
			<stop  offset="0.3933" style="stop-color:#48BAC1"/>
			<stop  offset="1" style="stop-color:#3AE4E2"/>
		</linearGradient>
		<path fill-rule="evenodd" clip-rule="evenodd" fill="url(#SVGID_6_)" d="M1296.9,761.5c-6.3-7.6-14.7-18.5-17-27.5
			c-2.2-9,1.7-16,6.4-26.1c4.8-10.1,10.4-23.3,9.8-32.4c-0.6-9.1-7.3-14.2-12.8-20.2c-5.5-6-9.7-13-11.8-19.6
			c-0.9-2.9-1.4-5.7-1.4-8.4c32.8-3.8,57.5-12.9,74.2-27.4c-2.4,6.4-6.3,10.7-8.1,16.3c-2.2,6.7-1.7,15.4,0.1,22
			c1.8,6.6,4.9,11.1,8.4,18.5c3.5,7.4,7.5,17.7,6.4,27.1c-1.1,9.4-7.3,17.9-10.6,23.3c-3.3,5.5-3.6,7.9-3.8,14.4
			c-0.1,6.4-0.1,16.9-1.6,24.8c-1.5,7.9-4.6,13.2-7.4,17.7c-2.8,4.5-5.3,8.1-8,10.2c-2.7,2.1-5.5,2.7-9,0.8
			C1307.4,773.3,1303.2,769.1,1296.9,761.5z"/>
		<path fill-rule="evenodd" clip-rule="evenodd" fill="#3657A6" d="M1314.7,722.5l0.1-0.3c0.3-1.6,0.6-2.8,0.9-4
			c2.2-9.9,4.3-19.8,2.6-28.4c-1.2-6.1-4.5-11.9-7.8-17.7l-0.1-0.1c-2-3.6-4.1-7.3-5.7-11c-2.2-5.1-3.6-10.4-4.2-15.7
			c-0.6-5.4-0.5-10.8,0.5-16c1-5.6,3-10.8,4.9-15.9c1.5-4.1,3.1-8.1,4-12.2c1-4.1,1.3-8.3,1.2-12.4c-0.1-4.6-0.8-9.1-1.8-13.4
			c-1-4.1-2.3-7.9-3.8-11.7c-1.5-3.7-3.2-7.5-4.9-11.2c-0.4-0.9,0-1.9,0.9-2.3c0.9-0.4,1.9,0,2.3,0.9c1.7,3.7,3.4,7.4,4.9,11.4
			c1.6,3.9,2.9,7.9,4,12.2c1.1,4.5,1.8,9.2,1.9,14.1c0.1,4.4-0.3,8.8-1.3,13.2c-1,4.2-2.5,8.4-4.1,12.6c-1.9,5-3.8,10-4.8,15.3
			c-0.9,4.8-1.1,9.9-0.5,14.9c0.6,5,1.9,10,3.9,14.8c1.6,3.7,3.5,7.2,5.5,10.7c0,0,0.1,0.1,0.1,0.1c3.4,6,6.8,12,8.1,18.7
			c1.9,9.4-0.3,19.6-2.6,29.9l-0.2,0.7C1317.5,720.6,1316.1,721.5,1314.7,722.5z"/>
		<path fill-rule="evenodd" clip-rule="evenodd" fill="#1EF2EC" d="M1325,774.1c-3.6-6-7.6-16-9.5-26c-1.9-10-1.6-20.2,0.9-26.6
			c2.6-6.4,7.4-9.1,12.8-12.7c5.4-3.6,11.3-8.1,13.2-15.5c1.9-7.4-0.1-17.7-1.6-25.4c-1.5-7.6-2.6-12.6-0.8-17.7
			c1.8-5.1,6.4-10.4,11.4-13.9c5-3.5,10.5-5.3,12.9-10.3c2.4-5,1.8-13.2,1.1-19.4c-0.7-6.2-1.5-10.2,0.3-13.8
			c1.8-3.6,6.3-6.7,11.9-9.5c5.6-2.8,12.3-5.2,19.2-4.1c6.9,1.1,13.9,5.8,18,14.2c4.1,8.3,5.3,20.4,3,28.2
			c-2.3,7.8-8.3,11.4-14.3,15.8c-6,4.4-12.2,9.5-15.1,14.5c-2.9,5-2.4,9.8-0.5,15.6c1.9,5.9,5.4,12.8,6.6,17.6
			c1.2,4.8,0.2,7.5-2.8,10.8c-3,3.3-7.8,7.1-12.6,10.4c-4.8,3.3-9.5,6.1-12.3,9.8c-2.8,3.7-3.6,8.2-4.2,13.5
			c-0.6,5.3-0.9,11.2-2.4,16.2c-1.6,5-4.4,8.9-8.8,15.1c-4.4,6.3-10.4,14.8-15,18.1C1331.7,782.3,1328.6,780.1,1325,774.1z"/>
		<linearGradient id="SVGID_7_" gradientUnits="userSpaceOnUse" x1="1348.3932" y1="797.3716" x2="1366.484" y2="544.1">
			<stop  offset="0" style="stop-color:#70B3BF"/>
			<stop  offset="0.1974" style="stop-color:#5CC5CC"/>
			<stop  offset="0.454" style="stop-color:#49D6D8"/>
			<stop  offset="0.7183" style="stop-color:#3EE1E0"/>
			<stop  offset="1" style="stop-color:#3AE4E2"/>
		</linearGradient>
		<path fill-rule="evenodd" clip-rule="evenodd" fill="url(#SVGID_7_)" d="M1325,774.1c-3.6-6-7.6-16-9.5-26
			c-1.9-10-1.6-20.2,0.9-26.6c2.6-6.4,7.4-9.1,12.8-12.7c5.4-3.6,11.3-8.1,13.2-15.5c1.9-7.4-0.1-17.7-1.6-25.4
			c-1.5-7.6-2.6-12.6-0.8-17.7c1.8-5.1,6.4-10.4,11.4-13.9c0.3-0.2,0.5-0.4,0.8-0.5c13.1,2.9,24.7,9.4,34.8,19.3
			c-1.2,3.9-0.7,7.9,0.9,12.5c1.9,5.9,5.4,12.8,6.6,17.6c1.2,4.8,0.2,7.5-2.8,10.8c-3,3.3-7.8,7.1-12.6,10.4
			c-4.8,3.3-9.5,6.1-12.3,9.8c-2.8,3.7-3.6,8.2-4.2,13.5c-0.6,5.3-0.9,11.2-2.4,16.2c-1.6,5-4.4,8.9-8.8,15.1
			c-4.4,6.3-10.4,14.8-15,18.1C1331.7,782.3,1328.6,780.1,1325,774.1z"/>
		<path fill-rule="evenodd" clip-rule="evenodd" fill="#3657A6" d="M1393.5,598.3c0.2-1.1,1.2-1.8,2.3-1.7c1.1,0.2,1.8,1.2,1.7,2.3
			l0,0l0,0.1c-0.8,5.9-1.6,11.9-5.2,18.6c-2.4,4.5-6,9.2-9.5,13.7c-1.7,2.2-3.4,4.5-4.8,6.4c-2.1,3-3.9,5.8-5.3,8.9
			c-1.4,3.1-2.5,6.3-3.4,10.3c-0.8,3.8-1.5,8.5-2.2,13.2c-0.8,5.1-1.5,10.4-2.6,15.1l0,0h0c-1,4.6-2.4,8.5-3.9,12
			c-1.5,3.5-3.3,6.5-5.1,9.1c-1.5,2.1-3.2,4-4.8,5.8l0,0c-2.1,2.4-4.2,4.7-6,7.7c-1.2,1.9-11.7,51.2-12.6,53.5
			c-1.7,0.6-3.3,1.2-5,1.8l9.8-48c1.2-3.1,2.7-6.5,4.4-9.3c2-3.3,4.2-5.8,6.4-8.3l0,0l0,0c1.5-1.7,3.1-3.4,4.5-5.5
			c1.7-2.4,3.3-5.1,4.7-8.3c1.4-3.3,2.7-7,3.6-11.3h0c1-4.5,1.8-9.7,2.5-14.8c0.7-4.7,1.4-9.4,2.3-13.5c1-4.3,2.1-7.9,3.6-11.1
			c1.5-3.3,3.4-6.3,5.7-9.5c1.6-2.2,3.2-4.3,4.8-6.5c3.4-4.4,6.9-9,9.1-13.2c3.3-6.1,4-11.7,4.8-17.3L1393.5,598.3L1393.5,598.3z"/>
		<path fill-rule="evenodd" clip-rule="evenodd" fill="#1EF2EC" d="M1308.6,805c3.4-6.9,6.7-16.1,8.4-25.4c2.2-11.7,1.9-23.5-1.1-31
			c-3-7.5-8.6-10.7-14.9-14.9c-6.3-4.2-13.2-9.4-15.4-18.1c-2.3-8.6,0.1-20.7,1.9-29.6c1.8-8.9,3-14.7,1-20.7
			c-2.1-6-7.5-12.1-13.4-16.2s-12.2-6.1-15-12c-2.8-5.8-2.1-15.4-1.3-22.6c0.8-7.2,1.8-11.9-0.4-16.1c-2.1-4.2-7.4-7.8-13.9-11
			c-6.6-3.2-14.4-6.1-22.4-4.8c-8,1.3-16.2,6.8-21,16.5c-4.8,9.7-6.2,23.8-3.4,32.9c2.7,9.1,9.6,13.4,16.7,18.5
			c7.1,5.1,14.3,11.1,17.6,16.9c3.4,5.8,2.9,11.4,0.6,18.2c-2.3,6.8-6.3,14.9-7.7,20.5c-1.4,5.6-0.2,8.8,3.2,12.6
			c3.4,3.8,9.2,8.3,14.8,12.1c5.6,3.9,11.1,7.1,14.3,11.4c3.2,4.3,4.2,9.6,4.9,15.8c0.7,6.1,1,13.1,2.9,18.9
			c1.8,5.8,5.1,10.4,10.3,17.7c2.2,3.2,4.8,6.8,7.4,10.3H1308.6z"/>
		<linearGradient id="SVGID_8_" gradientUnits="userSpaceOnUse" x1="1294.2977" y1="841.1462" x2="1248.1953" y2="627.5577">
			<stop  offset="0" style="stop-color:#70B3BF"/>
			<stop  offset="0.1974" style="stop-color:#5CC5CC"/>
			<stop  offset="0.454" style="stop-color:#49D6D8"/>
			<stop  offset="0.7183" style="stop-color:#3EE1E0"/>
			<stop  offset="1" style="stop-color:#3AE4E2"/>
		</linearGradient>
		<path fill-rule="evenodd" clip-rule="evenodd" fill="url(#SVGID_8_)" d="M1308.6,805c3.4-6.9,6.7-16.1,8.4-25.4
			c2.2-11.7,1.9-23.5-1.1-31c-3-7.5-8.6-10.7-14.9-14.9c-6.3-4.2-13.2-9.4-15.4-18.1c-2.3-8.6,0.1-20.7,1.9-29.6
			c0.4-2.1,0.8-4,1.1-5.7c-25.2-4.5-46.8-11.8-64.7-22c3.4,3,6.2,6.2,8,9.3c3.4,5.8,2.9,11.4,0.6,18.2c-2.3,6.8-6.3,14.9-7.7,20.5
			c-1.4,5.6-0.2,8.8,3.2,12.6c3.4,3.8,9.2,8.3,14.8,12.1c5.6,3.9,11.1,7.1,14.3,11.4c3.2,4.3,4.2,9.6,4.9,15.8
			c0.7,6.1,1,13.1,2.9,18.9c1.8,5.8,5.1,10.4,10.3,17.7c2.2,3.2,4.8,6.8,7.4,10.3H1308.6z"/>
		<path fill-rule="evenodd" clip-rule="evenodd" fill="#3657A6" d="M1231.5,618.1c-0.3-1.1,0.3-2.2,1.3-2.5c1.1-0.3,2.2,0.3,2.5,1.3
			l0,0l0,0.1c2.3,8.5,4.6,17.1,9.5,26.2c1.7,3.2,3.9,6.6,6.1,10.2c4,6.4,8.2,13.2,11,20.4c3.5,9.3,4.6,19.1,5.6,28.1
			c0.2,1.8,0.4,3.5,0.6,5.5c0.6,5.1,1.4,9.8,2.5,14.3c1.1,4.5,2.6,9,4.6,13.6c2.1,4.6,4.7,9.4,7.8,14.3c3.1,4.9,6.7,9.9,10.6,15
			c2.3,2.9,4.6,5.9,7.1,8.9c-0.8,1.1-1.6,2.2-2.4,3.3c-2.7-3.3-5.3-6.5-7.8-9.8c-4-5.2-7.6-10.3-10.8-15.3c-3.2-5-5.9-10-8.1-14.8
			c-2.2-4.8-3.7-9.5-4.9-14.2c-1.2-4.8-2-9.6-2.6-14.8c-0.2-1.6-0.4-3.6-0.6-5.6c-1-8.8-2-18.3-5.4-27.1
			c-2.6-6.9-6.7-13.5-10.6-19.7c-2.2-3.5-4.3-6.9-6.2-10.4C1236.2,635.7,1233.8,626.9,1231.5,618.1L1231.5,618.1L1231.5,618.1z"/>
	</g>
	<g>
		<path fill-rule="evenodd" clip-rule="evenodd" fill="#1EF2EC" d="M561.4,809.9c-9.8-6.6-19.2-14.1-30-25.8
			c-10.8-11.7-22.8-27.8-25.6-53.9c-2.8-26.1,3.7-62.3,18.2-87.5c14.5-25.1,37.1-39.1,58.5-44.4c21.3-5.3,41.5-1.9,51.8,12.4
			c10.4,14.3,11,39.5,7.8,64c-3.1,24.5-10,48.2-11.3,68c-1.3,19.7,3.1,35.4-2.6,49c-5.6,13.6-21.2,25.1-34,27.9
			C581.4,822.3,571.2,816.5,561.4,809.9z"/>
		
			<linearGradient id="SVGID_9_" gradientUnits="userSpaceOnUse" x1="549.7015" y1="847.1276" x2="601.5792" y2="566.6035" gradientTransform="matrix(0.9984 -5.605090e-02 5.605090e-02 0.9984 -41.2326 30.9)">
			<stop  offset="0" style="stop-color:#70B3BF"/>
			<stop  offset="0.1974" style="stop-color:#5CC5CC"/>
			<stop  offset="0.454" style="stop-color:#49D6D8"/>
			<stop  offset="0.7183" style="stop-color:#3EE1E0"/>
			<stop  offset="1" style="stop-color:#3AE4E2"/>
		</linearGradient>
		<path fill-rule="evenodd" clip-rule="evenodd" fill="url(#SVGID_9_)" d="M561.4,809.9c-9.8-6.6-19.2-14.1-30-25.8
			c-10.8-11.7-22.8-27.8-25.6-53.9c-2.8-26.1,3.7-62.3,18.2-87.5c0.4-0.7,0.8-1.4,1.3-2.1c27.6,34.8,67.8,57.4,111.9,62.9
			c-2.8,14-5.6,27.3-6.3,39.1c-1.3,19.7,3.1,35.4-2.6,49c-5.6,13.6-21.2,25.1-34,27.9C581.4,822.3,571.2,816.5,561.4,809.9z"/>
		
			<linearGradient id="SVGID_10_" gradientUnits="userSpaceOnUse" x1="556.799" y1="792.7666" x2="591.3842" y2="615.998" gradientTransform="matrix(0.9984 -5.605090e-02 5.605090e-02 0.9984 -41.2326 30.9)">
			<stop  offset="0" style="stop-color:#529DA9"/>
			<stop  offset="0.3933" style="stop-color:#48BAC1"/>
			<stop  offset="1" style="stop-color:#3AE4E2"/>
		</linearGradient>
		<path fill-rule="evenodd" clip-rule="evenodd" fill="url(#SVGID_10_)" d="M561.4,809.9c-9.8-6.6-19.2-14.1-30-25.8
			c-10.8-11.7-22.8-27.8-25.6-53.9c-1.9-17.8,0.5-40.2,6.8-60.6c66.5,12.7,103.5,56.1,110.9,130.3c-7.3,9.8-19.1,17.4-29.2,19.7
			C581.4,822.3,571.2,816.5,561.4,809.9z"/>
		<path fill-rule="evenodd" clip-rule="evenodd" fill="#3657A6" d="M582.8,656.7c0.3-1.3,1.6-2.1,2.9-1.8s2.1,1.6,1.8,2.9
			c-3.1,13.5-6.3,27-8.7,41.4c-2.4,14.3-4.2,29.3-4.6,46c-0.4,14.5,0.3,30.2,1.5,45.5c1.6,20.1,4.1,39.6,6.4,55
			c2,13.5,3.9,23.9,5.8,32.8c1.5,7.3,2.9,13.4,4.4,19.3l-4.9,0.3c-1.4-5.8-2.8-11.8-4.2-18.6c-1.8-8.8-3.7-19.3-5.8-33.1
			c-2.3-15.5-4.8-35.1-6.4-55.3c-1.2-15.5-1.9-31.4-1.5-46c0.4-16.9,2.2-32.2,4.7-46.7C576.5,683.9,579.7,670.3,582.8,656.7z"/>
		<path fill-rule="evenodd" clip-rule="evenodd" fill="#1EF2EC" d="M533.8,831.4c-3.2,10.9-5.4,19.7-11.1,26.7
			c-5.6,6.9-14.7,12-28,11c-13.3-0.9-30.8-7.7-46.5-22.5c-15.7-14.8-29.6-37.4-34.4-60.6c-4.8-23.2-0.4-46.9,5.9-64.2
			c6.2-17.3,14.4-28.3,23.9-35.2c9.5-6.9,20.5-9.6,32.9-8.5c12.4,1,26.2,5.9,36.9,19.2c10.7,13.4,18.2,35.4,23.1,53
			c4.8,17.7,6.9,31,5.9,44.2C541.3,807.6,537,820.5,533.8,831.4z"/>
		
			<linearGradient id="SVGID_11_" gradientUnits="userSpaceOnUse" x1="472.835" y1="832.9125" x2="524.7128" y2="552.3885" gradientTransform="matrix(0.9984 -5.605090e-02 5.605090e-02 0.9984 -41.2326 30.9)">
			<stop  offset="0" style="stop-color:#70B3BF"/>
			<stop  offset="0.1974" style="stop-color:#5CC5CC"/>
			<stop  offset="0.454" style="stop-color:#49D6D8"/>
			<stop  offset="0.7183" style="stop-color:#3EE1E0"/>
			<stop  offset="1" style="stop-color:#3AE4E2"/>
		</linearGradient>
		<path fill-rule="evenodd" clip-rule="evenodd" fill="url(#SVGID_11_)" d="M533.8,831.4c-3.2,10.9-5.4,19.7-11.1,26.7
			c-5.6,6.9-14.7,12-28,11c-13.3-0.9-30.8-7.7-46.5-22.5c-10.5-9.8-20.1-23.2-26.8-37.9c42.2-31.5,66.6-73.5,73.3-126.2
			c6.7,3,13.1,7.7,18.7,14.7c10.7,13.4,18.2,35.4,23.1,53c4.8,17.7,6.9,31,5.9,44.2C541.3,807.6,537,820.5,533.8,831.4z"/>
		
			<linearGradient id="SVGID_12_" gradientUnits="userSpaceOnUse" x1="510.0123" y1="807.0486" x2="445.3252" y2="625.7968" gradientTransform="matrix(0.9984 -5.605090e-02 5.605090e-02 0.9984 -41.2326 30.9)">
			<stop  offset="0" style="stop-color:#529DA9"/>
			<stop  offset="0.3933" style="stop-color:#48BAC1"/>
			<stop  offset="1" style="stop-color:#3AE4E2"/>
		</linearGradient>
		<path fill-rule="evenodd" clip-rule="evenodd" fill="url(#SVGID_12_)" d="M533.8,831.4c-3.2,10.9-5.4,19.7-11.1,26.7
			c-5.6,6.9-14.7,12-28,11c-2-0.1-4.2-0.4-6.4-0.8c-23.1-61.2-16.7-120.3,19.1-177.3c2,1.9,4,3.9,5.9,6.3
			c10.7,13.4,18.2,35.4,23.1,53c4.8,17.7,6.9,31,5.9,44.2C541.3,807.6,537,820.5,533.8,831.4z"/>
		<path fill-rule="evenodd" clip-rule="evenodd" fill="#3657A6" d="M525.4,901.5c-2.8-3.4-5.5-6.8-8.1-10.2
			c-5.5-7.3-10.7-14.9-15.2-23.1c-4.2-7.7-7.9-16-10.8-24.2c-3.3-9.1-5.8-18-7.4-25.9c-3-14.9-2.7-25.5-2.4-36.2
			c0-1.3,1.1-2.4,2.5-2.3c1.3,0,2.4,1.1,2.3,2.5c-0.3,10.4-0.6,20.8,2.3,35.1c1.5,7.6,3.9,16.3,7.2,25.2c2.9,7.9,6.4,16,10.5,23.5
			c4.4,8,9.4,15.4,14.8,22.5c3.3,4.4,6.7,8.6,10.2,12.8L525.4,901.5z"/>
		<path fill-rule="evenodd" clip-rule="evenodd" fill="#1EF2EC" d="M578,844.3c-5.5,8.7-12.6,15.8-22.4,20.6
			c-9.8,4.8-22.1,7.3-32.9-2.8c-10.8-10.1-20-32.7-25.7-56.5c-5.7-23.7-7.8-48.6-3.7-68.3c4.2-19.7,14.6-34.3,32.5-39.5
			c17.9-5.2,43.3-1.1,55.7,12.9c12.4,14,12,37.7,11.4,56.7c-0.6,19-1.3,33.2-3.5,45.4C587.1,825.2,583.4,835.6,578,844.3z"/>
		
			<linearGradient id="SVGID_13_" gradientUnits="userSpaceOnUse" x1="527.412" y1="843.0056" x2="579.2898" y2="562.4815" gradientTransform="matrix(0.9984 -5.605090e-02 5.605090e-02 0.9984 -41.2326 30.9)">
			<stop  offset="0" style="stop-color:#70B3BF"/>
			<stop  offset="0.1974" style="stop-color:#5CC5CC"/>
			<stop  offset="0.454" style="stop-color:#49D6D8"/>
			<stop  offset="0.7183" style="stop-color:#3EE1E0"/>
			<stop  offset="1" style="stop-color:#3AE4E2"/>
		</linearGradient>
		<path fill-rule="evenodd" clip-rule="evenodd" fill="url(#SVGID_13_)" d="M578,844.3c-5.5,8.7-12.6,15.8-22.4,20.6
			c-9.8,4.8-22.1,7.3-32.9-2.8c-10.8-10.1-20-32.7-25.7-56.5c-5.1-21.1-7.3-43-4.9-61.4c25.4,30.1,70.2,34.5,101,10
			c0,4.6-0.1,9.1-0.2,13.3c-0.6,19-1.3,33.2-3.5,45.4C587.1,825.2,583.4,835.6,578,844.3z"/>
		
			<linearGradient id="SVGID_14_" gradientUnits="userSpaceOnUse" x1="533.1648" y1="868.5691" x2="553.6597" y2="686.6768" gradientTransform="matrix(0.9984 -5.605090e-02 5.605090e-02 0.9984 -41.2326 30.9)">
			<stop  offset="0" style="stop-color:#529DA9"/>
			<stop  offset="0.3933" style="stop-color:#48BAC1"/>
			<stop  offset="1" style="stop-color:#3AE4E2"/>
		</linearGradient>
		<path fill-rule="evenodd" clip-rule="evenodd" fill="url(#SVGID_14_)" d="M578,844.3c-5.5,8.7-12.6,15.8-22.4,20.6
			c-9.8,4.8-22.1,7.3-32.9-2.8c-9.3-8.7-17.4-26.6-23.1-46.5c20.3,47.6,48.8,52.2,85.6,13.6C583.2,834.7,580.8,839.7,578,844.3z"/>
		<path fill-rule="evenodd" clip-rule="evenodd" fill="#3657A6" d="M540.8,760.5c0.1-1.3,1.2-2.3,2.5-2.3c1.3,0.1,2.3,1.2,2.3,2.5
			c-1.7,39.5-1,71.1,2,94.8c2.7,21.1,7.3,35.8,13.7,44l-5.6,0.3c-6-9.2-10.2-23.8-12.8-43.7C539.7,832.2,539,800.3,540.8,760.5z"/>
	</g>
	<path opacity="0.74" fill="#FFFFFF" d="M44.6,45.9h189.7v184.5H44.6V45.9z M36,239h206.9V37.3H36V239z M171.5,109.2
		c0-0.7,0.3-1,1-1h13.5c0.7,0,1,0.3,1,1v68c0,0.7-0.2,1-1,1h-13.4c-0.9,0-1.1-0.4-1.1-1.1L171.5,109.2L171.5,109.2L171.5,109.2z
		 M170.6,89.6c0-5.5,3.9-8.8,8.8-8.8c5.3,0,8.8,3.5,8.8,8.8c0,5.7-3.7,8.8-9,8.8C174.2,98.4,170.6,95.3,170.6,89.6z M131.8,137.5
		c-2.4-9.6-8.1-30.4-10.3-40.5h-0.2c-1.8,10.1-6.4,27.2-10,40.5H131.8z M107.8,151.5l-6.8,25.9c-0.2,0.7-0.4,0.9-1.3,0.9H87
		c-0.9,0-1-0.3-0.9-1.3l24.5-85.7c0.4-1.6,0.7-2.9,0.9-7.2c0-0.6,0.3-0.9,0.7-0.9h18.1c0.6,0,0.9,0.2,1,0.9l27.4,93
		c0.2,0.7,0,1.1-0.7,1.1h-14.3c-0.7,0-1.1-0.2-1.3-0.8l-7.1-26H107.8L107.8,151.5z"/>
</g>
</svg>
