<?xml version="1.0" encoding="utf-8"?>
<!-- Generator: Adobe Illustrator 23.0.2, SVG Export Plug-In . SVG Version: 6.00 Build 0)  -->
<svg version="1.1" id="Layer_1" xmlns="http://www.w3.org/2000/svg" xmlns:xlink="http://www.w3.org/1999/xlink" x="0px" y="0px"
	 viewBox="0 0 1080 720" enable-background="new 0 0 1080 720" xml:space="preserve">
<g>
	<linearGradient id="SVGID_1_" gradientUnits="userSpaceOnUse" x1="-102.7084" y1="617.2916" x2="411.8749" y2="102.7084">
		<stop  offset="0" style="stop-color:#574EB9"/>
		<stop  offset="1" style="stop-color:#3960B6"/>
	</linearGradient>
	<rect fill="url(#SVGID_1_)" width="309.2" height="720"/>
	<linearGradient id="SVGID_2_" gradientUnits="userSpaceOnUse" x1="212.0142" y1="652.7215" x2="838.7662" y2="25.9695">
		<stop  offset="0" style="stop-color:#5E67D4"/>
		<stop  offset="1" style="stop-color:#258DCD"/>
	</linearGradient>
	<path fill="url(#SVGID_2_)" d="M310.8,720c-11.2-23.9-30-71.7-101.1-94.1C138.5,603.4,59.8,499.5,70.1,420.9s72.8-85,92.7-115.2
		c21.9-33.2,35.6-61.8,27.2-155.4S196.5,0,196.5,0h616.3v720H310.8z"/>
	<linearGradient id="SVGID_3_" gradientUnits="userSpaceOnUse" x1="526.6207" y1="726.3066" x2="1166.4387" y2="86.4887">
		<stop  offset="0" style="stop-color:#579DFF"/>
		<stop  offset="1" style="stop-color:#2CCDFF"/>
	</linearGradient>
	<path fill="url(#SVGID_3_)" d="M529.2,720c-7.4-17.1-40.4-42.1-45.5-44.5S380.5,611.3,370.8,490s182.6-159.3,214.6-167.2
		c32-7.8,133.9-52.7,143.1-167.3C737.8,40.8,705.8,0,705.8,0H1080v483.8V720H529.2z"/>
	<linearGradient id="SVGID_4_" gradientUnits="userSpaceOnUse" x1="827.0624" y1="794.5474" x2="1108.9015" y2="512.7083">
		<stop  offset="0" style="stop-color:#376ED8"/>
		<stop  offset="1" style="stop-color:#2977D1"/>
	</linearGradient>
	<path fill="url(#SVGID_4_)" d="M752.5,720c10.2-38.4,23.7-77.8,100.5-86.6s180.6,21.4,220.6-130.9c3.1-11.9,6.4-18.7,6.4-18.7V720
		H752.5z"/>
</g>
<g>
	<g>
		
			<linearGradient id="SVGID_5_" gradientUnits="userSpaceOnUse" x1="83.585" y1="354.9659" x2="164.0148" y2="354.9659" gradientTransform="matrix(0.7993 -0.6009 -0.6009 -0.7993 377.1443 787.3705)">
			<stop  offset="0" style="stop-color:#D0F04F"/>
			<stop  offset="1" style="stop-color:#3CA845"/>
		</linearGradient>
		<path fill="url(#SVGID_5_)" d="M306.5,420.5c13.3,18.2,18.4,41.5,4.4,70.9c0,0-42.3,13.1-70.9-25.4c14.7,3.4,29,5.5,29.4,5.6
			c-13.6-6.4-25.1-10.4-34.3-12.9c0,0,0,0,0,0c-3.8-6.4-7.2-13.9-10.2-22.7c13.1,2.8,24.7,4.5,25.1,4.6
			c-10.2-4.8-19.2-8.2-26.9-10.7c-2.2-7.7-4.1-16.2-5.4-25.8c11.7,2.4,21.4,3.9,21.8,3.9c-8.3-3.9-15.8-6.9-22.5-9.2
			c-1.2-9.6-1.9-20.1-2.2-31.7c0,0,15.3,3.7,34.1,11.9c0.4,6.1,1.2,12.8,2.4,20.2c0-0.3,1.1-8.1,2-18.3c7.7,3.5,15.9,7.8,23.8,12.9
			l0,0c0.4,7.2,1.2,15.4,2.6,24.6c0-0.3,1.3-9.7,2.2-21.3c7,4.9,13.6,10.5,19.3,16.8c0.1,8.7,0.9,19.3,2.9,31.8
			C304,445.2,305.6,433.8,306.5,420.5z"/>
		<g opacity="0.5">
			<path fill="#FFFFFF" d="M311.7,490.9l-1.5,1c-0.4-0.6-39.9-63.1-81.1-107.5l0,0l0,0C280.1,436.4,311.3,490.3,311.7,490.9z"/>
		</g>
	</g>
	<g>
		
			<linearGradient id="SVGID_6_" gradientUnits="userSpaceOnUse" x1="144.2723" y1="364.3967" x2="224.6944" y2="364.3967" gradientTransform="matrix(0.7226 -0.3187 -0.4035 -0.915 274.7597 770.5728)">
			<stop  offset="0" style="stop-color:#D0F04F"/>
			<stop  offset="1" style="stop-color:#3CA845"/>
		</linearGradient>
		<path fill="url(#SVGID_6_)" d="M297.9,383.2c8.9,20.7,10.4,43.8-4.3,66.8c0,0-36.2-0.4-55.3-44.4c11.7,7.5,23.1,13.6,23.5,13.8
			c-10.5-9.9-19.4-17-26.7-22c0,0,0,0,0,0c-2.4-7-4.4-14.9-5.8-23.9c10.4,6.5,19.7,11.5,20,11.6c-7.9-7.4-14.9-13.3-20.9-17.9
			c-1-7.7-1.5-16.2-1.6-25.4c9.3,5.7,17.2,9.9,17.4,10c-6.4-6-12.2-11-17.4-15.2c0.1-9.2,0.6-19.1,1.7-29.9c0,0,12.1,7.9,26.6,21
			c-0.3,5.7-0.4,12.2-0.3,19.4c0.1-0.3,1.8-7.2,3.7-16.3c5.9,5.6,12.2,11.9,18,18.9l0,0c-0.5,6.7-0.7,14.5-0.6,23.5
			c0.1-0.3,2.2-8.6,4.2-19c5.2,6.6,10,13.7,13.9,21.2c-0.9,8.1-1.4,18.1-1.2,30.2C293.1,405.3,295.6,395.1,297.9,383.2z"/>
		<g opacity="0.5">
			<path fill="#FFFFFF" d="M294.2,449.7l-1.3,0.5c-0.3-0.7-25.7-70-54.5-123.1l0,0l0,0C274.4,390,294,449,294.2,449.7z"/>
		</g>
	</g>
	<g>
		
			<linearGradient id="SVGID_7_" gradientUnits="userSpaceOnUse" x1="305.9272" y1="488.2372" x2="386.3522" y2="488.2372" gradientTransform="matrix(0.6994 -0.7147 -0.7147 -0.6994 506.8489 798.1544)">
			<stop  offset="0" style="stop-color:#D0F04F"/>
			<stop  offset="1" style="stop-color:#3CA845"/>
		</linearGradient>
		<path fill="url(#SVGID_7_)" d="M441.9,194c15.9,16,24.5,38.3,15.1,69.4c0,0-39.9,19.4-73.9-14.4c15.1,1.1,29.5,1.1,29.9,1.1
			c-14.5-4.2-26.4-6.5-35.8-7.6c0,0,0,0,0,0c-4.7-5.7-9.3-12.6-13.5-20.9c13.4,0.8,25.1,0.8,25.5,0.8c-10.8-3.2-20.2-5.2-28.3-6.5
			c-3.3-7.2-6.5-15.4-9.3-24.7c11.9,0.6,21.8,0.6,22.1,0.6c-8.8-2.6-16.7-4.4-23.6-5.7c-2.6-9.3-5-19.6-7-31c0,0,15.6,1.3,35.5,6.6
			c1.4,5.9,3.1,12.5,5.4,19.6c0-0.3-0.1-8.2-0.8-18.4c8.2,2.3,16.9,5.4,25.4,9.2l0,0c1.5,7,3.5,15,6.3,23.9c0-0.3-0.2-9.8-1-21.4
			c7.7,3.8,15,8.3,21.6,13.7c1.5,8.6,3.8,18.9,7.6,31C443.2,218.9,443,207.3,441.9,194z"/>
		<g opacity="0.5">
			<path fill="#FFFFFF" d="M457.7,262.9l-1.3,1.2c-0.5-0.5-49-56.3-96.4-94l0,0l0,0C418.2,213.8,457.2,262.3,457.7,262.9z"/>
		</g>
	</g>
	<g>
		
			<linearGradient id="SVGID_8_" gradientUnits="userSpaceOnUse" x1="441.8481" y1="501.1208" x2="522.2701" y2="501.1208" gradientTransform="matrix(0.7226 -0.3187 -0.4035 -0.915 274.7597 770.5728)">
			<stop  offset="0" style="stop-color:#D0F04F"/>
			<stop  offset="1" style="stop-color:#3CA845"/>
		</linearGradient>
		<path fill="url(#SVGID_8_)" d="M457.7,163.2c8.9,20.7,10.4,43.8-4.3,66.8c0,0-36.2-0.4-55.3-44.4c11.7,7.5,23.1,13.6,23.5,13.8
			c-10.5-9.9-19.4-17-26.7-22c0,0,0,0,0,0c-2.4-7-4.4-14.9-5.8-23.9c10.4,6.5,19.7,11.5,20,11.6c-7.9-7.4-14.9-13.3-20.9-17.9
			c-1-7.7-1.5-16.2-1.6-25.4c9.3,5.7,17.2,9.9,17.4,10c-6.4-6-12.2-11-17.4-15.2c0.1-9.2,0.6-19.1,1.7-29.9c0,0,12.1,7.9,26.6,21
			c-0.3,5.7-0.5,12.2-0.3,19.3c0.1-0.3,1.8-7.2,3.7-16.3c5.9,5.6,12.2,11.9,18,18.9l0,0c-0.5,6.7-0.7,14.5-0.6,23.5
			c0.1-0.3,2.2-8.6,4.2-19c5.2,6.6,10,13.7,13.9,21.2c-0.9,8.1-1.4,18.1-1.2,30.2C452.9,185.3,455.5,175.2,457.7,163.2z"/>
		<g opacity="0.5">
			<path fill="#FFFFFF" d="M454.1,229.7l-1.3,0.4c-0.3-0.7-25.7-70-54.5-123.1l0,0l0,0C434.3,170.1,453.9,229.1,454.1,229.7z"/>
		</g>
	</g>
	<g>
		
			<linearGradient id="SVGID_9_" gradientUnits="userSpaceOnUse" x1="739.8143" y1="346.7321" x2="820.2375" y2="346.7321" gradientTransform="matrix(0.7552 0.2309 0.2924 -0.9563 -213.8389 333.9474)">
			<stop  offset="0" style="stop-color:#D0F04F"/>
			<stop  offset="1" style="stop-color:#3CA845"/>
		</linearGradient>
		<path fill="url(#SVGID_9_)" d="M501.4,210.2c-6.8,21.5-20.7,40-46.9,47.7c0,0-27.1-23.9-12.9-69.7c4,13.3,8.6,25.4,8.8,25.8
			c-1.5-14.4-3.6-25.6-5.8-34.1c0,0,0,0,0,0c2.8-6.9,6.4-14.2,11.2-21.9c3.6,11.7,7.4,21.6,7.6,21.9c-1.1-10.8-2.6-19.8-4.2-27.2
			c4.3-6.5,9.4-13.2,15.4-20.3c3.3,10.4,6.5,18.7,6.6,19c-0.9-8.8-2-16.3-3.3-22.9c6.1-6.9,13-14.1,20.9-21.5c0,0,4,13.9,6.4,33.3
			c-4,4.1-8.3,8.9-12.9,14.4c0.2-0.2,6.1-4.2,13.4-9.9c0.9,8.1,1.4,17,1.3,26.1l0,0c-4.8,4.8-10,10.5-15.8,17.4
			c0.2-0.2,7.3-5.1,15.6-11.6c-0.4,8.4-1.4,16.9-3.3,25.1c-5.9,5.5-12.9,12.8-20.6,22.1C483.3,223.8,491.9,217.8,501.4,210.2z"/>
		<g opacity="0.5">
			<path fill="#FFFFFF" d="M455.2,258.2l-1.3-0.5c0.2-0.7,26.3-69.8,39.2-128.8l0,0l0,0C479.1,200.1,455.4,257.5,455.2,258.2z"/>
		</g>
	</g>
	<g>
		
			<linearGradient id="SVGID_10_" gradientUnits="userSpaceOnUse" x1="1026.1686" y1="-8.6957" x2="1106.5973" y2="-8.6957" gradientTransform="matrix(0.7331 0.2936 0.3718 -0.9283 43.2993 58.8373)">
			<stop  offset="0" style="stop-color:#D0F04F"/>
			<stop  offset="1" style="stop-color:#3CA845"/>
		</linearGradient>
		<path fill="url(#SVGID_10_)" d="M844.2,409.7c-8.6,20.8-24,38.1-50.7,43.6c0,0-25-26.1-6.9-70.5c2.8,13.6,6.4,26.1,6.5,26.4
			c-0.2-14.4-1.4-25.8-2.9-34.5c0,0,0,0,0,0c3.3-6.6,7.6-13.6,13-20.9c2.7,12,5.6,22.1,5.7,22.5c-0.2-10.8-0.9-19.9-1.9-27.4
			c4.8-6.1,10.5-12.4,17.1-18.9c2.5,10.6,4.9,19.2,5,19.5c-0.2-8.8-0.7-16.5-1.3-23.1c6.6-6.4,14.1-12.9,22.6-19.7
			c0,0,2.8,14.2,3.6,33.7c-4.3,3.8-9,8.2-14.1,13.3c0.2-0.1,6.4-3.7,14.2-8.8c0.2,8.1,0,17-0.9,26.1l0,0c-5.1,4.4-10.9,9.6-17.2,16
			c0.3-0.1,7.7-4.5,16.5-10.3c-1.1,8.3-2.8,16.7-5.4,24.8c-6.4,5-13.9,11.6-22.4,20.3C825,421.7,834,416.5,844.2,409.7z"/>
		<g opacity="0.5">
			<path fill="#FFFFFF" d="M794.1,453.6l-1.2-0.6c0.3-0.7,32-67.3,49.9-125.1l0,0l0,0C822.8,397.8,794.4,453,794.1,453.6z"/>
		</g>
	</g>
	<g>
		
			<linearGradient id="SVGID_11_" gradientUnits="userSpaceOnUse" x1="865.4048" y1="332.1729" x2="807.272" y2="250.0043" gradientTransform="matrix(1 0 0 -1 0 722)">
			<stop  offset="0" style="stop-color:#D0F04F"/>
			<stop  offset="1" style="stop-color:#3CA845"/>
		</linearGradient>
		<path fill="url(#SVGID_11_)" d="M849,466.4c-16.1,15.8-37,25.6-63.7,20.3c0,0-12.8-33.8,21.2-67.6c-2.7,13.6-4.3,26.5-4.3,26.9
			c5.4-13.4,8.8-24.3,10.8-32.9c0,0,0,0,0,0c5.7-4.8,12.3-9.5,20.2-14.1c-2.2,12-3.5,22.5-3.6,22.9c4-10,7-18.7,9-26
			c6.8-3.7,14.5-7.3,23.1-10.7c-1.9,10.7-3,19.6-3,19.9c3.3-8.1,5.8-15.4,7.8-21.8c8.6-3.3,18.1-6.4,28.5-9.2c0,0-2.9,14.1-9.9,32.5
			c-5.5,1.8-11.5,4-18.2,6.7c0.3,0,7.3-0.9,16.5-2.5c-3,7.6-6.7,15.7-11.1,23.7l0,0c-6.4,2-13.8,4.6-22.1,8c0.3,0,8.8-1.1,19.2-3
			c-4.3,7.2-9.1,14.3-14.7,20.7c-7.8,2.1-17.3,5.3-28.5,9.9C826.7,470,837,468.7,849,466.4z"/>
		<g opacity="0.5">
			<path fill="#FFFFFF" d="M785.7,487.3l-0.9-1.1c0.5-0.5,55.8-49.4,94.9-95.6l0,0l0,0C834.1,447.1,786.3,486.8,785.7,487.3z"/>
		</g>
	</g>
	
		<linearGradient id="SVGID_12_" gradientUnits="userSpaceOnUse" x1="488.41" y1="200.27" x2="607.92" y2="200.27" gradientTransform="matrix(1 0 0 -1 0 722)">
		<stop  offset="0" style="stop-color:#F0F6FF"/>
		<stop  offset="0.5052" style="stop-color:#E6EFFC"/>
		<stop  offset="1" style="stop-color:#D7E4F7"/>
	</linearGradient>
	<rect x="488.4" y="489.3" fill="url(#SVGID_12_)" width="119.5" height="64.8"/>
	
		<linearGradient id="SVGID_13_" gradientUnits="userSpaceOnUse" x1="453.01" y1="151.64" x2="643.32" y2="151.64" gradientTransform="matrix(1 0 0 -1 0 722)">
		<stop  offset="0" style="stop-color:#F0F6FF"/>
		<stop  offset="0.5052" style="stop-color:#E6EFFC"/>
		<stop  offset="1" style="stop-color:#D7E4F7"/>
	</linearGradient>
	<path fill="url(#SVGID_13_)" d="M643.3,586.6H453l0,0c0-17.9,14.5-32.4,32.4-32.4h125.5C628.8,554.2,643.3,568.7,643.3,586.6
		L643.3,586.6z"/>
	
		<linearGradient id="SVGID_14_" gradientUnits="userSpaceOnUse" x1="292.13" y1="352.68" x2="792.01" y2="352.68" gradientTransform="matrix(1 0 0 -1 0 722)">
		<stop  offset="0" style="stop-color:#F0F6FF"/>
		<stop  offset="0.5052" style="stop-color:#E6EFFC"/>
		<stop  offset="1" style="stop-color:#D7E4F7"/>
	</linearGradient>
	<path fill="url(#SVGID_14_)" d="M792,243.6V495c0,12.1-9.8,21.9-21.9,21.9H314c-12.1,0-21.9-9.8-21.9-21.9V243.6
		c0-0.9,0-1.7,0.1-2.5c1.2-10.9,10.5-19.4,21.7-19.4h456.1c11.2,0,20.5,8.5,21.7,19.4C792,241.9,792,242.8,792,243.6z"/>
	<path fill="#5844E2" d="M792,248.7v240.6L293,495l-1-248.7h499.9C792,247.1,792,247.9,792,248.7z"/>
	<g>
		
			<linearGradient id="SVGID_15_" gradientUnits="userSpaceOnUse" x1="5898.8936" y1="-1566.2052" x2="5813.4507" y2="-1621.7428" gradientTransform="matrix(-0.8718 0.4899 0.4899 0.8718 6175.1831 -1023.258)">
			<stop  offset="0" style="stop-color:#FFEA00"/>
			<stop  offset="1" style="stop-color:#FFAE00"/>
		</linearGradient>
		<path fill="url(#SVGID_15_)" d="M246.4,489.1c-1.8,0.4-3.8,0.2-5.6-0.7c-4-2.1-5.6-7-3.6-11l13.9-27.2c1.5-2.9,4.6-4.7,7.9-4.4
			l25.1,1.9l11.5-22.4c1.5-2.9,4.6-4.7,7.9-4.4l30.5,2.3c4.5,0.3,7.9,4.3,7.5,8.8c-0.3,4.5-4.2,7.9-8.8,7.6l-25.1-1.9l-11.5,22.4
			c-1.5,2.9-4.6,4.7-7.9,4.4l-25.1-1.9l-11.5,22.4C250.7,487.1,248.6,488.6,246.4,489.1z"/>
	</g>
	
		<linearGradient id="SVGID_16_" gradientUnits="userSpaceOnUse" x1="640.5499" y1="500.255" x2="875.3799" y2="500.255" gradientTransform="matrix(1 0 0 -1 0 722)">
		<stop  offset="0" style="stop-color:#F0F6FF"/>
		<stop  offset="0.5052" style="stop-color:#E6EFFC"/>
		<stop  offset="1" style="stop-color:#D7E4F7"/>
	</linearGradient>
	<path opacity="0.5" fill="url(#SVGID_16_)" enable-background="new    " d="M839,238.5c-1,0-2.1,0.1-3.1,0.2c0-0.6,0-1.2,0-1.7
		c0-37.8-30.6-68.4-68.4-68.4c-36,0-65.4,27.8-68.2,63c-4.2-1.3-8.8-2-13.5-2c-25.1,0-45.4,20.3-45.4,45.4h234.8
		C875.4,254.8,859.1,238.5,839,238.5z"/>
	
		<linearGradient id="SVGID_17_" gradientUnits="userSpaceOnUse" x1="238.4" y1="188.6151" x2="473.23" y2="188.6151" gradientTransform="matrix(1 0 0 -1 0 722)">
		<stop  offset="0" style="stop-color:#F0F6FF"/>
		<stop  offset="0.5052" style="stop-color:#E6EFFC"/>
		<stop  offset="1" style="stop-color:#D7E4F7"/>
	</linearGradient>
	<path opacity="0.5" fill="url(#SVGID_17_)" enable-background="new    " d="M436.8,550.2c-1,0-2.1,0.1-3.1,0.2c0-0.6,0-1.2,0-1.7
		c0-37.8-30.6-68.4-68.4-68.4c-36,0-65.4,27.8-68.1,63c-4.2-1.3-8.8-2-13.5-2c-25.1,0-45.4,20.3-45.4,45.4h234.8
		C473.2,566.5,456.9,550.2,436.8,550.2z"/>
	<g>
		
			<linearGradient id="SVGID_18_" gradientUnits="userSpaceOnUse" x1="471.496" y1="-458.2085" x2="499.9923" y2="-458.2085" gradientTransform="matrix(0.9228 0.3852 0.3852 -0.9228 379.7647 -407.6476)">
			<stop  offset="0" style="stop-color:#FFEA00"/>
			<stop  offset="1" style="stop-color:#FFAE00"/>
		</linearGradient>
		<path fill="url(#SVGID_18_)" d="M626.5,225.3c3.7,2.1,6.4,2.5,8.2-1.9l5.4-12.9c2.1-5,5.2-8.1,9.5-9.1c-2.3-3.6-2.3-8.1-0.2-13.1
			l5.4-12.9c1.8-4.4-0.4-6-4.5-7.2l5.5-13.1c14.2,4.9,17.5,14.1,12.6,25.9l-5.4,12.9c-1.8,4.4,0.4,6,4.5,7.2l-5.5,13.1
			c-3.7-2.1-6.4-2.5-8.2,1.9l-5.4,12.9c-4.9,11.8-13.8,16-27.3,9.3L626.5,225.3z"/>
	</g>
	<g>
		
			<linearGradient id="SVGID_19_" gradientUnits="userSpaceOnUse" x1="833.2961" y1="410.0011" x2="768.285" y2="460.0832" gradientTransform="matrix(1 0 0 -1 0 722)">
			<stop  offset="0" style="stop-color:#FF006F"/>
			<stop  offset="1" style="stop-color:#FF6C00"/>
		</linearGradient>
		<path fill="url(#SVGID_19_)" d="M792.8,303.5c-12.5,0-22.7-10.2-22.7-22.6s10.2-22.7,22.7-22.7s22.7,10.2,22.7,22.7
			C815.5,293.3,805.3,303.5,792.8,303.5z M792.8,267.5c-7.3,0-13.3,6-13.3,13.3c0,7.4,6,13.3,13.3,13.3c7.3,0,13.3-6,13.3-13.3
			C806.2,273.5,800.2,267.5,792.8,267.5z"/>
	</g>
</g>
<g id="tf_logo">
	<path id="path4508" fill="#E55B2D" d="M550.5,331.9v18.9l32.7,18.9v-18.9L550.5,331.9z M485,350.8v18.9l16.4,9.5v-18.9L485,350.8z
		 M534.1,360.2l-16.4,9.5v56.7l16.4,9.5V398l16.4,9.5v-18.9l-16.4-9.5V360.2z"/>
	<path id="path4491" fill="#ED8E24" d="M550.5,331.9l-49.1,28.3v18.9l32.7-18.9v18.9l16.4-9.5V331.9z M599.6,341.3l-16.4,9.5v18.9
		l16.4-9.5V341.3z M566.8,379.1l-16.4,9.5v18.9l16.4-9.5V379.1z M550.5,407.5l-16.4-9.5v37.8l16.4-9.5V407.5z"/>
	<path id="path4506" fill="#F8BF3C" d="M550.5,313L485,350.8l16.4,9.5l49.1-28.3l32.7,18.9l16.4-9.5L550.5,313z M550.5,369.7
		l-16.4,9.5l16.4,9.5l16.4-9.5L550.5,369.7z"/>
</g>
</svg>
