<?xml version="1.0" encoding="utf-8"?>
<!-- Generator: Adobe Illustrator 23.0.2, SVG Export Plug-In . SVG Version: 6.00 Build 0)  -->
<svg version="1.1" id="Layer_1" xmlns="http://www.w3.org/2000/svg" xmlns:xlink="http://www.w3.org/1999/xlink" x="0px" y="0px"
	 viewBox="0 0 1080 960" style="enable-background:new 0 0 1080 960;" xml:space="preserve">
<style type="text/css">
	.st0{fill:url(#SVGID_1_);}
	.st1{fill:url(#SVGID_2_);}
	.st2{fill:url(#SVGID_3_);}
	.st3{fill:url(#SVGID_4_);}
	.st4{fill:url(#SVGID_5_);}
	.st5{fill:url(#SVGID_6_);}
	.st6{fill:url(#SVGID_7_);}
	.st7{fill:url(#SVGID_8_);}
	.st8{fill:url(#SVGID_9_);}
	.st9{fill:url(#SVGID_10_);}
	.st10{fill:url(#SVGID_11_);}
	.st11{fill:url(#SVGID_12_);}
	.st12{fill:url(#SVGID_13_);}
	.st13{fill:url(#SVGID_14_);}
	.st14{fill:url(#SVGID_15_);}
	.st15{fill:url(#SVGID_16_);}
	.st16{fill:url(#SVGID_17_);}
	.st17{fill:url(#SVGID_18_);}
	.st18{fill:url(#SVGID_19_);}
	.st19{display:none;fill:url(#SVGID_20_);}
	.st20{fill:#FFFFFF;}
</style>
<g>
	<linearGradient id="SVGID_1_" gradientUnits="userSpaceOnUse" x1="1080" y1="1020.425" x2="3.636387e-08" y2="-59.5749">
		<stop  offset="0" style="stop-color:#FF006F"/>
		<stop  offset="1" style="stop-color:#FF6C00"/>
	</linearGradient>
	<rect x="0" y="-59.57" class="st0" width="1080" height="1080"/>
	<g>
		<linearGradient id="SVGID_2_" gradientUnits="userSpaceOnUse" x1="890.1964" y1="761.2259" x2="858.4155" y2="729.445">
			<stop  offset="0.0125" style="stop-color:#F6921E;stop-opacity:0.7"/>
			<stop  offset="0.9996" style="stop-color:#F1F1F2;stop-opacity:0"/>
		</linearGradient>
		<circle class="st1" cx="874.31" cy="745.34" r="22.47"/>
		<linearGradient id="SVGID_3_" gradientUnits="userSpaceOnUse" x1="824.7899" y1="761.2259" x2="793.009" y2="729.445">
			<stop  offset="0.0125" style="stop-color:#F6921E;stop-opacity:0.7"/>
			<stop  offset="0.9996" style="stop-color:#F1F1F2;stop-opacity:0"/>
		</linearGradient>
		<circle class="st2" cx="808.9" cy="745.34" r="22.47"/>
		<linearGradient id="SVGID_4_" gradientUnits="userSpaceOnUse" x1="1020.0798" y1="761.2259" x2="988.2989" y2="729.445">
			<stop  offset="0.0125" style="stop-color:#F6921E;stop-opacity:0.7"/>
			<stop  offset="0.9996" style="stop-color:#F1F1F2;stop-opacity:0"/>
		</linearGradient>
		<circle class="st3" cx="1004.19" cy="745.34" r="22.47"/>
		<linearGradient id="SVGID_5_" gradientUnits="userSpaceOnUse" x1="954.6733" y1="761.2259" x2="922.8924" y2="729.445">
			<stop  offset="0.0125" style="stop-color:#F6921E;stop-opacity:0.7"/>
			<stop  offset="0.9996" style="stop-color:#F1F1F2;stop-opacity:0"/>
		</linearGradient>
		<circle class="st4" cx="938.78" cy="745.34" r="22.47"/>
		<linearGradient id="SVGID_6_" gradientUnits="userSpaceOnUse" x1="890.1964" y1="829.7184" x2="858.4155" y2="797.9375">
			<stop  offset="0.0125" style="stop-color:#F6921E;stop-opacity:0.7"/>
			<stop  offset="0.9996" style="stop-color:#F1F1F2;stop-opacity:0"/>
		</linearGradient>
		<circle class="st5" cx="874.31" cy="813.83" r="22.47"/>
		<linearGradient id="SVGID_7_" gradientUnits="userSpaceOnUse" x1="824.7899" y1="829.7184" x2="793.009" y2="797.9375">
			<stop  offset="0.0125" style="stop-color:#F6921E;stop-opacity:0.7"/>
			<stop  offset="0.9996" style="stop-color:#F1F1F2;stop-opacity:0"/>
		</linearGradient>
		<circle class="st6" cx="808.9" cy="813.83" r="22.47"/>
		<linearGradient id="SVGID_8_" gradientUnits="userSpaceOnUse" x1="1020.0798" y1="829.7184" x2="988.2989" y2="797.9375">
			<stop  offset="0.0125" style="stop-color:#F6921E;stop-opacity:0.7"/>
			<stop  offset="0.9996" style="stop-color:#F1F1F2;stop-opacity:0"/>
		</linearGradient>
		<circle class="st7" cx="1004.19" cy="813.83" r="22.47"/>
		<linearGradient id="SVGID_9_" gradientUnits="userSpaceOnUse" x1="954.6733" y1="829.7184" x2="922.8924" y2="797.9375">
			<stop  offset="0.0125" style="stop-color:#F6921E;stop-opacity:0.7"/>
			<stop  offset="0.9996" style="stop-color:#F1F1F2;stop-opacity:0"/>
		</linearGradient>
		<circle class="st8" cx="938.78" cy="813.83" r="22.47"/>
		<linearGradient id="SVGID_10_" gradientUnits="userSpaceOnUse" x1="893.2435" y1="898.2109" x2="861.4626" y2="866.43">
			<stop  offset="0.0125" style="stop-color:#F6921E;stop-opacity:0.7"/>
			<stop  offset="0.9996" style="stop-color:#F1F1F2;stop-opacity:0"/>
		</linearGradient>
		<circle class="st9" cx="877.35" cy="882.32" r="22.47"/>
		<linearGradient id="SVGID_11_" gradientUnits="userSpaceOnUse" x1="827.837" y1="898.2109" x2="796.0562" y2="866.43">
			<stop  offset="0.0125" style="stop-color:#F6921E;stop-opacity:0.7"/>
			<stop  offset="0.9996" style="stop-color:#F1F1F2;stop-opacity:0"/>
		</linearGradient>
		<circle class="st10" cx="811.95" cy="882.32" r="22.47"/>
		<linearGradient id="SVGID_12_" gradientUnits="userSpaceOnUse" x1="1023.1269" y1="898.2109" x2="991.346" y2="866.43">
			<stop  offset="0.0125" style="stop-color:#F6921E;stop-opacity:0.7"/>
			<stop  offset="0.9996" style="stop-color:#F1F1F2;stop-opacity:0"/>
		</linearGradient>
		<circle class="st11" cx="1007.24" cy="882.32" r="22.47"/>
		<linearGradient id="SVGID_13_" gradientUnits="userSpaceOnUse" x1="957.7204" y1="898.2109" x2="925.9395" y2="866.43">
			<stop  offset="0.0125" style="stop-color:#F6921E;stop-opacity:0.7"/>
			<stop  offset="0.9996" style="stop-color:#F1F1F2;stop-opacity:0"/>
		</linearGradient>
		<circle class="st12" cx="941.83" cy="882.32" r="22.47"/>
		<linearGradient id="SVGID_14_" gradientUnits="userSpaceOnUse" x1="891.1746" y1="966.7034" x2="859.3936" y2="934.9225">
			<stop  offset="0.0125" style="stop-color:#F6921E;stop-opacity:0.7"/>
			<stop  offset="0.9996" style="stop-color:#F1F1F2;stop-opacity:0"/>
		</linearGradient>
		<circle class="st13" cx="875.28" cy="950.81" r="22.47"/>
		<linearGradient id="SVGID_15_" gradientUnits="userSpaceOnUse" x1="825.768" y1="966.7034" x2="793.9871" y2="934.9225">
			<stop  offset="0.0125" style="stop-color:#F6921E;stop-opacity:0.7"/>
			<stop  offset="0.9996" style="stop-color:#F1F1F2;stop-opacity:0"/>
		</linearGradient>
		<circle class="st14" cx="809.88" cy="950.81" r="22.47"/>
		<linearGradient id="SVGID_16_" gradientUnits="userSpaceOnUse" x1="1021.0579" y1="966.7034" x2="989.277" y2="934.9225">
			<stop  offset="0.0125" style="stop-color:#F6921E;stop-opacity:0.7"/>
			<stop  offset="0.9996" style="stop-color:#F1F1F2;stop-opacity:0"/>
		</linearGradient>
		<circle class="st15" cx="1005.17" cy="950.81" r="22.47"/>
		<linearGradient id="SVGID_17_" gradientUnits="userSpaceOnUse" x1="955.6514" y1="966.7034" x2="923.8705" y2="934.9225">
			<stop  offset="0.0125" style="stop-color:#F6921E;stop-opacity:0.7"/>
			<stop  offset="0.9996" style="stop-color:#F1F1F2;stop-opacity:0"/>
		</linearGradient>
		<circle class="st16" cx="939.76" cy="950.81" r="22.47"/>
	</g>
	<linearGradient id="SVGID_18_" gradientUnits="userSpaceOnUse" x1="107.0534" y1="-75.8442" x2="622.8496" y2="439.952">
		<stop  offset="0" style="stop-color:#FF006F"/>
		<stop  offset="0.7606" style="stop-color:#FF6C00"/>
	</linearGradient>
	<path class="st17" d="M0,385.26c0,0,97.14,177.84,241.01,148.64c143.87-29.2,37.69-244.2,162.45-233.58
		c124.76,10.62,172.53,100.87,225.62,42.47c87.56-96.32-63.7-193.77-23.89-270.75c39.82-76.98,92.13,70.29,151.3-2.65
		c45.22-55.74-47.78-128.97-47.78-128.97H0V385.26z"/>
	<linearGradient id="SVGID_19_" gradientUnits="userSpaceOnUse" x1="46.2576" y1="1066.6826" x2="304.492" y2="808.4483">
		<stop  offset="0" style="stop-color:#FF006F"/>
		<stop  offset="1" style="stop-color:#FF6C00"/>
	</linearGradient>
	<path class="st18" d="M0,831.2c0,0,153.53-106.17,228.06,10.62s86.94-5.31,156.38,47.78c69.45,53.09-10.19,130.83-10.19,130.83H0
		V831.2z"/>
</g>
<linearGradient id="SVGID_20_" gradientUnits="userSpaceOnUse" x1="318.9261" y1="695.1273" x2="-10.5298" y2="948.9276" gradientTransform="matrix(1 0 0 -1 0 960)">
	<stop  offset="0" style="stop-color:#FF006F"/>
	<stop  offset="1" style="stop-color:#FF6C00"/>
</linearGradient>
<path class="st19" d="M310.19,0c0,0-0.23,276.22,0,276.22H-1.43C-1.42,276.22-2,0-2,0H310.19z"/>
<path class="st20" d="M655.24,593.75c30.14-30.47,46.73-70.72,46.73-113.33c0-5.5-4.46-9.96-9.96-9.96s-9.96,4.46-9.96,9.96
	c0,37.33-14.55,72.61-40.97,99.32c-26.39,26.68-61.22,41.37-98.07,41.37s-71.68-14.7-98.07-41.38
	c-26.42-26.71-40.97-61.98-40.97-99.32s14.55-72.61,40.97-99.32c26.22-26.51,60.77-41.18,97.35-41.37
	c7.97,0.09,14.42,6.72,14.42,14.86c0,8.2-6.55,14.87-14.6,14.87c-0.36,0-0.72,0.02-1.07,0.06c-27.53,0.86-53.39,12.21-73.15,32.19
	c-20.54,20.77-31.85,48.2-31.85,77.25s11.31,56.48,31.85,77.25c20.57,20.8,47.75,32.25,76.55,32.25s55.99-11.45,76.56-32.25
	c20.54-20.77,31.85-48.2,31.85-77.25c0-19.19-15.49-34.8-34.53-34.8s-34.53,15.61-34.53,34.8c0,0.29,0.02,0.57,0.04,0.85
	c-0.02,0.28-0.04,0.56-0.04,0.85c0,21.95-18,39.8-40.14,39.8s-40.14-17.86-40.14-39.8s18-39.8,40.14-39.8c5.5,0,9.96-4.46,9.96-9.96
	c0-5.5-4.46-9.96-9.96-9.96c-33.12,0-60.07,26.8-60.07,59.73s26.94,59.73,60.07,59.73s60.07-26.8,60.07-59.73
	c0-0.29-0.02-0.57-0.04-0.85c0.02-0.28,0.04-0.56,0.04-0.85c0-8.2,6.55-14.87,14.6-14.87s14.6,6.67,14.6,14.87
	c0,23.77-9.27,46.23-26.09,63.24c-16.8,16.98-38.95,26.33-62.39,26.33c-23.43,0-45.59-9.35-62.39-26.33
	c-16.83-17.01-26.09-39.47-26.09-63.24c0-23.77,9.27-46.23,26.09-63.24c16.8-16.98,38.95-26.33,62.39-26.33
	c0.92,0,1.8-0.13,2.65-0.37c16.69-2.44,29.55-16.95,29.55-34.43c0-18.52-14.43-33.7-32.56-34.74c-0.36-0.04-0.71-0.06-1.08-0.06
	c-0.2,0-0.4,0.01-0.6,0.01c-0.1,0-0.19-0.01-0.29-0.01c-0.1,0-0.19,0.01-0.29,0.02c-41.78,0.31-81.17,17.07-111.05,47.28
	c-30.14,30.47-46.73,70.72-46.73,113.33s16.59,82.86,46.73,113.33c30.16,30.5,70.02,47.29,112.23,47.29
	C585.22,641.05,625.08,624.25,655.24,593.75z"/>
</svg>
