<?xml version="1.0" encoding="utf-8"?>
<!-- Generator: Adobe Illustrator 23.0.2, SVG Export Plug-In . SVG Version: 6.00 Build 0)  -->
<svg version="1.1" id="Layer_1" xmlns:serif="http://www.serif.com/"
	 xmlns="http://www.w3.org/2000/svg" xmlns:xlink="http://www.w3.org/1999/xlink" x="0px" y="0px" viewBox="0 0 2340 1560"
	 enable-background="new 0 0 2340 1560" xml:space="preserve">
<g id="Layer1">
	<g id="BG">
		
			<linearGradient id="SVGID_1_" gradientUnits="userSpaceOnUse" x1="2740.5085" y1="1318.2129" x2="2741.5085" y2="1318.2129" gradientTransform="matrix(-1256.72 1237.72 1237.72 1256.72 1814789 -5048955)">
			<stop  offset="0" style="stop-color:#5EFCE8"/>
			<stop  offset="1" style="stop-color:#736EFE"/>
		</linearGradient>
		<rect x="-0.2" fill="url(#SVGID_1_)" width="2340" height="1560"/>
		<g>
			<g>
				<g>
					<defs>
						
							<rect id="SVGID_2_" x="326.8" y="-390.1" transform="matrix(0.4973 -0.8676 0.8676 0.4973 -120.2454 1352.2957)" width="1560" height="2340"/>
					</defs>
					<clipPath id="SVGID_3_">
						<use xlink:href="#SVGID_2_"  overflow="visible"/>
					</clipPath>
					<g clip-path="url(#SVGID_3_)">
						<g>
							<g transform="matrix(1.40482,0,0,1.40482,-1194.45,-217.958)">
								
									<linearGradient id="SVGID_4_" gradientUnits="userSpaceOnUse" x1="3393.4216" y1="783.6506" x2="3394.4216" y2="783.6506" gradientTransform="matrix(-9.7185 268.0516 268.0516 9.7185 -175651.6406 -916181.75)">
									<stop  offset="0" style="stop-color:#FFFFFF"/>
									<stop  offset="1" style="stop-color:#FFFFFF;stop-opacity:0"/>
								</linearGradient>
								<path fill="url(#SVGID_4_)" d="M1622.6,1134.1l-490.3,1.5c0,0,86.6-15.1,140-40.9s80.8,4.5,105.1,19.9
									c24.3,15.5,56.7-76.8,99.1-71c42.4,5.7,29.4,57.1,74.3,63.6s32.1-21.2,53.8-13.4c59.3,21.3,96.8,42.6,111.4,40.1
									C1730.7,1131.3,1622.6,1134.1,1622.6,1134.1z"/>
							</g>
							<g transform="matrix(1.40482,0,0,1.40482,-402.925,-1478.96)">
								
									<linearGradient id="SVGID_5_" gradientUnits="userSpaceOnUse" x1="2143.4158" y1="1497.1498" x2="2144.4158" y2="1497.1498" gradientTransform="matrix(-9.7185 268.0516 268.0516 9.7185 -378682.6562 -587650.8125)">
									<stop  offset="0" style="stop-color:#FFFFFF"/>
									<stop  offset="1" style="stop-color:#FFFFFF;stop-opacity:0"/>
								</linearGradient>
								<path fill="url(#SVGID_5_)" d="M1994.4,1533.2l-490.3,1.5c0,0,86.6-15.1,140-40.9s80.8,4.5,105.1,19.9
									c24.3,15.5,56.7-76.8,99.1-71s29.4,57.1,74.3,63.6s32.1-21.2,53.8-13.4c59.3,21.3,96.8,42.6,111.4,40.1
									C2102.5,1530.4,1994.4,1533.2,1994.4,1533.2z"/>
							</g>
							<g transform="matrix(1.40482,0,0,1.40482,-2106.25,-210.198)">
								
									<linearGradient id="SVGID_6_" gradientUnits="userSpaceOnUse" x1="4833.3701" y1="779.2599" x2="4834.3701" y2="779.2599" gradientTransform="matrix(-9.7185 268.0516 268.0516 9.7185 -160397.2969 -1302443.25)">
									<stop  offset="0" style="stop-color:#FFFFFF"/>
									<stop  offset="1" style="stop-color:#FFFFFF;stop-opacity:0"/>
								</linearGradient>
								<path fill="url(#SVGID_6_)" d="M1705.8,810.6l-490.3,1.5c0,0,86.6-15.1,140-40.9c53.4-25.8,80.8,4.5,105.1,19.9
									c24.3,15.5,56.7-76.8,99.1-71c42.4,5.7,29.4,57.1,74.3,63.6s32.1-21.2,53.8-13.4c59.3,21.3,96.8,42.6,111.4,40.1
									C1813.9,807.8,1705.8,810.6,1705.8,810.6z"/>
							</g>
							<g transform="matrix(1.40482,0,0,1.40482,-2358.45,-718.478)">
								
									<linearGradient id="SVGID_7_" gradientUnits="userSpaceOnUse" x1="5231.6538" y1="1066.8547" x2="5232.6538" y2="1066.8547" gradientTransform="matrix(-9.7185 268.0516 268.0516 9.7185 -233413.0156 -1412040.125)">
									<stop  offset="0" style="stop-color:#FFFFFF"/>
									<stop  offset="1" style="stop-color:#FFFFFF;stop-opacity:0"/>
								</linearGradient>
								<path fill="url(#SVGID_7_)" d="M1909.6,769.2l-490.3,1.5c0,0,86.6-15.1,140-40.9c53.4-25.8,80.8,4.5,105.1,19.9
									c24.3,15.5,56.7-76.8,99.1-71s29.4,57.1,74.3,63.6s32.1-21.2,53.8-13.4c59.3,21.3,96.8,42.6,111.4,40.1
									C2017.7,766.4,1909.6,769.2,1909.6,769.2z"/>
							</g>
							<g transform="matrix(1.40482,0,0,1.40482,-1047.01,-1432.4)">
								
									<linearGradient id="SVGID_8_" gradientUnits="userSpaceOnUse" x1="3160.5789" y1="1470.8054" x2="3161.5789" y2="1470.8054" gradientTransform="matrix(-9.7185 268.0516 268.0516 9.7185 -361691.375 -860279.375)">
									<stop  offset="0" style="stop-color:#FFFFFF"/>
									<stop  offset="1" style="stop-color:#FFFFFF;stop-opacity:0"/>
								</linearGradient>
								<path fill="url(#SVGID_8_)" d="M2038.7,1300.8l-490.3,1.5c0,0,86.6-15.1,140-40.9s80.8,4.5,105.1,19.9
									c24.3,15.5,56.7-76.8,99.1-71s29.4,57.1,74.3,63.6s32.1-21.2,53.8-13.4c59.3,21.3,96.8,42.6,111.4,40.1
									C2146.8,1298,2038.7,1300.8,2038.7,1300.8z"/>
							</g>
						</g>
					</g>
				</g>
			</g>
		</g>
	</g>
	
		<linearGradient id="SVGID_9_" gradientUnits="userSpaceOnUse" x1="1683.3647" y1="-389.5594" x2="1684.3647" y2="-389.5594" gradientTransform="matrix(71.8814 640.769 -640.769 71.8814 -369492.1875 -1049796.25)">
		<stop  offset="0" style="stop-color:#6DA7EB"/>
		<stop  offset="0.2" style="stop-color:#3771B4"/>
		<stop  offset="0.43" style="stop-color:#2761A3"/>
		<stop  offset="1" style="stop-color:#08366B"/>
	</linearGradient>
	<path fill="url(#SVGID_9_)" d="M2340,888.3V1560H0v-554.7C343.2,973,1147.4,909.5,2340,888.3z"/>
	
		<linearGradient id="SVGID_10_" gradientUnits="userSpaceOnUse" x1="1683.0345" y1="-389.1575" x2="1684.0345" y2="-389.1575" gradientTransform="matrix(36.168 492.414 -547.686 32.5179 -272862.5312 -815138.0625)">
		<stop  offset="0" style="stop-color:#6DA7EB"/>
		<stop  offset="1" style="stop-color:#6DA7EB;stop-opacity:0"/>
	</linearGradient>
	<path fill="url(#SVGID_10_)" d="M2340,1019.3V1560H0v-359.5l59.5,12.7l27.3-14.4l289.9-52.6l44.5,28.1c0,0,16.5,3.2,57-8.6
		C518.8,1153.9,660,1126,660,1126l1006.1,38.8l425.3-70.3l137-54.1l54.4,8.1l55.9-29.4L2340,1019.3z"/>
	
		<linearGradient id="SVGID_11_" gradientUnits="userSpaceOnUse" x1="1682.7356" y1="-388.874" x2="1683.7356" y2="-388.874" gradientTransform="matrix(61.6704 462.754 -500.849 56.9798 -297812.5312 -755497.8125)">
		<stop  offset="0" style="stop-color:#FFFFFF"/>
		<stop  offset="0.28" style="stop-color:#D2C9B5"/>
		<stop  offset="1" style="stop-color:#0A3E7A"/>
	</linearGradient>
	<path fill="url(#SVGID_11_)" d="M0,1059.2c164.9-25.7,710.2-98.7,1457.6-75.5c-140.2,105.2-131.2,98.1-131.2,98.1l-336.9,31.9
		l152.5,29.6l28,155l12.7,70.9l-12.7,7.3l49.9,28.8l29.8,57.3l-107.7,42.1l-29.8,37.3l-50.3,17.9H616.8l20.6-28.7l-79.1-28.3
		l23.4-36.1l-83.7-48.3V1349l60.3-62.3v-96.6l-122.8-38.8l-41.3-56L195,1115.4L0,1077.8V1059.2z"/>
	
		<linearGradient id="SVGID_12_" gradientUnits="userSpaceOnUse" x1="1682.7986" y1="-377.8612" x2="1683.7986" y2="-377.8612" gradientTransform="matrix(-12.8778 234.821 -120.798 -25.0333 -23905.9746 -403427.9062)">
		<stop  offset="0" style="stop-color:#FFFFFF"/>
		<stop  offset="0.28" style="stop-color:#D2C9B5"/>
		<stop  offset="1" style="stop-color:#0A3E7A"/>
	</linearGradient>
	<path fill="url(#SVGID_12_)" d="M0,1172l25.6-1.9l31.9,35.9l-31.9,29.9l31.9,33.3v21.4l54.6,31.5l13.5,76.7l-68,3.1v36.2L0,1437
		V1172z"/>
	<g transform="matrix(1.26403,0,0,1.26403,-79.0068,-353.269)">
		
			<linearGradient id="SVGID_13_" gradientUnits="userSpaceOnUse" x1="1339.4429" y1="-30.7631" x2="1340.4429" y2="-30.7631" gradientTransform="matrix(-1.1652 476.6984 -476.6984 -1.1652 -12804.7363 -637365)">
			<stop  offset="0" style="stop-color:#FFFFFF"/>
			<stop  offset="0.28" style="stop-color:#D2C9B5"/>
			<stop  offset="1" style="stop-color:#0A3E7A"/>
		</linearGradient>
		<path fill="url(#SVGID_13_)" d="M202.1,1232.5l33.4,19.3L249,1308l-34.7,20l21.1,35.1l-21.1,24.5l-48.1,27.8l9.3,36.5l38.8,18.7
			l85.7,5.8l50.7-10.1l38.1,33.5l52.1-9.2l-38.6-54.2l30.4-47.9l-43.9-40.8l34.7-56.2l34.1-44.5l-68.8-19.9l-58.5,10.6v-32.4
			l-30.3-29.5l-133.8,19.9l-25.5,24.2l34.7,20.1L202.1,1232.5z"/>
	</g>
	
		<linearGradient id="SVGID_14_" gradientUnits="userSpaceOnUse" x1="1665.1626" y1="-367.0144" x2="1666.1626" y2="-367.0144" gradientTransform="matrix(11.2211 58.1765 -58.1765 11.2211 -39905.625 -91530.9297)">
		<stop  offset="0" style="stop-color:#FFFFFF"/>
		<stop  offset="0.28" style="stop-color:#D2C9B5"/>
		<stop  offset="1" style="stop-color:#0A3E7A"/>
	</linearGradient>
	<path fill="url(#SVGID_14_)" d="M108,1229.6l30.2,5.5v11.9l35.8,16.9l-19.8,20.4l-25.4,2.2l-12.2-27V1245l-17.6-3.1L108,1229.6z"/>
	<g>
		<g transform="matrix(1,0,0,1,70.4068,0)">
			<path fill="#0F263B" d="M965.3,1081.2c0,0-184.6,63.5-202.7,78.3l7.6,68c0,0,162.4,26.3,213.1,30.8
				C958.3,1109.4,965.3,1081.2,965.3,1081.2z"/>
			
				<linearGradient id="SVGID_15_" gradientUnits="userSpaceOnUse" x1="1556.4276" y1="-396.393" x2="1557.4276" y2="-396.393" gradientTransform="matrix(-93.8194 -77.9333 111.747 -65.4303 191215.8906 96511.7969)">
				<stop  offset="0" style="stop-color:#5193D2"/>
				<stop  offset="1" style="stop-color:#D4E8FB"/>
			</linearGradient>
			<path fill="url(#SVGID_15_)" d="M763.3,1165.2l-0.6-5.7c18.1-14.8,202.7-78.3,202.7-78.3s-1.6,6.6-0.5,30.1L763.3,1165.2z"/>
		</g>
		<g transform="matrix(1,0,0,1,78.568,195.868)">
			<path fill="#0F263B" d="M965.3,1081.2c0,0-184.6,63.5-202.7,78.3l7.6,68c0,0,162.4,26.3,213.1,30.8
				C958.3,1109.4,965.3,1081.2,965.3,1081.2z"/>
			
				<linearGradient id="SVGID_16_" gradientUnits="userSpaceOnUse" x1="1540.1051" y1="-396.3929" x2="1541.1051" y2="-396.3929" gradientTransform="matrix(-93.8194 -77.9333 111.747 -65.4303 189684.5312 95239.7422)">
				<stop  offset="0" style="stop-color:#5193D2"/>
				<stop  offset="1" style="stop-color:#D4E8FB"/>
			</linearGradient>
			<path fill="url(#SVGID_16_)" d="M763.3,1165.2l-0.6-5.7c18.1-14.8,202.7-78.3,202.7-78.3s-1.6,6.6-0.5,30.1L763.3,1165.2z"/>
		</g>
		<g transform="matrix(1,0,0,1,70.4068,0)">
			
				<linearGradient id="SVGID_17_" gradientUnits="userSpaceOnUse" x1="1545.2825" y1="-392.4088" x2="1546.2825" y2="-392.4088" gradientTransform="matrix(-1033.9399 -1054.88 1054.88 -1033.9399 2013352.125 1225758.625)">
				<stop  offset="0" style="stop-color:#5193D2"/>
				<stop  offset="1" style="stop-color:#0F5DA7"/>
			</linearGradient>
			<path fill="url(#SVGID_17_)" d="M805,640.8c0.1,0.1,69,69.8,137.9,145c69,75.3,205.6,111.3,205.6,111.3L2269.7,1127v417.5
				c0,8.2-6.7,14.8-14.9,14.8h-1275L928.6,923L755.9,640.8H805z"/>
		</g>
		<g transform="matrix(1,0,0,1,70.4068,0)">
			
				<linearGradient id="SVGID_18_" gradientUnits="userSpaceOnUse" x1="1542.3593" y1="-391.7023" x2="1543.3593" y2="-391.7023" gradientTransform="matrix(778.979 530.478 -530.478 778.979 -1408419.375 -512257.4375)">
				<stop  offset="0" style="stop-color:#11448B"/>
				<stop  offset="1" style="stop-color:#11448B;stop-opacity:0"/>
			</linearGradient>
			<path fill="url(#SVGID_18_)" d="M1506.9,970.6l762.8,156.4v417.5c0,8.2-6.7,14.8-14.9,14.8H989.6
				c161-200.7,515.5-289.5,483.4-439.4C1457.8,1048.8,1477,1001.7,1506.9,970.6z"/>
		</g>
		<g transform="matrix(1,0,0,1,70.4068,0)">
			
				<linearGradient id="SVGID_19_" gradientUnits="userSpaceOnUse" x1="1539.2997" y1="-389.5337" x2="1540.2997" y2="-389.5337" gradientTransform="matrix(204.739 244.864 -244.864 204.739 -409691 -296472.3125)">
				<stop  offset="0" style="stop-color:#2F77BC"/>
				<stop  offset="1" style="stop-color:#0A387F"/>
			</linearGradient>
			<path fill="url(#SVGID_19_)" d="M928.7,923.2V923L755.9,640.8H805c0.1,0.1,69,69.8,137.9,145c48.4,52.8,130.1,86.3,174.6,101.6
				L928.7,923.2z"/>
		</g>
		<g transform="matrix(1,0,0,1,70.4068,0)">
			
				<linearGradient id="SVGID_20_" gradientUnits="userSpaceOnUse" x1="1557.2114" y1="-402.8967" x2="1558.2114" y2="-402.8967" gradientTransform="matrix(-44.0358 -90.9299 90.9299 -44.0358 106482.5234 124940.0234)">
				<stop  offset="0" style="stop-color:#5193D2"/>
				<stop  offset="1" style="stop-color:#D4E8FB"/>
			</linearGradient>
			
				<path fill="url(#SVGID_20_)" stroke="#1D456B" stroke-width="0.92" stroke-linecap="round" stroke-linejoin="round" stroke-miterlimit="1.5" d="
				M1269.3,1492.5l423.9-124c0,0-334.3-217.4-451.7-293.8c-25.5-16.6-56.9-21.1-86.1-12.4c-58.4,17.5-151.9,45.4-151.9,45.4"/>
		</g>
		<g transform="matrix(1,0,0,1,70.4068,0)">
			
				<linearGradient id="SVGID_21_" gradientUnits="userSpaceOnUse" x1="1553.3115" y1="-399.6023" x2="1554.3115" y2="-399.6023" gradientTransform="matrix(-70.2159 -131.551 131.551 -70.2159 162933.75 177515.0156)">
				<stop  offset="0" style="stop-color:#5193D2"/>
				<stop  offset="1" style="stop-color:#D4E8FB"/>
			</linearGradient>
			<path fill="url(#SVGID_21_)" d="M1175.8,1357.1l-119.9-173.6c0,0,83.6-26.1,151.9-47.4c54.9-17.1,114.5-8.9,162.7,22.5
				c68.6,44.6,158.8,103.3,158.8,103.3c-0.2,38.5,55.2,50-70.4,66.1c-138.6,17.8-155.7,24.2-252.4,27.7
				C1195.4,1356.1,1185.2,1356.6,1175.8,1357.1z"/>
		</g>
		<g transform="matrix(1,0,0,1,70.4068,0)">
			
				<linearGradient id="SVGID_22_" gradientUnits="userSpaceOnUse" x1="1550.9005" y1="-395.0019" x2="1551.9005" y2="-395.0019" gradientTransform="matrix(-169.175 -172.04 172.04 -169.175 331789.875 201401.5)">
				<stop  offset="0" style="stop-color:#5193D2"/>
				<stop  offset="1" style="stop-color:#D4E8FB"/>
			</linearGradient>
			<path fill="url(#SVGID_22_)" d="M1343.3,1238.9c66.9-18.7,138.7-7.8,196.9,30.1c69.4,45.2,153,99.5,153,99.5l-423.9,124
				l-134.8-195.1C1134.5,1297.4,1252.1,1264.5,1343.3,1238.9z"/>
		</g>
		<g transform="matrix(1,0,0,1,70.4068,0)">
			
				<linearGradient id="SVGID_23_" gradientUnits="userSpaceOnUse" x1="1548.0851" y1="-395.6601" x2="1549.0851" y2="-395.6601" gradientTransform="matrix(-207.074 -602.365 246.643 -505.727 419329.125 733965.25)">
				<stop  offset="0" style="stop-color:#5193D2"/>
				<stop  offset="1" style="stop-color:#D4E8FB"/>
			</linearGradient>
			<path fill="url(#SVGID_23_)" d="M979.9,1559.4L928.6,923l-0.4-0.7l71.4-12.2c0,0,22.5,24.9,41.9,46.3c6.1,6.7,8.3,16,6,24.8
				c-2.3,8.7-8.9,15.7-17.4,18.6l0,0c-7.2,2.4-12.9,8-15.3,15.2c-2.4,7.2-1.3,15.1,3,21.4l357.8,523L979.9,1559.4L979.9,1559.4z"/>
		</g>
		<g transform="matrix(1,0,0,1,70.4068,0)">
			
				<linearGradient id="SVGID_24_" gradientUnits="userSpaceOnUse" x1="1545.8976" y1="-392.7767" x2="1546.8976" y2="-392.7767" gradientTransform="matrix(-647.038 -681.335 681.335 -647.038 1270013.375 800622.625)">
				<stop  offset="0" style="stop-color:#5193D2"/>
				<stop  offset="1" style="stop-color:#D4E8FB"/>
			</linearGradient>
			
				<linearGradient id="SVGID_25_" gradientUnits="userSpaceOnUse" x1="1541.5109" y1="-392.0406" x2="1542.5109" y2="-392.0406" gradientTransform="matrix(610.861 241.83 -241.83 610.861 -1035074.4375 -132302.5156)">
				<stop  offset="0" style="stop-color:#1D456B"/>
				<stop  offset="1" style="stop-color:#5193D2"/>
			</linearGradient>
			
				<path fill="url(#SVGID_24_)" stroke="url(#SVGID_25_)" stroke-width="1.17" stroke-linecap="round" stroke-linejoin="round" stroke-miterlimit="1.5" d="
				M2269.7,1127v417.5c0,8.2-6.7,14.8-14.9,14.8h-21.3l-998.6-538.9c-13.3-7.2-20.8-21.7-18.9-36.7s12.8-27.2,27.4-30.9
				c40.7-10.2,79.7-20,79.7-20L2269.7,1127z"/>
		</g>
		<g transform="matrix(1,0,0,1,70.4068,0)">
			
				<linearGradient id="SVGID_26_" gradientUnits="userSpaceOnUse" x1="1542.3584" y1="-390.4871" x2="1543.3584" y2="-390.4871" gradientTransform="matrix(318.968 649.315 -649.315 318.968 -744698.8125 -876083.1875)">
				<stop  offset="0" style="stop-color:#FFFFFF"/>
				<stop  offset="1" style="stop-color:#FFFFFF;stop-opacity:0"/>
			</linearGradient>
			<path fill="url(#SVGID_26_)" d="M933.2,979.9l3.5-4.1c0,0,15.9,9.2,31.1,18c17.8,10.3,31.8,26,40.1,44.8
				c31.2,71.3,111.4,254.7,141.9,324.3c7.9,18,19.6,34,34.2,47c50.5,44.7,169.1,149.6,169.1,149.6H979.9L933.2,979.9z"/>
		</g>
		<g transform="matrix(1,0,0,1,70.4068,0)">
			
				<linearGradient id="SVGID_27_" gradientUnits="userSpaceOnUse" x1="1533.5159" y1="-385.2762" x2="1534.5159" y2="-385.2762" gradientTransform="matrix(79.1089 114.011 -114.011 79.1089 -164374.25 -143555.5)">
				<stop  offset="0" style="stop-color:#FFFFFF"/>
				<stop  offset="1" style="stop-color:#FFFFFF;stop-opacity:0"/>
			</linearGradient>
			<path fill="url(#SVGID_27_)" d="M762.6,651.9l202.7,264.4l-36.7,6.9V923L762.6,651.9z"/>
		</g>
		<g transform="matrix(1,0,0,1,70.4068,0)">
			
				<linearGradient id="SVGID_28_" gradientUnits="userSpaceOnUse" x1="1542.3593" y1="-391.7023" x2="1543.3593" y2="-391.7023" gradientTransform="matrix(778.979 530.478 -530.478 778.979 -1408419.375 -512257.4375)">
				<stop  offset="0" style="stop-color:#11448B"/>
				<stop  offset="1" style="stop-color:#11448B;stop-opacity:0"/>
			</linearGradient>
			<path fill="url(#SVGID_28_)" d="M1506.9,970.6l762.8,156.4v417.5c0,8.2-6.7,14.8-14.9,14.8H989.6
				c161-200.7,515.5-289.5,483.4-439.4C1457.8,1048.8,1477,1001.7,1506.9,970.6z"/>
		</g>
		<g transform="matrix(1,0,0,1,70.4068,0)">
			<path fill="#11448B" d="M1375.1,1559.4l-355.4-520.3l368.8,520.2L1375.1,1559.4z"/>
		</g>
		<g transform="matrix(1,0,0,1,70.4068,0)">
			<path fill="#11448B" d="M1232.2,1019l937,541h72L1232.2,1019z"/>
		</g>
		<g transform="matrix(2.11287,0,0,1.42446,-697.638,-184.954)">
			<g>
				<ellipse fill="#F08181" cx="721.2" cy="580.3" rx="21.2" ry="14.3"/>
			</g>
		</g>
		<g transform="matrix(1,0,0,0.674182,72.2766,147.343)">
			<ellipse fill="#E62F2F" cx="754" cy="733.3" rx="10" ry="6.8"/>
		</g>
		<g transform="matrix(1,0,0,1,70.4068,0)">
			
				<linearGradient id="SVGID_29_" gradientUnits="userSpaceOnUse" x1="1539.964" y1="-387.1082" x2="1540.964" y2="-387.1082" gradientTransform="matrix(74.85 252.057 -252.057 74.85 -211837.8906 -358348.5625)">
				<stop  offset="0" style="stop-color:#183C5E"/>
				<stop  offset="1" style="stop-color:#183C5E;stop-opacity:0"/>
			</linearGradient>
			<path fill="url(#SVGID_29_)" d="M1116.3,886.6c0,0-76.4,131.5-34.9,209.1l-69.9,18.4L928,921L1116.3,886.6z"/>
		</g>
		<g transform="matrix(1,0,0,1,70.4068,0)">
			
				<linearGradient id="SVGID_30_" gradientUnits="userSpaceOnUse" x1="1542.3029" y1="-392.3294" x2="1543.3029" y2="-392.3294" gradientTransform="matrix(897.301 192.39 -192.39 897.301 -1457822.75 56355.2617)">
				<stop  offset="0" style="stop-color:#FFFFFF"/>
				<stop  offset="1" style="stop-color:#FFFFFF;stop-opacity:0"/>
			</linearGradient>
			<path fill="url(#SVGID_30_)" d="M1141.7,895.2c4.4,1.3,6.8,1.9,6.8,1.9L2269.7,1127v129.7L1141.7,895.2z"/>
		</g>
	</g>
</g>
<radialGradient id="SVGID_31_" cx="870.9567" cy="324.0545" r="142.1567" gradientUnits="userSpaceOnUse">
	<stop  offset="0.321" style="stop-color:#FFFFFF"/>
	<stop  offset="1" style="stop-color:#FFFFFF;stop-opacity:0"/>
</radialGradient>
<circle fill="url(#SVGID_31_)" cx="871" cy="324.1" r="142.2"/>
</svg>
