<?xml version="1.0" encoding="utf-8"?>
<!-- Generator: Adobe Illustrator 23.0.2, SVG Export Plug-In . SVG Version: 6.00 Build 0)  -->
<svg version="1.1" xmlns="http://www.w3.org/2000/svg" xmlns:xlink="http://www.w3.org/1999/xlink" x="0px" y="0px"
	 viewBox="0 0 1920 1136" enable-background="new 0 0 1920 1136" xml:space="preserve">
<g id="Background">
	<linearGradient id="SVGID_1_" gradientUnits="userSpaceOnUse" x1="0" y1="570.1978" x2="1920" y2="570.1978">
		<stop  offset="0" style="stop-color:#6348EB"/>
		<stop  offset="1" style="stop-color:#CB66CC"/>
	</linearGradient>
	<rect y="2.2" fill="url(#SVGID_1_)" width="1920" height="1136"/>
</g>
<g id="Vector">
	<g>
		<path opacity="0.6" fill-rule="evenodd" clip-rule="evenodd" fill="#FF99FF" d="M1367.5,760.3c-43.9,0-87.6,0.1-126,0.1
			c-109.2,0.2-176.4,0.6-224,0.3c-47.6-0.2-75.7-1.1-91-1.1c-15.3,0-18,0.9-19.3,0c-1.3-0.9-1.3-3.5-1.3-67.1V483.4
			c51.8-28.6,116.6-45.6,186.8-45.6c170,0,307.8,99.5,307.8,222.3C1400.5,696.1,1388.6,730.1,1367.5,760.3z"/>
		<g>
			<path fill="none" d="M519.7,657.4c0-9.2,0-18.3,0-27.2C519.5,638.9,519.5,647.9,519.7,657.4z"/>
			<path fill="#CC66CC" d="M1269.6,753c-11.7-61.4-31.8-156.7-84.1-225.7c-52.3-69-136.7-111.6-225.4-131.5
				c-78.3-17.6-159.9-17.6-227.8-6.2C603,424.8,523.8,470.4,519.7,630.2c0,8.9,0,18,0,27.2c1.7,70.3,1.3,211.4,204.1,212.5
				c35.7-0.1,78.7-0.2,131.6-0.3c109.2-0.2,295,65.2,339.5-0.2c32.2-47.4,21.3-44,23-49.7C1221.8,806.3,1281.3,814.4,1269.6,753z"/>
		</g>
		<path opacity="0.6" fill-rule="evenodd" clip-rule="evenodd" fill="#FF99FF" d="M1188.2,818.6c-81.1,0-236.2,0-348.1,0.2
			c-41.5,0.1-86.8-9.9-117.7-9.8c-23.5-39.8-26.9-73.9-26.9-120.3c0-160.5,155.9-293.2,358.7-315.2c49.1,23.5,92.5,55.7,124.3,97.3
			c53.6,70.1,74.2,167.1,86.3,229.5c12,62.4,15.4,90.3,13.6,104.3C1276.5,818.6,1269.3,818.6,1188.2,818.6z"/>
		<path fill="#A0A59F" d="M1346.3,779.6c19.4-14.7,29.9-30.5,35.1-41.9c4.9-10.7,5.2-17.4-0.4-25.4l-861.1-46.2c0,0,1.3,61.5,9,79.4
			C558,813.3,814,821.9,814,821.9h419.4c10-1,24.4-2.8,40.1-7.1C1298.6,807.8,1326.9,794.3,1346.3,779.6z"/>
		<path fill-rule="evenodd" clip-rule="evenodd" fill="#1A1A1A" d="M1273,660.4c1.4,12.2,2.1,32.3,0.6,43
			c-1.5,10.7-5.1,12.1-35.7,11.2c-30.6-0.9-88.2-3.9-118.6-5.4c-30.3-1.5-33.3-1.4-35.4-12.4c-2.1-11-3.2-33.1-3.1-44
			c0-11,1.2-10.8,22.3-11.2c21-0.4,61.9-1.3,89.4-3.1c27.5-1.9,41.5-4.7,51.7-4.7c10.2,0,16.7,2.8,21,6.4
			C1269.5,643.8,1271.6,648.2,1273,660.4z"/>
		<path opacity="0.15" fill-rule="evenodd" clip-rule="evenodd" fill="#1A1A1A" d="M1378.6,735.2c9.4-0.8,7.2-15.8,3.9-20.6
			c-1.2-1.7,0,0-1.5-2.3l-853.8-45.8c-3.1-0.2-5.7,2.3-5.8,5.4l0,22c0,2.7,2,5,4.6,5.4c35.8,5.3,90.9,7.2,129.1,8
			c47.4,1,79.5,1.4,106.1,1.9c26.7,0.4,48,0.9,59.2,3.8c11.2,2.9,12.3,8.3,4.4,15.2c-8,6.9-25.1,15.4,2,20.3
			c27.1,4.9,98.4,6.2,136.5,4.7c38.1-1.5,43-5.8,51.1-6.3c8.1-0.5,19.5,2.7,20.4,8.4c0.8,5.7-8.9,13.8-10,18.2
			c-1.1,4.5,6.3,5.4,51.7,8.4c45.4,3.1,128.7,8.3,168.4,7c39.7-1.3,35.7-9.2,34.9-19.5c-0.9-10.3,1.3-23,7.7-29.4
			c6.4-6.4,16.9-6.4,37.9-5C1343.5,736.1,1339.9,738.5,1378.6,735.2z"/>
		<path fill-rule="evenodd" clip-rule="evenodd" fill="#322626" d="M650,693c-0.9-1.5-2.1-3.3-2.3-4.4c-0.2-1.2,0.7-1.8,5.2-3.9
			c4.4-2.1,12.4-5.8,16.9-8.9c4.5-3.1,5.4-5.6,5.6-7.7c0.1-2.1-0.5-3.8-4-5.1c-3.5-1.3-9.8-2.3-18.2-3.2c-8.4-0.8-18.7-1.5-31.3-2
			c-12.6-0.5-27.3-0.8-40.1,0.1c-12.8,0.9-23.5,3-29.8,4.7c-6.3,1.7-8.3,3-9.4,4.4c-1.1,1.4-1.4,2.9-0.6,5.3
			c0.8,2.4,2.6,5.7,7.6,8.4c4.9,2.7,12.9,4.9,16.7,6.3c3.8,1.4,3.3,2,2.6,3.5c-0.7,1.5-1.7,4-1.3,5.5c0.4,1.4,2.2,1.8,9.3,2.5
			c7.1,0.7,19.4,1.7,31.6,1.7c12.3,0,24.5-1,31.8-1.7c7.3-0.7,9.6-1.1,10.5-1.9C651.5,695.7,650.9,694.4,650,693z"/>
		<path fill-rule="evenodd" clip-rule="evenodd" fill="#D3D3B1" d="M673.2,663.3c-0.4-0.2-0.7-0.3-1.2-0.5
			c-3.5-1.3-9.8-2.3-18.2-3.2c-8.4-0.8-18.7-1.5-31.3-2c-12.6-0.5-27.3-0.8-40.1,0.1c-12.8,0.9-23.5,3-29.8,4.7
			c-2.4,0.6-4.2,1.2-5.5,1.8c0,0.2,0,0.3-0.2,0.6c-0.3,0.7-1.4,2.2-0.5,4.4c1,2.2,4,5.1,14.8,6.8c10.8,1.7,29.3,2.1,46.1,1.8
			c16.8-0.4,31.7-1.6,42.3-3.2c10.6-1.7,16.7-3.8,20.1-5.6C673.2,667.2,674,665.8,673.2,663.3z"/>
		<path fill-rule="evenodd" clip-rule="evenodd" fill="#65993D" d="M579.4,673.4c-1.5-0.6-4-1.9-5.5-3.9c-1.4-2.1-1.8-4.9-1-6.5
			c0.8-1.5,2.8-1.8,4-1.4c1.2,0.4,1.8,1.3,2.1,0.2c0.3-1.1,0.4-4.2,1.2-6.4c0.9-2.2,2.5-3.5,4.5-3.4c2,0,4.3,1.4,5.8,0.8
			c1.5-0.6,2-3.1,3.9-5.5c1.8-2.3,4.8-4.5,7.9-4.2c3.1,0.3,6.1,3,7.9,3.5c1.7,0.5,2.1-1.2,4.9-2.7c2.8-1.5,8.1-3,11.6-1.9
			c3.5,1.1,5.3,4.6,6.7,5.9c1.4,1.3,2.3,0.2,4.3,0c2-0.2,5,0.4,7.2,1.9c2.2,1.4,3.6,3.7,3.7,5.3c0.1,1.7-1,2.8-0.5,4.4
			c0.5,1.7,2.6,3.9,2.8,6c0.2,2.1-1.6,4.1-3.9,5.2c-2.3,1.1-5,1.4-6.7,1c-1.7-0.4-2.5-1.4-3.4-1c-0.9,0.4-1.9,2.3-5.6,3.5
			c-3.7,1.1-10,1.4-14.7,0.6c-4.7-0.8-7.6-2.7-10.2-2.7c-2.6,0-4.9,1.9-8.1,3.2c-3.2,1.3-7.4,1.9-10.3,1.5c-2.8-0.4-4.3-1.7-5.4-2.3
			C581.5,673.9,580.9,674,579.4,673.4z"/>
		<path fill-rule="evenodd" clip-rule="evenodd" fill="#4D7C2E" d="M580,656.3c0.1-0.3,0.2-0.6,0.3-0.8c0.9-2.2,2.5-3.5,4.5-3.4
			c2,0,4.3,1.4,5.8,0.8c1.5-0.6,2-3.1,3.9-5.5c1.8-2.3,4.8-4.5,7.9-4.2c1.4,0.1,2.8,0.7,4,1.4c-0.3,2.4-1.2,4.6-2.6,6.2
			c-2.2,2.6-5.8,3.8-8.2,3.9c-2.4,0.1-3.7-0.9-4.7-0.1c-1,0.8-1.9,3.3-3.4,4.6c-1.5,1.3-3.8,1.4-5.4,0.1
			C581.1,658.5,580.5,657.4,580,656.3L580,656.3z M640.2,671.7c2.2,0.2,4.3-0.4,5.3-1.5c1.2-1.2,1-2.9,0.6-4.8c-0.4-2-1.1-4.3-3-5.6
			c-1.9-1.3-5.1-1.5-7-0.3c-2,1.1-2.7,3.7-3.5,4.1c-0.8,0.4-1.6-1.3-3.2-2.7c-1.7-1.4-4.2-2.4-6.8-1.5c-2.5,0.9-5.1,3.6-6.8,4.5
			c-1.7,0.9-2.5,0-4.9-0.9c-2.4-0.9-6.2-1.7-9.3-1.3c-3,0.4-5.2,2-6.5,3.8c-1.3,1.8-1.6,3.7-1.4,5.4c0.2,1.7,1.1,3,2.9,3.4
			c1.1,0.2,2.6,0.1,4.2-0.3c1.9-1,3.5-1.9,5.2-1.9c2.3-1.1,4.6-2.2,6.4-2.3c2.3-0.1,3.9,1.6,6.4,2.5c2.5,0.9,5.9,1.1,8.3,0.3
			c2.4-0.8,3.7-2.7,5.6-2.9c1.1-0.1,2.5,0.5,3.9,1.1c0,0,0.1,0,0.1,0C637.7,670.3,638.4,671.3,640.2,671.7L640.2,671.7z"/>
		<g>
			<path fill-rule="evenodd" clip-rule="evenodd" fill="#322626" d="M1102.7,703.4c-1.2-1.4-2.7-3.1-2.9-4.3c-0.2-1.1,1-1.7,6.7-3.8
				c5.7-2.1,16.1-5.6,21.8-8.6c5.8-3,7-5.4,7.2-7.4c0.2-2-0.7-3.7-5.2-5c-4.5-1.3-12.7-2.3-23.5-3.1c-10.8-0.8-24.2-1.5-40.5-2
				c-16.3-0.5-35.4-0.8-51.8,0.1c-16.5,0.9-30.4,2.9-38.6,4.5c-8.2,1.6-10.7,2.9-12.2,4.2c-1.4,1.4-1.8,2.8-0.8,5.1
				c1,2.3,3.4,5.5,9.8,8.2c6.4,2.7,16.7,4.8,21.6,6.1c4.9,1.4,4.3,1.9,3.4,3.4c-0.9,1.5-2.2,3.9-1.6,5.3c0.5,1.4,2.8,1.8,12,2.5
				c9.1,0.7,25,1.6,40.9,1.6c15.9,0,31.7-1,41.1-1.6c9.4-0.7,12.5-1.1,13.6-1.9C1104.7,706,1103.9,704.8,1102.7,703.4z"/>
			<path fill-rule="evenodd" clip-rule="evenodd" fill="#D3D3B1" d="M1132.7,674.8c-0.5-0.2-1-0.3-1.5-0.5
				c-4.5-1.3-12.7-2.3-23.5-3.1c-10.8-0.8-24.2-1.5-40.5-2c-16.3-0.5-35.4-0.8-51.8,0.1c-16.5,0.9-30.4,2.9-38.6,4.5
				c-3.1,0.6-5.4,1.2-7.2,1.7c0,0.2,0,0.3-0.2,0.6c-0.4,0.6-1.9,2.1-0.6,4.3c1.3,2.1,5.2,5,19.2,6.6c14,1.6,37.9,2.1,59.6,1.7
				c21.7-0.4,41-1.5,54.7-3.1c13.6-1.6,21.5-3.7,26-5.4C1132.7,678.5,1133.8,677.2,1132.7,674.8z"/>
			<path fill-rule="evenodd" clip-rule="evenodd" fill="#65993D" d="M1011.4,684.5c-2-0.6-5.2-1.8-7.1-3.8c-1.8-2-2.3-4.8-1.3-6.2
				c1-1.5,3.6-1.7,5.2-1.4c1.6,0.3,2.3,1.3,2.7,0.2c0.4-1,0.5-4,1.6-6.1c1.1-2.1,3.3-3.3,5.8-3.3c2.6,0,5.6,1.3,7.4,0.8
				c1.9-0.6,2.6-3,5-5.3c2.3-2.3,6.2-4.3,10.2-4.1c3.9,0.3,7.9,2.9,10.2,3.4c2.2,0.5,2.7-1.1,6.3-2.6c3.6-1.5,10.5-2.9,15-1.8
				c4.6,1,6.9,4.5,8.6,5.7c1.8,1.2,3,0.2,5.6,0c2.6-0.2,6.5,0.4,9.3,1.8c2.8,1.4,4.6,3.5,4.8,5.1c0.2,1.6-1.3,2.7-0.6,4.3
				c0.7,1.6,3.4,3.8,3.6,5.8c0.2,2-2.1,4-5,5c-2.9,1.1-6.4,1.3-8.7,0.9c-2.3-0.4-3.3-1.4-4.4-1c-1.1,0.4-2.5,2.3-7.2,3.3
				c-4.8,1.1-13,1.4-19,0.6c-6-0.8-9.9-2.6-13.2-2.6c-3.4,0-6.3,1.8-10.5,3.1c-4.2,1.2-9.6,1.8-13.3,1.5c-3.7-0.3-5.6-1.6-6.9-2.2
				C1014.2,685,1013.4,685.1,1011.4,684.5z"/>
			<path fill-rule="evenodd" clip-rule="evenodd" fill="#4D7C2E" d="M1012.2,668c0.1-0.3,0.2-0.6,0.4-0.8c1.1-2.1,3.3-3.3,5.8-3.3
				c2.6,0,5.6,1.3,7.4,0.8c1.9-0.6,2.6-3,5-5.3c2.3-2.3,6.2-4.3,10.2-4.1c1.8,0.1,3.6,0.7,5.2,1.4c-0.4,2.3-1.6,4.4-3.4,6
				c-2.9,2.5-7.5,3.7-10.6,3.8c-3.1,0.1-4.8-0.9-6.1-0.1c-1.3,0.7-2.4,3.2-4.4,4.4c-2,1.3-4.9,1.4-7,0.1
				C1013.7,670.2,1012.8,669.1,1012.2,668L1012.2,668z M1090.1,682.9c2.8,0.2,5.5-0.4,6.9-1.4c1.5-1.1,1.3-2.8,0.7-4.7
				c-0.6-1.9-1.4-4.1-3.9-5.4c-2.5-1.2-6.6-1.4-9.1-0.3c-2.5,1.1-3.5,3.5-4.5,3.9c-1,0.4-2-1.3-4.2-2.6c-2.2-1.3-5.5-2.3-8.7-1.4
				c-3.3,0.8-6.6,3.5-8.7,4.3c-2.2,0.9-3.3,0-6.3-0.8c-3-0.8-8-1.6-12-1.2s-6.8,2-8.4,3.7c-1.6,1.7-2.1,3.6-1.8,5.2
				c0.3,1.6,1.4,2.9,3.8,3.3c1.4,0.2,3.3,0.1,5.4-0.3c2.4-0.9,4.5-1.8,6.8-1.8c3-1,5.9-2.1,8.3-2.2c3-0.1,5.1,1.5,8.3,2.4
				c3.2,0.9,7.6,1.1,10.7,0.3c3.1-0.8,4.8-2.6,7.2-2.8c1.5-0.1,3.2,0.5,5,1c0,0,0.1,0,0.1,0C1086.8,681.5,1087.8,682.5,1090.1,682.9
				L1090.1,682.9z"/>
		</g>
		<path fill-rule="evenodd" clip-rule="evenodd" fill="#E6E6E6" d="M1151.6,337.7c-5.1-18.7-13.6-52.9-18.1-71.5
			c-4.5-18.6-5.1-21.4-8.5-23c-3.4-1.6-9.5-2-27,1.8c-17.5,3.7-46.3,11.6-61,16.5c-14.7,4.9-15.2,6.7-11.5,25.2
			c3.7,18.4,11.8,53.4,17.4,72.7c5.6,19.3,8.9,22.8,10.7,25.1c1.8,2.4,2.3,3.6,13.1,2c10.8-1.6,32-5.9,49.3-10.3
			c17.3-4.4,30.6-8.9,36.4-12.7C1158.3,359.5,1156.7,356.4,1151.6,337.7z"/>
		<path fill-rule="evenodd" clip-rule="evenodd" fill="#E6E6E6" d="M1065.5,632.1c-5.1,6.6-9.1,10.1-12.4,11.8
			c-3.4,1.7-6.2,1.6-10.8,1.1c-4.6-0.4-11.1-1.2-15.8-3.7c-4.7-2.5-7.7-6.8-10.9-14.6c-3.2-7.8-6.8-19.1-6.8-27.5
			c0-8.4,3.5-13.8,4.4-22.1c0.9-8.2-0.9-19.3,1.5-41.2c2.4-21.9,8.8-54.7,13.8-74.2c4.9-19.5,8.3-25.7,14.9-31.1
			c6.5-5.4,16.3-10.2,35.6-15.1c19.4-5,48.4-10.2,66.9-10.8c18.5-0.7,26.5,3.2,46.4,19.3c19.9,16.1,51.6,44.3,69,61.4
			c17.5,17.1,20.7,23,23.7,36.9c2.9,14,5.6,36,6.5,55.1c1,19.1,0.2,35.1-1.5,47.2c-1.8,12.1-4.6,20.4-16.1,27.9
			c-11.6,7.5-31.9,14.3-47.8,21c-16,6.7-27.6,13.3-35.8,15.5c-8.2,2.2-12.9,0-15.5-4.5c-2.6-4.5-3.2-11.3-3.3-22.4
			c-0.1-11.1,0.3-26.6,0.5-34.3c0.2-7.7,0.2-7.7,6.5-9.9c6.3-2.2,19-6.6,27.3-11.5c8.3-4.9,12.1-10.4,10.9-28.7
			c-1.2-18.3-7.3-49.4-11.5-62.9c-4.2-13.5-6.4-9.4-13.2-3.9c-6.8,5.6-18.1,12.6-33.8,14.2c-15.7,1.6-35.7-2.2-47.1-6.4
			c-11.4-4.2-14.3-8.8-17.6-7.6c-3.3,1.2-7.1,8.1-9.5,14c-2.4,5.9-3.4,10.8-4,14.4c-0.6,3.6-0.7,6-0.7,11.6
			c0.1,5.6,0.4,14.4,1.1,24.2c0.7,9.8,1.9,20.5-0.7,30.7C1077,616,1070.6,625.6,1065.5,632.1z"/>
		<path fill-rule="evenodd" clip-rule="evenodd" fill="#B3B3B3" d="M1039.5,603.4c3.5,6.7,11.4,18.2,17.6,25.1
			c6.3,6.9,10.8,9.3,15.7,11.1c4.9,1.8,10.1,3.1,17.9,3.7c7.8,0.6,18.3,0.5,28-2.4c9.7-2.8,18.7-8.4,25.5-14.6
			c6.7-6.2,11.2-13.2,13.5-18.6c2.3-5.4,2.3-9.1,1.2-11.3c-1.2-2.1-3.5-2.7-7.5-1.5c-4,1.2-9.6,4.1-27.6,4.9
			c-18,0.8-48.3-0.6-64.7-2.1c-16.3-1.6-18.7-3.3-20.4-3.2C1037.1,594.7,1036,596.7,1039.5,603.4z"/>
		<path fill-rule="evenodd" clip-rule="evenodd" fill="#1A1A1A" d="M1080,451.1c-2.2,18.6-1.4,53.6-0.3,71.3
			c1.1,17.7,2.4,18.1,4.4,19.1c2,1,4.6,2.7,5.8,4.6c1.2,1.9,1,3.9,0.1,5.9c-0.9,2-2.6,3.8-2.2,7.1c0.4,3.3,2.8,8,4.1,12.4
			c1.3,4.5,1.3,8.7,1.6,11.9c0.2,3.2,0.6,5.3,1.1,7.7c0.4,2.3,0.9,4.9,13.1,4c12.2-1,36-5.4,45.5-1.7c9.5,3.8,4.7,15.8,3.9,21.7
			c-0.8,5.9,2.5,5.8,6.7,5.6c4.2-0.2,9.3-0.4,16.9-1.5c7.7-1,17.9-2.9,26.1-6.6c8.2-3.7,14.4-9.3,17.6-15.5
			c3.3-6.2,3.6-12.9,1.5-31.3c-2.2-18.4-6.8-48.6-10-62.5c-3.2-13.9-4.9-11.7-12.6-6c-7.8,5.7-21.6,14.9-35.7,19.4
			c-14.1,4.5-28.5,4.3-40.8,1.6c-12.3-2.7-22.5-7.8-27.6-10.3c-5.1-2.6-5.1-2.6-5-15.5c0.1-13,0.4-38.9,0.2-51.8
			c-0.2-12.9-0.7-12.7-3.7-11.5C1087.6,430.3,1082.3,432.5,1080,451.1z"/>
		<path fill-rule="evenodd" clip-rule="evenodd" fill="#1A1A1A" d="M1152.3,403.8c5.7,3.4,11.5,6,15.6,14.5
			c4.1,8.5,6.6,22.9,9.1,28.7c2.5,5.8,5,3,6.3-4.4c1.3-7.4,1.5-19.4-1.4-27.2c-2.9-7.9-8.9-11.6-17.2-14.8c-8.3-3.2-19-5.8-21.5-5
			C1140.8,396.3,1146.5,400.4,1152.3,403.8z"/>
		<path fill-rule="evenodd" clip-rule="evenodd" fill="#FFCC99" d="M1127.5,365.2c-8.7,3.2-22.6,7.9-35.1,11
			c-12.5,3.1-23.4,4.6-29.6,5.1c-6.2,0.5-7.7,0.1-8.3,0.6c-0.6,0.5-0.2,2,1.8,7.3c2.1,5.3,5.9,14.4,8.7,21.9
			c2.9,7.5,4.8,13.5,8.7,19.4c3.9,5.9,9.8,11.8,14.6,17.4c4.8,5.6,8.6,11,12.5,14.4c3.9,3.4,7.8,4.8,10.9,5c3.2,0.2,5.6-0.7,6.7-0.7
			c1.1,0,1,0.9,1.5,1.9c0.5,1,1.5,2,4.5,2.6c3,0.6,8.1,0.9,10.7,0.3c2.6-0.5,2.9-1.8,4.7-4.9c1.8-3.2,5.1-8.2,9.3-12.8
			c4.1-4.6,9.1-8.7,12.3-11.8c3.2-3.1,4.7-5.2,5.5-7.5c0.7-2.4,0.7-5-0.7-9.1c-1.4-4.1-4.3-9.8-6.7-15.6c-2.4-5.9-4.2-12-4.8-15.1
			c-0.6-3.1-0.1-3.2,1.3-5.2c1.3-2,3.4-5.7,4.4-9.5c1-3.7,1-7.4,0.5-11.5c-0.6-4.1-1.7-8.6-2.6-11.3c-0.9-2.8-1.6-3.8-3.2-3.8
			c-1.6,0-4.1,1-6.3,2.1c-2.2,1.1-4.1,2.2-6.7,3.6C1139.5,360.4,1136.1,362,1127.5,365.2L1127.5,365.2z M1040.9,485.2
			c-1-0.3-1-0.3-2.4-1c-1.4-0.7-4.2-2.1-10.2-1.5c-6,0.6-15.3,3.3-20.9,5.2c-5.6,1.9-7.6,3-10.2,7.3c-2.6,4.3-5.8,11.9-6,20.6
			c-0.2,8.8,2.7,18.7,5,25.1c2.3,6.4,4.1,9.2,7.9,11.5c3.8,2.3,9.5,4.2,12.8,5.3c3.3,1.1,4.1,1.3,4.4,5.6c0.3,4.3,0.1,12.5,0.3,17.2
			c0.2,4.7,0.7,5.7,3.3,8.6c2.6,2.8,7.3,7.4,10.1,9.7c2.8,2.2,3.8,2.2,7.4,2.2c3.6,0.1,9.7,0.3,12.8,0.4c3.1,0.1,3.1,0.1,2.3-4.9
			c-0.8-5-2.3-15.1-2.9-22c-0.7-6.9-0.5-10.7-0.6-14.9c-0.2-4.2-0.7-8.8-1.7-12.2c-1-3.4-2.4-5.7-2.7-7c-0.3-1.3,0.5-1.8,1.2-5
			c0.7-3.2,1.2-9.3,0.3-14.4c-0.9-5.1-3.2-9.3-4.7-12.3c-1.4-3-2-4.7-1.9-8.1c0.1-3.4,0.8-8.5,0.1-11.4
			C1043.9,486.2,1041.9,485.5,1040.9,485.2L1040.9,485.2z M1181.7,620.2c-2-0.1-5.1,0-7.2-1.4c-2.1-1.5-3.3-4.6-5.7-7.9
			c-2.3-3.3-5.8-6.8-8-8.3c-2.2-1.5-3.1-0.9-5.5,0.2c-2.3,1.1-6.1,2.8-8,3.9c-1.9,1.1-2,1.7-2.1,2.9c0,1.2,0,3.2-0.3,4.8
			c-0.2,1.7-0.7,3-3.1,5.4c-2.4,2.4-6.7,5.8-11.4,9.1c-4.7,3.3-9.7,6.4-12.2,8.2c-2.5,1.8-2.4,2.4-4.3,2.9
			c-1.9,0.6-5.7,1.1-11.5,1.2c-5.8,0.1-13.5-0.1-18.8-0.7c-5.3-0.6-8.1-1.5-9.6-1.4c-1.5,0.1-1.6,1.3-1.8,2.8
			c-0.3,1.5-0.7,3.2,0.3,4.4c1.1,1.2,3.6,1.8,5.1,2.4c1.4,0.6,1.7,1,2.8,1.5c1.1,0.5,3,0.9,9.1,1.7c6.1,0.8,16.3,1.9,25.7,2.6
			c9.4,0.7,17.9,1.1,28.5,1.2c10.6,0.1,23.2,0,31.6,0.4c8.4,0.3,12.6,1.1,14.9,1.2c2.3,0.1,2.7-0.3,3.8-2.9
			c1.1-2.6,2.9-7.3,2.8-12.5c-0.2-5.2-2.4-10.9-4.6-14.4c-2.2-3.5-4.3-4.9-5.8-5.8C1184.7,620.8,1183.7,620.3,1181.7,620.2z"/>
		<path opacity="0.48" fill-rule="evenodd" clip-rule="evenodd" fill="#CC6633" d="M1119.1,466.7c0.5,0.2,0.6,0.7,0.8,1.3
			c1.4-0.5,3.3-1.2,5.3-2.3c3.3-1.7,7-4,11.9-10.8c4.9-6.9,11.1-18.3,14.3-26.3c3.2-8,3.5-12.7,3.1-18c-0.4-5.2-1.6-11-2.1-12.5
			c-0.5-1.5-0.3,1.1-0.1,6.4c0.2,5.3,0.4,13.1-2.3,21.6c-2.7,8.5-8.2,17.7-12.1,23.8c-3.9,6.1-6.1,9.1-9.2,11.4
			C1125.5,463.7,1121.3,465.4,1119.1,466.7L1119.1,466.7L1119.1,466.7z M1156.4,364.7c-0.5,2.3-1.3,6-2.1,8.9
			c-0.9,2.9-1.7,5.2-1.9,7.2c-0.1,2,0.4,3.9,0.7,4.1c0.3,0.2,0.2-1.1,0.8-2.7c0.6-1.6,1.9-3.4,2.7-5.4c0.8-2,1.2-4.1,1.2-6.9
			c0-2.8-0.4-6.2-0.6-7.4C1157,361.4,1156.9,362.4,1156.4,364.7L1156.4,364.7z M1135.4,627c5.3-1.9,12.2-5.6,16.7-8.3
			c4.5-2.7,6.5-4.3,5.8-4.5c-0.7-0.2-4.1,0.9-6.2,1.1c-2.1,0.2-2.9-0.4-3.1-2.9c-0.2-1.7-0.1-4.3-0.3-6.3c-0.3,0.2-0.6,0.3-0.9,0.5
			c-1.9,1.1-2,1.7-2.1,2.9c0,1.2,0,3.2-0.3,4.8c-0.2,1.7-0.7,3-3.1,5.4c-2.3,2.3-6.2,5.4-10.6,8.5
			C1132.4,628,1133.8,627.6,1135.4,627L1135.4,627z M1116.1,639.1c0.9,1.5,1.9,3.5,3.4,4.6c1.5,1.1,3.6,1.2,5.8,0.4
			c2.2-0.8,4.4-2.5,4.8-2.4c0.4,0.1-1,2-2.7,3.3c-1.7,1.3-3.8,2-8.5,1.5c-4.8-0.5-12.3-2.2-19.2-3.5c-6.9-1.3-13.3-2.2-16.4-0.9
			c-3.1,1.2-3,4.6-2.5,6.9c0.1,0.6,0.3,1,0.4,1.5c-0.3-0.1-0.6-0.2-0.8-0.3c-1-0.4-1.3-0.9-2.6-1.4c-0.2-2.4,0.8-6.1,3.1-8.7
			c0.8,0.1,1.8,0.3,2.8,0.4c5.3,0.6,13,0.9,18.8,0.7c5.8-0.1,9.7-0.7,11.5-1.2c1-0.3,1.5-0.6,2.1-1.1L1116.1,639.1L1116.1,639.1z
			 M1033.7,523.6c-1.1,0.5-3.5,1.3-4.4,2.5c-0.9,1.2-0.1,2.9,0.6,4.1c0.7,1.2,1.4,2,2.7,2.1c1.2,0.1,3-0.4,4.3-1
			c0.3-0.1,0.6-0.3,0.8-0.5c0.7-1.3,1-2.5,1.1-3.4c0.2-1.8-0.4-3-1.4-3.6c-0.8-0.5-2-0.6-3.5-0.3
			C1033.8,523.5,1033.8,523.5,1033.7,523.6L1033.7,523.6z M1037.6,531.1c-0.1,0.1-0.2,0.2-0.3,0.3c-1,0.8-2.2,1.4-3.1,1.8
			c-1,0.3-1.7,0.4-2.5,0c-0.8-0.4-1.6-1.1-2.3-2.2c-0.7-1.1-1.2-2.4-1.2-3.6c0-0.9,0.2-1.6,0.8-2.3c-1.5,0.7-3.4,1.7-5.7,3.2
			c-4.4,2.8-10.5,7.4-13.7,9.5c-3.2,2.1-3.4,1.7-2.2,0.1c1.3-1.5,4-4.2,8.3-7.5c4.3-3.2,10.1-6.9,14.3-9.8c3.3-2.2,5.5-3.9,6.8-5.4
			c-1.3,0.8-3.2,1.5-4.6,1.6c-1.5,0-2.7-0.8-3.4-1.8c-0.8-1-1.2-2.2-1.5-3.1c-0.3-0.9-0.3-1.6,0.5-2.6l0,0c-2.4,1.1-5,2.5-7.6,3.7
			c-5.3,2.5-10.5,4.5-13.2,5.4c-2.7,1-2.8,0.9-0.1-0.7c2.7-1.6,8.2-4.6,14-7.3c5.8-2.7,11.7-5.1,16.1-7.3c3.7-1.8,6.2-3.5,7.8-4.5
			c0,0.6-0.1,1.3-0.1,1.8c0,0.2,0,0.4,0,0.6c-0.7,0.7-1.5,1.4-2.2,1.9c-1.6,1.2-2.7,1.4-2.5,2c0.2,0.6,1.8,1.6,2.8,2.8
			c1.1,1.1,1.6,2.4,0.6,4.4c-1,2-3.6,4.7-5.6,6.4c-1.9,1.6-3.2,2.2-3.2,2.4c0,0.2,1.2,0.1,2.3,0.4c1.1,0.3,1.9,1,2.6,2
			c0.6,1,1,2.4,1.1,3.9c0,1.5-0.3,3.3-1.7,5.4c-1.4,2.2-3.8,4.8-6.8,6.9c-3,2.2-6.6,3.9-8.6,4.8c-2.1,0.9-2.6,0.8,0-1.1
			c2.6-1.9,8.2-5.5,11.5-8.6C1035.9,533.5,1036.9,532.2,1037.6,531.1L1037.6,531.1z M1032.2,507.5c-1,0.4-2.8,1.1-3.5,2.2
			c-0.7,1.1-0.4,2.6,0.1,3.7c0.6,1.1,1.4,1.9,2.2,2.2c0.8,0.4,1.6,0.4,3-0.1c1.2-0.4,3-1.3,3.9-1.6c0.9-1.6,0.7-2.9,0.3-4.4
			c-0.5-1.6-1.2-3.2-4.3-2.6c-0.2,0-0.4,0.1-0.6,0.1C1032.9,507.2,1032.6,507.3,1032.2,507.5L1032.2,507.5z M1032.8,482.6
			L1032.8,482.6c-0.9-0.1-1.9-0.1-3.1,0c-0.8,0.5-1.5,1.2-1.8,1.8c-0.4,0.9-0.1,1.7,0.3,2.5c0.4,0.8,0.9,1.5,1.2,2
			c0.4,0.5,0.7,0.9,1.3,0.9c0,0,0.1,0,0.1,0l-0.5,0.2c-5.5,2.3-13.5,5.7-19,8.3c-5.5,2.6-8.4,4.4-10.3,6.3c-1.9,1.8-2.9,3.6-2.9,4.2
			c0,0.5,1-0.2,3.4-1.9c2.5-1.7,6.4-4.3,13.2-7.8c5.2-2.7,12-5.8,17.3-8.2c-0.1,0.1-0.1,0.2-0.2,0.3c-0.7,1-0.6,1.8-0.5,3
			c0.1,1.2,0.4,2.7,0.9,3.8c0.5,1.1,1.4,1.8,2.9,2.2c1.5,0.4,3.7,0.4,5.7-0.3c1.4-0.5,2.8-1.4,3.7-2.1l0.1-0.8
			c-0.2,0.1-0.5,0.2-0.8,0.3c-1.5,0.5-3.7,1.2-5.3,1.4c-1.6,0.3-2.7,0.2-3.7-0.6c-1-0.8-1.9-2.3-2.3-3.5c-0.3-1.2,0-2.2,1.3-3.3
			c1.3-1.1,3.5-2.3,4.9-3.1c0.3-0.2,0.5-0.3,0.7-0.4c2.6-1.1,3.1-1.2,3.2-1.4c0.1-0.2-0.4-0.6-2.1-0.2c-1.3,0.3-3.1,0.9-6.2,2.2
			c-0.4,0.1-1,0.3-1.4,0.4c-1,0.2-1.7,0.2-2.4-0.4c-0.7-0.6-1.5-1.6-1.8-2.6c-0.3-0.9-0.1-1.7,0.8-2.2
			C1030.4,483.1,1031.9,482.9,1032.8,482.6z"/>
		<path fill-rule="evenodd" clip-rule="evenodd" fill="#333333" d="M1132.6,370c3.4,4.1,9,12.1,11.7,16.2c2.8,4,2.8,4,3.9-0.5
			c1.1-4.5,3.4-13.6,4.5-18.3c1-4.7,0.8-4.9,0.4-6.6c-0.4-1.7-1-4.8-1.4-6.1c-0.4-1.4-0.6-1-3.2,0.6c-2.6,1.7-7.5,4.7-11.6,6.6
			c-4.1,2-7.3,2.9-8.2,3.4C1127.8,365.8,1129.1,365.9,1132.6,370z"/>
		<path fill-rule="evenodd" clip-rule="evenodd" fill="#65993D" d="M1144.1,603.1c1.8,0.5,4.5,1,7.8-0.4c3.3-1.5,7.3-4.9,8.2-7.8
			c0.9-2.9-1.2-5.4-3.8-6.7c-2.6-1.3-5.6-1.4-9.1,0.2c-3.5,1.6-7.4,5-10.1,5.5c-2.7,0.5-4.2-1.9-6.2-2.8c-2-0.9-4.6-0.3-6.2,0.5
			c-1.6,0.8-2.1,2-2.8,1.6c-0.6-0.3-1.3-2.1-2.6-2.3c-1.3-0.2-3.2,1.3-5,0.7c-1.8-0.6-3.5-3.1-5.2-4.8c-1.7-1.7-3.5-2.5-4.8-1.5
			c-1.3,1-2.1,3.8-3.1,4.7c-1.1,0.8-2.4-0.3-4.4-2.4c-2-2.1-4.7-5.1-7-6.1c-2.3-1-4.2,0.2-4.9,2.1c-0.7,2-0.3,4.8-0.9,5.6
			c-0.6,0.8-2.3-0.4-4.2-1.7c-1.9-1.2-4-2.5-6.5-2.4c-2.5,0.1-5.3,1.4-7.1,1.2c-1.8-0.2-2.6-1.9-2.9-3.6c-0.3-1.8-0.1-3.7,1.2-5.3
			c1.3-1.6,3.6-2.8,3.9-5.5c0.3-2.7-1.5-6.8-4.2-7.9c-2.7-1.1-6.3,1-8,2.7c-1.7,1.7-1.6,3.2-1.7,2.9c-0.1-0.3-0.3-2.3-2.4-3.1
			c-2.1-0.8-6.2-0.3-8.5,0.9c-2.4,1.2-3,3.3-2.2,4.8c0.8,1.6,3,2.7,4.1,3.8c1.1,1.1,1,2.1,0.9,3.5c-0.1,1.4-0.1,3.2-1,4.2
			c-0.9,1-2.7,1.2-4.5,2c-1.9,0.7-3.8,2-3.9,3.8c-0.2,1.8,1.4,4.2,4,4.7c2.6,0.6,6.3-0.7,8.3-0.8c2-0.1,2.2,0.9,2.5,2
			c0.3,1.1,0.6,2.2,1.2,2.9c0.6,0.7,1.3,1.1,2.2,1.6c0.8,0.5,1.7,1.2,3.2,1.5c1.5,0.3,3.5,0.2,17.2,0.1c13.8-0.1,39.2-0.1,52.5,0.2
			C1141.3,602,1142.3,602.6,1144.1,603.1z"/>
		<path fill-rule="evenodd" clip-rule="evenodd" fill="#4D7C2E" d="M1060.9,571.5c-1.6-0.6-3.7,0.8-4.8,1.8c-1.1,1-1.1,1.5-1.2,0.9
			c-0.1-0.7-0.3-2.6-1.2-3c-0.9-0.4-2.7,0.5-3.2,2.4c-0.5,1.9,0.2,4.7,0.8,6.3c0.6,1.6,1.2,2.1,0.9,3.2c-0.3,1.2-1.3,3.1-2.7,5
			c-1.3,2-2.9,4-1.4,4.9c1.5,0.9,6.2,0.5,10.4,1.1c4.3,0.6,8.1,2,12.3,3c4.1,1,8.5,1.7,11.2,1.4c2.7-0.2,3.7-1.3,2.2-2.5
			c-1.5-1.2-5.4-2.4-9.3-3.7c-3.9-1.3-7.8-2.6-10.3-4.7c-2.5-2-3.7-4.7-3.5-6.5c0.2-1.8,1.7-2.7,2-4.5
			C1063.5,574.9,1062.5,572.2,1060.9,571.5L1060.9,571.5z M1144.4,590c-2.7,1.6-5.3,3.6-7.3,3.9c-0.1,0-0.2,0-0.2,0
			c-0.3,0.1-0.6,0.3-1,0.4c-2.9,1.3-7,3.2-7.2,4.5s3.6,2.2,8.4,2.6c4.8,0.4,10.6,0.3,11.7-0.4c1.1-0.8-2.4-2.2-4.5-2.9
			c-2.1-0.7-2.7-0.6-2-2.1C1142.9,595,1144.4,592.7,1144.4,590L1144.4,590z M1039.8,484.9c-0.8-1.9-1.3-4.6-0.1-6.5
			c1.2-1.9,4.1-3,6.6-2.9c2.5,0.1,4.5,1.6,5.5,3.6c1,2,1,4.6,0.5,6.6c-0.5,2-1.5,3.3-2.8,4.1c-1.4,0.7-3.2,0.9-4.3,0.6
			c-1.2-0.3-1.7-0.9-2.5-1.8C1041.8,487.8,1040.7,486.7,1039.8,484.9L1039.8,484.9z M1103.7,586.2c-0.9,1.3-1.6,3.2-2.4,3.9
			c-1.1,0.8-2.4-0.3-4.4-2.4c-1.1-1.1-2.3-2.5-3.6-3.7c0,0.1,0,0.3,0,0.4c0.1,2.5-0.2,5.1,1.4,7.5c1.6,2.4,5,4.5,7.4,4.8
			c2.4,0.3,3.7-1.2,3.2-4.5C1105,590.5,1104.2,588.3,1103.7,586.2z"/>
		<path fill-rule="evenodd" clip-rule="evenodd" fill="#D3DEDD" d="M1175.3,423.1c1.6,32.2,5.2,95.1,7,128.1
			c1.8,33,1.8,36.3,4.1,37.9c2.3,1.6,7,1.6,23.9,1.4c16.9-0.2,46-0.5,60.6-1c14.6-0.4,14.8-1,13.3-27.4
			c-1.5-26.4-4.8-78.7-6.7-105.8c-2-27.1-2.7-29.1-19.7-36.4c-17-7.3-50.3-19.8-67.1-25.3C1174,389.3,1173.7,390.9,1175.3,423.1z"/>
		<path fill-rule="evenodd" clip-rule="evenodd" fill="#E8BBB8" d="M1183.1,565.1c0.2,3.2,0.3,6,0.5,8.4c26.6-1.3,63.5-3.3,86.7-4.7
			c5.5-0.3,10.3-0.6,14.3-0.9c-0.1-1.8-0.2-3.7-0.3-5.7l-0.2-3.8c-27.8,1.7-71.1,4.6-97,6.5C1185.7,565,1184.4,565,1183.1,565.1z"/>
		<path opacity="0.42" fill-rule="evenodd" clip-rule="evenodd" fill="#FFFFFF" d="M1061.8,606.4c16,0,47,0,63,0s16.8,0,17,0.1
			c0.3,0.1,0,0.4-0.5,0.8c-0.5,0.4-1.4,1-17.2,1.2c-15.8,0.3-46.6,0.3-62.4-0.2c-15.9-0.5-16.8-1.4-16.8-1.8
			C1044.9,606.3,1045.8,606.4,1061.8,606.4z"/>
		<path opacity="0.42" fill-rule="evenodd" clip-rule="evenodd" fill="#FFFFFF" d="M1122.6,622.2c-2.7,1.1-6.8,2.7-10.7,3.8
			c-3.9,1.1-7.7,1.7-12,2c-4.3,0.3-9.3,0.2-10.8,0.5c-1.5,0.4,0.4,1.2,4.7,1.8c4.2,0.6,10.8,1.1,16.3,0.6c5.4-0.5,9.7-1.8,12.5-3.9
			c2.8-2.1,4.1-4.8,4.1-5.8C1126.6,620.4,1125.3,621.1,1122.6,622.2z"/>
		<path fill-rule="evenodd" clip-rule="evenodd" fill="#CCCCCC" d="M1140.7,335.5c-4.6,1.5-12.6,4.6-27.3,8.7
			c-14.8,4.2-36.3,9.4-48.7,12.5c-12.4,3.1-15.7,4.1-16.4,4.8c-0.7,0.8,1.1,1.3,4,1.5c2.9,0.1,6.9-0.1,22-4.1
			c15-4,41.1-11.6,55.2-15.8c14.1-4.2,16.2-4.8,17.3-5.7c1.1-0.9,1.2-2.1,0.6-2.7C1146.7,334.2,1145.4,334.1,1140.7,335.5z"/>
		<path fill-rule="evenodd" clip-rule="evenodd" fill="#CCCCCC" d="M1046.8,274.5c16.3-3.8,47.6-11.5,63.3-15.4
			c15.7-3.9,15.7-3.9,15.8-3.2c0.1,0.6,0.4,1.9-5,4c-5.3,2-16.2,4.9-33.1,8.9c-16.9,4.1-39.9,9.4-51.1,11.7
			c-11.2,2.3-10.7,1.7-10.2,0.8c0.5-0.9,1.1-2.1,2-2.6C1029.3,278.2,1030.5,278.3,1046.8,274.5z"/>
		<path fill-rule="evenodd" clip-rule="evenodd" fill="#CCCCCC" d="M1045.9,298c2.5,12,8.7,34.8,12.5,45.7c3.8,10.9,5.2,10,5.5,8.6
			c0.3-1.4-0.5-3.3-3.6-14.4c-3-11.2-8.3-31.6-11.1-42.2c-2.8-10.6-3.2-11.3-3.9-11.1C1044.5,284.9,1043.4,286.1,1045.9,298z"/>
		<path fill-rule="evenodd" clip-rule="evenodd" fill="#CCCCCC" d="M1060.9,295.8c2.5,12,8.7,34.8,12.5,45.7
			c3.8,10.9,5.2,10,5.5,8.6c0.3-1.4-0.5-3.3-3.6-14.4c-3-11.2-8.3-31.6-11.1-42.2c-2.8-10.6-3.2-11.3-3.9-11.1
			C1059.6,282.7,1058.4,283.8,1060.9,295.8z"/>
		<path fill-rule="evenodd" clip-rule="evenodd" fill="#CCCCCC" d="M1078.5,290.6c2.5,12,8.7,34.8,12.5,45.7
			c3.8,10.9,5.2,10,5.5,8.6c0.3-1.4-0.5-3.3-3.6-14.4c-3-11.2-8.3-31.6-11.1-42.2c-2.8-10.6-3.2-11.3-3.9-11
			C1077.1,277.4,1076,278.6,1078.5,290.6z"/>
		<path fill-rule="evenodd" clip-rule="evenodd" fill="#CCCCCC" d="M1094.3,286.7c2.5,12,8.7,34.8,12.5,45.7
			c3.8,10.9,5.2,10,5.5,8.6c0.3-1.4-0.5-3.3-3.6-14.4c-3-11.2-8.3-31.6-11.1-42.2c-2.8-10.6-3.2-11.3-3.9-11
			C1092.9,273.6,1091.8,274.7,1094.3,286.7z"/>
		<path fill-rule="evenodd" clip-rule="evenodd" fill="#CCCCCC" d="M1112.9,282.5c2.5,12,8.7,34.8,12.5,45.7
			c3.8,10.9,5.2,10,5.5,8.6c0.3-1.4-0.5-3.3-3.6-14.4c-3-11.2-8.3-31.6-11.1-42.2c-2.8-10.6-3.2-11.3-3.9-11.1
			C1111.5,269.3,1110.3,270.5,1112.9,282.5z"/>
		<path fill-rule="evenodd" clip-rule="evenodd" fill="#322626" d="M962.2,729.7c-1.4-1.8-3.3-3.8-3.6-5.2c-0.2-1.4,1.2-2.1,8.2-4.6
			c7-2.5,19.6-6.9,26.7-10.5c7.1-3.6,8.6-6.6,8.8-9.1c0.2-2.5-0.8-4.5-6.4-6.1c-5.5-1.6-15.5-2.8-28.7-3.8
			c-13.2-1-29.5-1.8-49.4-2.4c-19.8-0.6-43.1-0.9-63.3,0.1c-20.1,1.1-37.1,3.5-47.1,5.5c-10,2-13.1,3.5-14.8,5.2
			c-1.8,1.6-2.2,3.4-1,6.2c1.2,2.8,4.2,6.7,11.9,9.9c7.8,3.2,20.4,5.8,26.3,7.5c5.9,1.6,5.2,2.4,4.1,4.2c-1.1,1.8-2.6,4.8-2,6.5
			c0.6,1.7,3.5,2.2,14.6,3c11.1,0.8,30.5,2,49.9,2c19.4,0,38.7-1.2,50.2-2c11.5-0.8,15.2-1.3,16.6-2.3
			C964.6,732.8,963.7,731.4,962.2,729.7z"/>
		<path fill-rule="evenodd" clip-rule="evenodd" fill="#D3D3B1" d="M998.8,694.7c-0.6-0.2-1.2-0.4-1.8-0.6
			c-5.5-1.6-15.5-2.8-28.7-3.8c-13.2-1-29.5-1.8-49.4-2.4c-19.8-0.6-43.1-0.9-63.3,0.1c-20.1,1.1-37.1,3.5-47.1,5.5
			c-3.8,0.8-6.6,1.5-8.7,2.1c0,0.2,0,0.3-0.2,0.7c-0.5,0.8-2.3,2.6-0.8,5.2c1.5,2.6,6.4,6,23.4,8c17,2,46.3,2.5,72.7,2.1
			c26.4-0.4,50.1-1.8,66.7-3.8c16.6-2,26.3-4.5,31.8-6.6C998.8,699.3,1000.1,697.7,998.8,694.7z"/>
		<path fill-rule="evenodd" clip-rule="evenodd" fill="#65993D" d="M850.8,706.6c-2.4-0.7-6.4-2.2-8.6-4.6c-2.2-2.4-2.8-5.8-1.5-7.6
			c1.3-1.8,4.4-2.1,6.3-1.7c2,0.4,2.8,1.5,3.3,0.3c0.5-1.3,0.6-4.9,1.9-7.5c1.4-2.6,4-4.1,7.1-4c3.1,0,6.8,1.6,9.1,0.9
			c2.3-0.7,3.2-3.7,6.1-6.5c2.9-2.8,7.6-5.3,12.4-5c4.8,0.3,9.7,3.5,12.4,4.1c2.7,0.6,3.3-1.4,7.7-3.2c4.4-1.8,12.8-3.5,18.3-2.2
			c5.6,1.3,8.4,5.5,10.5,7c2.2,1.5,3.6,0.3,6.8,0c3.1-0.2,7.9,0.5,11.4,2.2c3.5,1.7,5.6,4.3,5.8,6.3c0.2,2-1.6,3.2-0.8,5.2
			s4.1,4.6,4.4,7.1c0.3,2.5-2.5,4.8-6.1,6.1c-3.6,1.3-7.9,1.6-10.6,1.1c-2.8-0.5-4-1.7-5.4-1.2c-1.4,0.5-3,2.8-8.8,4.1
			c-5.8,1.3-15.8,1.7-23.2,0.7c-7.3-0.9-12-3.2-16.1-3.2c-4.1,0-7.7,2.2-12.8,3.7c-5.1,1.5-11.7,2.2-16.2,1.8
			c-4.5-0.4-6.8-2-8.5-2.7C854.2,707.2,853.2,707.3,850.8,706.6z"/>
		<path fill-rule="evenodd" clip-rule="evenodd" fill="#4D7C2E" d="M851.7,686.4c0.1-0.3,0.3-0.7,0.4-1c1.4-2.6,4-4.1,7.1-4
			c3.1,0,6.8,1.6,9.1,0.9c2.3-0.7,3.2-3.7,6.1-6.5c2.9-2.8,7.6-5.3,12.4-5c2.2,0.1,4.4,0.9,6.3,1.7c-0.5,2.8-1.9,5.4-4.2,7.3
			c-3.5,3.1-9.1,4.5-12.9,4.6c-3.8,0.1-5.8-1.1-7.4-0.2c-1.6,0.9-2.9,3.9-5.4,5.4c-2.4,1.5-6,1.7-8.5,0.1
			C853.5,689.1,852.5,687.8,851.7,686.4L851.7,686.4z M946.8,704.7c3.4,0.2,6.7-0.5,8.4-1.7c1.9-1.4,1.6-3.4,0.9-5.7
			c-0.7-2.3-1.8-5.1-4.8-6.5c-3-1.5-8-1.8-11.1-0.4c-3.1,1.4-4.3,4.3-5.5,4.8c-1.2,0.5-2.5-1.6-5.1-3.2c-2.6-1.6-6.7-2.8-10.7-1.8
			c-4,1-8,4.2-10.7,5.3c-2.7,1.1-4,0-7.7-1c-3.7-1-9.8-2-14.6-1.5c-4.8,0.5-8.3,2.4-10.3,4.5c-2,2.1-2.5,4.4-2.2,6.3
			c0.4,1.9,1.7,3.6,4.6,4c1.7,0.3,4.1,0.1,6.6-0.3c2.9-1.1,5.5-2.2,8.3-2.3c3.7-1.3,7.2-2.6,10.1-2.7c3.6-0.1,6.2,1.8,10.1,2.9
			c4,1.1,9.3,1.3,13,0.3c3.7-1,5.9-3.2,8.8-3.4c1.8-0.1,3.9,0.6,6.1,1.2c0,0,0.1,0,0.1-0.1C942.8,703,944,704.2,946.8,704.7
			L946.8,704.7z"/>
		<path fill-rule="evenodd" clip-rule="evenodd" fill="#322626" d="M1217.4,762.2c-1.9-2.3-4.3-5-4.7-6.8c-0.3-1.8,1.5-2.7,10.6-6
			c9.1-3.3,25.5-8.9,34.6-13.7c9.2-4.7,11.2-8.6,11.5-11.8c0.3-3.2-1.1-5.8-8.3-7.9c-7.2-2.1-20.2-3.6-37.3-4.9
			c-17.1-1.3-38.4-2.4-64.1-3.1c-25.8-0.8-56-1.2-82.2,0.2c-26.1,1.4-48.2,4.6-61.1,7.2c-13,2.6-17,4.6-19.3,6.7
			c-2.3,2.1-2.9,4.4-1.3,8.1c1.6,3.7,5.4,8.7,15.5,12.9c10.1,4.2,26.4,7.6,34.2,9.7c7.7,2.1,6.8,3.1,5.4,5.4
			c-1.5,2.4-3.4,6.2-2.6,8.4c0.8,2.2,4.5,2.8,19,3.9c14.4,1.1,39.7,2.6,64.8,2.6c25.1,0,50.2-1.5,65.2-2.6c14.9-1.1,19.8-1.7,21.5-3
			C1220.5,766.3,1219.2,764.4,1217.4,762.2z"/>
		<path fill-rule="evenodd" clip-rule="evenodd" fill="#D3D3B1" d="M1264.9,716.8c-0.7-0.3-1.5-0.5-2.4-0.8
			c-7.2-2.1-20.2-3.6-37.3-4.9c-17.1-1.3-38.4-2.4-64.1-3.1c-25.8-0.8-56-1.2-82.2,0.2c-26.1,1.4-48.2,4.6-61.1,7.2
			c-5,1-8.6,1.9-11.3,2.8c-0.1,0.3,0,0.4-0.3,0.9c-0.7,1-3,3.4-1,6.8c2,3.4,8.2,7.8,30.4,10.4c22.1,2.6,60.1,3.3,94.4,2.7
			c34.3-0.6,65-2.4,86.7-5c21.6-2.6,34.1-5.9,41.2-8.6C1264.8,722.7,1266.5,720.7,1264.9,716.8z"/>
		<path fill-rule="evenodd" clip-rule="evenodd" fill="#65993D" d="M1072.7,732.2c-3.2-0.9-8.3-2.9-11.2-6c-2.9-3.2-3.6-7.5-2-9.9
			c1.6-2.4,5.6-2.7,8.2-2.2c2.6,0.5,3.6,2,4.3,0.4c0.6-1.6,0.7-6.4,2.5-9.7c1.8-3.3,5.2-5.3,9.2-5.2c4.1,0.1,8.8,2.1,11.8,1.2
			c3-0.9,4.2-4.8,7.9-8.4c3.7-3.6,9.9-6.9,16.2-6.4c6.3,0.4,12.6,4.6,16.1,5.3c3.5,0.8,4.3-1.8,10-4.1c5.8-2.4,16.6-4.6,23.8-2.9
			c7.2,1.6,10.9,7.1,13.7,9.1c2.8,1.9,4.7,0.4,8.8,0.1c4.1-0.3,10.3,0.7,14.8,2.9c4.5,2.2,7.3,5.6,7.5,8.1c0.3,2.5-2,4.2-1,6.8
			c1,2.6,5.4,6,5.7,9.2c0.4,3.2-3.3,6.3-7.9,8c-4.6,1.7-10.2,2.1-13.8,1.5c-3.6-0.6-5.2-2.2-7-1.5c-1.8,0.7-3.9,3.6-11.4,5.3
			c-7.5,1.7-20.5,2.2-30.1,1c-9.5-1.2-15.6-4.1-21-4.1c-5.3,0-10,2.9-16.6,4.8c-6.6,1.9-15.3,2.9-21.1,2.3c-5.8-0.5-8.9-2.6-11-3.5
			C1077,733,1075.8,733.1,1072.7,732.2z"/>
		<path fill-rule="evenodd" clip-rule="evenodd" fill="#4D7C2E" d="M1073.8,706c0.2-0.4,0.4-0.9,0.6-1.3c1.8-3.3,5.2-5.3,9.2-5.2
			c4.1,0.1,8.8,2.1,11.8,1.2c3-0.9,4.2-4.8,7.9-8.4c3.7-3.6,9.9-6.9,16.2-6.4c2.8,0.2,5.7,1.1,8.2,2.2c-0.7,3.7-2.5,7-5.4,9.5
			c-4.6,4-11.8,5.8-16.7,6c-4.9,0.2-7.5-1.4-9.7-0.2c-2.1,1.2-3.8,5-7,7c-3.2,2-7.8,2.2-11.1,0.1
			C1076.2,709.5,1074.9,707.8,1073.8,706L1073.8,706z M1197.3,729.7c4.4,0.3,8.8-0.7,10.9-2.3c2.4-1.8,2.1-4.4,1.2-7.4
			c-0.9-3-2.3-6.6-6.2-8.5c-3.9-1.9-10.4-2.3-14.4-0.5c-4,1.8-5.5,5.6-7.1,6.2c-1.6,0.6-3.2-2-6.6-4.1c-3.4-2.1-8.6-3.6-13.9-2.3
			c-5.2,1.3-10.4,5.5-13.9,6.9c-3.5,1.4-5.2,0-10-1.3c-4.8-1.3-12.8-2.6-19-1.9c-6.2,0.6-10.7,3.1-13.3,5.8
			c-2.6,2.7-3.3,5.7-2.8,8.2c0.5,2.5,2.2,4.6,6,5.2c2.3,0.3,5.3,0.2,8.6-0.4c3.8-1.5,7.1-2.8,10.7-2.9c4.8-1.6,9.4-3.4,13.1-3.5
			c4.7-0.1,8,2.4,13.2,3.8c5.1,1.4,12.1,1.7,16.9,0.4c4.9-1.3,7.7-4.2,11.4-4.4c2.3-0.1,5.1,0.7,8,1.6c0.1,0,0.1,0,0.2-0.1
			C1192.1,727.5,1193.7,729.1,1197.3,729.7L1197.3,729.7z"/>
		<path fill-rule="evenodd" clip-rule="evenodd" fill="#322626" d="M793.8,702c-1.4-1.8-3.3-3.8-3.6-5.2c-0.2-1.4,1.2-2.1,8.2-4.6
			c7-2.5,19.6-6.9,26.7-10.5c7.1-3.6,8.6-6.6,8.8-9.1c0.2-2.5-0.8-4.5-6.4-6.1c-5.5-1.6-15.5-2.8-28.7-3.8
			c-13.2-1-29.5-1.8-49.4-2.4c-19.8-0.6-43.1-0.9-63.3,0.1C666,661.5,649,664,639,666c-10,2-13.1,3.5-14.8,5.2
			c-1.8,1.6-2.2,3.4-1,6.2c1.2,2.8,4.2,6.7,11.9,9.9c7.8,3.2,20.4,5.8,26.3,7.5c5.9,1.6,5.2,2.4,4.1,4.2c-1.1,1.8-2.6,4.8-2,6.5
			c0.6,1.7,3.5,2.2,14.6,3c11.1,0.8,30.5,2,49.9,2c19.4,0,38.7-1.2,50.2-2c11.5-0.8,15.2-1.3,16.6-2.3
			C796.2,705.2,795.2,703.8,793.8,702z"/>
		<path fill-rule="evenodd" clip-rule="evenodd" fill="#D3D3B1" d="M830.4,667.1c-0.6-0.2-1.2-0.4-1.8-0.6
			c-5.5-1.6-15.5-2.8-28.7-3.8c-13.2-1-29.5-1.8-49.4-2.4c-19.8-0.6-43.1-0.9-63.3,0.1c-20.1,1.1-37.1,3.5-47.1,5.5
			c-3.8,0.8-6.6,1.5-8.7,2.1c0,0.2,0,0.3-0.2,0.7c-0.5,0.8-2.3,2.6-0.8,5.2c1.5,2.6,6.4,6,23.4,8c17,2,46.3,2.5,72.7,2.1
			c26.4-0.4,50.1-1.8,66.7-3.8c16.6-2,26.3-4.5,31.8-6.6C830.3,671.7,831.6,670.1,830.4,667.1z"/>
		<path fill-rule="evenodd" clip-rule="evenodd" fill="#65993D" d="M682.4,678.9c-2.4-0.7-6.4-2.2-8.6-4.6c-2.2-2.4-2.8-5.8-1.5-7.6
			c1.3-1.8,4.4-2.1,6.3-1.7c2,0.4,2.8,1.5,3.3,0.3c0.5-1.3,0.6-4.9,1.9-7.5s4-4.1,7.1-4c3.1,0,6.8,1.6,9.1,0.9
			c2.3-0.7,3.2-3.7,6.1-6.5c2.9-2.8,7.6-5.3,12.4-5c4.8,0.3,9.7,3.5,12.4,4.1c2.7,0.6,3.3-1.4,7.7-3.2c4.4-1.8,12.8-3.5,18.3-2.2
			c5.6,1.3,8.4,5.5,10.5,7c2.2,1.5,3.6,0.3,6.8,0c3.1-0.2,7.9,0.5,11.4,2.2c3.5,1.7,5.6,4.3,5.8,6.3c0.2,2-1.6,3.2-0.8,5.2
			c0.8,2,4.1,4.6,4.4,7.1c0.3,2.5-2.5,4.8-6.1,6.1c-3.6,1.3-7.9,1.6-10.6,1.1c-2.8-0.5-4-1.7-5.4-1.2c-1.4,0.5-3,2.8-8.8,4.1
			c-5.8,1.3-15.8,1.7-23.2,0.7c-7.3-0.9-12-3.2-16.1-3.2c-4.1,0-7.7,2.2-12.8,3.7c-5.1,1.5-11.7,2.2-16.2,1.8
			c-4.5-0.4-6.8-2-8.5-2.7C685.7,679.6,684.8,679.6,682.4,678.9z"/>
		<path fill-rule="evenodd" clip-rule="evenodd" fill="#4D7C2E" d="M683.3,658.8c0.1-0.3,0.3-0.7,0.4-1c1.4-2.6,4-4.1,7.1-4
			c3.1,0,6.8,1.6,9.1,0.9c2.3-0.7,3.2-3.7,6.1-6.5c2.9-2.8,7.6-5.3,12.4-5c2.2,0.1,4.4,0.9,6.3,1.7c-0.5,2.8-1.9,5.4-4.2,7.3
			c-3.5,3.1-9.1,4.5-12.9,4.6c-3.8,0.1-5.8-1.1-7.4-0.2c-1.6,0.9-2.9,3.9-5.4,5.4c-2.4,1.5-6,1.7-8.5,0.1
			C685.1,661.5,684.1,660.2,683.3,658.8L683.3,658.8z M778.3,677c3.4,0.2,6.7-0.5,8.4-1.7c1.9-1.4,1.6-3.4,0.9-5.7
			c-0.7-2.3-1.8-5.1-4.8-6.5c-3-1.5-8-1.8-11.1-0.4c-3.1,1.4-4.3,4.3-5.5,4.8c-1.2,0.5-2.5-1.6-5.1-3.2c-2.6-1.6-6.7-2.8-10.7-1.8
			c-4,1-8,4.2-10.7,5.3c-2.7,1.1-4,0-7.7-1c-3.7-1-9.8-2-14.6-1.5c-4.8,0.5-8.3,2.4-10.3,4.5c-2,2.1-2.5,4.4-2.2,6.3
			c0.4,1.9,1.7,3.6,4.6,4c1.7,0.3,4.1,0.1,6.6-0.3c2.9-1.1,5.5-2.2,8.3-2.3c3.7-1.3,7.2-2.6,10.1-2.7c3.6-0.1,6.2,1.8,10.1,2.9
			c4,1.1,9.3,1.3,13,0.3c3.7-1,5.9-3.2,8.8-3.4c1.8-0.1,3.9,0.6,6.1,1.2c0,0,0.1,0,0.1-0.1C774.3,675.3,775.5,676.6,778.3,677
			L778.3,677z"/>
		<path opacity="0.4" fill-rule="evenodd" clip-rule="evenodd" d="M528.9,745.5c34.8,73.1,294.7,76.6,294.1,76.9h339.1
			c-166.8-28.3-534.9-99-640.3-119.7C521.8,702.6,524.7,736.7,528.9,745.5z"/>
	</g>
</g>
</svg>
