<?xml version="1.0" encoding="utf-8"?>
<!-- Generator: Adobe Illustrator 24.1.3, SVG Export Plug-In . SVG Version: 6.00 Build 0)  -->
<svg version="1.1" id="Layer_1" xmlns="http://www.w3.org/2000/svg" xmlns:xlink="http://www.w3.org/1999/xlink" x="0px" y="0px"
	 width="1080px" height="1080px" viewBox="0 0 1080 1080" enable-background="new 0 0 1080 1080" xml:space="preserve">
<g>
	<defs>
		<rect id="SVGID_1_" width="1080" height="1080"/>
	</defs>
	<clipPath id="SVGID_2_">
		<use xlink:href="#SVGID_1_"  overflow="visible"/>
	</clipPath>
	<g clip-path="url(#SVGID_2_)">
		<g>
			<defs>
				<rect id="SVGID_3_" x="-233.1" width="1920" height="1080"/>
			</defs>
			<clipPath id="SVGID_4_">
				<use xlink:href="#SVGID_3_"  overflow="visible"/>
			</clipPath>
			<g clip-path="url(#SVGID_4_)">
				<linearGradient id="SVGID_5_" gradientUnits="userSpaceOnUse" x1="-278.9622" y1="-233.1572" x2="1275.1183" y2="955.2573">
					<stop  offset="0" style="stop-color:#03E6C8"/>
					<stop  offset="0.1248" style="stop-color:#05C6CD"/>
					<stop  offset="0.3276" style="stop-color:#0899D4"/>
					<stop  offset="0.5223" style="stop-color:#0A75D9"/>
					<stop  offset="0.7044" style="stop-color:#0C5CDD"/>
					<stop  offset="0.8688" style="stop-color:#0D4CDF"/>
					<stop  offset="1" style="stop-color:#0D47E0"/>
				</linearGradient>
				<rect x="-233.1" y="-4" fill="url(#SVGID_5_)" width="1920" height="1080"/>
				<linearGradient id="SVGID_6_" gradientUnits="userSpaceOnUse" x1="-81.9437" y1="537.7495" x2="410.0562" y2="845.7495">
					<stop  offset="0.1329" style="stop-color:#9EFFF3;stop-opacity:0.8"/>
					<stop  offset="0.2142" style="stop-color:#9AFAF3;stop-opacity:0.7078"/>
					<stop  offset="0.3086" style="stop-color:#8FECF4;stop-opacity:0.6007"/>
					<stop  offset="0.4095" style="stop-color:#7BD5F5;stop-opacity:0.4863"/>
					<stop  offset="0.515" style="stop-color:#61B4F7;stop-opacity:0.3666"/>
					<stop  offset="0.6241" style="stop-color:#3F8AF9;stop-opacity:0.2428"/>
					<stop  offset="0.7347" style="stop-color:#1558FC;stop-opacity:0.1173"/>
					<stop  offset="0.75" style="stop-color:#0F50FC;stop-opacity:0.1"/>
				</linearGradient>
				<path fill="url(#SVGID_6_)" d="M1522.6,1076H-233.1V318.6c9.4-9.7,19.9-18.9,31.6-27.5c72.7-53.3,149.1-102,242.3-104.3
					c109.3-2.7,223.8,73,238.2,181.3c8,59.8-12.2,127.2,21.9,177c28.9,42.4,88,54.1,138.4,44.4c50.4-9.6,95.7-36.1,142.8-56.4
					c47.1-20.2,100.7-34.4,149.4-18.1c110.9,37.1,125,197.6,222.3,262.5c124.2,82.9,309.6-31.4,435.8,48.5
					c73.1,46.2,96.6,139.4,123.1,221.7C1515.7,1057.1,1518.9,1066.6,1522.6,1076z"/>
				<path opacity="0.3" fill="#3171FF" d="M1686.9,362.2V1076H84.8c7.8-16,14.7-32.4,21-48.5c26.1-66,56.4-139.1,121.1-168.1
					c93.7-42,218.7,28.6,299.8-34.3c35.9-27.9,50.9-74.1,73.3-113.6c60.2-106.3,188.6-169.6,309.6-152.7
					c72.6,10.2,140.8,46.2,214.1,48.5c82.2,2.7,159.8-37.3,227.7-83.8c67.9-46.4,131.5-100.8,207-133.5
					C1582.6,379.6,1637.8,363.8,1686.9,362.2z"/>
				<path fill="#3171FF" d="M1004,1079.8H-235.8V696.3c24.8-7.5,50.3-11.8,73.9-13.1c74-3.9,149.2,21.8,205.2,70.3
					c55,47.6,95.1,117.6,164.3,139.9c56.3,18.2,117.8-0.8,171.5-25.6c53.7-24.8,106.1-56.1,164.8-64
					c91.5-12.3,180.5,34.3,254.9,88.9C873.7,947.6,940.9,1011.6,1004,1079.8z"/>
				<linearGradient id="SVGID_7_" gradientUnits="userSpaceOnUse" x1="825.9955" y1="540.7259" x2="1492.2623" y2="1199.7242">
					<stop  offset="0" style="stop-color:#36F7DE"/>
					<stop  offset="1" style="stop-color:#0F51FF"/>
				</linearGradient>
				<path fill="url(#SVGID_7_)" d="M1686.9,532.6V1080H502.1c26.6-34.4,50.4-71.1,79.9-103c39.5-42.7,94.2-77.6,152.1-72.3
					c62.1,5.7,121.5,56.2,180.4,35.6c45.1-15.8,66.2-65.8,94.7-104.2c55.8-74.8,157.6-111.9,248.4-90.6
					c56,13.2,118.5,45.2,166.1,12.9c30.8-20.9,40.7-60.8,56.8-94.4c29.6-61.7,88-108.8,154.6-124.7
					C1649.9,535.8,1667.9,533.2,1686.9,532.6z"/>
				<radialGradient id="SVGID_8_" cx="1515.8588" cy="625" r="970.1876" gradientUnits="userSpaceOnUse">
					<stop  offset="0.1329" style="stop-color:#1BF7DB;stop-opacity:0.7"/>
					<stop  offset="0.1861" style="stop-color:#1AE6DC;stop-opacity:0.6483"/>
					<stop  offset="0.461" style="stop-color:#1393E3;stop-opacity:0.381"/>
					<stop  offset="0.6554" style="stop-color:#105EE6;stop-opacity:0.192"/>
					<stop  offset="0.75" style="stop-color:#0E4AE8;stop-opacity:0.1"/>
				</radialGradient>
				<path fill="url(#SVGID_8_)" d="M1686.9,700.3V1080h-644.2c23.8-27.9,54.5-50,89.2-62.2c62.5-22,132.8-13.7,194.9-36.7
					c59.4-22,105-70,146-118.3c41-48.3,80.8-99.7,135-132.6C1628.1,718.3,1657.6,705.5,1686.9,700.3z"/>
				<linearGradient id="SVGID_9_" gradientUnits="userSpaceOnUse" x1="158.676" y1="320.6366" x2="-381.2161" y2="-285.2423">
					<stop  offset="0" style="stop-color:#1BF7DB"/>
					<stop  offset="0.1296" style="stop-color:#18D4DE"/>
					<stop  offset="0.4182" style="stop-color:#138AE3"/>
					<stop  offset="0.6252" style="stop-color:#0F5CE7"/>
					<stop  offset="0.7286" style="stop-color:#0E4AE8"/>
					<stop  offset="0.7535" style="stop-color:#0E4AE8"/>
					<stop  offset="1" style="stop-color:#0E4AE8"/>
				</linearGradient>
				<path fill="url(#SVGID_9_)" d="M445.4,0c-37.3,21.9-82.8,35.5-125,44.3C235.7,61.8,137,83.4,99.9,161.5
					C71.5,221.3,91,293,75,357.2c-22.6,90.7-114.8,151-207.5,162.9c-35.2,4.5-69.1,5.8-100.7,3.3V0H445.4z"/>
				<linearGradient id="SVGID_10_" gradientUnits="userSpaceOnUse" x1="1171.4547" y1="259.6508" x2="1786.4226" y2="-259.7882">
					<stop  offset="0.1329" style="stop-color:#1BF7DB;stop-opacity:0.7"/>
					<stop  offset="0.1861" style="stop-color:#1AE6DC;stop-opacity:0.6483"/>
					<stop  offset="0.461" style="stop-color:#1393E3;stop-opacity:0.381"/>
					<stop  offset="0.6554" style="stop-color:#105EE6;stop-opacity:0.192"/>
					<stop  offset="0.75" style="stop-color:#0E4AE8;stop-opacity:0.1"/>
				</linearGradient>
				<path fill="url(#SVGID_10_)" d="M1686.9,0v159.5c-0.8,0.1-1.7,0.2-2.5,0.4c-130.7,20.5-256.8,123.3-393.9,94.8
					c-109.7-22.8-147.8-149.1-195.8-234.5c-3-5.3-7.4-12.2-12.6-20.2H1686.9z"/>
				<g>
					<g opacity="0.43">
						
							<image overflow="visible" width="1130" height="1130" xlink:href="C2DC0AE2BA2BD5EF.png"  transform="matrix(0.24 0 0 0.24 -76.32 745.68)">
						</image>
					</g>
					<linearGradient id="SVGID_11_" gradientUnits="userSpaceOnUse" x1="720.1277" y1="-63.8399" x2="836.1277" y2="152.1601">
						<stop  offset="0" style="stop-color:#51FA08"/>
						<stop  offset="0.1067" style="stop-color:#57EE0F"/>
						<stop  offset="0.3018" style="stop-color:#67CD22"/>
						<stop  offset="0.5633" style="stop-color:#819741"/>
						<stop  offset="0.8781" style="stop-color:#A44E6B"/>
						<stop  offset="1" style="stop-color:#B3307C"/>
					</linearGradient>
					<circle fill="url(#SVGID_11_)" cx="781.6" cy="50.7" r="99.4"/>
				</g>
				<g>
					<g opacity="0.43">
						
							<image overflow="visible" width="926" height="926" xlink:href="C2DC0AE2BA2BD5ED.png"  transform="matrix(0.24 0 0 0.24 1401.36 757.68)">
						</image>
					</g>
					<linearGradient id="SVGID_12_" gradientUnits="userSpaceOnUse" x1="1445.4777" y1="750.1526" x2="1532.9537" y2="913.0393">
						<stop  offset="0" style="stop-color:#51FA08"/>
						<stop  offset="0.1067" style="stop-color:#57EE0F"/>
						<stop  offset="0.3018" style="stop-color:#67CD22"/>
						<stop  offset="0.5633" style="stop-color:#819741"/>
						<stop  offset="0.8781" style="stop-color:#A44E6B"/>
						<stop  offset="1" style="stop-color:#B3307C"/>
					</linearGradient>
					<circle fill="url(#SVGID_12_)" cx="1491.8" cy="836.5" r="75"/>
				</g>
				<g>
					<g opacity="0.43">
						
							<image overflow="visible" width="508" height="507" xlink:href="C2DC0AE2BA2BD5F3.png"  transform="matrix(0.24 0 0 0.24 1514.16 154.56)">
						</image>
					</g>
					<linearGradient id="SVGID_13_" gradientUnits="userSpaceOnUse" x1="1552.9668" y1="176.343" x2="1581.8439" y2="230.1143">
						<stop  offset="0" style="stop-color:#51FA08"/>
						<stop  offset="0.1067" style="stop-color:#57EE0F"/>
						<stop  offset="0.3018" style="stop-color:#67CD22"/>
						<stop  offset="0.5633" style="stop-color:#819741"/>
						<stop  offset="0.8781" style="stop-color:#A44E6B"/>
						<stop  offset="1" style="stop-color:#B3307C"/>
					</linearGradient>
					<circle fill="url(#SVGID_13_)" cx="1568.3" cy="204.8" r="24.7"/>
				</g>
				<g>
					<g opacity="0.43">
						
							<image overflow="visible" width="507" height="507" xlink:href="C2DC0AE2BA2BD5F5.png"  transform="matrix(0.24 0 0 0.24 -176.64 174)">
						</image>
					</g>
					<linearGradient id="SVGID_14_" gradientUnits="userSpaceOnUse" x1="-137.8673" y1="195.7681" x2="-108.9902" y2="249.5394">
						<stop  offset="0" style="stop-color:#51FA08"/>
						<stop  offset="0.1067" style="stop-color:#57EE0F"/>
						<stop  offset="0.3018" style="stop-color:#67CD22"/>
						<stop  offset="0.5633" style="stop-color:#819741"/>
						<stop  offset="0.8781" style="stop-color:#A44E6B"/>
						<stop  offset="1" style="stop-color:#B3307C"/>
					</linearGradient>
					<circle fill="url(#SVGID_14_)" cx="-122.6" cy="224.3" r="24.7"/>
				</g>
				<circle fill="none" stroke="#FFFFFF" stroke-width="17.7556" stroke-miterlimit="10" cx="1303.7" cy="1116.7" r="113.2"/>
				<g>
					
						<circle fill="none" stroke="#FFFFFF" stroke-width="6" stroke-linecap="round" stroke-miterlimit="10" stroke-dasharray="1.9927,15.9415" cx="-167.1" cy="0" r="77.1"/>
				</g>
				<g>
					<g>
						<path fill="#FFFFFF" d="M-84.2,381.5"/>
					</g>
					<g>
						<path fill="#FFFFFF" d="M-45.4,406.1"/>
					</g>
				</g>
				<g>
					<path fill="none" stroke="#FFFFFF" stroke-width="6.6209" stroke-miterlimit="10" d="M0-9.5"/>
				</g>
				<g>
					<path fill="none" stroke="#FFFFFF" stroke-width="6.6209" stroke-miterlimit="10" d="M0-9.5"/>
				</g>
				<path fill="none" stroke="#FFFFFF" stroke-width="2.1475" stroke-miterlimit="10" d="M1627.9,719.1L1627.9,719.1
					c-6.6,0-12-5.4-12-12V309c0-6.6,5.4-12,12-12l0,0c6.6,0,12,5.4,12,12v398.1C1639.9,713.7,1634.5,719.1,1627.9,719.1z"/>
				<path fill="none" stroke="#FFFFFF" stroke-width="2.2086" stroke-miterlimit="10" d="M26.9,1016.1L26.9,1016.1
					c0-7,5.7-12.7,12.7-12.7h396.7c7,0,12.7,5.7,12.7,12.7v0c0,7-5.7,12.7-12.7,12.7H39.6C32.6,1028.8,26.9,1023.2,26.9,1016.1z"/>
				<g>
					<g>
						<circle fill="#FFFFFF" cx="1432.6" cy="653.2" r="5.2"/>
						<circle fill="#FFFFFF" cx="1471.5" cy="653.2" r="5.2"/>
						<circle fill="#FFFFFF" cx="1510.3" cy="653.2" r="5.2"/>
						<circle fill="#FFFFFF" cx="1549.1" cy="653.2" r="5.2"/>
					</g>
					<g>
						<circle fill="#FFFFFF" cx="1432.6" cy="677.7" r="5.2"/>
						<circle fill="#FFFFFF" cx="1471.5" cy="677.7" r="5.2"/>
						<circle fill="#FFFFFF" cx="1510.3" cy="677.7" r="5.2"/>
						<circle fill="#FFFFFF" cx="1549.1" cy="677.7" r="5.2"/>
					</g>
					<g>
						<circle fill="#FFFFFF" cx="1432.6" cy="702.3" r="5.2"/>
						<circle fill="#FFFFFF" cx="1471.5" cy="702.3" r="5.2"/>
						<circle fill="#FFFFFF" cx="1510.3" cy="702.3" r="5.2"/>
						<circle fill="#FFFFFF" cx="1549.1" cy="702.3" r="5.2"/>
					</g>
				</g>
				<g>
					
						<rect x="428.4" y="957.3" transform="matrix(0.7071 -0.7071 0.7071 0.7071 -556.851 587.8607)" fill="#FFFFFF" width="5.6" height="17.5"/>
					
						<rect x="428.4" y="957.3" transform="matrix(0.7071 0.7071 -0.7071 0.7071 809.4334 -21.9272)" fill="#FFFFFF" width="5.6" height="17.5"/>
				</g>
				<g>
					
						<rect x="381.3" y="957.3" transform="matrix(0.7071 -0.7071 0.7071 0.7071 -570.6428 554.5645)" fill="#FFFFFF" width="5.6" height="17.5"/>
					
						<rect x="381.3" y="957.3" transform="matrix(0.7071 0.7071 -0.7071 0.7071 795.6416 11.3691)" fill="#FFFFFF" width="5.6" height="17.5"/>
				</g>
				<g>
					
						<rect x="334.2" y="957.3" transform="matrix(0.7071 -0.7071 0.7071 0.7071 -584.4345 521.2682)" fill="#FFFFFF" width="5.6" height="17.5"/>
					
						<rect x="334.2" y="957.3" transform="matrix(0.7071 0.7071 -0.7071 0.7071 781.8499 44.6653)" fill="#FFFFFF" width="5.6" height="17.5"/>
				</g>
				<g opacity="0.28">
					
						<linearGradient id="SVGID_15_" gradientUnits="userSpaceOnUse" x1="1347.3809" y1="1815.392" x2="1675.8669" y2="1815.392" gradientTransform="matrix(0.8551 0.5185 -0.5185 0.8551 691.872 -1529.7849)">
						<stop  offset="0" style="stop-color:#51FA08"/>
						<stop  offset="0.1067" style="stop-color:#57EE0F"/>
						<stop  offset="0.3018" style="stop-color:#67CD22"/>
						<stop  offset="0.5633" style="stop-color:#819741"/>
						<stop  offset="0.8781" style="stop-color:#A44E6B"/>
						<stop  offset="1" style="stop-color:#B3307C"/>
					</linearGradient>
					<path fill="url(#SVGID_15_)" d="M957.9,946.7c-77.4-47-102.2-148.2-55.3-225.6c47-77.4,148.2-102.2,225.6-55.3
						c77.4,47,102.2,148.2,55.3,225.6C1136.6,968.9,1035.4,993.7,957.9,946.7z M1107.5,700.1c-58.6-35.5-135.1-16.8-170.6,41.8
						c-35.5,58.6-16.8,135.1,41.8,170.6c58.6,35.5,135.1,16.8,170.6-41.8S1166.1,735.6,1107.5,700.1z"/>
				</g>
				<g opacity="0.45">
					
						<linearGradient id="SVGID_16_" gradientUnits="userSpaceOnUse" x1="326.5159" y1="1721.4283" x2="591.2834" y2="1721.4283" gradientTransform="matrix(0.8551 0.5185 -0.5185 0.8551 691.872 -1529.7849)">
						<stop  offset="0" style="stop-color:#51FA08"/>
						<stop  offset="0.1067" style="stop-color:#57EE0F"/>
						<stop  offset="0.3018" style="stop-color:#67CD22"/>
						<stop  offset="0.5633" style="stop-color:#819741"/>
						<stop  offset="0.8781" style="stop-color:#A44E6B"/>
						<stop  offset="1" style="stop-color:#B3307C"/>
					</linearGradient>
					<path fill="url(#SVGID_16_)" d="M123,293.3c-62.4-37.8-82.4-119.4-44.6-181.8s119.4-82.4,181.8-44.6
						c62.4,37.9,82.4,119.4,44.6,181.8S185.4,331.1,123,293.3z M243.6,94.5C196.4,65.9,134.7,81,106.1,128.2s-13.5,108.9,33.7,137.5
						c47.2,28.6,108.9,13.5,137.5-33.7S290.8,123.1,243.6,94.5z"/>
				</g>
			</g>
		</g>
	</g>
</g>
<g>
	<path fill-rule="evenodd" clip-rule="evenodd" fill="#FFFFFF" d="M800.2,567.5V614c7.6,3.9,16.5,6.8,26.8,8.7
		c10.3,1.9,21.2,2.9,32.6,2.9c11.1,0,21.7-1.1,31.8-3.2c10-2.1,18.8-5.6,26.4-10.5c7.6-4.9,13.5-11.3,18-19.2
		c4.4-7.9,6.6-17.7,6.6-29.3c0-8.4-1.3-15.8-3.8-22.2s-6.2-12-10.9-16.9c-4.7-4.9-10.4-9.4-17.1-13.3c-6.6-3.9-14.1-7.6-22.5-11.1
		c-6.1-2.5-11.6-5-16.4-7.3c-4.8-2.4-9-4.8-12.4-7.3c-3.4-2.5-6-5.1-7.9-7.8c-1.8-2.8-2.8-5.9-2.8-9.4c0-3.2,0.8-6.1,2.5-8.6
		s4-4.8,7-6.6c3-1.8,6.7-3.3,11-4.3c4.4-1,9.2-1.5,14.5-1.5c3.9,0,8,0.3,12.3,0.9c4.3,0.6,8.7,1.5,13,2.7c4.4,1.2,8.6,2.7,12.7,4.6
		c4.1,1.8,7.9,4,11.4,6.4v-43.5c-7.1-2.7-14.8-4.7-23.2-6c-8.4-1.3-18-2-28.9-2c-11,0-21.5,1.2-31.4,3.6
		c-9.9,2.4-18.6,6.1-26.1,11.1c-7.5,5-13.4,11.5-17.8,19.3c-4.4,7.8-6.5,17.1-6.5,28c0,13.9,4,25.7,12,35.5
		c8,9.8,20.1,18.1,36.4,24.9c6.4,2.6,12.4,5.2,17.9,7.7c5.5,2.5,10.3,5.1,14.3,7.8c4,2.7,7.2,5.7,9.5,8.9c2.3,3.2,3.5,6.8,3.5,10.9
		c0,3-0.7,5.8-2.2,8.4c-1.5,2.6-3.7,4.8-6.6,6.7c-3,1.9-6.6,3.4-11,4.4c-4.4,1.1-9.6,1.6-15.5,1.6c-10.1,0-20.1-1.8-29.9-5.3
		C817.8,579.9,808.6,574.6,800.2,567.5L800.2,567.5z M722,452.9h59.7v-38.2H615.4v38.2h59.4v169.9H722V452.9z"/>
	<g>
		<path fill="#FFFFFF" d="M419.7,517.9c0-20.9-26.2-40.8-66.4-53.1c9.3-41,5.2-73.5-13-84c-4.2-2.4-9.1-3.6-14.4-3.6v14.4
			c3,0,5.3,0.6,7.3,1.7c8.8,5,12.6,24.1,9.6,48.7c-0.7,6.1-1.9,12.4-3.3,18.9c-12.6-3.1-26.4-5.5-40.9-7
			c-8.7-11.9-17.7-22.7-26.8-32.2c21-19.5,40.7-30.2,54.1-30.2v-14.4l0,0c-17.7,0-40.9,12.6-64.3,34.5
			c-23.4-21.8-46.6-34.3-64.3-34.3v14.4c13.3,0,33.1,10.6,54.1,30c-9,9.5-18,20.2-26.6,32.1c-14.6,1.5-28.3,3.9-41,7.1
			c-1.5-6.4-2.6-12.7-3.3-18.7c-3-24.6,0.7-43.7,9.4-48.8c1.9-1.2,4.4-1.7,7.4-1.7v-14.4l0,0c-5.4,0-10.3,1.2-14.6,3.6
			c-18.1,10.4-22.2,43-12.8,83.8c-40.1,12.4-66.1,32.1-66.1,53c0,20.9,26.2,40.8,66.4,53.1c-9.3,41-5.2,73.5,13,84
			c4.2,2.4,9.1,3.6,14.5,3.6c17.7,0,40.9-12.6,64.3-34.5c23.4,21.8,46.6,34.3,64.3,34.3c5.4,0,10.3-1.2,14.6-3.6
			c18.1-10.4,22.2-43,12.8-83.8C393.6,558.6,419.7,538.8,419.7,517.9z M335.9,474.9c-2.4,8.3-5.3,16.9-8.7,25.4
			c-2.6-5.2-5.4-10.3-8.4-15.5c-3-5.2-6.1-10.2-9.3-15.1C318.6,471.2,327.4,472.9,335.9,474.9z M306.4,543.5
			c-5,8.7-10.2,16.9-15.5,24.6c-9.6,0.8-19.3,1.3-29.1,1.3c-9.7,0-19.4-0.5-29-1.2c-5.3-7.7-10.6-15.8-15.6-24.5
			c-4.9-8.4-9.3-17-13.4-25.6c4-8.6,8.5-17.3,13.3-25.7c5-8.7,10.2-16.9,15.5-24.6c9.6-0.8,19.3-1.3,29.1-1.3c9.7,0,19.4,0.5,29,1.2
			c5.3,7.7,10.6,15.8,15.6,24.5c4.9,8.4,9.3,17,13.4,25.6C315.6,526.5,311.2,535.1,306.4,543.5z M327.2,535.1
			c3.5,8.6,6.4,17.3,8.9,25.6c-8.4,2.1-17.3,3.8-26.5,5.2c3.2-5,6.3-10,9.3-15.3C321.8,545.5,324.5,540.3,327.2,535.1z M261.9,603.9
			c-6-6.2-12-13.1-17.9-20.6c5.8,0.3,11.7,0.5,17.7,0.5c6.1,0,12-0.1,17.9-0.5C273.8,590.8,267.8,597.7,261.9,603.9z M214,565.9
			c-9.1-1.4-18-3-26.4-5.1c2.4-8.3,5.3-16.9,8.7-25.4c2.6,5.2,5.4,10.3,8.4,15.5C207.7,556,210.8,561,214,565.9z M261.5,431.9
			c6,6.2,12,13.1,17.9,20.6c-5.8-0.3-11.7-0.5-17.7-0.5c-6.1,0-12,0.1-17.9,0.5C249.6,445,255.6,438.1,261.5,431.9z M213.9,469.8
			c-3.2,5-6.3,10-9.3,15.3c-3,5.2-5.7,10.3-8.4,15.5c-3.5-8.6-6.4-17.3-8.9-25.6C195.8,472.9,204.7,471.2,213.9,469.8z M155.6,550.5
			c-22.8-9.7-37.5-22.5-37.5-32.6c0-10.1,14.7-22.9,37.5-32.6c5.5-2.4,11.6-4.5,17.8-6.5c3.7,12.6,8.5,25.8,14.5,39.2
			c-5.9,13.4-10.7,26.5-14.3,39C167.3,555,161.2,552.9,155.6,550.5z M190.3,642.5c-8.8-5-12.6-24.1-9.6-48.7
			c0.7-6.1,1.9-12.4,3.3-18.9c12.6,3.1,26.4,5.5,40.9,7c8.7,11.9,17.7,22.7,26.8,32.2c-21,19.5-40.7,30.2-54.1,30.2
			C194.6,644.2,192.2,643.6,190.3,642.5z M343,593.4c3,24.6-0.7,43.7-9.4,48.8c-1.9,1.2-4.4,1.7-7.4,1.7c-13.3,0-33.1-10.6-54.1-30
			c9-9.5,18-20.2,26.6-32.1c14.6-1.5,28.3-3.9,41-7.1C341.1,581.2,342.3,587.4,343,593.4z M367.8,550.5c-5.5,2.4-11.6,4.5-17.8,6.5
			c-3.7-12.6-8.5-25.8-14.5-39.2c5.9-13.4,10.7-26.5,14.3-39c6.4,2,12.4,4.2,18.1,6.6c22.8,9.7,37.5,22.5,37.5,32.6
			C405.3,528,390.6,540.8,367.8,550.5z"/>
		<circle fill="#FFFFFF" cx="261.7" cy="517.9" r="29.4"/>
	</g>
	<g>
		<path fill="#FFFFFF" d="M529.5,565.8h-17.4v-40.2h-37v-17.2h37v-38.3h17.4v38.3h37.1v17.2h-37.1V565.8z"/>
	</g>
</g>
</svg>
