<?xml version="1.0" encoding="utf-8"?>
<!-- Generator: Adobe Illustrator 23.0.2, SVG Export Plug-In . SVG Version: 6.00 Build 0)  -->
<svg version="1.1" id="Layer_1" xmlns="http://www.w3.org/2000/svg" xmlns:xlink="http://www.w3.org/1999/xlink" x="0px" y="0px"
	 viewBox="0 0 175 32" enable-background="new 0 0 175 32" xml:space="preserve">
<rect x="0.6" y="0.5" fill="none" width="96.1" height="12.5"/>
<text transform="matrix(1 0 0 1 0.6343 10.0464)" fill="#696E84" font-family="'ProductSans-Regular'" font-size="13.3331px">Aryan Deora</text>
<rect x="20.6" y="18" fill="none" width="96.1" height="12.5"/>
<text transform="matrix(1 0 0 1 20.6339 27.5459)" fill="#696E84" font-family="'ProductSans-Regular'" font-size="13.3331px">@deora_aryan</text>
<path fill="#696E84" d="M15.1,20.5c0,0.1,0,0.3,0,0.4c0,4.4-3.4,9.6-9.6,9.6c-1.9,0-3.7-0.6-5.2-1.5c0.3,0,0.5,0,0.8,0
	c1.6,0,3-0.5,4.2-1.4c-1.5,0-2.7-1-3.1-2.3c0.2,0,0.4,0.1,0.6,0.1c0.3,0,0.6,0,0.9-0.1C2.2,24.9,1,23.5,1,21.9v0
	c0.4,0.2,1,0.4,1.5,0.4C1.6,21.7,1,20.6,1,19.5c0-0.6,0.2-1.2,0.5-1.7c1.7,2,4.1,3.4,6.9,3.5c-0.1-0.2-0.1-0.5-0.1-0.8
	c0-1.9,1.5-3.4,3.4-3.4c1,0,1.8,0.4,2.5,1.1c0.8-0.1,1.5-0.4,2.1-0.8c-0.3,0.8-0.8,1.4-1.5,1.9c0.7-0.1,1.3-0.3,1.9-0.5
	C16.3,19.4,15.7,20,15.1,20.5L15.1,20.5z"/>
</svg>
